<svg viewBox="0 0 29 24" fill="none" xmlns="http://www.w3.org/2000/svg">
<g clip-path="url(#clip0_739_16893)">
<path d="M28.188 0V12.4452H20.931C21.0296 13.8671 21.4343 16.2641 22.9714 17.9128C24.1786 19.2061 25.8858 19.8358 28.188 19.8358V24C24.7057 24 21.9206 22.9065 19.9074 20.7499C17.4182 18.0821 16.6938 14.4596 16.585 12.4486V0.00338553H28.188V0Z" fill="#212121"/>
<path d="M11.6065 0V12.4452H4.34949C4.44811 13.8671 4.85279 16.2641 6.38988 17.9128C7.59711 19.2061 9.30423 19.8358 11.6065 19.8358V24C8.12421 24 5.33908 22.9065 3.3259 20.7499C0.836631 18.0821 0.112296 14.4596 0.00347519 12.4486V0.00338553H11.6099L11.6065 0Z" fill="#212121"/>
</g>
<defs>
<clipPath id="clip0_739_16893">
<rect width="28.1879" height="24" fill="white" transform="matrix(-1 0 0 1 28.188 0)"/>
</clipPath>
</defs>
</svg>
