<svg viewBox="0 0 26 26" fill="none" xmlns="http://www.w3.org/2000/svg">
<path fill-rule="evenodd" clip-rule="evenodd" d="M5.29289 9.29289C5.68342 8.90237 6.31658 8.90237 6.70711 9.29289L12.5757 15.1615C12.7854 15.3712 12.9007 15.4854 12.9899 15.5611C12.9934 15.5641 12.9968 15.5669 13 15.5696C13.0032 15.5669 13.0066 15.5641 13.0101 15.5611C13.0993 15.4854 13.2146 15.3712 13.4243 15.1615L19.2929 9.29289C19.6834 8.90237 20.3166 8.90237 20.7071 9.29289C21.0976 9.68342 21.0976 10.3166 20.7071 10.7071L14.8385 16.5757L14.8159 16.5983C14.6375 16.7768 14.4637 16.9506 14.3045 17.0858C14.1296 17.2342 13.9078 17.3938 13.618 17.4879C13.2163 17.6184 12.7837 17.6184 12.382 17.4879C12.0922 17.3938 11.8704 17.2342 11.6955 17.0858C11.5363 16.9506 11.3625 16.7768 11.1841 16.5983C11.1766 16.5908 11.169 16.5833 11.1615 16.5757L5.29289 10.7071C4.90237 10.3166 4.90237 9.68342 5.29289 9.29289Z" fill="#3E3E3E"/>
</svg>
