<svg viewBox="0 0 14 14" fill="none" xmlns="http://www.w3.org/2000/svg">
<path fill-rule="evenodd" clip-rule="evenodd" d="M2.46967 5.46967C2.76256 5.17678 3.23744 5.17678 3.53033 5.46967L6.39896 8.3383C6.60572 8.54506 6.72931 8.66782 6.82807 8.75167C6.88835 8.80284 6.91778 8.82026 6.92601 8.82459C6.97421 8.83952 7.0258 8.83952 7.07399 8.82459C7.08222 8.82026 7.11165 8.80284 7.17193 8.75167C7.27069 8.66782 7.39428 8.54506 7.60104 8.3383L10.4697 5.46967C10.7626 5.17678 11.2374 5.17678 11.5303 5.46967C11.8232 5.76256 11.8232 6.23744 11.5303 6.53033L8.6617 9.39896L8.64317 9.41749C8.46111 9.59958 8.2939 9.76681 8.14269 9.89518C7.97967 10.0336 7.78661 10.1703 7.54078 10.2501C7.1893 10.3643 6.8107 10.3643 6.45922 10.2501C6.21339 10.1703 6.02033 10.0336 5.85731 9.89518C5.7061 9.76681 5.53889 9.59958 5.35683 9.4175L5.3383 9.39896L2.46967 6.53033C2.17678 6.23744 2.17678 5.76256 2.46967 5.46967Z" fill="#212121"/>
</svg>
