<svg viewBox="0 0 24 24" fill="none" xmlns="http://www.w3.org/2000/svg">
<path fill-rule="evenodd" clip-rule="evenodd" d="M14.5303 5.46967C14.8232 5.76256 14.8232 6.23744 14.5303 6.53033L10.793 10.2676C10.3882 10.6724 10.117 10.9444 9.92485 11.1708C9.73841 11.3904 9.67096 11.5171 9.63955 11.6137C9.55798 11.8648 9.55798 12.1352 9.63955 12.3863C9.67096 12.4829 9.73841 12.6096 9.92485 12.8292C10.117 13.0556 10.3882 13.3276 10.793 13.7324L14.5303 17.4697C14.8232 17.7626 14.8232 18.2374 14.5303 18.5303C14.2374 18.8232 13.7625 18.8232 13.4696 18.5303L9.73235 14.7931L9.71083 14.7715C9.33312 14.3939 9.01785 14.0786 8.78134 13.8C8.53467 13.5094 8.32993 13.2098 8.21296 12.8498C8.0335 12.2975 8.0335 11.7025 8.21296 11.1502C8.32993 10.7902 8.53467 10.4906 8.78134 10.2C9.01785 9.9214 9.33312 9.60615 9.71083 9.22845L9.73235 9.20693L13.4696 5.46967C13.7625 5.17678 14.2374 5.17678 14.5303 5.46967Z" fill="#777777"/>
</svg>
