<svg viewBox="0 0 20 16" fill="none" xmlns="http://www.w3.org/2000/svg">
<path d="M10.247 0.341488C10.0728 0.541145 9.98496 0.801775 10.0028 1.06614C10.0206 1.33051 10.1426 1.577 10.342 1.75149L16.338 6.99949H1C0.734784 6.99949 0.48043 7.10485 0.292893 7.29238C0.105357 7.47992 0 7.73427 0 7.99949C0 8.2647 0.105357 8.51906 0.292893 8.70659C0.48043 8.89413 0.734784 8.99949 1 8.99949H16.339L10.342 14.2465C10.1439 14.4214 10.0231 14.6677 10.006 14.9315C9.98893 15.1952 10.077 15.455 10.2509 15.6541C10.4248 15.8531 10.6705 15.9752 10.9341 15.9936C11.1978 16.0121 11.4581 15.9254 11.658 15.7525L19.658 8.75249C19.7654 8.65863 19.8515 8.54287 19.9105 8.413C19.9695 8.28312 20 8.14213 20 7.99949C20 7.85685 19.9695 7.71585 19.9105 7.58598C19.8515 7.4561 19.7654 7.34035 19.658 7.24649L11.658 0.246488C11.4583 0.07229 11.1977 -0.0155481 10.9333 0.00226395C10.669 0.020076 10.4225 0.142082 10.248 0.341488H10.247Z" fill="#3E3E3E"/>
</svg>
