<svg viewBox="0 0 16 16" fill="none" xmlns="http://www.w3.org/2000/svg">
<path fill-rule="evenodd" clip-rule="evenodd" d="M13.8395 3.44714C14.1448 3.72703 14.1654 4.20146 13.8855 4.5068L8.0578 10.8643L8.03825 10.8857C7.7926 11.1537 7.57788 11.3879 7.38484 11.5663C7.18049 11.7551 6.95105 11.9294 6.66121 12.0334C6.23546 12.1862 5.77155 12.1963 5.33956 12.0621C5.04548 11.9708 4.80869 11.8067 4.59633 11.6269C4.39572 11.4571 4.17103 11.2324 3.91398 10.9753L3.89351 10.9548L2.13569 9.197C1.84279 8.90411 1.84279 8.42923 2.13569 8.13634C2.42858 7.84345 2.90345 7.84345 3.19635 8.13634L4.95417 9.89417C5.23767 10.1777 5.41822 10.3574 5.56549 10.482C5.70631 10.6012 5.76404 10.6233 5.78445 10.6296C5.90541 10.6672 6.03531 10.6643 6.15451 10.6215C6.17463 10.6143 6.23135 10.5898 6.36686 10.4646C6.50858 10.3337 6.68115 10.1463 6.95207 9.85076L12.7798 3.49321C13.0597 3.18787 13.5341 3.16724 13.8395 3.44714Z" fill="#109922"/>
</svg>
