<svg width="48" height="48" viewBox="0 0 48 48" fill="none" xmlns="http://www.w3.org/2000/svg">
<path d="M18.8551 15.0728C18.5008 15.0728 18.1564 15.1417 17.8317 15.2893L9.03474 19.1466C8.59253 19.3377 8.21559 19.6536 7.94997 20.0555C7.68435 20.4574 7.54157 20.928 7.53906 21.4098L7.53906 41.1291C7.54164 41.4574 7.60884 41.7819 7.73683 42.0841C7.86481 42.3864 8.05108 42.6604 8.285 42.8907C8.51892 43.121 8.7959 43.3029 9.10013 43.4261C9.40436 43.5493 9.72988 43.6114 10.0581 43.6088H27.652C27.9802 43.6114 28.3058 43.5493 28.61 43.4261C28.9142 43.3029 29.1912 43.121 29.4251 42.8907C29.659 42.6604 29.8453 42.3864 29.9733 42.0841C30.1013 41.7819 30.1685 41.4574 30.1711 41.1291V21.4098C30.1711 20.4258 29.5807 19.5402 28.6754 19.1466L19.8784 15.2893C19.5537 15.1417 19.2093 15.0728 18.8551 15.0728Z" fill="#E3E3E3"/>
<path d="M18.5268 14.9402C18.5268 17.7587 19.6465 20.4618 21.6395 22.4548C23.6325 24.4477 26.3355 25.5674 29.154 25.5674C31.9726 25.5674 34.6756 24.4477 36.6686 22.4548C38.6616 20.4618 39.7812 17.7587 39.7812 14.9402C39.7812 12.1217 38.6616 9.41861 36.6686 7.42562C34.6756 5.43264 31.9726 4.31299 29.154 4.31299C26.3355 4.31299 23.6325 5.43264 21.6395 7.42562C19.6465 9.41861 18.5268 12.1217 18.5268 14.9402Z" fill="#DF2C29"/>
<path fill-rule="evenodd" clip-rule="evenodd" d="M18.5278 15.0946C18.6357 15.081 18.7449 15.0743 18.8549 15.0743C19.2092 15.0743 19.5536 15.1432 19.8783 15.2908L28.6753 19.1481C29.5805 19.5417 30.1709 20.4273 30.1709 21.4113V25.5201C29.8343 25.5525 29.495 25.5688 29.1539 25.5688C26.3354 25.5688 23.6324 24.4492 21.6394 22.4562C19.6825 20.4993 18.5675 17.8578 18.5278 15.0946Z" fill="#FFA2A0"/>
</svg>
