<svg width="48" height="48" viewBox="0 0 48 48" fill="none" xmlns="http://www.w3.org/2000/svg">
<path d="M15.8113 2C14.811 2 14 2.81096 14 3.81132L14 31C14 32.6569 15.3431 34 17 34L44.1887 34C45.189 34 46 33.189 46 32.1887C46 15.5159 32.4841 2 15.8113 2Z" fill="#E3E3E3"/>
<path d="M3.81132 14C2.81096 14 2 14.811 2 15.8113L2 43C2 44.6569 3.34314 46 5 46L32.1887 46C33.189 46 34 45.189 34 44.1887C34 27.5159 20.4841 14 3.81132 14Z" fill="#DF2C29"/>
<path d="M32.2374 34.0001C29.1988 25.5236 22.4765 18.8013 14 15.7627V31.0001C14 32.657 15.3431 34.0001 17 34.0001H32.2374Z" fill="#FFA2A0"/>
</svg>
