<svg width="48" height="48" viewBox="0 0 48 48" fill="none" xmlns="http://www.w3.org/2000/svg">
<g clip-path="url(#clip0_1154_21030)">
<path d="M16.8019 43.8478C16.8019 45.4798 18.1219 46.7998 19.7659 46.7998H45.0379C45.822 46.7998 46.5741 46.4892 47.1296 45.9359C47.6851 45.3827 47.9988 44.6318 48.0019 43.8478V7.7518C48.0033 7.25805 47.8808 6.77185 47.6457 6.33768C47.4106 5.90352 47.0703 5.53527 46.656 5.26664C46.2417 4.99801 45.7667 4.83759 45.2744 4.80006C44.782 4.76253 44.2882 4.84908 43.8379 5.0518L31.5979 10.4878L18.5659 16.2838C17.4859 16.7638 16.8019 17.8078 16.8019 18.9838V43.8478Z" fill="#DF2C29"/>
<path d="M16.1984 -9.91821e-05C11.9019 -9.91821e-05 7.7814 1.70668 4.74331 4.74477C1.70522 7.78286 -0.00156403 11.9034 -0.00156403 16.1999C-0.00156403 20.4964 1.70522 24.6169 4.74331 27.655C7.7814 30.6931 11.9019 32.3999 16.1984 32.3999C20.4949 32.3999 24.6155 30.6931 27.6536 27.655C30.6917 24.6169 32.3984 20.4964 32.3984 16.1999C32.3984 11.9034 30.6917 7.78286 27.6536 4.74477C24.6155 1.70668 20.4949 -9.91821e-05 16.1984 -9.91821e-05Z" fill="#E3E3E3"/>
<path d="M16.801 32.3999V18.9839C16.801 17.8079 17.485 16.7519 18.565 16.2839L31.405 10.5719C32.2974 12.9754 32.6065 15.5564 32.3071 18.1027C32.0076 20.649 31.108 23.0878 29.6824 25.2187C28.2567 27.3496 26.3456 29.1117 24.1063 30.3601C21.8669 31.6085 19.3632 32.3076 16.801 32.3999Z" fill="#FFA2A0"/>
</g>
<defs>
<clipPath id="clip0_1154_21030">
<rect width="48" height="48" fill="white"/>
</clipPath>
</defs>
</svg>
