<svg width="48" height="48" viewBox="0 0 48 48" fill="none" xmlns="http://www.w3.org/2000/svg">
<g style="mix-blend-mode:luminosity" opacity="0.4">
<path d="M27.6543 14.8827L18.0346 16.9907L6.00501 19.4964C5.43624 19.6232 4.9275 19.9417 4.56293 20.3991C4.19836 20.8565 3.9998 21.4255 4.00008 22.012V41.4941C3.99741 41.8256 4.06061 42.1543 4.18598 42.4608C4.31135 42.7674 4.49636 43.0455 4.7301 43.279C4.96385 43.5125 5.24162 43.6965 5.54707 43.8203C5.85252 43.9441 6.17948 44.0052 6.50871 43.9998H30.6666V17.3884C30.6695 17.0117 30.5889 16.639 30.4307 16.2975C30.2726 15.956 30.0408 15.6543 29.7523 15.4144C29.4638 15.1744 29.1258 15.0021 28.7629 14.9102C28.4 14.8182 28.0212 14.8088 27.6543 14.8827Z" fill="white"/>
</g>
<path d="M40.7917 4.04617L18.5676 8.64661C17.9844 8.76967 17.4615 9.08462 17.0855 9.53931C16.7095 9.994 16.5029 10.5611 16.5 11.1469V41.5C16.5 42.8807 17.6193 44 19 44H41.413C42.8593 43.8 44 42.6999 44 41.2997V6.54641C44 4.94626 42.4519 3.74614 40.7917 4.04617Z" fill="#DF2C29"/>
<path d="M27.6543 14.8827L18.0346 16.9907L6.00501 19.4964C5.43624 19.6232 4.9275 19.9417 4.56293 20.3991C4.19836 20.8565 3.9998 21.4255 4.00008 22.012V41.4941C3.99741 41.8256 4.06061 42.1543 4.18598 42.4608C4.31135 42.7674 4.49636 43.0455 4.7301 43.279C4.96385 43.5125 5.24162 43.6965 5.54707 43.8203C5.85252 43.9441 6.17948 44.0052 6.50871 43.9998H30.6666V17.3884C30.6695 17.0117 30.5889 16.639 30.4307 16.2975C30.2726 15.956 30.0408 15.6543 29.7523 15.4144C29.4638 15.1744 29.1258 15.0021 28.7629 14.9102C28.4 14.8182 28.0212 14.8088 27.6543 14.8827Z" fill="#E3E3E3"/>
<path fill-rule="evenodd" clip-rule="evenodd" d="M30.6621 41.0835V44.0002H33.5788C31.9679 44.0002 30.6621 42.6943 30.6621 41.0835Z" fill="white"/>
<path fill-rule="evenodd" clip-rule="evenodd" d="M33.5827 44.0002C31.9722 43.9998 30.6667 42.6941 30.6667 41.0835L30.6666 43.9998V17.3884C30.6695 17.0117 30.5889 16.639 30.4307 16.2975C30.2726 15.956 30.0408 15.6543 29.7523 15.4144C29.4638 15.1744 29.1258 15.0021 28.7629 14.9102C28.4 14.8182 28.0212 14.8088 27.6543 14.8827L18.0346 16.9907L16.5 17.3103V41.5002C16.5 42.8674 17.5976 43.9783 18.9597 43.9998H30.6666L33.5827 44.0002Z" fill="#FFA2A0"/>
</svg>
