<svg  viewBox="0 0 114 38" fill="none" xmlns="http://www.w3.org/2000/svg">
<g clip-path="url(#clip0_7593_507)">
<path d="M104.922 1.42968e-06H9.08337C8.73403 1.42968e-06 8.38888 1.42974e-06 8.04046 0.00190143C7.7488 0.00380143 7.45947 0.00932093 7.16501 0.0139664C6.52531 0.0214731 5.88711 0.0775939 5.25596 0.181841C4.6257 0.288357 4.01518 0.489171 3.44505 0.777491C2.87562 1.06825 2.35532 1.44606 1.90302 1.89722C1.44834 2.34711 1.06933 2.86712 0.780568 3.43725C0.491005 4.00626 0.290221 4.61599 0.185151 5.24541C0.0790818 5.87403 0.0220051 6.5099 0.0144329 7.14731C0.00559216 7.43858 0.00465854 7.73082 0 8.02212V29.9807C0.00465854 30.2756 0.00559216 30.5614 0.0144329 30.8565C0.0220074 31.4939 0.0790841 32.1297 0.185151 32.7583C0.289931 33.3881 0.490727 33.9981 0.780568 34.5674C1.0692 35.1357 1.44826 35.6536 1.90302 36.1009C2.35361 36.5541 2.87425 36.9322 3.44505 37.2207C4.01517 37.5098 4.62563 37.7118 5.25596 37.82C5.88721 37.9234 6.52535 37.9795 7.16501 37.9879C7.45947 37.9944 7.7488 37.9981 8.04046 37.9981C8.38887 38 8.73405 38 9.08337 38H104.922C105.264 38 105.612 38 105.954 37.9981C106.245 37.9981 106.542 37.9944 106.833 37.9879C107.471 37.98 108.108 37.9238 108.738 37.82C109.37 37.7111 109.983 37.5091 110.556 37.2207C111.126 36.932 111.646 36.554 112.097 36.1009C112.55 35.6518 112.93 35.1343 113.222 34.5674C113.51 33.9977 113.709 33.3877 113.812 32.7583C113.918 32.1296 113.977 31.4939 113.989 30.8565C113.993 30.5614 113.993 30.2756 113.993 29.9807C114 29.6355 114 29.2923 114 28.9416V9.05932C114 8.71142 114 8.36631 113.993 8.02212C113.993 7.73082 113.993 7.43858 113.989 7.14727C113.977 6.5098 113.918 5.87408 113.812 5.24537C113.709 4.61632 113.51 4.00663 113.222 3.43722C112.634 2.29444 111.702 1.36423 110.556 0.777405C109.983 0.48979 109.37 0.28903 108.738 0.181755C108.108 0.0770491 107.471 0.0209088 106.833 0.0138334C106.542 0.00919743 106.245 0.00363043 105.954 0.00177793C105.612 -0.00012207 105.264 -0.00012207 104.922 -0.00012207V1.42968e-06Z" fill="#131313"/>
<path d="M8.04545 37.1687C7.75519 37.1687 7.47195 37.165 7.18397 37.1586C6.58739 37.1508 5.99221 37.099 5.4033 37.0036C4.85417 36.9093 4.32222 36.7339 3.82498 36.4831C3.3323 36.2344 2.88293 35.9083 2.4941 35.5174C2.09964 35.131 1.77123 34.6828 1.5219 34.1907C1.26981 33.6953 1.09535 33.1644 1.0046 32.6163C0.906591 32.0274 0.853566 31.432 0.845978 30.8351C0.839938 30.6347 0.832031 29.9676 0.832031 29.9676V8.02211C0.832031 8.02211 0.840453 7.36527 0.846026 7.1723C0.853291 6.57635 0.906008 5.98181 1.00372 5.39383C1.09464 4.84428 1.26924 4.3118 1.52146 3.81484C1.76988 3.32303 2.09646 2.87456 2.48855 2.48678C2.88019 2.09533 3.33099 1.76756 3.82451 1.51544C4.32061 1.26548 4.85156 1.09128 5.39957 0.998694C5.99042 0.902332 6.58766 0.850234 7.18631 0.842837L8.04592 0.831238H105.95L106.82 0.843303C107.413 0.850332 108.005 0.901965 108.59 0.997763C109.144 1.09151 109.68 1.26692 110.182 1.51822C111.171 2.02632 111.975 2.83019 112.483 3.81715C112.731 4.31069 112.903 4.83882 112.993 5.38363C113.092 5.97643 113.147 6.57564 113.158 7.17648C113.161 7.44552 113.161 7.73451 113.161 8.02211C113.169 8.37836 113.169 8.71744 113.169 9.05931V28.9415C113.169 29.2867 113.169 29.6235 113.161 29.963C113.161 30.2719 113.161 30.5549 113.157 30.8462C113.146 31.4363 113.092 32.0248 112.995 32.607C112.906 33.159 112.732 33.6941 112.48 34.1935C112.229 34.6803 111.903 35.1246 111.513 35.5099C111.123 35.903 110.673 36.231 110.179 36.4813C109.679 36.734 109.143 36.9101 108.59 37.0036C108.002 37.0995 107.406 37.1513 106.81 37.1586C106.531 37.165 106.238 37.1687 105.955 37.1687L104.922 37.1706L8.04545 37.1687Z" fill="white"/>
<path d="M23.8126 18.8952C23.8233 18.0706 24.0429 17.2621 24.4511 16.5449C24.8593 15.8278 25.4428 15.2252 26.1472 14.7933C25.6997 14.156 25.1093 13.6315 24.4229 13.2614C23.7366 12.8914 22.9731 12.6861 22.1933 12.6618C20.5297 12.4876 18.9169 13.6544 18.0692 13.6544C17.205 13.6544 15.8998 12.6791 14.4943 12.7079C13.5852 12.7372 12.6992 13.0008 11.9226 13.4731C11.1461 13.9453 10.5054 14.6102 10.0631 15.4027C8.14721 18.7106 9.57631 23.5722 11.4116 26.246C12.3299 27.5554 13.4031 29.0179 14.8073 28.966C16.1814 28.9092 16.6946 28.0923 18.3533 28.0923C19.9966 28.0923 20.4781 28.966 21.9108 28.9331C23.3853 28.9092 24.3143 27.6179 25.2004 26.2962C25.8602 25.3633 26.3678 24.3322 26.7046 23.2411C25.848 22.8798 25.117 22.275 24.6027 21.5022C24.0884 20.7294 23.8136 19.8227 23.8126 18.8952Z" fill="black"/>
<path d="M21.1074 10.9032C21.9113 9.94078 22.3074 8.70374 22.2115 7.4548C20.9833 7.58345 19.8487 8.16884 19.0339 9.09433C18.6355 9.54646 18.3303 10.0725 18.1359 10.6422C17.9415 11.212 17.8616 11.8145 17.9008 12.4151C18.5152 12.4214 19.1229 12.2886 19.6784 12.0267C20.2338 11.7648 20.7224 11.3807 21.1074 10.9032Z" fill="black"/>
<path d="M40.2991 25.7829H35.7898L34.7069 28.9715H32.7969L37.0681 17.1744H39.0525L43.3237 28.9715H41.3811L40.2991 25.7829ZM36.2568 24.3115H39.8312L38.0691 19.1366H38.0198L36.2568 24.3115Z" fill="black"/>
<path d="M52.5485 24.6714C52.5485 27.3442 51.1139 29.0614 48.949 29.0614C48.4006 29.09 47.8552 28.964 47.3753 28.6979C46.8953 28.4318 46.5002 28.0362 46.2352 27.5566H46.1943V31.8168H44.4238V20.3704H46.1375V21.801H46.1701C46.4473 21.3236 46.849 20.9301 47.3326 20.6624C47.8162 20.3946 48.3636 20.2626 48.9164 20.2804C51.1055 20.2804 52.5485 22.006 52.5485 24.6714ZM50.7288 24.6714C50.7288 22.93 49.8263 21.7852 48.4494 21.7852C47.0967 21.7852 46.1868 22.9541 46.1868 24.6714C46.1868 26.4044 47.0967 27.565 48.4494 27.565C49.8263 27.565 50.7287 26.4285 50.7287 24.6714H50.7288Z" fill="black"/>
<path d="M62.0412 24.6714C62.0412 27.3442 60.6061 29.0614 58.4412 29.0614C57.8928 29.09 57.3474 28.964 56.8675 28.6979C56.3875 28.4318 55.9924 28.0362 55.7274 27.5566H55.6865V31.8168H53.916V20.3704H55.6297V21.801H55.6623C55.9394 21.3236 56.3412 20.9301 56.8248 20.6624C57.3084 20.3946 57.8558 20.2626 58.4086 20.2804C60.5977 20.2804 62.0412 22.006 62.0412 24.6714ZM60.221 24.6714C60.221 22.93 59.3185 21.7852 57.9416 21.7852C56.5889 21.7852 55.679 22.9541 55.679 24.6714C55.679 26.4044 56.5889 27.565 57.9416 27.565C59.3185 27.565 60.221 26.4285 60.221 24.6714Z" fill="black"/>
<path d="M68.3143 25.6844C68.4455 26.8543 69.5852 27.6224 71.1425 27.6224C72.6348 27.6224 73.7084 26.8542 73.7084 25.7994C73.7084 24.8837 73.0609 24.3355 71.5277 23.9597L69.9945 23.5914C67.8222 23.0682 66.8137 22.0551 66.8137 20.4111C66.8137 18.3757 68.5925 16.9776 71.1174 16.9776C73.6182 16.9776 75.3318 18.3757 75.3895 20.4111H73.6023C73.4953 19.2338 72.5194 18.5232 71.0932 18.5232C69.667 18.5232 68.6911 19.2422 68.6911 20.2887C68.6911 21.1227 69.3144 21.6135 70.8392 21.9892L72.1426 22.3083C74.5699 22.8807 75.5774 23.853 75.5774 25.5786C75.5774 27.7856 73.8154 29.168 71.0113 29.168C68.3877 29.168 66.6164 27.8181 66.502 25.6843L68.3143 25.6844Z" fill="black"/>
<path d="M79.3991 18.3348V20.3703H81.0393V21.7684H79.3991V26.51C79.3991 27.2467 79.7275 27.5899 80.4485 27.5899C80.6433 27.5865 80.8377 27.5729 81.0309 27.5491V28.9388C80.7068 28.9992 80.3773 29.0266 80.0476 29.0205C78.3013 29.0205 77.6203 28.3664 77.6203 26.6983V21.7684H76.3662V20.3703H77.6203V18.3348H79.3991Z" fill="black"/>
<path d="M81.9902 24.6713C81.9902 21.9651 83.5885 20.2645 86.0809 20.2645C88.5817 20.2645 90.1726 21.965 90.1726 24.6713C90.1726 27.3849 88.5901 29.078 86.0809 29.078C83.5727 29.078 81.9902 27.3849 81.9902 24.6713ZM88.3686 24.6713C88.3686 22.8149 87.5155 21.7192 86.0809 21.7192C84.6463 21.7192 83.7932 22.8232 83.7932 24.6713C83.7932 26.5351 84.6463 27.6224 86.0809 27.6224C87.5155 27.6224 88.3686 26.5351 88.3686 24.6713H88.3686Z" fill="black"/>
<path d="M91.6338 20.3703H93.3224V21.8343H93.3633C93.4776 21.377 93.7462 20.973 94.124 20.69C94.5018 20.407 94.9658 20.2623 95.438 20.2803C95.642 20.2796 95.8455 20.3017 96.0446 20.3462V21.9975C95.787 21.9191 95.5183 21.883 95.2491 21.8909C94.9919 21.8805 94.7355 21.9257 94.4975 22.0234C94.2594 22.1212 94.0455 22.2691 93.8702 22.4571C93.6949 22.6451 93.5625 22.8687 93.4821 23.1125C93.4017 23.3564 93.3751 23.6147 93.4042 23.8697V28.9713H91.6338L91.6338 20.3703Z" fill="black"/>
<path d="M104.206 26.4451C103.968 28.0065 102.443 29.078 100.492 29.078C97.9832 29.078 96.4258 27.4016 96.4258 24.7121C96.4258 22.0142 97.9915 20.2645 100.418 20.2645C102.804 20.2645 104.305 21.8992 104.305 24.5071V25.1119H98.213V25.2186C98.1848 25.5352 98.2246 25.854 98.3296 26.1541C98.4345 26.4541 98.6023 26.7285 98.8217 26.9589C99.0412 27.1893 99.3073 27.3706 99.6024 27.4905C99.8975 27.6105 100.215 27.6665 100.533 27.6549C100.952 27.6939 101.371 27.5973 101.73 27.3793C102.089 27.1614 102.368 26.8337 102.525 26.4451L104.206 26.4451ZM98.2213 23.8781H102.533C102.549 23.5934 102.506 23.3086 102.406 23.0415C102.307 22.7743 102.153 22.5306 101.954 22.3256C101.755 22.1207 101.516 21.9588 101.252 21.8503C100.988 21.7418 100.704 21.689 100.418 21.6951C100.13 21.6934 99.8438 21.7486 99.577 21.8576C99.3102 21.9666 99.0677 22.1272 98.8635 22.3302C98.6593 22.5331 98.4974 22.7744 98.3872 23.0401C98.277 23.3058 98.2206 23.5906 98.2213 23.8781V23.8781Z" fill="black"/>
<path d="M36.0386 8.29427C36.4098 8.26771 36.7822 8.32363 37.1291 8.45799C37.476 8.59235 37.7886 8.80181 38.0445 9.07125C38.3004 9.3407 38.4931 9.66341 38.6088 10.0161C38.7244 10.3688 38.7601 10.7427 38.7133 11.1109C38.7133 12.9218 37.7318 13.9628 36.0386 13.9628H33.9854V8.29427H36.0386ZM34.8682 13.1611H35.94C36.2052 13.1769 36.4706 13.1336 36.7169 13.0342C36.9632 12.9348 37.1842 12.7819 37.3638 12.5866C37.5434 12.3913 37.677 12.1586 37.755 11.9053C37.833 11.652 37.8533 11.3846 37.8146 11.1224C37.8505 10.8613 37.8281 10.5955 37.7489 10.3441C37.6697 10.0927 37.5358 9.86183 37.3566 9.6681C37.1774 9.47437 36.9575 9.32255 36.7126 9.22352C36.4677 9.1245 36.2039 9.08072 35.94 9.09532H34.8682V13.1611Z" fill="black"/>
<path d="M39.7098 11.8219C39.6828 11.5408 39.715 11.2571 39.8044 10.9892C39.8938 10.7212 40.0384 10.4748 40.2289 10.2658C40.4194 10.0568 40.6516 9.88987 40.9105 9.77561C41.1695 9.66135 41.4496 9.60233 41.7328 9.60233C42.016 9.60233 42.2961 9.66135 42.555 9.77561C42.814 9.88987 43.0462 10.0568 43.2367 10.2658C43.4272 10.4748 43.5717 10.7212 43.6611 10.9892C43.7505 11.2571 43.7828 11.5408 43.7558 11.8219C43.7833 12.1033 43.7514 12.3873 43.6623 12.6557C43.5731 12.9241 43.4286 13.171 43.2381 13.3803C43.0476 13.5897 42.8152 13.7571 42.556 13.8716C42.2967 13.9861 42.0163 14.0452 41.7328 14.0452C41.4493 14.0452 41.1689 13.9861 40.9096 13.8716C40.6504 13.7571 40.418 13.5897 40.2275 13.3803C40.037 13.171 39.8925 12.9241 39.8033 12.6557C39.7141 12.3873 39.6823 12.1033 39.7098 11.8219ZM42.885 11.8219C42.885 10.8946 42.4673 10.3524 41.7342 10.3524C40.9983 10.3524 40.5843 10.8946 40.5843 11.8219C40.5843 12.7566 40.9983 13.2947 41.7342 13.2947C42.4673 13.2947 42.885 12.7529 42.885 11.8219H42.885Z" fill="black"/>
<path d="M49.1362 13.9626H48.258L47.3713 10.812H47.3044L46.4215 13.9626H45.5516L44.3691 9.68481H45.2278L45.9963 12.949H46.0596L46.9415 9.68481H47.7537L48.6357 12.949H48.7027L49.4674 9.68481H50.314L49.1362 13.9626Z" fill="black"/>
<path d="M51.3066 9.68472H52.1216V10.3643H52.1849C52.2922 10.1202 52.4732 9.9156 52.7027 9.77899C52.9322 9.64237 53.1987 9.58055 53.465 9.60214C53.6738 9.58649 53.8833 9.61788 54.0783 9.69397C54.2732 9.77006 54.4484 9.88891 54.591 10.0417C54.7336 10.1945 54.8399 10.3773 54.902 10.5767C54.9641 10.776 54.9805 10.9867 54.9498 11.1932V13.9625H54.1032V11.4052C54.1032 10.7178 53.8037 10.3759 53.1776 10.3759C53.0358 10.3693 52.8944 10.3933 52.7628 10.4464C52.6313 10.4994 52.5129 10.5802 52.4156 10.6832C52.3183 10.7861 52.2445 10.9089 52.1992 11.0429C52.1539 11.177 52.1382 11.3193 52.1532 11.4599V13.9625H51.3066L51.3066 9.68472Z" fill="black"/>
<path d="M56.2988 8.01489H57.1454V13.9626H56.2988V8.01489Z" fill="black"/>
<path d="M58.323 11.822C58.2961 11.5408 58.3283 11.2572 58.4178 10.9892C58.5072 10.7212 58.6518 10.4748 58.8423 10.2658C59.0328 10.0569 59.265 9.88988 59.524 9.77561C59.783 9.66135 60.0631 9.60233 60.3463 9.60233C60.6295 9.60233 60.9096 9.66135 61.1686 9.77561C61.4276 9.88988 61.6598 10.0569 61.8503 10.2658C62.0408 10.4748 62.1854 10.7212 62.2748 10.9892C62.3642 11.2572 62.3965 11.5408 62.3695 11.822C62.397 12.1034 62.3651 12.3874 62.2759 12.6558C62.1867 12.9242 62.0422 13.171 61.8516 13.3804C61.6611 13.5898 61.4287 13.7571 61.1695 13.8716C60.9102 13.9861 60.6298 14.0453 60.3463 14.0453C60.0627 14.0453 59.7823 13.9861 59.5231 13.8716C59.2638 13.7571 59.0315 13.5898 58.8409 13.3804C58.6504 13.171 58.5059 12.9242 58.4167 12.6558C58.3275 12.3874 58.2956 12.1034 58.323 11.822ZM61.4983 11.822C61.4983 10.8947 61.0805 10.3524 60.3474 10.3524C59.6115 10.3524 59.1976 10.8947 59.1976 11.822C59.1976 12.7567 59.6116 13.2948 60.3474 13.2948C61.0805 13.2947 61.4983 12.7529 61.4983 11.822H61.4983Z" fill="black"/>
<path d="M63.2598 12.7529C63.2598 11.9829 63.8347 11.539 64.8553 11.4759L66.0173 11.4091V11.0398C66.0173 10.588 65.7177 10.3329 65.1391 10.3329C64.6664 10.3329 64.339 10.5059 64.245 10.8084H63.4254C63.5119 10.0736 64.205 9.60233 65.1781 9.60233C66.2536 9.60233 66.8602 10.1362 66.8602 11.0398V13.9627H66.0452V13.3615H65.9782C65.8423 13.5771 65.6513 13.7529 65.425 13.8709C65.1986 13.9889 64.9449 14.0449 64.6897 14.0332C64.5096 14.0518 64.3276 14.0327 64.1554 13.9769C63.9832 13.9211 63.8246 13.83 63.6899 13.7094C63.5552 13.5888 63.4473 13.4413 63.3732 13.2766C63.2991 13.1119 63.2605 12.9335 63.2598 12.7529ZM66.0173 12.3874V12.0297L64.9697 12.0965C64.379 12.136 64.111 12.3363 64.111 12.7135C64.111 13.0985 64.4459 13.3225 64.9065 13.3225C65.0414 13.3361 65.1777 13.3226 65.3073 13.2826C65.4369 13.2426 65.5571 13.177 65.6607 13.0898C65.7643 13.0025 65.8493 12.8954 65.9106 12.7747C65.9718 12.654 66.0081 12.5223 66.0173 12.3874Z" fill="black"/>
<path d="M67.9746 11.8219C67.9746 10.4702 68.6714 9.61386 69.7553 9.61386C70.0234 9.60154 70.2894 9.66557 70.5224 9.79847C70.7553 9.93137 70.9455 10.1276 71.0708 10.3644H71.134V8.01489H71.9806V13.9626H71.1694V13.2867H71.1024C70.9675 13.5219 70.7707 13.7157 70.5332 13.8472C70.2958 13.9788 70.0267 14.0431 69.7553 14.0331C68.664 14.0331 67.9746 13.1768 67.9746 11.8219ZM68.8492 11.8219C68.8492 12.7292 69.278 13.2752 69.9953 13.2752C70.7089 13.2752 71.1499 12.7213 71.1499 11.8256C71.1499 10.934 70.7043 10.3723 69.9953 10.3723C69.2827 10.3723 68.8491 10.922 68.8491 11.8219H68.8492Z" fill="black"/>
<path d="M75.4822 11.8219C75.4553 11.5408 75.4875 11.2571 75.5769 10.9892C75.6663 10.7212 75.8109 10.4748 76.0014 10.2658C76.1918 10.0568 76.424 9.88987 76.683 9.77561C76.942 9.66135 77.222 9.60233 77.5052 9.60233C77.7884 9.60233 78.0685 9.66135 78.3275 9.77561C78.5865 9.88987 78.8187 10.0568 79.0091 10.2658C79.1996 10.4748 79.3442 10.7212 79.4336 10.9892C79.523 11.2571 79.5552 11.5408 79.5283 11.8219C79.5557 12.1033 79.5239 12.3873 79.4347 12.6557C79.3456 12.9241 79.2011 13.171 79.0105 13.3803C78.82 13.5897 78.5877 13.7571 78.3284 13.8716C78.0692 13.9861 77.7888 14.0452 77.5052 14.0452C77.2217 14.0452 76.9413 13.9861 76.6821 13.8716C76.4228 13.7571 76.1905 13.5897 75.9999 13.3803C75.8094 13.171 75.6649 12.9241 75.5758 12.6557C75.4866 12.3873 75.4547 12.1033 75.4822 11.8219ZM78.6575 11.8219C78.6575 10.8946 78.2397 10.3524 77.5066 10.3524C76.7707 10.3524 76.3568 10.8946 76.3568 11.8219C76.3568 12.7566 76.7708 13.2947 77.5066 13.2947C78.2397 13.2947 78.6575 12.7529 78.6575 11.8219Z" fill="black"/>
<path d="M80.665 9.68472H81.48V10.3643H81.5433C81.6506 10.1202 81.8316 9.9156 82.0611 9.77899C82.2906 9.64237 82.5571 9.58055 82.8234 9.60214C83.0322 9.58649 83.2417 9.61788 83.4367 9.69397C83.6316 9.77006 83.8068 9.88891 83.9494 10.0417C84.092 10.1945 84.1983 10.3773 84.2604 10.5767C84.3225 10.776 84.3389 10.9867 84.3082 11.1932V13.9625H83.4616V11.4052C83.4616 10.7178 83.1621 10.3759 82.536 10.3759C82.3942 10.3693 82.2528 10.3933 82.1212 10.4464C81.9897 10.4994 81.8713 10.5802 81.774 10.6832C81.6767 10.7861 81.6029 10.9089 81.5576 11.0429C81.5123 11.177 81.4966 11.3193 81.5116 11.4599V13.9625H80.665V9.68472Z" fill="black"/>
<path d="M89.092 8.61981V9.70433H90.0214V10.4154H89.092V12.6151C89.092 13.0632 89.2772 13.2594 89.6986 13.2594C89.8065 13.2591 89.9143 13.2526 90.0214 13.2399V13.9431C89.8694 13.9703 89.7154 13.9847 89.5609 13.9863C88.6194 13.9863 88.2445 13.656 88.2445 12.8313V10.4154H87.5635V9.70429H88.2445V8.61981H89.092Z" fill="black"/>
<path d="M91.1787 8.01489H92.0179V10.3723H92.0849C92.1974 10.1259 92.3834 9.92015 92.6174 9.78302C92.8515 9.64589 93.1223 9.58406 93.3929 9.60596C93.6005 9.59469 93.8081 9.62926 94.0008 9.7072C94.1935 9.78514 94.3666 9.90453 94.5077 10.0569C94.6488 10.2092 94.7545 10.3907 94.8171 10.5884C94.8798 10.7861 94.8979 10.9952 94.8702 11.2007V13.9626H94.0228V11.409C94.0228 10.7257 93.7037 10.3797 93.1055 10.3797C92.96 10.3678 92.8136 10.3877 92.6766 10.4381C92.5397 10.4885 92.4154 10.5682 92.3125 10.6715C92.2096 10.7748 92.1306 10.8992 92.081 11.0362C92.0314 11.1731 92.0124 11.3192 92.0254 11.4642V13.9626H91.1787L91.1787 8.01489Z" fill="black"/>
<path d="M99.805 12.8075C99.69 13.1985 99.4408 13.5366 99.101 13.7629C98.7612 13.9891 98.3524 14.089 97.9462 14.0451C97.6636 14.0525 97.3827 13.9986 97.1231 13.8869C96.8635 13.7753 96.6314 13.6086 96.4428 13.3985C96.2543 13.1884 96.1139 12.94 96.0313 12.6703C95.9487 12.4007 95.9259 12.1164 95.9646 11.8371C95.9269 11.557 95.9501 11.272 96.0325 11.0016C96.1149 10.7311 96.2546 10.4815 96.4421 10.2696C96.6297 10.0577 96.8607 9.88841 97.1196 9.77326C97.3784 9.65812 97.6591 9.59977 97.9425 9.60218C99.1361 9.60218 99.8562 10.4154 99.8562 11.7587V12.0533H96.827V12.1006C96.8137 12.2576 96.8335 12.4156 96.8851 12.5645C96.9367 12.7134 97.0189 12.8499 97.1264 12.9653C97.234 13.0807 97.3645 13.1724 97.5097 13.2345C97.6549 13.2966 97.8115 13.3278 97.9695 13.3261C98.172 13.3503 98.3771 13.314 98.5589 13.2216C98.7406 13.1293 98.8907 12.9851 98.99 12.8075L99.805 12.8075ZM96.827 11.4289H98.9937C99.0044 11.2853 98.9848 11.1411 98.9363 11.0055C98.8878 10.8699 98.8113 10.746 98.7119 10.6416C98.6124 10.5373 98.4922 10.4548 98.3589 10.3995C98.2256 10.3443 98.0821 10.3174 97.9378 10.3207C97.7914 10.3189 97.6461 10.3463 97.5104 10.4013C97.3748 10.4564 97.2516 10.538 97.1481 10.6412C97.0446 10.7445 96.9628 10.8674 96.9077 11.0027C96.8525 11.138 96.8251 11.2829 96.827 11.4289H96.827Z" fill="black"/>
</g>
<defs>
<clipPath id="clip0_7593_507">
<rect width="114" height="38" fill="white"/>
</clipPath>
</defs>
</svg>
