<svg  viewBox="0 0 128 38" fill="none" xmlns="http://www.w3.org/2000/svg">
<path d="M117.807 1.42968e-06H10.1989C9.80663 1.42968e-06 9.41909 1.42974e-06 9.02789 0.00190143C8.70041 0.00380143 8.37554 0.00932093 8.04492 0.0139664C7.32666 0.0214731 6.61008 0.0775939 5.90143 0.181841C5.19377 0.288357 4.50827 0.489171 3.86813 0.777491C3.22877 1.06825 2.64457 1.44606 2.13672 1.89722C1.62621 2.34711 1.20066 2.86712 0.876427 3.43725C0.551304 4.00626 0.325862 4.61599 0.207889 5.24541C0.0887936 5.87403 0.0247074 6.5099 0.0162054 7.14731C0.00627891 7.43858 0.00523064 7.73082 0 8.02212V29.9807C0.00523064 30.2756 0.00627891 30.5614 0.0162054 30.8565C0.02471 31.4939 0.0887962 32.1297 0.207889 32.7583C0.325536 33.3881 0.550991 33.9981 0.876427 34.5674C1.20051 35.1357 1.62612 35.6536 2.13672 36.1009C2.64265 36.5541 3.22722 36.9322 3.86813 37.2207C4.50827 37.5098 5.19369 37.7118 5.90143 37.82C6.61021 37.9234 7.32671 37.9795 8.04492 37.9879C8.37554 37.9944 8.70041 37.9981 9.02789 37.9981C9.41908 38 9.80665 38 10.1989 38H117.807C118.191 38 118.582 38 118.966 37.9981C119.292 37.9981 119.627 37.9944 119.953 37.9879C120.669 37.98 121.385 37.9238 122.092 37.82C122.802 37.7111 123.49 37.5091 124.133 37.2207C124.773 36.932 125.357 36.554 125.863 36.1009C126.372 35.6518 126.799 35.1343 127.127 34.5674C127.45 33.9977 127.673 33.3877 127.789 32.7583C127.908 32.1296 127.975 31.4939 127.987 30.8565C127.992 30.5614 127.992 30.2756 127.992 29.9807C128 29.6355 128 29.2923 128 28.9416V9.05932C128 8.71142 128 8.36631 127.992 8.02212C127.992 7.73082 127.992 7.43858 127.987 7.14727C127.975 6.5098 127.908 5.87408 127.789 5.24537C127.673 4.61632 127.449 4.00663 127.127 3.43722C126.466 2.29444 125.419 1.36423 124.133 0.777405C123.49 0.48979 122.802 0.28903 122.092 0.181755C121.385 0.0770491 120.669 0.0209088 119.953 0.0138334C119.627 0.00919743 119.292 0.00363043 118.966 0.00177793C118.582 -0.00012207 118.191 -0.00012207 117.807 -0.00012207V1.42968e-06Z" fill="#131313"/>
<path d="M9.03287 37.1687C8.70697 37.1687 8.38894 37.165 8.06559 37.1585C7.39575 37.1508 6.72747 37.099 6.06624 37.0036C5.44968 36.9093 4.8524 36.7338 4.29409 36.4831C3.74091 36.2344 3.23636 35.9083 2.79978 35.5173C2.35687 35.1309 1.98814 34.6828 1.70818 34.1906C1.42513 33.6953 1.22925 33.1643 1.12735 32.6163C1.01731 32.0274 0.957773 31.4319 0.949254 30.835C0.942472 30.6347 0.933594 29.9676 0.933594 29.9676V8.02205C0.933594 8.02205 0.94305 7.36521 0.949307 7.17224C0.957464 6.57628 1.01666 5.98175 1.12637 5.39377C1.22846 4.84421 1.42449 4.31174 1.70769 3.81478C1.98662 3.32297 2.35331 2.87449 2.79354 2.48672C3.23328 2.09527 3.73944 1.7675 4.29357 1.51538C4.85059 1.26542 5.44675 1.09122 6.06206 0.998633C6.72546 0.902271 7.39606 0.850173 8.06822 0.842776L9.0334 0.831177H118.961L119.938 0.843242C120.604 0.850271 121.268 0.901904 121.925 0.997702C122.547 1.09145 123.149 1.26686 123.713 1.51816C124.823 2.02626 125.726 2.83013 126.296 3.81709C126.575 4.31063 126.768 4.83876 126.868 5.38357C126.98 5.97637 127.042 6.57558 127.054 7.17642C127.058 7.44546 127.058 7.73445 127.058 8.02205C127.066 8.3783 127.066 8.71738 127.066 9.05925V28.9415C127.066 29.2866 127.066 29.6234 127.058 29.9629C127.058 30.2719 127.057 30.5549 127.053 30.8461C127.041 31.4363 126.98 32.0248 126.871 32.607C126.771 33.159 126.576 33.6941 126.293 34.1935C126.011 34.6803 125.644 35.1245 125.207 35.5099C124.77 35.903 124.264 36.231 123.71 36.4813C123.148 36.734 122.546 36.91 121.925 37.0036C121.264 37.0995 120.596 37.1513 119.926 37.1585C119.613 37.165 119.285 37.1687 118.966 37.1687L117.807 37.1706L9.03287 37.1687Z" fill="white"/>
<path d="M45.0487 9.72795C45.0643 10.0763 45.0092 10.4243 44.8868 10.7508C44.7643 11.0774 44.577 11.3757 44.3362 11.628C44.0663 11.9066 43.7406 12.1251 43.3805 12.2691C43.0203 12.4132 42.6338 12.4796 42.2462 12.464C41.8564 12.4726 41.4689 12.4012 41.1078 12.2542C40.7467 12.1071 40.4196 11.8875 40.1467 11.609C39.5931 11.0427 39.2832 10.2823 39.2832 9.49045C39.2832 8.69859 39.5931 7.93819 40.1467 7.37195C40.5699 6.9584 41.1059 6.67915 41.6874 6.56929C42.2688 6.45942 42.8698 6.52384 43.4147 6.75445C43.7573 6.89527 44.0628 7.11306 44.3077 7.39095L43.8042 7.89445C43.6155 7.66719 43.3765 7.48703 43.1061 7.3683C42.8356 7.24957 42.5412 7.19552 42.2462 7.21045C41.8738 7.21303 41.5077 7.30678 41.18 7.4835C40.8522 7.66022 40.5727 7.91454 40.3659 8.22423C40.1591 8.53391 40.0313 8.88954 39.9936 9.26002C39.956 9.6305 40.0097 10.0046 40.15 10.3495C40.2903 10.6944 40.513 10.9998 40.7986 11.2388C41.0841 11.4778 41.4239 11.6432 41.7881 11.7206C42.1524 11.798 42.5301 11.785 42.8881 11.6827C43.2462 11.5805 43.5738 11.392 43.8422 11.134C44.1324 10.8158 44.3006 10.4052 44.3172 9.97495H42.2462V9.29095H45.0107C45.0323 9.4357 45.045 9.58164 45.0487 9.72795Z" fill="#131313" stroke="#131313" stroke-width="0.17974" stroke-miterlimit="10"/>
<path d="M49.3998 7.35309H46.8347V9.15809H49.1718V9.84209H46.8347V11.6471H49.3998V12.3501H46.0938V6.65009H49.3998V7.35309Z" fill="#131313" stroke="#131313" stroke-width="0.17974" stroke-miterlimit="10"/>
<path d="M52.515 12.35H51.7835V7.35302H50.1875V6.65002H54.149V7.35302H52.515V12.35Z" fill="#131313" stroke="#131313" stroke-width="0.17974" stroke-miterlimit="10"/>
<path d="M56.9453 12.35V6.65002H57.6768V12.35H56.9453Z" fill="#131313" stroke="#131313" stroke-width="0.17974" stroke-miterlimit="10"/>
<path d="M60.9212 12.35H60.1898V7.35302H58.5938V6.65002H62.5078V7.35302H60.9212V12.35Z" fill="#131313" stroke="#131313" stroke-width="0.17974" stroke-miterlimit="10"/>
<path d="M69.9301 11.609C69.6558 11.8836 69.33 12.1014 68.9713 12.25C68.6127 12.3987 68.2283 12.4752 67.8401 12.4752C67.452 12.4752 67.0676 12.3987 66.7089 12.25C66.3503 12.1014 66.0245 11.8836 65.7501 11.609C65.2131 11.0381 64.9141 10.2838 64.9141 9.49996C64.9141 8.71615 65.2131 7.96187 65.7501 7.39097C66.0186 7.10862 66.3434 6.88579 66.7034 6.73687C67.0634 6.58795 67.4507 6.51627 67.8401 6.52647C68.2291 6.52031 68.6151 6.59384 68.9746 6.74252C69.334 6.89119 69.6592 7.11187 69.9301 7.39097C70.2033 7.66883 70.418 7.99862 70.5616 8.36085C70.7052 8.72308 70.7747 9.11041 70.7661 9.49996C70.7786 9.89001 70.7108 10.2785 70.567 10.6412C70.4232 11.004 70.2065 11.3334 69.9301 11.609ZM66.2916 11.134C66.494 11.339 66.7351 11.5019 67.0009 11.613C67.2668 11.7242 67.552 11.7814 67.8401 11.7814C68.1283 11.7814 68.4135 11.7242 68.6793 11.613C68.9452 11.5019 69.1863 11.339 69.3886 11.134C69.7986 10.6885 70.0261 10.1053 70.0261 9.49996C70.0261 8.89462 69.7986 8.31139 69.3886 7.86597C69.1863 7.66088 68.9452 7.49804 68.6793 7.3869C68.4135 7.27575 68.1283 7.21852 67.8401 7.21852C67.552 7.21852 67.2668 7.27575 67.0009 7.3869C66.7351 7.49804 66.494 7.66088 66.2916 7.86597C65.8817 8.31139 65.6542 8.89462 65.6542 9.49996C65.6542 10.1053 65.8817 10.6885 66.2916 11.134Z" fill="#131313" stroke="#131313" stroke-width="0.17974" stroke-miterlimit="10"/>
<path d="M71.8008 12.3501V6.65009H72.6843L75.4583 11.0866V9.98459V6.65009H76.1898V12.3501H75.4298L72.5323 7.70459V8.79709V12.3501H71.8008Z" fill="#131313" stroke="#131313" stroke-width="0.17974" stroke-miterlimit="10"/>
<path d="M64.7338 20.6626C63.9334 20.6644 63.1515 20.9036 62.487 21.3499C61.8225 21.7961 61.3053 22.4294 61.0007 23.1696C60.6962 23.9098 60.6179 24.7237 60.7759 25.5084C60.9339 26.2931 61.321 27.0133 61.8884 27.5779C62.4557 28.1426 63.1777 28.5263 63.9631 28.6806C64.7485 28.8349 65.562 28.7529 66.3008 28.4448C67.0396 28.1368 67.6704 27.6166 68.1135 26.95C68.5566 26.2835 68.7922 25.5005 68.7903 24.7001C68.798 24.1661 68.6983 23.636 68.4969 23.1414C68.2955 22.6468 67.9967 22.1978 67.6182 21.8211C67.2397 21.4444 66.7893 21.1477 66.2938 20.9486C65.7982 20.7496 65.2677 20.6523 64.7338 20.6626ZM64.7338 27.1511C64.2432 27.1854 63.7536 27.0713 63.3287 26.8237C62.9038 26.5761 62.5632 26.2063 62.3512 25.7626C62.1392 25.3188 62.0656 24.8215 62.14 24.3354C62.2143 23.8493 62.4332 23.3967 62.7682 23.0366C63.1032 22.6766 63.5387 22.4256 64.0182 22.3163C64.4977 22.207 64.999 22.2445 65.4569 22.4239C65.9148 22.6033 66.3082 22.9164 66.5858 23.3223C66.8635 23.7282 67.0126 24.2083 67.0138 24.7001C67.0291 25.0117 66.9818 25.3232 66.8748 25.6163C66.7678 25.9093 66.6032 26.178 66.3907 26.4064C66.1782 26.6349 65.9221 26.8184 65.6376 26.9463C65.353 27.0742 65.0457 27.1438 64.7338 27.1511ZM55.8798 20.6626C55.0794 20.6644 54.2975 20.9036 53.633 21.3499C52.9685 21.7961 52.4513 22.4294 52.1467 23.1696C51.8422 23.9098 51.7639 24.7237 51.9219 25.5084C52.0799 26.2931 52.467 27.0133 53.0344 27.5779C53.6017 28.1426 54.3237 28.5263 55.1091 28.6806C55.8945 28.8349 56.708 28.7529 57.4468 28.4448C58.1856 28.1368 58.8164 27.6166 59.2595 26.95C59.7026 26.2835 59.9382 25.5005 59.9363 24.7001C59.944 24.1661 59.8443 23.636 59.6429 23.1414C59.4415 22.6468 59.1427 22.1978 58.7642 21.8211C58.3857 21.4444 57.9353 21.1477 57.4398 20.9486C56.9442 20.7496 56.4137 20.6523 55.8798 20.6626ZM55.8798 27.1511C55.3892 27.1854 54.8996 27.0713 54.4747 26.8237C54.0498 26.5761 53.7092 26.2063 53.4972 25.7626C53.2852 25.3188 53.2116 24.8215 53.286 24.3354C53.3603 23.8493 53.5792 23.3967 53.9142 23.0366C54.2492 22.6766 54.6847 22.4256 55.1642 22.3163C55.6437 22.207 56.145 22.2445 56.6029 22.4239C57.0608 22.6033 57.4542 22.9164 57.7318 23.3223C58.0095 23.7282 58.1586 24.2083 58.1598 24.7001C58.1751 25.0117 58.1278 25.3232 58.0208 25.6163C57.9138 25.9093 57.7492 26.178 57.5367 26.4064C57.3242 26.6349 57.0681 26.8184 56.7836 26.9463C56.499 27.0742 56.1917 27.1438 55.8798 27.1511ZM45.3538 21.9071V23.6171H49.4578C49.3934 24.4225 49.0586 25.1825 48.5078 25.7736C48.0961 26.193 47.601 26.5213 47.0544 26.7374C46.5078 26.9534 45.922 27.0522 45.3348 27.0276C44.1254 27.0276 42.9655 26.5471 42.1104 25.692C41.2552 24.8368 40.7748 23.6769 40.7748 22.4676C40.7748 21.2582 41.2552 20.0983 42.1104 19.2432C42.9655 18.388 44.1254 17.9076 45.3348 17.9076C46.4942 17.8903 47.6137 18.3306 48.4508 19.1331L49.6573 17.9266C49.0911 17.3665 48.4188 16.9252 47.6798 16.6283C46.9408 16.3314 46.1501 16.1849 45.3538 16.1976C44.5092 16.1647 43.6667 16.3027 42.8768 16.6032C42.0868 16.9037 41.3656 17.3606 40.7565 17.9465C40.1473 18.5324 39.6627 19.2353 39.3317 20.0129C39.0007 20.7906 38.8301 21.6271 38.8301 22.4723C38.8301 23.3175 39.0007 24.154 39.3317 24.9317C39.6627 25.7093 40.1473 26.4122 40.7565 26.9981C41.3656 27.584 42.0868 28.0409 42.8768 28.3414C43.6667 28.642 44.5092 28.7799 45.3538 28.7471C46.1664 28.7795 46.9768 28.6397 47.7315 28.3368C48.4863 28.0339 49.1685 27.5748 49.7333 26.9896C50.7309 25.8937 51.2625 24.4523 51.2153 22.9711C51.2187 22.6146 51.1901 22.2585 51.1298 21.9071H45.3538ZM88.3983 23.2371C88.1505 22.5082 87.6872 21.8717 87.0697 21.412C86.4522 20.9522 85.7096 20.6909 84.9403 20.6626C84.4206 20.6615 83.9063 20.7671 83.4291 20.9728C82.9518 21.1784 82.5218 21.4798 82.1657 21.8582C81.8095 22.2366 81.5348 22.684 81.3584 23.1728C81.182 23.6616 81.1078 24.1814 81.1403 24.7001C81.1322 25.5673 81.4048 26.4138 81.9175 27.1133C82.4302 27.8128 83.1554 28.3276 83.9848 28.5809C84.8143 28.8343 85.7034 28.8125 86.5194 28.5188C87.3354 28.2251 88.0345 27.6753 88.5123 26.9516L87.1348 26.0016C86.9294 26.3438 86.6382 26.6265 86.2899 26.8214C85.9416 27.0164 85.5484 27.1169 85.1493 27.1131C84.7375 27.1301 84.3303 27.0221 83.981 26.8034C83.6317 26.5847 83.3568 26.2654 83.1923 25.8876L88.5978 23.6551L88.3983 23.2371ZM82.8883 24.5861C82.869 24.291 82.9088 23.995 83.0054 23.7155C83.1019 23.436 83.2533 23.1785 83.4506 22.9583C83.6479 22.738 83.8871 22.5593 84.1543 22.4326C84.4216 22.3059 84.7114 22.2338 85.0068 22.2206C85.3129 22.2019 85.6177 22.2739 85.883 22.4277C86.1483 22.5815 86.3624 22.8102 86.4983 23.0851L82.8883 24.5861ZM78.4993 28.5001H80.2758V16.6251H78.4993V28.5001ZM75.5923 21.5651H75.5258C75.2604 21.2628 74.9329 21.0215 74.5656 20.8575C74.1983 20.6936 73.8 20.6108 73.3978 20.6151C72.3596 20.6654 71.3806 21.1133 70.6637 21.8658C69.9467 22.6184 69.5468 23.6179 69.5468 24.6573C69.5468 25.6967 69.9467 26.6963 70.6637 27.4488C71.3806 28.2014 72.3596 28.6492 73.3978 28.6996C73.8005 28.7076 74.2001 28.6267 74.568 28.4625C74.9358 28.2982 75.2629 28.0548 75.5258 27.7496H75.5923V28.3291C75.5923 29.8776 74.7658 30.7041 73.4358 30.7041C72.9915 30.6943 72.5601 30.5527 72.1965 30.2973C71.8328 30.0419 71.5532 29.6842 71.3933 29.2696L69.8543 29.9061C70.1388 30.6207 70.6335 31.2322 71.273 31.6596C71.9125 32.0871 72.6667 32.3104 73.4358 32.3001C75.5163 32.3001 77.2358 31.0746 77.2358 28.0916V20.9001H75.5923V21.5651ZM73.5498 27.1511C72.9273 27.1123 72.3431 26.8376 71.9161 26.3831C71.489 25.9286 71.2513 25.3285 71.2513 24.7048C71.2513 24.0812 71.489 23.481 71.9161 23.0265C72.3431 22.572 72.9273 22.2974 73.5498 22.2586C73.854 22.2717 74.1525 22.3459 74.4275 22.4767C74.7024 22.6076 74.9483 22.7924 75.1503 23.0202C75.3524 23.2479 75.5066 23.5141 75.6038 23.8027C75.7009 24.0913 75.739 24.3964 75.7158 24.7001C75.7417 25.0047 75.7056 25.3115 75.6095 25.6018C75.5135 25.892 75.3596 26.1598 75.1572 26.389C74.9547 26.6181 74.7078 26.8037 74.4316 26.9347C74.1553 27.0657 73.8553 27.1393 73.5498 27.1511ZM96.7203 16.6251H92.4643V28.5001H94.2408V23.9971H96.7203C97.2266 24.0334 97.735 23.9651 98.2137 23.7964C98.6924 23.6276 99.1313 23.362 99.5028 23.0162C99.8744 22.6703 100.171 22.2517 100.373 21.7863C100.576 21.3208 100.681 20.8187 100.681 20.3111C100.681 19.8034 100.576 19.3013 100.373 18.8359C100.171 18.3705 99.8744 17.9518 99.5028 17.6059C99.1313 17.2601 98.6924 16.9945 98.2137 16.8258C97.735 16.657 97.2266 16.5887 96.7203 16.6251ZM96.7203 22.3251H94.2408V18.2781H96.7583C97.0253 18.2781 97.2896 18.3306 97.5363 18.4328C97.7829 18.535 98.007 18.6847 98.1958 18.8735C98.3846 19.0623 98.5344 19.2864 98.6365 19.5331C98.7387 19.7797 98.7913 20.0441 98.7913 20.3111C98.7913 20.578 98.7387 20.8424 98.6365 21.0891C98.5344 21.3357 98.3846 21.5598 98.1958 21.7486C98.007 21.9374 97.7829 22.0871 97.5363 22.1893C97.2896 22.2915 97.0253 22.3441 96.7583 22.3441L96.7203 22.3251ZM107.683 20.6246C107.036 20.5847 106.392 20.7353 105.83 21.0578C105.267 21.3803 104.812 21.8605 104.52 22.4391L106.087 23.0946C106.246 22.809 106.483 22.5754 106.772 22.422C107.06 22.2686 107.386 22.2019 107.712 22.2301C107.937 22.2037 108.166 22.2226 108.384 22.2855C108.602 22.3484 108.806 22.4541 108.982 22.5965C109.159 22.7389 109.306 22.915 109.414 23.1147C109.522 23.3144 109.589 23.5336 109.612 23.7596V23.8736C109.041 23.5733 108.405 23.4168 107.759 23.4176C106.068 23.4176 104.339 24.3676 104.339 26.0966C104.356 26.4641 104.446 26.8245 104.605 27.1563C104.764 27.4882 104.988 27.7848 105.263 28.0285C105.539 28.2722 105.861 28.458 106.209 28.5749C106.558 28.6918 106.927 28.7374 107.294 28.7091C107.74 28.7337 108.184 28.6394 108.581 28.4357C108.979 28.232 109.315 27.9264 109.555 27.5501H109.612V28.5001H111.322V23.9306C111.322 21.8501 109.745 20.6436 107.721 20.6436L107.683 20.6246ZM107.465 27.1321C106.885 27.1321 106.078 26.8376 106.078 26.1251C106.078 25.1751 107.085 24.8521 107.978 24.8521C108.542 24.8381 109.1 24.9759 109.593 25.2511C109.533 25.767 109.289 26.2438 108.904 26.5931C108.52 26.9425 108.022 27.1407 107.503 27.1511L107.465 27.1321ZM117.554 20.9001L115.521 26.0491H115.464L113.355 20.9001H111.455L114.618 28.1011L112.813 32.1006H114.666L119.53 20.9001H117.554ZM101.594 28.5001H103.361V16.6251H101.594V28.5001Z" fill="#131313"/>
<path d="M9.91934 7.16306C9.60628 7.5332 9.44655 8.009 9.47284 8.49306V29.5071C9.44051 29.9919 9.60099 30.4699 9.91934 30.8371L9.98584 30.9131L21.7563 19.1426V18.8576L9.98584 7.09656L9.91934 7.16306Z" fill="url(#paint0_linear_7593_544)"/>
<path d="M25.6489 23.0662L21.7539 19.1427V18.8577L25.6489 14.9342L25.7344 14.9912L30.3989 17.6322C31.7289 18.3827 31.7289 19.6177 30.3989 20.3777L25.7534 23.0187L25.6489 23.0662Z" fill="url(#paint1_linear_7593_544)"/>
<path d="M25.764 23.0089L21.755 18.9999L9.91797 30.8369C10.1864 31.0758 10.53 31.2133 10.8892 31.2254C11.2484 31.2376 11.6005 31.1236 11.8845 30.9034L25.764 23.0089Z" fill="url(#paint2_linear_7593_544)"/>
<path d="M25.764 14.991L11.8845 7.10602C11.6023 6.88269 11.2505 6.76597 10.8908 6.7764C10.5312 6.78682 10.1867 6.92372 9.91797 7.16302L21.755 19L25.764 14.991Z" fill="url(#paint3_linear_7593_544)"/>
<path opacity="0.2" d="M25.65 22.9235L11.8845 30.761C11.6108 30.9675 11.2773 31.0792 10.9345 31.0792C10.5916 31.0792 10.2581 30.9675 9.98447 30.761L9.91797 30.8275L9.98447 30.9035C10.2581 31.11 10.5916 31.2217 10.9345 31.2217C11.2773 31.2217 11.6108 31.11 11.8845 30.9035L25.764 23.009L25.65 22.9235Z" fill="#131313"/>
<path opacity="0.12" d="M9.91954 30.7039C9.6144 30.3271 9.46486 29.8479 9.50154 29.3644V29.5069C9.46922 29.9917 9.62969 30.4697 9.94804 30.8369L10.0145 30.7704L9.91954 30.7039Z" fill="#131313"/>
<path opacity="0.12" d="M30.4023 20.2349L25.6523 22.9234L25.7378 23.0089L30.4023 20.3679C30.6777 20.2515 30.9165 20.0629 31.0937 19.8222C31.271 19.5815 31.38 19.2974 31.4093 18.9999C31.35 19.2702 31.2279 19.5228 31.053 19.7373C30.8781 19.9519 30.6552 20.1223 30.4023 20.2349Z" fill="#131313"/>
<path opacity="0.25" d="M11.8857 7.23891L30.4012 17.7649C30.654 17.8775 30.8769 18.0479 31.0518 18.2624C31.2267 18.477 31.3488 18.7296 31.4082 18.9999C31.3788 18.7024 31.2698 18.4183 31.0926 18.1776C30.9153 17.9368 30.6765 17.7483 30.4012 17.6319L11.8857 7.10591C10.5652 6.34591 9.47266 6.97291 9.47266 8.49291V8.63541C9.50116 7.11541 10.5652 6.48841 11.8857 7.23891Z" fill="white"/>
<defs>
<linearGradient id="paint0_linear_7593_544" x1="20.7113" y1="8.27456" x2="4.77034" y2="24.2156" gradientUnits="userSpaceOnUse">
<stop stop-color="#00A0FF"/>
<stop offset="0.01" stop-color="#00A1FF"/>
<stop offset="0.26" stop-color="#00BEFF"/>
<stop offset="0.51" stop-color="#00D2FF"/>
<stop offset="0.76" stop-color="#00DFFF"/>
<stop offset="1" stop-color="#00E3FF"/>
</linearGradient>
<linearGradient id="paint1_linear_7593_544" x1="32.1374" y1="19.0002" x2="9.15691" y2="19.0002" gradientUnits="userSpaceOnUse">
<stop stop-color="#FFE000"/>
<stop offset="0.41" stop-color="#FFBD00"/>
<stop offset="0.78" stop-color="#FFA500"/>
<stop offset="1" stop-color="#FF9C00"/>
</linearGradient>
<linearGradient id="paint2_linear_7593_544" x1="23.5885" y1="21.1849" x2="1.96646" y2="42.7974" gradientUnits="userSpaceOnUse">
<stop stop-color="#FF3A44"/>
<stop offset="1" stop-color="#C31162"/>
</linearGradient>
<linearGradient id="paint3_linear_7593_544" x1="6.93497" y1="0.171021" x2="16.587" y2="9.82302" gradientUnits="userSpaceOnUse">
<stop stop-color="#32A071"/>
<stop offset="0.07" stop-color="#2DA771"/>
<stop offset="0.48" stop-color="#15CF74"/>
<stop offset="0.8" stop-color="#06E775"/>
<stop offset="1" stop-color="#00F076"/>
</linearGradient>
</defs>
</svg>
