<svg  viewBox="0 0 24 24" fill="none" xmlns="http://www.w3.org/2000/svg">
<path fill-rule="evenodd" clip-rule="evenodd" d="M18.5303 15.5303C18.2374 15.8232 17.7626 15.8232 17.4697 15.5303L12.601 10.6617C12.3943 10.4549 12.2707 10.3322 12.1719 10.2483C12.1116 10.1972 12.0822 10.1797 12.074 10.1754C12.0258 10.1605 11.9742 10.1605 11.926 10.1754C11.9178 10.1797 11.8884 10.1972 11.8281 10.2483C11.7293 10.3322 11.6057 10.4549 11.399 10.6617L6.53033 15.5303C6.23744 15.8232 5.76256 15.8232 5.46967 15.5303C5.17678 15.2374 5.17678 14.7626 5.46967 14.4697L10.3383 9.60104L10.3568 9.58251C10.5389 9.40042 10.7061 9.23319 10.8573 9.10482C11.0203 8.96643 11.2134 8.82974 11.4592 8.74986C11.8107 8.63566 12.1893 8.63566 12.5408 8.74986C12.7866 8.82974 12.9797 8.96643 13.1427 9.10482C13.2939 9.23319 13.4611 9.40042 13.6432 9.58251L13.6617 9.60104L18.5303 14.4697C18.8232 14.7626 18.8232 15.2374 18.5303 15.5303Z" fill="#DF2C29"/>
</svg>
