<svg width="48" height="48" viewBox="0 0 48 48" fill="none" xmlns="http://www.w3.org/2000/svg">
<path d="M29.3515 6.50194C29.3519 6.00645 29.201 5.52202 28.9178 5.11016C28.6347 4.6983 28.232 4.37758 27.761 4.18872C27.2901 3.99986 26.7721 3.95139 26.2728 4.04945C25.7734 4.14751 25.3153 4.38768 24.9567 4.73948L6.76028 22.4141C6.39782 22.7637 6.15062 23.2104 6.05021 23.6973C5.9498 24.1842 6.00072 24.6891 6.19647 25.1477C6.39222 25.6063 6.72395 25.9978 7.14935 26.2723C7.57476 26.5468 8.07457 26.6919 8.58506 26.6889H13.7253L29.3515 11.5018V6.50194Z" fill="#E3E3E3"/>
<path d="M39.4315 11.501H29.3567V24.1882C29.3567 24.8512 29.0859 25.487 28.6039 25.9559C28.122 26.4247 27.4683 26.6881 26.7866 26.6881H13.7305V41.5002C13.7305 42.1633 14.0012 42.7992 14.4832 43.2679C14.9653 43.7368 15.6189 44.0002 16.3006 44.0002H39.4315C40.1132 44.0002 40.7669 43.7368 41.2489 43.2679C41.7309 42.7992 42.0017 42.1633 42.0017 41.5002V14.0009C42.0017 13.3379 41.7309 12.702 41.2489 12.2332C40.7669 11.7644 40.1132 11.501 39.4315 11.501Z" fill="#DF2C29"/>
<path d="M29.3567 24.1882V11.501L13.7305 26.6881H26.7866C27.4682 26.6881 28.122 26.4247 28.6039 25.9559C29.0859 25.487 29.3567 24.8512 29.3567 24.1882Z" fill="#FFA2A0"/>
</svg>
