<svg width="48" height="48" viewBox="0 0 48 48" fill="none" xmlns="http://www.w3.org/2000/svg">
<path fill-rule="evenodd" clip-rule="evenodd" d="M4 12.9401C4 11.9025 4.54611 10.9413 5.45265 10.428L19.3785 2.38924C19.8201 2.13424 20.3211 2 20.8311 2C21.3411 2 21.8421 2.13424 22.2838 2.38924L36.2096 10.428C36.6507 10.6826 37.0171 11.0488 37.272 11.4897C37.527 11.9306 37.6616 12.4308 37.6623 12.9401V19.4934L32.2012 16.3369C31.7595 16.0819 31.2585 15.9477 30.7485 15.9477C30.2385 15.9477 29.7375 16.0819 29.2959 16.3369L18.9088 22.3223C18.4657 22.5756 18.0971 22.9411 17.8402 23.3821C17.5833 23.8231 17.4471 24.324 17.4453 24.8344V36.7942C17.4453 37.7772 17.9367 38.6728 18.745 39.208L5.45265 31.5406C5.01157 31.286 4.64519 30.9198 4.39023 30.4789C4.13527 30.038 4.00069 29.5378 4 29.0285V12.9401Z" fill="#DF2C29"/>
<path fill-rule="evenodd" clip-rule="evenodd" d="M18.75 39.2081L19.3835 39.5794C20.2791 40.1037 21.3932 40.1037 22.2888 39.5794L36.2146 31.5407C36.6557 31.286 37.0221 30.9199 37.2771 30.479C37.532 30.0381 37.6666 29.5379 37.6673 29.0286V19.5044L42.5495 22.3223C42.9906 22.577 43.357 22.9431 43.6119 23.384C43.8669 23.8249 44.0015 24.3251 44.0022 24.8344V36.7943C44.0022 37.8319 43.4561 38.793 42.5495 39.3064L32.1952 45.2917C31.2996 45.816 30.1965 45.816 29.3009 45.2917L18.9138 39.3173L18.75 39.2081Z" fill="#E3E3E3"/>
<path fill-rule="evenodd" clip-rule="evenodd" d="M37.6662 19.5044L32.2051 16.337C31.7635 16.082 31.2625 15.9478 30.7525 15.9478C30.2425 15.9478 29.7415 16.082 29.2998 16.337L18.9128 22.3224C18.4697 22.5756 18.1011 22.9412 17.8442 23.3822C17.5872 23.8232 17.451 24.3241 17.4492 24.8345V36.7943C17.4492 37.7773 17.9407 38.6729 18.749 39.2081L19.3825 39.5795C20.2781 40.1037 21.3921 40.1037 22.2878 39.5795L36.2136 31.5407C36.6547 31.2861 37.0211 30.9199 37.276 30.479C37.531 30.0381 37.6655 29.5379 37.6662 29.0286V19.5044Z" fill="#FFA2A0"/>
</svg>
