<svg width="48" height="48" viewBox="0 0 48 48" fill="none" xmlns="http://www.w3.org/2000/svg">
<circle cx="29" cy="19" r="17" fill="#E3E3E3"/>
<path d="M4 18C2.34315 18 1 19.3431 1 21L0.999999 44C0.999999 45.6569 2.34314 47 4 47L27 47C28.6569 47 30 45.6569 30 44L30 21C30 19.3431 28.6569 18 27 18L4 18Z" fill="#DF2C29"/>
<path fill-rule="evenodd" clip-rule="evenodd" d="M30 35.9711C29.6691 35.9903 29.3357 36 29 36C19.6112 36 12 28.3888 12 19C12 18.6643 12.0097 18.3309 12.0289 18H27C28.6569 18 30 19.3431 30 21V35.9711Z" fill="#FFA2A0"/>
</svg>
