<svg width="48" height="48" viewBox="0 0 48 48" fill="none" xmlns="http://www.w3.org/2000/svg">
<path d="M33.1703 47.1883C37.2019 46.9357 40.9796 45.1541 43.7159 42.2146C46.4522 39.2752 47.9361 35.4047 47.8584 31.4097C47.7807 27.4148 46.1474 23.6036 43.2988 20.7704C40.4502 17.9372 36.6061 16.3006 32.5676 16.2017H19.8507C18.1993 16.2017 16.8613 17.5131 16.8613 19.1584V31.689C16.8579 33.7792 17.2822 35.8484 18.1088 37.772C18.9353 39.6957 20.147 41.4339 21.6708 42.8821C23.1946 44.3302 24.999 45.4583 26.9753 46.1984C28.9516 46.9384 31.0589 47.2752 33.1703 47.1883Z" fill="#E3E3E3"/>
<path d="M15.691 0.0133892C11.6594 0.265918 7.88178 2.04756 5.14546 4.98701C2.40914 7.92647 0.925202 11.797 1.0029 15.7919C1.08061 19.7869 2.71395 23.5981 5.56255 26.4312C8.41115 29.2644 12.2552 30.901 16.2937 31H29.0106C30.662 31 32 29.6885 32 28.0432V15.5127C32.0034 13.4225 31.5791 11.3533 30.7525 9.42963C29.926 7.50599 28.7143 5.76774 27.1905 4.31959C25.6667 2.87144 23.8623 1.74335 21.886 1.00329C19.9097 0.263225 17.8024 -0.0735025 15.691 0.0133892Z" fill="#DF2C29"/>
<path fill-rule="evenodd" clip-rule="evenodd" d="M31.998 16.2002H19.8487C18.1974 16.2002 16.8594 17.5117 16.8594 19.157V30.999H29.0086C30.66 30.999 31.998 29.6875 31.998 28.0422V16.2002Z" fill="#FFA2A0"/>
</svg>
