<svg width="48" height="48" viewBox="0 0 48 48" fill="none" xmlns="http://www.w3.org/2000/svg">
<path opacity="0.4" d="M37.5625 44C38.9087 44 40 42.9087 40 41.5625L40 16.4375C40 15.0913 38.9087 14 37.5625 14L22.227 14C20.8808 14 19.7895 15.0913 19.7895 16.4375L19.7895 41.5625C19.7895 42.9087 20.8808 44 22.227 44L37.5625 44Z" fill="#BABABA"/>
<path d="M10.4375 4C9.09131 4 8 5.09131 8 6.4375L8 31.5625C8 32.9087 9.0913 34 10.4375 34L25.773 34C27.1192 34 28.2105 32.9087 28.2105 31.5625L28.2105 6.4375C28.2105 5.09131 27.1192 4 25.773 4L10.4375 4Z" fill="#DF2C29"/>
<path fill-rule="evenodd" clip-rule="evenodd" d="M28.2145 14L22.2309 14C20.8847 14 19.7934 15.0913 19.7934 16.4375L19.7934 34L25.777 34C27.1232 34 28.2145 32.9087 28.2145 31.5625L28.2145 14Z" fill="#FFA2A0"/>
</svg>
