<svg width="48" height="48" viewBox="0 0 48 48" fill="none" xmlns="http://www.w3.org/2000/svg">
<path d="M29.8455 5.35196C29.6893 5.2227 29.5086 5.12618 29.3144 5.06815C29.1201 5.01011 28.9161 4.99174 28.7146 5.01413C28.5131 5.03652 28.3181 5.09922 28.1413 5.19848C27.9645 5.29775 27.8095 5.43156 27.6855 5.59196L22.1655 12.576L4.10547 35.34C4.42947 35.604 4.75347 35.88 5.04147 36.18C5.5413 36.6651 5.99524 37.1953 6.39747 37.764L6.51747 37.92C6.88814 38.4621 7.20943 39.0364 7.47747 39.636C7.82547 40.38 8.07747 41.172 8.25747 41.976C8.4125 42.6381 8.78786 43.2278 9.32203 43.6486C9.8562 44.0694 10.5175 44.2963 11.1975 44.292H46.4415C46.6447 44.292 46.8458 44.2514 47.0331 44.1726C47.2204 44.0938 47.39 43.9783 47.532 43.8329C47.674 43.6876 47.7855 43.5153 47.86 43.3262C47.9344 43.1372 47.9703 42.9351 47.9655 42.732C47.7423 35.5777 46.0131 28.5509 42.8909 22.11C39.7687 15.6691 35.3235 9.95892 29.8455 5.35196Z" fill="#DF2C29"/>
<path d="M33.3629 26.3766C30.7718 21.1626 27.0892 16.5672 22.5651 12.9023C18.0409 9.23745 12.7812 6.58893 7.14292 5.13656C6.94269 5.08875 6.73493 5.08136 6.53181 5.11482C6.32868 5.14828 6.13427 5.22192 5.95995 5.33143C5.78563 5.44094 5.63491 5.58411 5.5166 5.75258C5.39829 5.92105 5.31476 6.11143 5.27092 6.31256L0.122922 30.4806C-0.0362914 31.1619 0.0437826 31.8773 0.349699 32.5067C0.655615 33.136 1.16874 33.6409 1.80292 33.9366C3.01377 34.4879 4.11852 35.2474 5.06692 36.1806L5.27092 36.3846C5.69092 36.8166 6.07492 37.2726 6.42292 37.7646L6.54292 37.9206C6.9136 38.4627 7.23489 39.037 7.50292 39.6366L32.6309 28.4646C32.8186 28.3784 32.9872 28.2554 33.1267 28.1031C33.2662 27.9507 33.3737 27.772 33.4431 27.5774C33.5124 27.3828 33.5421 27.1763 33.5304 26.9701C33.5187 26.7639 33.4658 26.562 33.3749 26.3766H33.3629Z" fill="#E3E3E3"/>
<path d="M22.1512 12.5767L22.7152 13.0327C27.1691 16.6758 30.7973 21.2244 33.3592 26.3767C33.4501 26.5621 33.503 26.764 33.5147 26.9702C33.5264 27.1764 33.4967 27.3829 33.4274 27.5775C33.3581 27.7721 33.2505 27.9508 33.111 28.1032C32.9715 28.2555 32.803 28.3785 32.6152 28.4647L7.49923 39.6367C7.2312 39.0371 6.90991 38.4628 6.53923 37.9207L6.41923 37.7647L6.14323 37.4047C5.86723 37.0447 5.57923 36.7087 5.25523 36.3847C4.8984 36.0159 4.51757 35.6712 4.11523 35.3527L22.1512 12.5767Z" fill="#FFA2A0"/>
</svg>
