<svg width="48" height="48" viewBox="0 0 48 48" fill="none" xmlns="http://www.w3.org/2000/svg">
<path d="M6 5C6 3.34315 7.34315 2 9 2L27 2C28.6569 2 30 3.34315 30 5V40C30 43.3137 32.6863 46 36 46C28 46 20 46 12 46C8.68629 46 6 43.3137 6 40L6 5Z" fill="#DF2C29"/>
<path d="M30 12V40C30 43.3137 32.6863 46 36 46L36 12H30Z" fill="#E3E3E3"/>
<path d="M39 12C40.6569 12 42 13.3431 42 15V40C42 43.3137 39.3137 46 36 46L36 12H39Z" fill="#E3E3E3"/>
<path d="M36 46C32.6863 46 30 43.3137 30 40V12H21C19.3431 12 18 13.3431 18 15L18 40C18 43.3137 20.685 46 23.9987 46C28.7407 46 34.7568 46 36 46Z" fill="#FFA2A0"/>
</svg>
