<svg width="48" height="48" viewBox="0 0 48 48" fill="none" xmlns="http://www.w3.org/2000/svg">
<g clip-path="url(#clip0_1154_21068)">
<path d="M28.9989 6.6748C30.3796 6.6748 31.4989 7.79409 31.4989 9.1748V42.0062C31.4989 43.1376 32.2587 44.128 33.3516 44.421L5.35182 36.9148C4.25892 36.622 3.49892 35.6315 3.49892 34.5V9.1748C3.49892 7.79409 4.61823 6.6748 5.99892 6.6748H28.9989Z" fill="#E3E3E3"/>
<path d="M33.8748 4.86947C34.8707 4.22241 36.2077 4.58067 36.7467 5.63898L45.9107 23.6343C46.6964 25.1773 45.2833 26.9219 43.6108 26.4737L42.153 26.0831C41.6195 25.9401 41.0712 26.2567 40.9282 26.7902L36.5283 43.2109C36.2424 44.2779 35.1457 44.911 34.0788 44.6251L16.6921 39.9664C15.6252 39.6805 14.992 38.5838 15.2779 37.5169L19.6778 21.0962C19.8208 20.5627 19.5042 20.0144 18.9707 19.8714L17.5129 19.4808C15.8403 19.0326 15.4889 16.8152 16.9409 15.8719L33.8748 4.86947Z" fill="#DF2C29"/>
<mask id="mask0_1154_21068" style="mask-type:alpha" maskUnits="userSpaceOnUse" x="15" y="4" width="32" height="41">
<path d="M33.8728 4.86947C34.8687 4.22241 36.2058 4.58067 36.7447 5.63898L45.9087 23.6343C46.6945 25.1773 45.2814 26.9219 43.6089 26.4737L42.151 26.0831C41.6175 25.9401 41.0692 26.2567 40.9263 26.7902L36.5263 43.2109C36.2405 44.2779 35.1438 44.911 34.0768 44.6251L16.6902 39.9664C15.6232 39.6805 14.9901 38.5838 15.276 37.5169L19.6759 21.0962C19.8188 20.5627 19.5022 20.0144 18.9688 19.8714L17.5109 19.4808C15.8384 19.0326 15.4869 16.8152 16.9389 15.8719L33.8728 4.86947Z" fill="#DF2C29"/>
</mask>
<g mask="url(#mask0_1154_21068)">
<path d="M28.997 6.6748C30.3777 6.6748 31.497 7.79409 31.497 9.1748V42.0062C31.497 43.1376 32.2568 44.128 33.3496 44.421L5.34987 36.9148C4.25697 36.622 3.49697 35.6315 3.49697 34.5V9.1748C3.49697 7.79409 4.61627 6.6748 5.99697 6.6748H28.997Z" fill="#FFA2A0"/>
</g>
</g>
<defs>
<clipPath id="clip0_1154_21068">
<rect width="48" height="48" fill="white"/>
</clipPath>
</defs>
</svg>
