<svg width="48" height="48" viewBox="0 0 48 48" fill="none" xmlns="http://www.w3.org/2000/svg">
<path d="M6 14.8012C6 12.9023 7.24952 11.2299 9.07044 10.6914L31.7809 3.97598C33.4286 3.48875 35.0814 4.72359 35.0814 6.44185V33.7564C35.0814 34.8957 34.3317 35.8992 33.2392 36.2223L10.4008 42.9756C8.2038 43.6252 6 41.9788 6 39.6877V14.8012Z" fill="#D9D9D9"/>
<mask id="mask0_1154_20975" style="mask-type:alpha" maskUnits="userSpaceOnUse" x="6" y="15" width="36" height="30">
<path d="M39.4537 44.2769C40.86 44.2769 42 43.128 42 41.7108L42 31.8745L42 22.0381C42 20.6209 40.86 19.4721 39.4537 19.4721L11.0928 19.4721C8.97091 19.4721 6.00023 18.0298 6.00023 15.1954C6.00023 22.1404 6.00023 31.3409 6.00023 39.1341C6.00023 41.9744 8.30275 44.2769 11.1431 44.2769L39.4537 44.2769Z" fill="#DF2C29"/>
</mask>
<g mask="url(#mask0_1154_20975)">
<path d="M39.4286 44.2769C40.8487 44.2769 42 43.1218 42 41.6971L42 21.9186C42 20.4939 40.8487 19.3388 39.4286 19.3388L11.143 19.3388C9.0001 19.3388 6.00011 17.8887 6.00011 15.0392C6.00011 22.0296 6.00011 31.2931 6.00011 39.1341C6.00011 41.9744 8.30264 44.2769 11.143 44.2769L39.4286 44.2769Z" fill="#DF2C29"/>
<path d="M6 14.8031C6 12.9033 7.25069 11.2303 9.0728 10.6926L31.8436 3.9735C33.491 3.48739 35.1428 4.72215 35.1428 6.43979V33.7551C35.1428 34.895 34.3924 35.8988 33.2991 36.2214L10.3989 42.9787C8.20232 43.6269 6 41.9805 6 39.6903V14.8031Z" fill="#FFA2A0"/>
</g>
</svg>
