<svg viewBox="0 0 80 80" fill="none" xmlns="http://www.w3.org/2000/svg">
<g clip-path="url(#clip0_739_14696)">
<mask id="path-2-inside-1_739_14696" fill="white">
<path d="M0.000488281 40C0.000488281 27.1626 0.000488281 20.7439 2.19884 15.7181C4.84388 9.67099 9.67148 4.84339 15.7186 2.19835C20.7444 0 27.1631 0 40.0005 0C52.8379 0 59.2566 0 64.2824 2.19835C70.3295 4.84339 75.1571 9.67099 77.8021 15.7181C80.0005 20.7439 80.0005 27.1626 80.0005 40C80.0005 52.8374 80.0005 59.2561 77.8021 64.2819C75.1571 70.329 70.3295 75.1566 64.2824 77.8017C59.2566 80 52.8379 80 40.0005 80C27.1631 80 20.7444 80 15.7186 77.8017C9.67148 75.1566 4.84388 70.329 2.19884 64.2819C0.000488281 59.2561 0.000488281 52.8374 0.000488281 40Z"/>
</mask>
<path d="M0.000488281 40C0.000488281 27.1626 0.000488281 20.7439 2.19884 15.7181C4.84388 9.67099 9.67148 4.84339 15.7186 2.19835C20.7444 0 27.1631 0 40.0005 0C52.8379 0 59.2566 0 64.2824 2.19835C70.3295 4.84339 75.1571 9.67099 77.8021 15.7181C80.0005 20.7439 80.0005 27.1626 80.0005 40C80.0005 52.8374 80.0005 59.2561 77.8021 64.2819C75.1571 70.329 70.3295 75.1566 64.2824 77.8017C59.2566 80 52.8379 80 40.0005 80C27.1631 80 20.7444 80 15.7186 77.8017C9.67148 75.1566 4.84388 70.329 2.19884 64.2819C0.000488281 59.2561 0.000488281 52.8374 0.000488281 40Z" fill="url(#paint0_linear_739_14696)"/>
<path d="M-0.999512 25.2295C-0.999512 10.1911 11.1916 -2 26.23 -2H53.771C68.8094 -2 81.0005 10.1911 81.0005 25.2295L79.0005 26.2295C79.0005 12.8479 67.7048 2 53.771 2H26.23C12.2961 2 1.00049 12.8479 1.00049 26.2295L-0.999512 25.2295ZM80.0005 80H0.000488281H80.0005ZM26.23 80C11.1916 80 -0.999512 67.8089 -0.999512 52.7705V25.2295C-0.999512 10.1911 11.1916 -2 26.23 -2V2C12.2961 2 1.00049 12.8479 1.00049 26.2295V53.7705C1.00049 68.2566 12.2961 80 26.23 80ZM53.771 -2C68.8094 -2 81.0005 10.1911 81.0005 25.2295V52.7705C81.0005 67.8089 68.8094 80 53.771 80C67.7048 80 79.0005 68.2566 79.0005 53.7705V26.2295C79.0005 12.8479 67.7048 2 53.771 2V-2Z" fill="white" fill-opacity="0.1" mask="url(#path-2-inside-1_739_14696)"/>
<g clip-path="url(#clip1_739_14696)">
<path fill-rule="evenodd" clip-rule="evenodd" d="M48.1558 32.7047C47.8847 32.7499 47.591 32.795 47.3199 32.8176H47.2973C46.3619 32.8905 45.42 32.9177 44.4891 32.9026L53.4418 49.3122L53.487 49.2896C54.6844 51.9556 54.3681 55.0961 52.651 57.4684C50.9791 59.7955 48.3583 60.9477 45.6019 60.5862C38.4172 59.6147 32.1137 58.8917 30.8259 59.0047C28.0469 59.434 27.3013 61.3318 25.6294 65.8731L25.5994 65.9549L25.5993 65.9549C24.7276 68.3245 23.8255 70.7766 22.1727 72.8092C19.7326 75.8141 16.2532 76.0626 12.9772 76.2886C11.2827 76.4015 10.1304 76.4919 8.59407 77.3053C7.19329 78.0509 5.27286 79.768 4.821 81.2139H-4.55521C-3.76445 79.0901 -2.36367 76.0626 -1.27919 74.8652C3.42022 69.6461 8.30036 69.2621 12.4801 68.9683C14.2424 68.8554 16.1854 68.6972 16.6599 68.1324C17.541 67.0253 18.2188 65.2179 18.9192 63.2974L19.0374 62.9724C20.6245 58.6016 22.7115 52.8544 29.8092 51.7522C32.2753 51.3559 42.5096 52.7621 46.2282 53.2731L46.5057 53.3112C46.5734 53.3338 46.709 53.3338 46.8671 53.1304C46.9123 53.0627 47.0931 52.7915 46.9801 52.4526L35.4927 31.4385C34.8185 31.231 34.1443 31.0083 33.4702 30.7616C33.0183 30.6035 32.5664 30.4227 32.1146 30.2194L31.4142 29.9257L30.7816 29.6094C28.6352 28.5701 27.5959 26.2656 28.6352 24.2096C29.6745 22.1536 32.2727 21.2725 34.4869 22.0858L34.9387 22.244L35.8199 22.5829C36.0838 22.696 36.3791 22.7933 36.6666 22.8881C36.7236 22.9069 36.7804 22.9256 36.8366 22.9444C37.4014 23.1251 37.9662 23.3059 38.5311 23.464C38.5311 23.464 40.6548 24.2774 43.9309 24.4807C46.5065 24.7292 48.9692 24.5711 51.2059 23.8707C51.3033 23.8382 51.4236 23.7991 51.5571 23.7556C52.074 23.5874 52.7898 23.3545 53.1489 23.1929C56.9501 21.9191 62.8683 13.2448 64.1026 11.4357C64.2476 11.2232 64.3279 11.1055 64.3326 11.1055C64.3195 11.2308 64.306 11.4045 64.2891 11.6213C64.0176 15.1166 62.8776 29.7901 48.1558 32.7047ZM-4.77954 28.7504C7.87272 20.9557 20.6831 24.6836 20.7735 24.7288C22.6261 25.5647 24.7951 24.7288 25.6311 22.9213C26.467 21.0687 25.6311 18.8997 23.801 18.0638C19.8472 16.2789 4.34817 13.6355 -9.56931 22.7632C-10.7216 23.5313 -14.6302 26.5588 -16.6184 28.773H-4.77954V28.7504Z" fill="white"/>
</g>
</g>
<defs>
<linearGradient id="paint0_linear_739_14696" x1="80" y1="1.2964e-06" x2="-59.5" y2="123" gradientUnits="userSpaceOnUse">
<stop stop-color="#DF2C29"/>
<stop offset="1" stop-color="#630605"/>
</linearGradient>
<clipPath id="clip0_739_14696">
<rect width="80" height="80" rx="26.2295" fill="white"/>
</clipPath>
<clipPath id="clip1_739_14696">
<path d="M-5.90063 39.9993C-5.90063 14.6485 14.6502 -5.90234 40.001 -5.90234C65.3518 -5.90234 85.9026 14.6485 85.9026 39.9993C85.9026 65.3501 65.3518 85.9009 40.001 85.9009C14.6502 85.9009 -5.90063 65.3501 -5.90063 39.9993Z" fill="white"/>
</clipPath>
</defs>
</svg>
