<svg  viewBox="0 0 27 30" fill="none" xmlns="http://www.w3.org/2000/svg">
<path d="M20.8935 3.5C22.4935 2.9 23.6934 1.7999 25.2934 2.8999C26.8934 3.8999 27.2936 7.3999 25.9936 9.3999C24.3936 11.8999 21.8934 13.2998 19.2934 14.2998C18.5934 14.5998 18.0936 14.8998 17.4936 15.2998C15.2936 16.5998 15.4936 18.5998 17.4936 20.2998C18.3936 21.0998 19.0935 21.5998 18.8935 22.7998C18.8935 23.3998 18.9938 23.8999 19.6938 23.8999C20.8938 23.8999 20.7934 24.7 20.7934 25.5C20.7934 29.9 21.3938 28.9996 17.1938 29.0996C14.1938 29.0996 11.0937 29.0996 8.09366 29.0996C6.49366 29.0996 5.89366 28.6 6.09366 27C6.29366 25.6 5.49337 23.9 7.79337 23.5C7.29337 21.1 9.69357 20.5 10.4936 19C11.4936 17.1 10.4936 15.2999 7.99357 14.3999C5.39357 13.4999 2.99347 12.1999 1.39347 9.8999C0.193468 8.0999 -0.606337 6.2 0.593663 4C1.39366 2.5 2.69337 1.69961 4.29337 2.59961C5.69337 3.39961 6.19357 3.29961 5.99357 1.59961C5.79357 0.199609 6.69337 0 7.79337 0C10.9934 0 14.1934 0 17.2934 0C19.4267 0 20.5934 1.0998 20.7934 3.2998L20.8935 3.5ZM13.3935 1.2998C11.8935 1.2998 10.3935 1.2998 8.89347 1.2998C7.79347 1.2998 7.39347 1.6998 7.39347 2.7998C7.39347 5.0998 7.29347 7.39961 7.39347 9.59961C7.59347 12.4996 9.59366 14.5 12.5937 15C15.0937 15.5 17.3934 14.0997 18.7934 11.6997C20.0934 9.29971 19.2936 6.59961 19.4936 4.09961C19.6936 1.99961 18.9934 0.999805 16.7934 1.2998C15.6934 1.4998 14.4935 1.2998 13.3935 1.2998ZM13.1938 28C14.8938 28 16.4938 28 18.1938 28C19.1938 28 19.5937 27.4996 19.5937 26.5996C19.5937 25.6996 19.3938 25 18.1938 25C14.9938 25 11.8938 25 8.69376 25C7.59376 25 7.19376 25.6 7.19376 26.5C7.19376 27.5 7.59376 28 8.69376 28C10.1938 28 11.6938 28 13.1938 28ZM20.0937 12.3999C22.6937 10.7999 24.8934 9.9 25.2934 7C25.4934 5.6 25.7936 4.19961 23.9936 3.59961C22.8936 3.29961 20.7937 5.1999 20.5937 6.3999C20.5937 6.7999 20.5937 7.2998 20.5937 7.7998C20.5937 9.0998 20.5936 10.4999 19.9936 12.3999H20.0937ZM6.69376 12C5.59376 9.9 6.19357 7.99971 5.99357 6.19971C5.79357 4.59971 4.39347 4.29961 3.39347 3.59961C2.79347 3.19961 2.39347 3.8998 1.89347 4.2998C0.893468 5.1998 0.993565 6.2999 1.49357 7.3999C2.49357 9.4999 3.79366 11.3 6.59366 12H6.69376ZM13.2934 23.7998C14.3934 23.7998 15.5938 23.7998 16.6938 23.7998C17.2938 23.7998 17.5937 23.2997 17.5937 22.6997C17.5937 22.0997 17.1938 22 16.6938 22C14.5938 22 12.4935 22 10.3935 22C9.79347 22 9.29337 21.9998 9.29337 22.7998C9.29337 23.5998 9.79357 23.7998 10.4936 23.7998C11.4936 23.7998 12.4935 23.7998 13.3935 23.7998H13.2934ZM11.4936 20.5C13.9602 20.9 15.06 19.9998 14.7934 17.7998V17.5996C14.7934 16.6996 14.5936 16.1998 13.4936 16.2998C12.3936 16.2998 11.9937 16.6998 12.0937 17.7998C12.1937 18.7998 11.7936 19.6996 11.4936 20.5996V20.5Z" fill="#CD001E"/>
</svg>
