<svg viewBox="0 0 64 64" fill="none" xmlns="http://www.w3.org/2000/svg">
<rect width="64" height="64" rx="32" fill="white"/>
<g clip-path="url(#clip0_4280_1870)">
<path d="M30.3539 25.9678H18.8379V37.5876H30.3539V33.3193L28.5478 31.4969L30.3539 29.6745V25.9678ZM27.5555 35.4457H21.6325V32.8525H27.0814L27.5555 33.3309V35.4457ZM27.5555 29.6629L26.2235 31.0069H21.6325V28.1136H27.5555V29.6629Z" fill="#002761"/>
<path d="M44.1742 25.9668H32.6582V37.5866H44.1742V33.3183L42.3681 31.4959L44.1742 29.6735V25.9668ZM41.3758 35.4447H35.4586V32.8515H40.9113L41.3854 33.3299L41.3758 35.4447ZM41.3758 29.6619L40.0438 31.0059H35.4586V28.1107H41.3797L41.3758 29.6619Z" fill="#002761"/>
<path d="M4.44336 25.9678V37.5837H7.24366V32.8502H13.1648V37.5876H15.9593V25.9716L4.44336 25.9678ZM7.24366 31.0013V28.1128H13.1648V31.0052L7.24366 31.0013Z" fill="#002761"/>
<path d="M55.7713 30.0033V28.1119H49.8502V35.4415H55.7713V32.826H58.5688V37.5866H47.0527V25.9668H58.5688V30.0033H55.7713Z" fill="#002761"/>
</g>
<defs>
<clipPath id="clip0_4280_1870">
<rect width="54.1252" height="11.97" fill="white" transform="translate(4.44336 25.6172)"/>
</clipPath>
</defs>
</svg>
