<svg viewBox="0 0 64 64" fill="none" xmlns="http://www.w3.org/2000/svg">
<rect width="64" height="64" rx="32" fill="white"/>
<g clip-path="url(#clip0_4280_1386)">
<path d="M57.2908 21.6191H52.9362C51.4316 21.6621 50.795 22.063 50.2742 23.0223L42.7656 37.2689L45.1383 41.7648L45.4131 42.2946C46.2378 42.1085 46.7007 41.7076 47.0769 41.006L57.2908 21.6191Z" fill="url(#paint0_linear_4280_1386)"/>
<path d="M44.2855 21.6475H39.9453L50.1448 41.0343C50.6945 42.0509 51.4034 42.4231 53.154 42.4231H57.1614L46.9475 23.0363C46.4411 22.077 45.7901 21.6904 44.2855 21.6475Z" fill="#002F6C"/>
<path d="M44.2855 21.6475H39.9453L50.1448 41.0343C50.6945 42.0509 51.4034 42.4231 53.154 42.4231H57.1614L46.9475 23.0363C46.4411 22.077 45.7901 21.6904 44.2855 21.6475Z" fill="#002659"/>
<path d="M36.6758 25.6712L35.2725 23.0223C34.7517 22.063 34.1151 21.6621 32.6105 21.6191H28.2559L30.397 25.6712H36.6758Z" fill="#002F6C"/>
<path d="M36.6758 25.6712L35.2725 23.0223C34.7517 22.063 34.1151 21.6621 32.6105 21.6191H28.2559L30.397 25.6712H36.6758Z" fill="#002F6C"/>
<path d="M36.6758 25.6712L35.2725 23.0223C34.7517 22.063 34.1151 21.6621 32.6105 21.6191H28.2559L30.397 25.6712H36.6758Z" fill="#002659"/>
<path d="M45.1386 41.7639L37.2105 26.7012H30.9316L38.4547 41.005C39.0189 42.0359 39.7278 42.4082 41.4783 42.4082H44.068C44.5192 42.414 44.9699 42.3757 45.4134 42.2937L45.1386 41.7639Z" fill="#002F6C"/>
<path d="M45.1386 41.7639L37.2105 26.7012H30.9316L38.4547 41.005C39.0189 42.0359 39.7278 42.4082 41.4783 42.4082H44.068C44.5192 42.414 44.9699 42.3757 45.4134 42.2937L45.1386 41.7639Z" fill="#002F6C"/>
<path d="M45.1386 41.7639L37.2105 26.7012H30.9316L38.4547 41.005C39.0189 42.0359 39.7278 42.4082 41.4783 42.4082H44.068C44.5192 42.414 44.9699 42.3757 45.4134 42.2937L45.1386 41.7639Z" fill="#002659"/>
<path d="M16.7102 21.7344C15.8855 21.9062 15.4371 22.3071 15.0464 23.023L7.13281 42.4098H10.9233C12.4423 42.3526 13.0789 41.966 13.5997 41.0067L19.3577 26.7601L16.9851 22.2641L16.7102 21.7344Z" fill="url(#paint1_linear_4280_1386)"/>
<path d="M16.708 21.7338C16.5196 21.7737 16.3356 21.8313 16.1582 21.9056C16.5414 22.0301 16.8787 22.2643 17.1275 22.5785C17.1564 22.6072 17.3011 22.8363 17.3011 22.8363L26.8496 41.006C27.3704 41.9654 28.0214 42.352 29.526 42.4092H33.8662L23.6667 23.0224C23.117 21.9915 22.4081 21.6192 20.6575 21.6192H18.0534C17.602 21.6076 17.1507 21.646 16.708 21.7338Z" fill="#002659"/>
<path d="M16.708 21.7338C16.5196 21.7737 16.3356 21.8313 16.1582 21.9056C16.5414 22.0301 16.8787 22.2643 17.1275 22.5785C17.1564 22.6072 17.3011 22.8363 17.3011 22.8363L26.8496 41.006C27.3704 41.9654 28.0214 42.352 29.526 42.4092H33.8662L23.6667 23.0224C23.117 21.9915 22.4081 21.6192 20.6575 21.6192H18.0534C17.602 21.6076 17.1507 21.646 16.708 21.7338Z" fill="#002659"/>
</g>
<defs>
<linearGradient id="paint0_linear_4280_1386" x1="45.8356" y1="35.2011" x2="41.7742" y2="39.9491" gradientUnits="userSpaceOnUse">
<stop stop-color="#BB9A6B"/>
<stop offset="1" stop-color="#746246"/>
</linearGradient>
<linearGradient id="paint1_linear_4280_1386" x1="16.9487" y1="28.9083" x2="20.7529" y2="24.4622" gradientUnits="userSpaceOnUse">
<stop stop-color="#BB9A6B"/>
<stop offset="1" stop-color="#776548"/>
</linearGradient>
<clipPath id="clip0_4280_1386">
<rect width="50.1206" height="20.8293" fill="white" transform="translate(7.13281 21.6133)"/>
</clipPath>
</defs>
</svg>
