<svg viewBox="0 0 64 64" fill="none" xmlns="http://www.w3.org/2000/svg">
<rect width="64" height="64" rx="32" fill="white"/>
<path d="M53.1778 26.6612C52.9154 25.6116 52.5655 24.6495 52.2156 23.6873C52.0407 23.3375 51.9532 23.075 51.7783 22.8126C51.341 21.8505 50.3788 20.2761 49.7665 19.4888C49.5916 19.2264 49.4166 18.964 49.1542 18.7016L48.2796 17.652C47.8422 17.1272 46.4427 15.8152 45.8304 15.2904C45.3056 14.853 44.8683 14.5032 44.3435 14.1533C41.3696 12.1415 38.2207 10.917 34.6345 10.4796C33.9348 10.3922 33.3225 10.3047 32.7102 10.3047H30.7859C30.436 10.3922 29.9112 10.3922 29.5614 10.3922C27.7245 10.5671 25.8877 11.0919 24.2258 11.7042C23.4386 12.0541 22.5639 12.4039 21.9516 12.7538C21.7767 12.9287 21.6892 12.9287 21.5143 13.0162C21.3394 13.1037 21.2519 13.1911 21.0769 13.2786C20.902 13.3661 20.8145 13.4535 20.6396 13.541C19.6775 14.1533 19.3276 14.4157 18.278 15.2029C17.7532 15.6402 17.3158 16.0776 16.8785 16.5149L15.9163 17.4771C15.7414 17.652 15.7414 17.7395 15.5665 17.827C15.3915 18.0894 15.2166 18.3518 14.9542 18.6142C14.7792 18.8766 14.6043 19.0515 14.4294 19.3139L13.3797 20.8883L12.68 22.2004C12.3301 22.9001 11.8928 23.8623 11.6304 24.562C11.4554 25.2618 11.193 25.874 11.0181 26.5738C10.8432 27.2735 10.6682 27.9733 10.5808 28.7605C10.4058 29.6352 10.3184 30.5098 10.3184 31.3845C10.3184 32.959 10.3184 33.5712 10.4933 35.2331C10.8432 37.6822 11.6304 40.0439 12.7675 42.1431C14.3419 45.2045 16.7035 47.916 19.5025 49.8403C20.3772 50.4526 21.7767 51.3273 22.8263 51.7646C25.3629 52.9017 28.4243 53.7764 31.3107 53.7764C33.7598 53.7764 34.9844 53.7764 37.346 53.1641C39.2703 52.7268 40.7573 52.027 42.5067 51.1523C43.3813 50.715 44.9558 49.6654 45.6555 49.0531C46.8801 48.0035 47.5798 47.3912 48.6294 46.0792C49.0668 45.5544 49.4166 45.117 49.7665 44.5922L50.5537 43.4551C50.6412 43.2802 50.7287 43.1927 50.8161 43.0178C51.6034 41.7058 51.9532 40.8311 52.478 39.4316C52.7404 38.8193 52.9154 38.1196 53.0903 37.4198C54.0525 33.8336 54.0525 30.2474 53.1778 26.6612ZM48.7169 19.7513C49.0668 20.2761 49.4166 20.7134 49.6791 21.2382C50.0289 21.763 50.2913 22.2878 50.5537 22.8126C50.6412 22.9876 50.6412 23.075 50.7287 23.25L51.0785 24.1247C51.166 24.2996 51.166 24.4745 51.2535 24.562H43.3813C43.2939 24.3871 43.2064 23.8623 43.2064 23.6873C43.1189 23.4249 43.0315 23.1625 42.944 22.8126L42.4192 21.2382C42.0693 20.2761 41.632 19.4014 41.1072 18.5267L41.0197 18.3518H47.6673C47.6673 18.5267 48.6294 19.6638 48.7169 19.7513ZM35.5092 11.6167C36.8212 11.7916 38.2207 12.229 39.4453 12.6663L41.3696 13.541C41.8944 13.8034 42.3317 14.0658 42.7691 14.3282C44.0811 15.1154 44.8683 15.7277 45.9179 16.7773C46.1803 16.9523 46.4427 17.1272 46.6177 17.3021H40.32C39.8826 16.5149 37.9583 14.3282 37.1711 13.6285L36.9962 13.4535L36.2089 12.7538C36.034 12.6663 35.9465 12.5789 35.7716 12.4039C35.5967 12.3165 35.5092 12.229 35.3343 12.0541L34.4596 11.4418C34.8095 11.5292 35.1593 11.6167 35.5092 11.6167ZM32.6228 11.4418C32.7102 11.4418 33.41 11.8791 33.5849 12.0541C33.9348 12.229 35.4217 13.4535 35.7716 13.7159L36.2089 14.0658C36.4714 14.3282 36.7338 14.5032 36.9962 14.7656L39.0079 17.3021H32.6228V11.4418ZM32.6228 18.4392H39.7951C39.7951 18.6142 39.8826 18.6142 39.9701 18.7891L40.9322 20.5385C41.1946 21.0633 41.3696 21.5006 41.632 22.1129C41.8069 22.5502 42.3317 24.2996 42.3317 24.6495H32.6228V18.4392ZM31.5731 11.4418V17.3021H25.188C25.5378 16.6899 26.1501 16.1651 26.5874 15.6402L28.9491 13.4535C29.5614 13.0162 30.0862 12.4914 30.6985 12.1415C30.7859 11.9666 31.3982 11.5292 31.5731 11.4418ZM31.5731 18.4392V24.562H21.8642C21.8642 24.2121 22.214 23.1625 22.3015 22.8126C22.4764 22.2004 22.6514 21.763 22.9138 21.2382C23.2637 20.3635 23.5261 19.8387 23.9634 19.0515C24.0509 18.964 24.3133 18.5267 24.3133 18.4392H31.5731ZM17.8406 17.0397L18.103 16.7773C20.2023 14.7656 23.1762 13.1911 25.9752 12.229C26.7624 11.9666 27.812 11.7916 28.6867 11.6167C29.0366 11.5292 29.3864 11.5292 29.7363 11.5292C29.3864 11.7916 28.5992 12.3165 28.0744 12.7538C27.9869 12.8413 27.8995 12.8413 27.812 12.9287C27.3747 13.2786 25.9752 14.5906 25.7128 14.9405L25.188 15.5528C24.9255 15.8152 23.9634 17.0397 23.7885 17.4771H17.5782C17.6657 17.2147 17.7532 17.1272 17.8406 17.0397ZM13.5547 22.8126C13.6422 22.7252 13.6422 22.6377 13.7296 22.4628C13.8171 22.2004 13.9046 22.0254 14.0795 21.763L14.8667 20.451C15.0416 20.3635 16.1787 18.7016 16.4411 18.4392C16.5286 18.3518 16.6161 18.3518 16.8785 18.3518H23.0887C23.0887 18.4392 23.0012 18.6142 22.9138 18.7016C22.4764 19.4888 22.0391 20.3635 21.6892 21.2382C21.5143 21.763 21.2519 22.2878 21.1644 22.8126C21.0769 23.1625 20.7271 24.2121 20.7271 24.562H12.7675C12.9424 24.1247 13.2923 23.3375 13.5547 22.8126ZM16.4411 45.6418C16.4411 45.5544 15.479 44.4173 15.3915 44.2424L13.5547 41.181C13.2923 40.6562 13.0299 39.8689 12.7675 39.4316H20.7271C20.7271 39.8689 20.9895 40.7436 21.1644 41.181C21.7767 43.1927 23.0887 45.6418 23.0887 45.6418H16.4411ZM27.7245 52.2894C25.4504 51.7646 23.3511 50.9774 21.3394 49.7528C20.902 49.4904 20.3772 49.1406 20.0273 48.8782C19.8524 48.7032 19.59 48.5283 19.4151 48.3534C19.3276 48.2659 19.2401 48.1784 19.0652 48.091C18.9777 48.0035 18.9777 48.0035 18.8902 48.0035L18.7153 47.8285L18.4529 47.5661L18.1905 47.3037C18.0156 47.1288 17.7532 46.9539 17.6657 46.7789H23.9634C24.3133 47.3912 25.013 48.1784 25.5378 48.7907C25.6253 48.9656 25.8002 49.0531 25.8877 49.1406C26.4125 49.8403 28.1619 51.3273 28.9491 51.9396L29.8238 52.5518C29.124 52.5518 28.1619 52.3769 27.7245 52.2894ZM31.5731 52.5518C31.1358 52.4644 29.3864 50.9774 28.8616 50.6275L28.4243 50.2777C27.9869 49.8403 27.2872 49.3155 26.8498 48.7907L25.4504 47.1288C25.3629 46.9539 25.2754 46.8664 25.1005 46.6915H31.4857L31.5731 52.5518ZM31.5731 45.6418H24.3133C24.3133 45.5544 24.2258 45.4669 24.1383 45.292C24.0509 45.2045 23.9634 45.0296 23.9634 44.9421L23.1762 43.5426C22.6514 42.5805 21.9516 40.4812 21.7767 39.4316H31.4857L31.5731 45.6418ZM39.0079 46.7789C38.5706 47.4787 37.521 48.6158 36.9087 49.228C36.7338 49.403 36.6463 49.4904 36.5588 49.6654L35.3343 50.715C34.8969 51.0649 32.9726 52.5518 32.6228 52.6393V46.7789H39.0079ZM32.6228 45.6418V39.5191H42.3317C42.3317 39.9564 41.8069 41.5308 41.632 42.0556C41.5445 42.3181 41.457 42.5805 41.2821 42.8429C41.0197 43.4551 40.4074 44.6797 39.9701 45.3794C39.8826 45.4669 39.7951 45.5544 39.7951 45.7293H32.6228V45.6418ZM45.3931 47.8285L44.7808 48.3534C44.6059 48.5283 44.3435 48.7032 44.1686 48.8782C41.5445 50.715 38.6581 52.027 35.5092 52.5518C35.1593 52.6393 34.8095 52.6393 34.4596 52.6393L36.5588 51.0649C36.9962 50.715 38.5706 49.1406 39.0954 48.4408L40.0576 47.2163L40.2325 47.0413C40.32 46.9539 40.32 46.9539 40.4074 46.7789H46.7051C46.4427 46.9539 45.743 47.5661 45.3931 47.8285ZM51.166 39.9564L50.8161 40.8311C50.3788 41.7932 49.4166 43.4551 48.7169 44.3298L47.6673 45.7293H41.0197C42.0693 43.805 42.3317 43.4551 42.944 41.2684L43.3813 39.5191H51.2535C51.3409 39.6065 51.2535 39.7815 51.166 39.9564ZM52.1282 36.9825C52.0407 37.2449 52.0407 37.5073 51.9532 37.7697C51.8658 37.9446 51.7783 38.382 51.7783 38.4694H12.4176L11.9803 36.9825C11.8928 36.4577 11.7179 35.9329 11.6304 35.4081C11.5429 34.8833 11.4554 34.3584 11.4554 33.7462C11.4554 33.4838 11.368 33.1339 11.368 32.8715V31.9968C11.368 30.16 11.6304 28.0607 12.1552 26.3114C12.2427 26.049 12.3301 25.7866 12.3301 25.6116H51.6908C51.7783 25.7866 51.8658 26.049 51.8658 26.3114C52.2156 27.4485 52.478 29.0229 52.5655 30.2474V31.9968C52.7404 33.6587 52.5655 35.4081 52.1282 36.9825Z" fill="#7A6E67"/>
<path d="M21.9518 36.5451C23.0014 36.5451 22.739 36.72 23.1764 35.9328L23.9636 34.4458C24.0511 34.2709 24.0511 34.1834 24.1385 34.096C24.6633 33.2213 25.2756 31.8218 25.8004 30.9471L25.8879 30.8596C25.8879 31.122 25.9754 31.4719 25.9754 31.6468C25.9754 31.9967 25.9754 32.1717 26.0628 32.4341L26.4127 36.1077C26.4127 36.5451 26.2378 36.4576 27.4623 36.4576C27.5498 36.2827 28.9493 33.3962 29.2117 33.0463C29.2992 32.8714 29.3866 32.6965 29.4741 32.4341L30.9611 29.5476L31.2235 29.0228C31.3984 28.7604 31.8357 27.8857 32.0107 27.7108C32.1856 27.5358 32.1856 27.7108 32.1856 27.4484H30.4362C30.4362 28.0607 30.7861 27.7108 29.9989 29.4601C29.9114 29.7225 29.824 29.8975 29.649 30.1599L28.2495 32.8714C28.1621 33.0463 27.9871 33.4837 27.8997 33.4837C27.8997 32.7839 27.5498 29.985 27.5498 29.1103C27.5498 28.5855 27.4623 28.1481 27.4623 27.6233H26.6751L24.0511 32.4341C23.9636 32.609 23.5263 33.4837 23.4388 33.4837C23.4388 32.3466 23.0014 29.8975 23.0014 28.5855C23.0014 28.4105 23.0014 28.1481 23.0889 27.9732C23.1764 27.7108 23.3513 27.7108 23.3513 27.4484H20.7273C20.7273 27.7982 20.9022 27.6233 21.0771 28.4105L21.3396 30.6847C21.427 31.6468 21.9518 36.1077 21.9518 36.5451ZM16.004 29.4601C16.004 31.2095 19.4153 31.3844 19.4153 33.7461C19.4153 34.3584 19.3278 34.7082 19.1528 35.0581C18.9779 35.408 18.803 35.6704 18.5406 35.9328C18.2782 36.1952 17.9283 36.3701 17.5784 36.4576C16.6163 36.8075 15.3917 36.72 14.3421 36.4576C14.1672 36.3701 13.9048 36.2827 13.7298 36.2827C12.9426 35.9328 13.2925 35.9328 13.5549 34.5333C13.6424 34.3584 13.5549 34.2709 13.7298 34.1834C13.7298 34.7082 13.9922 35.233 14.2546 35.4954C14.692 36.0203 15.3042 36.0203 16.004 36.0203C16.7912 36.0203 17.4035 35.4955 17.5784 34.8832C17.8408 33.5711 16.7037 33.0463 16.004 32.4341C15.2168 31.8218 14.3421 31.2095 14.3421 29.985C14.3421 29.3727 14.6045 28.6729 14.9544 28.4105C15.3042 28.0607 15.7416 27.7108 16.2664 27.5358C16.7037 27.3609 17.1411 27.3609 17.6659 27.2734C18.1032 27.2734 19.4153 27.4484 19.8526 27.7108C19.8526 27.9732 19.5027 29.1103 19.5027 29.2852H19.3278C19.3278 28.9353 19.0654 28.498 18.803 28.2356C18.628 28.1481 18.5406 28.0607 18.2782 27.9732C17.2285 27.7108 16.004 28.1481 16.004 29.4601ZM38.6583 27.9732C38.6583 28.498 37.6961 31.7343 37.5212 32.3466C37.2588 33.3087 36.9089 34.6208 36.559 35.5829C36.4716 35.9328 36.2966 36.2827 35.9467 36.3701V36.5451H38.6583C38.6583 36.0203 38.2209 36.4576 39.0081 34.096L39.5329 32.2591H41.0199C41.4572 32.3466 41.8071 32.4341 41.8946 32.8714C42.157 32.8714 42.0695 32.6965 42.2445 32.0842C42.3319 31.8218 42.4194 31.4719 42.5069 31.2095C42.2445 31.2095 42.3319 31.3844 41.982 31.4719C41.6322 31.5594 40.1452 31.5594 39.7079 31.5594L40.4951 28.7604C40.67 27.9732 40.845 28.1481 42.2445 28.1481C42.5943 28.1481 42.9442 28.3231 43.1191 28.498C43.6439 29.0228 43.3815 29.1103 43.7314 29.1103C43.7314 28.9353 43.9063 28.498 43.9938 28.2356C44.0813 28.0607 44.0813 27.9732 44.1688 27.7982C44.2562 27.6233 44.3437 27.4484 44.1688 27.4484H38.7457C38.4833 27.7108 38.6583 27.7982 38.6583 27.9732ZM44.0813 29.1103C44.4312 29.1103 44.2562 28.7604 45.0434 28.3231C45.5682 28.0607 46.0056 28.1481 46.7053 28.1481L44.8685 34.5333C44.6936 35.0581 44.4312 36.2827 43.9938 36.3701V36.5451H46.6179C46.6179 36.0203 46.268 36.5451 46.7053 34.9706C46.7928 34.6208 46.8803 34.3584 46.9677 34.0085L47.4925 32.0842C47.8424 30.9471 48.1923 29.6351 48.5422 28.4105C48.6296 28.1481 48.5422 28.2356 49.4168 28.2356C50.0291 28.2356 50.5539 28.6729 50.7289 29.1977C50.9913 29.1977 50.9038 28.9353 51.0787 28.498C51.1662 28.3231 51.3411 27.7982 51.3411 27.6233H44.781C44.6061 27.6233 44.5186 28.0607 44.4312 28.4105C44.2562 28.498 44.0813 28.8479 44.0813 29.1103ZM33.6726 27.8857C33.6726 28.4105 33.6726 28.2356 33.5851 28.7604L33.1478 30.3348C32.9728 31.0346 31.6608 35.7579 31.3109 36.1077C31.136 36.3701 31.0485 36.2827 30.9611 36.4576H33.6726C33.6726 35.9328 33.3227 36.3701 33.76 34.7957L34.0224 33.7461C34.1974 33.0463 34.4598 32.3466 34.6347 31.6468C34.8971 30.6847 35.247 29.3727 35.5969 28.4105C35.6843 28.0607 35.8593 27.7108 36.2091 27.6233V27.4484C32.623 27.4484 33.6726 27.3609 33.6726 27.8857Z" fill="#7A6E67"/>
</svg>
