<?xml version="1.0" encoding="utf-8"?>
<!-- Generator: Adobe Illustrator 27.6.1, SVG Export Plug-In . SVG Version: 6.00 Build 0)  -->
<svg version="1.1" id="Layer_1" xmlns="http://www.w3.org/2000/svg" xmlns:xlink="http://www.w3.org/1999/xlink" x="0px" y="0px"
	 viewBox="0 0 404 230" style="enable-background:new 0 0 404 230;" xml:space="preserve">
<style type="text/css">
	.st0{fill:#CD001E;}
</style>
<g>
	<g>
		<path class="st0" d="M236.87,188.74c-0.55-1.32-0.82-2.69-0.82-4.12c0-1.43,0.27-2.8,0.82-4.09c0.53-1.27,1.29-2.4,2.27-3.36
			c0.95-0.98,2.09-1.74,3.36-2.27c1.29-0.55,2.67-0.82,4.09-0.82c1.66,0,3.25,0.37,4.7,1.11c1.43,0.69,2.67,1.72,3.62,2.96
			l-3.09,2.4c-0.61-0.77-1.4-1.43-2.27-1.85c-0.92-0.48-1.9-0.69-2.96-0.69c-1.77,0-3.43,0.69-4.68,1.93
			c-1.24,1.24-1.93,2.9-1.93,4.68c0,1.77,0.69,3.43,1.93,4.67c1.24,1.27,2.9,1.96,4.68,1.96c1.06,0,2.06-0.24,2.98-0.71
			c0.87-0.45,1.67-1.08,2.27-1.88l3.12,2.38c-0.95,1.27-2.22,2.3-3.62,3.01c-1.48,0.74-3.09,1.13-4.75,1.13
			c-1.43,0-2.8-0.29-4.09-0.84c-1.27-0.53-2.4-1.29-3.36-2.25C238.17,191.12,237.4,189.98,236.87,188.74z"/>
		<path class="st0" d="M262.58,195.19h-3.96l8.32-17.33l0.21-0.45l1.88-3.93l1.9,3.96l0.08,0.18l8.43,17.56h-3.96l-1.67-3.38h-9.59
			L262.58,195.19z M265.96,188.13h6.05l-3.06-6.21L265.96,188.13z"/>
		<path class="st0" d="M287.49,174.14h5.18c0.98,0,1.95,0.18,2.85,0.55c0.9,0.37,1.69,0.9,2.4,1.53c0.71,0.69,1.27,1.45,1.66,2.32
			c0.42,0.92,0.63,1.9,0.63,2.9s-0.21,1.98-0.63,2.91c-0.4,0.85-0.95,1.64-1.66,2.3c-0.71,0.66-1.51,1.16-2.4,1.53
			c-0.9,0.37-1.85,0.58-2.83,0.58h-5.2v6.42h-3.94v-21.05H287.49z M287.49,178.07v6.76h5.18c0.92,0,1.85-0.37,2.56-1.03
			c0.69-0.66,1.06-1.48,1.06-2.35c0-0.87-0.37-1.72-1.06-2.35c-0.71-0.66-1.64-1.03-2.56-1.03H287.49z"/>
		<path class="st0" d="M308.26,195.19h-3.8V174h3.8V195.19z"/>
		<path class="st0" d="M330.61,177.83h-6.66v17.35h-3.8v-17.35h-6.66v-3.8h17.12V177.83z"/>
		<path class="st0" d="M334.63,195.19h-3.96l8.32-17.33l0.21-0.45l1.88-3.93l1.9,3.96l0.08,0.18l8.43,17.56h-3.96l-1.67-3.38h-9.59
			L334.63,195.19z M338.01,188.13h6.05l-3.06-6.21L338.01,188.13z"/>
		<path class="st0" d="M370.95,195.19h-15.35v-3.75v-17.33h3.73v17.33h11.62V195.19z"/>
	</g>
	<g>
		<path class="st0" d="M184.27,45.81c-16.12,0-29.88,5.7-41.29,17.11c-11.41,11.41-17.11,25.17-17.11,41.29
			c0,16.12,5.71,29.88,17.11,41.29c11.41,11.41,25.17,17.11,41.29,17.11c16.12,0,29.88-5.7,41.29-17.11
			c11.41-11.41,17.11-25.17,17.11-41.29c0-16.12-5.7-29.88-17.11-41.29C214.15,51.52,200.39,45.81,184.27,45.81z M207.02,126.97
			c-6.3,6.29-13.88,9.44-22.75,9.44c-8.87,0-16.46-3.15-22.75-9.44c-6.29-6.29-9.44-13.88-9.44-22.75c0-8.87,3.15-16.46,9.44-22.75
			c6.29-6.29,13.88-9.44,22.75-9.44c8.87,0,16.46,3.15,22.75,9.44c6.29,6.29,9.44,13.88,9.44,22.75
			C216.46,113.09,213.32,120.67,207.02,126.97z"/>
		<path class="st0" d="M123.24,86.9c0-20.42-16.61-37.03-37.03-37.03H64.02v0.02H38.05v109.36h27.32v-35.32h14.27l26.18,35.32h31.65
			l-30.78-41.51C116.65,111.09,123.24,99.75,123.24,86.9z M65.36,77.18H86.2c5.36,0,9.72,4.36,9.72,9.72c0,5.36-4.36,9.72-9.72,9.72
			H65.36V77.18z"/>
		<path class="st0" d="M370.95,159.25l-17.54-23.66c6.01-9.22,9.02-19.67,9.02-31.37c0-16.12-5.7-29.88-17.11-41.29
			c-11.41-11.41-25.17-17.11-41.29-17.11c-16.12,0-29.88,5.7-41.29,17.11c-11.41,11.41-17.11,25.17-17.11,41.29
			c0,16.12,5.71,29.88,17.11,41.29c11.41,11.41,25.17,17.11,41.29,17.11c11.62,0,22.01-2.97,31.19-8.89l4.09,5.52H370.95z
			 M304.03,136.41c-8.87,0-16.46-3.15-22.75-9.44c-6.29-6.29-9.44-13.88-9.44-22.75c0-8.87,3.15-16.46,9.44-22.75
			c6.29-6.29,13.88-9.44,22.75-9.44c8.87,0,16.46,3.15,22.75,9.44c6.29,6.29,9.44,13.88,9.44,22.75c0,2.86-0.33,5.58-0.98,8.17
			h-30.67l14.93,20.13C314.87,135.11,309.71,136.41,304.03,136.41z"/>
	</g>
</g>
</svg>
