<svg viewBox="0 0 333 150" fill="none" xmlns="http://www.w3.org/2000/svg">
<path d="M146.224 0C130.104 0 116.344 5.7 104.934 17.11C93.5242 28.52 87.8242 42.28 87.8242 58.4C87.8242 74.52 93.5342 88.28 104.934 99.69C116.344 111.1 130.104 116.8 146.224 116.8C162.344 116.8 176.104 111.1 187.514 99.69C198.924 88.28 204.624 74.52 204.624 58.4C204.624 42.28 198.924 28.52 187.514 17.11C176.104 5.71 162.344 0 146.224 0ZM168.974 81.16C162.674 87.45 155.094 90.6 146.224 90.6C137.354 90.6 129.764 87.45 123.474 81.16C117.184 74.87 114.034 67.28 114.034 58.41C114.034 49.54 117.184 41.95 123.474 35.66C129.764 29.37 137.354 26.22 146.224 26.22C155.094 26.22 162.684 29.37 168.974 35.66C175.264 41.95 178.414 49.54 178.414 58.41C178.414 67.28 175.274 74.86 168.974 81.16Z" fill="#CD001E"/>
<path d="M85.1939 41.0901C85.1939 20.6701 68.5839 4.06006 48.1639 4.06006H25.9739V4.08006H0.00390625V113.44H27.3239V78.1201H41.5939L67.7739 113.44H99.4239L68.6439 71.9301C78.6039 65.2801 85.1939 53.9401 85.1939 41.0901ZM27.3139 31.3701H48.1539C53.5139 31.3701 57.8739 35.7301 57.8739 41.0901C57.8739 46.4501 53.5139 50.8101 48.1539 50.8101H27.3139V31.3701Z" fill="#CD001E"/>
<path d="M332.902 113.44L315.362 89.7798C321.372 80.5598 324.382 70.1098 324.382 58.4098C324.382 42.2898 318.682 28.5298 307.272 17.1198C295.862 5.70977 282.102 0.00976562 265.982 0.00976562C249.862 0.00976562 236.102 5.70977 224.692 17.1198C213.282 28.5298 207.582 42.2898 207.582 58.4098C207.582 74.5298 213.292 88.2898 224.692 99.6998C236.102 111.11 249.862 116.81 265.982 116.81C277.602 116.81 287.992 113.84 297.172 107.92L301.262 113.44H332.902ZM265.982 90.5998C257.112 90.5998 249.522 87.4498 243.232 81.1598C236.942 74.8698 233.792 67.2798 233.792 58.4098C233.792 49.5398 236.942 41.9498 243.232 35.6598C249.522 29.3698 257.112 26.2198 265.982 26.2198C274.852 26.2198 282.442 29.3698 288.732 35.6598C295.022 41.9498 298.172 49.5398 298.172 58.4098C298.172 61.2698 297.842 63.9898 297.192 66.5798H266.522L281.452 86.7098C276.822 89.2998 271.662 90.5998 265.982 90.5998Z" fill="#CD001E"/>
<path d="M198.82 143.07C198.27 141.75 198 140.38 198 138.95C198 137.52 198.27 136.15 198.82 134.86C199.35 133.59 200.11 132.46 201.09 131.5C202.04 130.52 203.18 129.76 204.45 129.23C205.74 128.68 207.12 128.41 208.54 128.41C210.2 128.41 211.79 128.78 213.24 129.52C214.67 130.21 215.91 131.24 216.86 132.48L213.77 134.88C213.16 134.11 212.37 133.45 211.5 133.03C210.58 132.55 209.6 132.34 208.54 132.34C206.77 132.34 205.11 133.03 203.86 134.27C202.62 135.51 201.93 137.17 201.93 138.95C201.93 140.72 202.62 142.38 203.86 143.62C205.1 144.89 206.76 145.58 208.54 145.58C209.6 145.58 210.6 145.34 211.52 144.87C212.39 144.42 213.19 143.79 213.79 142.99L216.91 145.37C215.96 146.64 214.69 147.67 213.29 148.38C211.81 149.12 210.2 149.51 208.54 149.51C207.11 149.51 205.74 149.22 204.45 148.67C203.18 148.14 202.05 147.38 201.09 146.42C200.12 145.45 199.35 144.31 198.82 143.07Z" fill="black"/>
<path d="M224.53 149.52H220.57L228.89 132.19L229.1 131.74L230.98 127.81L232.88 131.77L232.96 131.95L241.39 149.51H237.43L235.76 146.13H226.17L224.53 149.52ZM227.91 142.46H233.96L230.9 136.25L227.91 142.46Z" fill="black"/>
<path d="M249.44 128.469H254.62C255.6 128.469 256.57 128.649 257.47 129.019C258.37 129.389 259.16 129.919 259.87 130.549C260.58 131.239 261.14 131.999 261.53 132.869C261.95 133.789 262.16 134.769 262.16 135.769C262.16 136.769 261.95 137.749 261.53 138.679C261.13 139.529 260.58 140.319 259.87 140.979C259.16 141.639 258.36 142.139 257.47 142.509C256.57 142.879 255.62 143.089 254.64 143.089H249.44V149.509H245.5V128.459H249.44V128.469ZM249.44 132.399V139.159H254.62C255.54 139.159 256.47 138.789 257.18 138.129C257.87 137.469 258.24 136.649 258.24 135.779C258.24 134.909 257.87 134.059 257.18 133.429C256.47 132.769 255.54 132.399 254.62 132.399H249.44Z" fill="black"/>
<path d="M270.21 149.52H266.41V128.33H270.21V149.52Z" fill="black"/>
<path d="M292.561 132.159H285.901V149.509H282.101V132.159H275.441V128.359H292.561V132.159Z" fill="black"/>
<path d="M296.581 149.52H292.621L300.941 132.19L301.151 131.74L303.031 127.81L304.931 131.77L305.011 131.95L313.441 149.51H309.481L307.811 146.13H298.221L296.581 149.52ZM299.961 142.46H306.011L302.951 136.25L299.961 142.46Z" fill="black"/>
<path d="M332.901 149.519H317.551V145.769V128.439H321.281V145.769H332.901V149.519Z" fill="black"/>
</svg>
