<svg width="48" height="48" viewBox="0 0 48 48" fill="none" xmlns="http://www.w3.org/2000/svg">
<path opacity="0.12" d="M8 22H40V34.4C40 37.7603 40 39.4405 39.346 40.7239C38.7708 41.8529 37.8529 42.7708 36.7239 43.346C35.4405 44 33.7603 44 30.4 44H17.6C14.2397 44 12.5595 44 11.2761 43.346C10.1471 42.7708 9.2292 41.8529 8.65396 40.7239C8 39.4405 8 37.7603 8 34.4V22Z" fill="#DF2C29"/>
<path fill-rule="evenodd" clip-rule="evenodd" d="M31 5C33.2091 5 35 6.79086 35 9C35 11.2091 33.2091 13 31 13H25.344L26.8545 7.96496C27.3825 6.20515 29.0022 5 30.8395 5H31ZM37 9C37 10.5367 36.4223 11.9385 35.4722 13H40C42.7614 13 45 15.2386 45 18C45 20.419 43.2822 22.4367 41 22.9V34.4V34.4444C41 36.087 41 37.3809 40.9149 38.4222C40.8281 39.4846 40.6478 40.3717 40.237 41.1779C39.5659 42.4951 38.4951 43.5659 37.1779 44.237C36.3717 44.6478 35.4846 44.8281 34.4222 44.9149C33.3809 45 32.087 45 30.4445 45H30.4444H30.4H24H17.6H17.5556H17.5555C15.913 45 14.6191 45 13.5778 44.9149C12.5154 44.8281 11.6283 44.6478 10.8221 44.237C9.50493 43.5659 8.43407 42.4951 7.76295 41.1779C7.35217 40.3717 7.17186 39.4846 7.08507 38.4222C6.99999 37.3809 6.99999 36.087 7 34.4444V34.4444V34.4V22.9C4.71776 22.4367 3 20.419 3 18C3 15.2386 5.23858 13 8 13H12.5278C11.5777 11.9385 11 10.5367 11 9C11 5.68629 13.6863 3 17 3H17.1605C19.881 3 22.2794 4.78449 23.0611 7.39026L24 10.5199L24.9389 7.39026C25.7206 4.78449 28.119 3 30.8395 3H31C34.3137 3 37 5.68629 37 9ZM9 23V34.4C9 36.0967 9.00078 37.309 9.07842 38.2594C9.15512 39.198 9.30179 39.7927 9.54497 40.27C10.0243 41.2108 10.7892 41.9757 11.73 42.455C12.2073 42.6982 12.802 42.8449 13.7406 42.9216C14.691 42.9992 15.9033 43 17.6 43H23V23H9ZM25 23V43H30.4C32.0967 43 33.309 42.9992 34.2594 42.9216C35.198 42.8449 35.7927 42.6982 36.27 42.455C37.2108 41.9757 37.9757 41.2108 38.455 40.27C38.6982 39.7927 38.8449 39.198 38.9216 38.2594C38.9992 37.309 39 36.0967 39 34.4V23H25ZM43 18C43 19.6569 41.6569 21 40 21H25V15H31H40C41.6569 15 43 16.3431 43 18ZM23 21V15H17H8C6.34315 15 5 16.3431 5 18C5 19.6569 6.34315 21 8 21H23ZM22.656 13L21.1455 7.96496C20.6175 6.20515 18.9978 5 17.1605 5H17C14.7909 5 13 6.79086 13 9C13 11.2091 14.7909 13 17 13H22.656Z" fill="#DF2C29"/>
</svg>
