<svg width="48" height="48" viewBox="0 0 48 48" fill="none" xmlns="http://www.w3.org/2000/svg">
<path opacity="0.12" d="M6 17.2472C6 14.6859 6 13.4052 6.49247 12.0673C6.87349 11.0323 7.75104 9.71549 8.55972 8.96542C9.60497 7.99594 10.567 7.59474 12.4911 6.79235C15.9145 5.36467 20.1847 4 24 4C27.8153 4 32.0855 5.36467 35.5089 6.79235C37.433 7.59474 38.395 7.99594 39.4403 8.96542C40.249 9.71549 41.1265 11.0323 41.5075 12.0673C42 13.4052 42 14.6859 42 17.2472V21.3945C42 26.0067 42 28.3128 41.2128 30.7287C40.6063 32.59 39.1825 35.0484 37.8698 36.5007C36.166 38.3857 34.6267 39.2688 31.5481 41.0351C28.6482 42.6987 25.8036 43.9999 24 43.9999C22.1964 43.9999 19.3518 42.6987 16.4519 41.0351C13.3733 39.2688 11.834 38.3857 10.1302 36.5007C8.81749 35.0484 7.39365 32.59 6.78716 30.7287C6 28.3128 6 26.0067 6 21.3945V17.2472Z" fill="#DF2C29"/>
<path fill-rule="evenodd" clip-rule="evenodd" d="M12.876 7.71531C16.2641 6.30237 20.3862 5 24 5C27.6138 5 31.736 6.30237 35.1241 7.71531C37.0748 8.52882 37.8667 8.86984 38.7603 9.69861C39.4535 10.3416 40.2425 11.5255 40.5691 12.4128C40.9872 13.5486 41 14.63 41 17.2472L41 21.3945C41 26.0571 40.9897 28.1857 40.262 30.4189C39.6991 32.1466 38.3464 34.4821 37.1279 35.8302C35.5465 37.5798 34.1462 38.3916 31.0505 40.1677C29.621 40.9878 28.2266 41.7059 26.9832 42.2163C25.7159 42.7365 24.7014 42.9999 24 42.9999C23.2986 42.9999 22.2841 42.7365 21.0168 42.2163C19.7734 41.7059 18.3791 40.9878 16.9496 40.1677C13.8539 38.3916 12.4536 37.5798 10.8721 35.8302C9.65359 34.4821 8.30094 32.1466 7.73798 30.4189C7.01034 28.1857 7.00002 26.0571 7.00002 21.3945L7.00002 17.2472C7.00002 14.63 7.01283 13.5486 7.43094 12.4128C7.75755 11.5255 8.54656 10.3416 9.23977 9.69861C10.1333 8.86984 10.9253 8.52882 12.876 7.71531ZM24 3C19.9832 3 15.5649 4.42698 12.1062 5.86939L12.0094 5.90973C10.17 6.67665 9.05619 7.14104 7.8797 8.23225C6.95556 9.08941 5.98947 10.539 5.55406 11.7219C4.99958 13.2282 4.99974 14.6772 5.00001 17.0848L5.00002 17.2472L5.00002 21.3945L5.00002 21.5573C4.9999 26.0157 4.99983 28.471 5.83638 31.0385C6.48639 33.0334 7.98143 35.6147 9.38838 37.1713C11.1989 39.1743 12.8641 40.1296 15.876 41.8575L15.9543 41.9024C17.4247 42.746 18.9026 43.5103 20.2573 44.0665C21.5882 44.6128 22.8978 44.9999 24 44.9999C25.1022 44.9999 26.4118 44.6128 27.7427 44.0665C29.0975 43.5103 30.5753 42.746 32.0457 41.9025L32.1241 41.8575L32.1241 41.8575C35.136 40.1296 36.8012 39.1743 38.6117 37.1713C40.0186 35.6147 41.5136 33.0334 42.1637 31.0385C43.0002 28.471 43.0001 26.0157 43 21.5573L43 21.3945L43 17.2472L43 17.0848L43 17.0847C43.0003 14.6772 43.0005 13.2282 42.446 11.7219C42.0106 10.539 41.0445 9.08941 40.1203 8.23225C38.9439 7.14104 37.83 6.67665 35.9906 5.90974L35.9906 5.90973L35.8939 5.86939C32.4351 4.42698 28.0168 3 24 3ZM31.7071 19.7071C32.0976 19.3166 32.0976 18.6834 31.7071 18.2929C31.3166 17.9024 30.6834 17.9024 30.2929 18.2929L22 26.5858L18.7071 23.2929C18.3166 22.9024 17.6834 22.9024 17.2929 23.2929C16.9024 23.6834 16.9024 24.3166 17.2929 24.7071L21.2929 28.7071C21.6834 29.0976 22.3166 29.0976 22.7071 28.7071L31.7071 19.7071Z" fill="#DF2C29"/>
</svg>
