<svg viewBox="0 0 24 24" fill="none" xmlns="http://www.w3.org/2000/svg">
<path fill-rule="evenodd" clip-rule="evenodd" d="M11.9998 20.7592C9.67651 20.7592 7.44837 19.8363 5.80555 18.1935C4.16273 16.5507 3.23981 14.3225 3.23981 11.9992C3.23981 9.67592 4.16273 7.44778 5.80555 5.80496C7.44837 4.16214 9.67651 3.23922 11.9998 3.23922C14.3231 3.23922 16.5512 4.16214 18.1941 5.80496C19.8369 7.44778 20.7598 9.67592 20.7598 11.9992C20.7598 14.3225 19.8369 16.5507 18.1941 18.1935C16.5512 19.8363 14.3231 20.7592 11.9998 20.7592ZM11.9998 22.7992C9.13547 22.7992 6.38844 21.6614 4.36305 19.636C2.33766 17.6106 1.1998 14.8636 1.1998 11.9992C1.1998 9.13488 2.33766 6.38786 4.36305 4.36247C6.38844 2.33707 9.13547 1.19922 11.9998 1.19922C14.8641 1.19922 17.6112 2.33707 19.6366 4.36247C21.662 6.38786 22.7998 9.13488 22.7998 11.9992C22.7998 14.8636 21.662 17.6106 19.6366 19.636C17.6112 21.6614 14.8641 22.7992 11.9998 22.7992Z" fill="#777777"/>
<path d="M11.9997 7.38086C12.2702 7.38086 12.5296 7.4883 12.7209 7.67956C12.9121 7.87084 13.0196 8.13026 13.0196 8.40076C13.0196 8.67126 12.9121 8.93068 12.7209 9.12196L10.8621 10.9807H16.1997C16.7637 10.9807 17.2197 11.4367 17.2197 12.0007C17.2197 12.2712 17.1123 12.5307 16.921 12.722C16.7297 12.9132 16.4702 13.0207 16.1997 13.0207H10.862L12.7209 14.8796C12.8174 14.9739 12.8943 15.0864 12.947 15.2106C12.9997 15.3348 13.0273 15.4683 13.0281 15.6032C13.0288 15.7382 13.0028 15.8719 12.9516 15.9968C12.9003 16.1216 12.8247 16.235 12.7293 16.3304C12.6339 16.4258 12.5205 16.5014 12.3957 16.5527C12.2708 16.6039 12.1371 16.6299 12.0021 16.6291C11.8672 16.6284 11.7337 16.6008 11.6095 16.5481C11.4853 16.4953 11.3728 16.4185 11.2785 16.322L7.66438 12.7079C7.27386 12.3173 7.27386 11.6842 7.66438 11.2937L11.2785 7.67956C11.4698 7.4883 11.7292 7.38086 11.9997 7.38086Z" fill="#777777"/>
</svg>
