<svg viewBox="0 0 133 22" fill="none" xmlns="http://www.w3.org/2000/svg">
<g clip-path="url(#clip0_4229_3648)">
<mask id="path-2-inside-1_4229_3648" fill="white">
<path d="M0 11C0 5.47715 4.47715 1 10 1C15.5228 1 20 5.47715 20 11C20 16.5228 15.5228 21 10 21C4.47715 21 0 16.5228 0 11Z"/>
</mask>
<path d="M0 11C0 5.47715 4.47715 1 10 1C15.5228 1 20 5.47715 20 11C20 16.5228 15.5228 21 10 21C4.47715 21 0 16.5228 0 11Z" fill="url(#paint0_linear_4229_3648)"/>
<path d="M-0.25 10.75C-0.25 5.08908 4.33908 0.5 10 0.5C15.6609 0.5 20.25 5.08908 20.25 10.75L19.75 11C19.75 5.75329 15.3848 1.5 10 1.5C4.61522 1.5 0.25 5.75329 0.25 11L-0.25 10.75ZM20 21H0H20ZM10 21C4.33908 21 -0.25 16.4109 -0.25 10.75C-0.25 5.08908 4.33908 0.5 10 0.5V1.5C4.61522 1.5 0.25 5.75329 0.25 11C0.25 16.5228 4.61522 21 10 21ZM10 0.5C15.6609 0.5 20.25 5.08908 20.25 10.75C20.25 16.4109 15.6609 21 10 21C15.3848 21 19.75 16.5228 19.75 11C19.75 5.75329 15.3848 1.5 10 1.5V0.5Z" fill="white" fill-opacity="0.1" mask="url(#path-2-inside-1_4229_3648)"/>
<path fill-rule="evenodd" clip-rule="evenodd" d="M12.039 9.17519C11.9713 9.18649 11.8978 9.19778 11.83 9.20343H11.8244C11.5905 9.22165 11.3551 9.22845 11.1223 9.22468L13.3605 13.3271L13.3718 13.3215C13.6712 13.988 13.5921 14.7731 13.1628 15.3662C12.7449 15.9479 12.0897 16.236 11.4006 16.1456C9.60439 15.9027 8.02851 15.722 7.70656 15.7502C7.01181 15.8576 6.82542 16.332 6.40744 17.4673L6.39992 17.4878C6.18199 18.0802 5.95647 18.6932 5.54325 19.2014C4.93323 19.9526 4.06338 20.0147 3.24437 20.0712C2.82075 20.0995 2.53268 20.122 2.1486 20.3254C1.7984 20.5118 1.31829 20.9411 1.20533 21.3025H-1.13872C-0.941032 20.7716 -0.590838 20.0147 -0.319718 19.7154C0.855133 18.4106 2.07517 18.3146 3.12011 18.2412C3.56068 18.2129 4.04644 18.1734 4.16505 18.0322C4.38534 17.7554 4.55479 17.3035 4.72989 16.8234L4.75942 16.7422C5.15621 15.6495 5.67796 14.2127 7.45237 13.9371C8.0689 13.838 10.6275 14.1896 11.5571 14.3173L11.6265 14.3269C11.6434 14.3325 11.6773 14.3325 11.7169 14.2817C11.7282 14.2647 11.7733 14.197 11.7451 14.1122L8.87321 8.85863C8.70468 8.80677 8.53616 8.75109 8.36763 8.68943C8.25466 8.6499 8.14169 8.60471 8.02872 8.55387L7.85363 8.48045L7.69547 8.40137C7.15888 8.14155 6.89906 7.56542 7.15888 7.05142C7.41871 6.53742 8.06826 6.31714 8.6218 6.52048L8.73476 6.56002L8.95505 6.64474C9.02102 6.67301 9.09485 6.69736 9.16671 6.72105C9.18099 6.72575 9.19518 6.73043 9.20922 6.73511C9.35043 6.7803 9.49164 6.82549 9.63284 6.86502C9.63284 6.86502 10.1638 7.06836 10.9828 7.1192C11.6267 7.18133 12.2424 7.14179 12.8016 6.96669C12.8259 6.95858 12.856 6.94879 12.8894 6.93793C13.0186 6.89588 13.1975 6.83764 13.2873 6.79724C14.2376 6.4788 15.7172 4.31022 16.0257 3.85794C16.062 3.80483 16.0821 3.77539 16.0832 3.77539C16.0799 3.80672 16.0766 3.85016 16.0724 3.90434C16.0045 4.77818 15.7195 8.44655 12.039 9.17519ZM-1.19482 8.18662C1.96824 6.23795 5.17084 7.16992 5.19343 7.18122C5.65659 7.39021 6.19884 7.18122 6.40783 6.72935C6.61681 6.26619 6.40783 5.72395 5.95031 5.51496C4.96186 5.06874 1.0871 4.40789 -2.39227 6.68981C-2.68033 6.88186 -3.65749 7.63873 -4.15454 8.19227H-1.19482V8.18662Z" fill="white"/>
</g>
<path fill-rule="evenodd" clip-rule="evenodd" d="M110.161 17.3728C109.404 17.3728 108.831 17.0833 108.415 16.4814C107.987 15.8566 107.768 14.9957 107.768 13.9138C107.768 12.832 107.987 11.9785 108.415 11.3767C108.829 10.7899 109.402 10.5004 110.161 10.5004C110.923 10.5004 111.491 10.7899 111.896 11.3767C112.318 11.9785 112.531 12.832 112.531 13.9138C112.531 14.9957 112.315 15.8643 111.894 16.4814C111.487 17.0833 110.92 17.3728 110.161 17.3728ZM116.292 11.0338C115.97 10.1652 115.512 9.4109 114.932 8.80138C114.352 8.18428 113.648 7.69663 112.838 7.3538C112.028 7.0109 111.128 6.84328 110.161 6.84328C109.213 6.84328 108.321 7.0109 107.51 7.3538C106.702 7.69663 105.994 8.18428 105.404 8.7938C104.817 9.41098 104.35 10.1652 104.019 11.0338C103.689 11.8948 103.521 12.8701 103.521 13.9138C103.521 14.9653 103.685 15.9329 104.007 16.8091C104.329 17.6853 104.785 18.4395 105.364 19.0643C105.947 19.6891 106.65 20.1842 107.463 20.5195C108.271 20.8624 109.178 21.0376 110.161 21.0376C111.16 21.0376 112.077 20.8624 112.888 20.5195C113.698 20.1842 114.401 19.6891 114.983 19.0643C115.564 18.4395 116.011 17.6776 116.32 16.8014C116.625 15.9328 116.777 14.9576 116.777 13.9138C116.777 12.8701 116.614 11.9023 116.292 11.0338ZM84.5949 17.3723C84.2724 17.3723 83.9728 17.3647 83.7029 17.3419C83.5805 17.326 83.4681 17.3138 83.366 17.3028C83.3209 17.2979 83.2778 17.2932 83.2368 17.2885V10.9419C83.4299 10.8352 83.6703 10.7437 83.9554 10.6675C84.3021 10.5761 84.6588 10.5304 85.0139 10.5304C86.607 10.5304 87.3826 11.6124 87.3826 13.8371C87.3826 14.9191 87.1392 15.7876 86.664 16.4428C86.2002 17.0675 85.5219 17.3723 84.5949 17.3723ZM91.2478 11.0866C90.9931 10.2256 90.6137 9.479 90.1178 8.86183C89.6175 8.23708 88.9909 7.75708 88.2495 7.4219C87.5134 7.08665 86.6564 6.91895 85.7044 6.91895C85.1797 6.91895 84.6793 6.9647 84.2178 7.07135C83.8831 7.14755 83.5562 7.23905 83.2368 7.36093V0.960938L79.0644 1.63899V20.2066L79.24 20.26C79.5769 20.359 79.9662 20.458 80.3974 20.5495C80.8209 20.6409 81.2795 20.7171 81.7578 20.7856C82.2285 20.8542 82.7136 20.9075 83.2018 20.9533C83.6953 20.9914 84.1706 21.0142 84.6169 21.0142C85.7119 21.0142 86.7058 20.8466 87.5712 20.5114C88.438 20.1838 89.181 19.6962 89.781 19.079C90.3779 18.4695 90.8418 17.7152 91.1558 16.8466C91.4706 15.9781 91.6296 15.0028 91.6296 13.9362C91.6296 12.9 91.501 11.9399 91.2478 11.0866ZM36.5615 8.86385C36.6378 8.6624 36.7102 8.4713 36.7791 8.29093L36.7929 8.25605C36.8451 8.12413 36.8948 7.99858 36.9376 7.87955C36.9612 7.93693 36.9851 7.99775 37.0101 8.06105C37.0381 8.13215 37.0676 8.20678 37.099 8.28335L37.2032 8.552C37.3443 8.91605 37.5031 9.32563 37.6788 9.76903C37.9015 10.3329 38.1371 10.9576 38.375 11.6205L38.517 12.0148C38.6807 12.4691 38.8484 12.9347 39.0193 13.4186H34.834C35.0619 12.7939 35.2876 12.1996 35.5056 11.6357L35.594 11.4054C35.8199 10.8171 36.0276 10.276 36.2144 9.77668C36.3389 9.45185 36.454 9.1478 36.5613 8.8646L36.5615 8.86385ZM45.9079 20.3596C45.2637 18.5157 44.6467 16.7938 44.072 15.2395C43.4919 13.67 42.9195 12.1767 42.372 10.8052C41.8219 9.43378 41.2667 8.10815 40.719 6.851C40.1766 5.61673 39.6164 4.38238 39.0541 3.20143L38.9869 3.05671H35.0274L34.9579 3.20143C34.3831 4.37476 33.8205 5.60908 33.2832 6.85858C32.7476 8.1005 32.1978 9.4262 31.6453 10.8052C31.0949 12.1919 30.5225 13.6776 29.9478 15.2395C29.3804 16.7785 28.7631 18.5081 28.1141 20.3596L28 20.6948H32.5296L32.5842 20.5195C32.7699 19.9252 32.9734 19.3157 33.1887 18.691L33.7787 16.9843H40.107L40.7041 18.691C40.9198 19.3081 41.1257 19.9252 41.3139 20.5195L41.3706 20.6948H46.0241L45.9079 20.3596ZM56.3488 7.5062L55.6401 11.0034L55.39 10.9424C55.0653 10.8586 54.6762 10.7748 54.2399 10.6834C53.814 10.5995 53.3479 10.5538 52.8574 10.5538C52.6418 10.5538 52.3742 10.5766 52.0617 10.6147C51.8589 10.6376 51.6881 10.6681 51.5517 10.6986V20.6948H47.3786V7.95575L47.5425 7.89478C48.204 7.66625 48.9992 7.43765 49.9013 7.23193C50.8133 7.01863 51.8413 6.91948 52.9566 6.91948C53.1599 6.91948 53.4076 6.92713 53.6948 6.95L53.7488 6.95593C54.0097 6.9845 54.2787 7.01398 54.5473 7.05673C54.8298 7.09483 55.117 7.14815 55.3998 7.20905C55.6949 7.26245 55.9496 7.34615 56.1602 7.43L56.3488 7.5062ZM76.2304 20.6948V13.0986C76.2304 12.1996 76.1536 11.3614 76.0023 10.6224C75.8464 9.8681 75.5589 9.20525 75.1423 8.64905C74.724 8.0852 74.1537 7.65095 73.4503 7.34623C72.756 7.04143 71.8641 6.8891 70.7987 6.8891C70.2017 6.8891 69.5402 7.00333 68.8361 7.22428C68.1973 7.42235 67.6171 7.69663 67.1092 8.03953C66.7373 7.74238 66.2787 7.49098 65.7465 7.27003C65.1343 7.01863 64.3336 6.8891 63.3702 6.8891C62.8918 6.8891 62.3937 6.9119 61.8934 6.95C61.3923 6.99575 60.8995 7.05665 60.4311 7.1252C59.965 7.2014 59.5118 7.28525 59.0859 7.37668C58.6494 7.47568 58.2875 7.55953 57.9757 7.6433L57.7917 7.68905V20.6948H61.9649V10.6224C62.1238 10.5996 62.2896 10.5767 62.4584 10.5615C62.6933 10.5386 62.9261 10.531 63.1465 10.531C63.8013 10.531 64.2446 10.729 64.5047 11.1481C64.7822 11.6052 64.9237 12.4129 64.9237 13.5481V20.6948H69.0961V13.3424C69.0961 12.8701 69.0794 12.4053 69.0467 11.9786C69.017 11.6128 68.9577 11.2547 68.868 10.9195C69.049 10.8205 69.2695 10.7367 69.5197 10.6681C69.8497 10.5766 70.1074 10.531 70.2809 10.531C70.9348 10.531 71.3789 10.729 71.6367 11.1481C71.9165 11.6052 72.0572 12.4129 72.0572 13.5481V20.6948H76.2304ZM102.232 11.0034L102.941 7.5062L102.755 7.43C102.543 7.34615 102.287 7.26245 101.992 7.20905C101.71 7.14815 101.423 7.09483 101.14 7.05673C100.872 7.0142 100.605 6.98488 100.346 6.95645L100.288 6.95C99.9998 6.92713 99.7526 6.91948 99.5495 6.91948C98.434 6.91948 97.4082 7.01863 96.4965 7.23193C95.5916 7.43765 94.7992 7.66625 94.1376 7.89478L93.9719 7.95575V20.6948H98.1443V10.6986C98.2804 10.6681 98.4515 10.6376 98.6545 10.6147C98.9663 10.5766 99.234 10.5538 99.4499 10.5538C99.9404 10.5538 100.407 10.5995 100.832 10.6834C101.271 10.7748 101.657 10.8586 101.982 10.9424L102.232 11.0034ZM127.317 20.6948H132.089L131.904 20.329C131.84 20.2109 131.779 20.0929 131.717 19.9747C131.656 19.8567 131.594 19.7386 131.53 19.6204C131.001 18.6452 130.43 17.6929 129.79 16.7862C129.478 16.3519 129.175 15.9481 128.811 15.5443C128.601 15.3148 128.391 15.0875 128.182 14.8601C127.995 14.657 127.808 14.4539 127.621 14.249C127.524 14.1424 126.433 13.0909 126.378 13.129C127.295 12.2224 132.195 7.18618 132.195 7.18618H127.373C127.373 7.18618 123.519 11.2243 123.293 11.4681V0.961478L119.12 1.63953V20.6948H123.293V15.2853C123.56 15.5291 123.833 15.811 124.104 16.1233C124.512 16.5881 124.908 17.0909 125.283 17.6014C125.657 18.1195 126.013 18.6376 126.348 19.1557C126.68 19.6662 126.982 20.1462 127.242 20.5729L127.317 20.6948Z" fill="white"/>
<defs>
<linearGradient id="paint0_linear_4229_3648" x1="19.9999" y1="1" x2="-14.8751" y2="31.75" gradientUnits="userSpaceOnUse">
<stop stop-color="#DF2C29"/>
<stop offset="1" stop-color="#630605"/>
</linearGradient>
<clipPath id="clip0_4229_3648">
<rect y="1" width="20" height="20" rx="10" fill="white"/>
</clipPath>
</defs>
</svg>
