<svg viewBox="0 0 167 44" fill="none" xmlns="http://www.w3.org/2000/svg">
<g clip-path="url(#clip0_4286_3646)">
<mask id="path-2-inside-1_4286_3646" fill="white">
<path d="M0 22C0 9.84974 9.84974 0 22 0C34.1503 0 44 9.84974 44 22C44 34.1503 34.1503 44 22 44C9.84974 44 0 34.1503 0 22Z"/>
</mask>
<path d="M0 22C0 9.84974 9.84974 0 22 0C34.1503 0 44 9.84974 44 22C44 34.1503 34.1503 44 22 44C9.84974 44 0 34.1503 0 22Z" fill="url(#paint0_linear_4286_3646)"/>
<path d="M-0.55 21.45C-0.55 8.99598 9.54598 -1.1 22 -1.1C34.454 -1.1 44.55 8.99598 44.55 21.45L43.45 22C43.45 10.4572 33.8465 1.1 22 1.1C10.1535 1.1 0.55 10.4572 0.55 22L-0.55 21.45ZM44 44H0H44ZM22 44C9.54598 44 -0.55 33.904 -0.55 21.45V21.45C-0.55 8.99598 9.54598 -1.1 22 -1.1V1.1C10.1535 1.1 0.55 10.4572 0.55 22C0.55 34.1503 10.1535 44 22 44ZM22 -1.1C34.454 -1.1 44.55 8.99598 44.55 21.45V21.45C44.55 33.904 34.454 44 22 44C33.8465 44 43.45 34.1503 43.45 22C43.45 10.4572 33.8465 1.1 22 1.1V-1.1Z" fill="white" fill-opacity="0.1" mask="url(#path-2-inside-1_4286_3646)"/>
<path fill-rule="evenodd" clip-rule="evenodd" d="M26.4857 17.985C26.3366 18.0099 26.1751 18.0347 26.026 18.0472H26.0135C25.4991 18.0872 24.9811 18.1022 24.4691 18.0939L29.3932 27.1194L29.4181 27.107C30.0767 28.5733 29.9027 30.3006 28.9583 31.6053C28.0387 32.8852 26.5973 33.519 25.0813 33.3202C21.1297 32.7858 17.6628 32.3882 16.9545 32.4503C15.4261 32.6864 15.016 33.7302 14.0964 36.2279L14.0799 36.2729C13.6004 37.5762 13.1043 38.9249 12.1952 40.0428C10.8532 41.6955 8.9395 41.8322 7.13769 41.9564C6.20571 42.0186 5.57197 42.0683 4.72698 42.5156C3.95655 42.9257 2.90031 43.8701 2.65179 44.6654H-2.50513C-2.07021 43.4973 -1.29978 41.8322 -0.703315 41.1736C1.88136 38.3031 4.56544 38.0919 6.86431 37.9303C7.83356 37.8682 8.90223 37.7812 9.16318 37.4705C9.64781 36.8617 10.0206 35.8675 10.4058 34.8113L10.4708 34.6325C11.3437 32.2286 12.4916 29.0676 16.3953 28.4615C17.7517 28.2435 23.3806 29.0169 25.4258 29.2979L25.5784 29.3189C25.6156 29.3313 25.6902 29.3313 25.7772 29.2195C25.802 29.1822 25.9014 29.0331 25.8393 28.8467L19.5211 17.2886C19.1503 17.1745 18.7795 17.052 18.4086 16.9164C18.1601 16.8294 17.9116 16.73 17.6631 16.6181L17.2778 16.4566L16.9299 16.2826C15.7494 15.711 15.1778 14.4435 15.7494 13.3127C16.321 12.1819 17.75 11.6973 18.9678 12.1447L19.2163 12.2316L19.701 12.418C19.8461 12.4802 20.0085 12.5338 20.1666 12.5859C20.198 12.5963 20.2293 12.6066 20.2602 12.6169L20.2602 12.6169C20.5708 12.7163 20.8815 12.8157 21.1921 12.9027C21.1921 12.9027 22.3602 13.35 24.162 13.4618C25.5786 13.5985 26.9331 13.5116 28.1633 13.1263C28.2169 13.1085 28.283 13.087 28.3565 13.0631C28.6408 12.9705 29.0345 12.8424 29.232 12.7535C31.3226 12.053 34.5776 7.28215 35.2565 6.28711C35.3362 6.17025 35.3804 6.10547 35.383 6.10547C35.3757 6.17439 35.3683 6.26995 35.3591 6.38915C35.2097 8.3116 34.5827 16.382 26.4857 17.985ZM-2.62876 15.8099C4.32998 11.5228 11.3757 13.5732 11.4254 13.598C12.4444 14.0578 13.6373 13.598 14.0971 12.6039C14.5568 11.585 14.0971 10.392 13.0905 9.93227C10.9159 8.95059 2.39148 7.49671 -5.26313 12.5169C-5.89687 12.9394 -8.04662 14.6046 -9.14014 15.8223H-2.62876V15.8099Z" fill="white"/>
</g>
<path fill-rule="evenodd" clip-rule="evenodd" d="M142.682 29.0192C141.845 29.0192 141.213 28.7003 140.755 28.0374C140.281 27.3494 140.04 26.4013 140.04 25.2099C140.04 24.0185 140.281 23.0786 140.755 22.4158C141.211 21.7696 141.843 21.4508 142.682 21.4508C143.522 21.4508 144.149 21.7696 144.596 22.4158C145.061 23.0786 145.296 24.0185 145.296 25.2099C145.296 26.4013 145.059 27.3579 144.594 28.0374C144.144 28.7003 143.519 29.0192 142.682 29.0192ZM149.448 22.0382C149.092 21.0816 148.587 20.251 147.947 19.5797C147.307 18.9001 146.53 18.3631 145.635 17.9856C144.741 17.6079 143.749 17.4233 142.682 17.4233C141.634 17.4233 140.65 17.6079 139.755 17.9856C138.864 18.3631 138.082 18.9001 137.431 19.5714C136.782 20.2511 136.268 21.0816 135.903 22.0382C135.538 22.9864 135.353 24.0604 135.353 25.2099C135.353 26.3678 135.533 27.4334 135.889 28.3983C136.244 29.3633 136.748 30.1938 137.387 30.8819C138.03 31.5699 138.806 32.1152 139.703 32.4844C140.595 32.8621 141.596 33.0551 142.682 33.0551C143.784 33.0551 144.796 32.8621 145.691 32.4844C146.584 32.1152 147.361 31.5699 148.004 30.8819C148.644 30.1938 149.138 29.3547 149.479 28.3899C149.815 27.4333 149.983 26.3594 149.983 25.2099C149.983 24.0604 149.803 22.9947 149.448 22.0382ZM114.464 29.0186C114.108 29.0186 113.777 29.0102 113.479 28.9851C113.344 28.9676 113.22 28.9542 113.107 28.942C113.058 28.9367 113.01 28.9314 112.965 28.9263V21.937C113.178 21.8195 113.443 21.7188 113.758 21.6348C114.141 21.5342 114.534 21.4839 114.926 21.4839C116.685 21.4839 117.541 22.6754 117.541 25.1254C117.541 26.3169 117.272 27.2734 116.747 27.9949C116.236 28.6829 115.487 29.0186 114.464 29.0186ZM121.807 22.0964C121.525 21.1482 121.107 20.326 120.559 19.6463C120.007 18.9583 119.316 18.4297 118.497 18.0606C117.685 17.6914 116.739 17.5067 115.688 17.5067C115.109 17.5067 114.557 17.5571 114.048 17.6745C113.678 17.7584 113.317 17.8592 112.965 17.9934V10.9453L108.36 11.692V32.1399L108.554 32.1987C108.925 32.3078 109.355 32.4168 109.831 32.5175C110.298 32.6182 110.805 32.7021 111.332 32.7776C111.852 32.8531 112.387 32.9118 112.926 32.9622C113.471 33.0041 113.995 33.0293 114.488 33.0293C115.697 33.0293 116.794 32.8447 117.749 32.4755C118.705 32.1147 119.525 31.5778 120.188 30.8981C120.846 30.2269 121.358 29.3962 121.705 28.4397C122.053 27.4831 122.228 26.4092 122.228 25.2345C122.228 24.0934 122.086 23.0361 121.807 22.0964ZM61.4494 19.6485C61.5336 19.4267 61.6135 19.2162 61.6895 19.0176L61.7047 18.9792C61.7623 18.8339 61.8172 18.6956 61.8645 18.5645C61.8905 18.6277 61.9168 18.6947 61.9445 18.7644C61.9754 18.8427 62.0079 18.9249 62.0425 19.0092L62.1575 19.3051C62.3133 19.706 62.4885 20.1571 62.6825 20.6454C62.9283 21.2663 63.1883 21.9543 63.4509 22.6843L63.6076 23.1185C63.7883 23.6189 63.9733 24.1316 64.162 24.6645H59.5427C59.7942 23.9765 60.0433 23.322 60.284 22.7011L60.3815 22.4474C60.6308 21.7995 60.86 21.2036 61.0662 20.6538C61.2036 20.2961 61.3307 19.9612 61.4491 19.6493L61.4494 19.6485ZM71.765 32.3083C71.0539 30.2777 70.373 28.3815 69.7386 26.6698C69.0984 24.9414 68.4667 23.2968 67.8624 21.7865C67.2552 20.2762 66.6425 18.8163 66.038 17.4318C65.4393 16.0726 64.821 14.7132 64.2004 13.4127L64.1263 13.2533H59.7561L59.6794 13.4127C59.0451 14.7048 58.4241 16.0641 57.8311 17.4402C57.24 18.8079 56.6331 20.2678 56.0233 21.7865C55.4159 23.3136 54.7841 24.9497 54.1497 26.6698C53.5235 28.3647 52.8422 30.2694 52.1259 32.3083L52 32.6775H56.9993L57.0596 32.4844C57.2645 31.83 57.4891 31.1588 57.7268 30.4708L58.3779 28.5913H65.3625L66.0216 30.4708C66.2596 31.1504 66.4868 31.83 66.6946 32.4844L66.7572 32.6775H71.8932L71.765 32.3083ZM83.2886 18.1534L82.5064 22.0047L82.2303 21.9376C81.8719 21.8453 81.4425 21.753 80.961 21.6523C80.4909 21.5599 79.9765 21.5096 79.4351 21.5096C79.1971 21.5096 78.9018 21.5347 78.5569 21.5767C78.333 21.6019 78.1445 21.6355 77.9941 21.669V32.6775H73.3881V18.6485L73.5691 18.5813C74.2992 18.3296 75.1768 18.0779 76.1724 17.8513C77.179 17.6164 78.3136 17.5072 79.5446 17.5072C79.7689 17.5072 80.0424 17.5157 80.3593 17.5409L80.419 17.5474C80.7069 17.5789 81.0038 17.6113 81.3003 17.6584C81.6121 17.7004 81.929 17.7591 82.2412 17.8261C82.5668 17.885 82.848 17.9771 83.0805 18.0695L83.2886 18.1534ZM105.232 32.6775V24.3121C105.232 23.322 105.147 22.399 104.98 21.5851C104.808 20.7545 104.491 20.0245 104.031 19.412C103.569 18.791 102.94 18.3128 102.164 17.9772C101.397 17.6415 100.413 17.4738 99.2369 17.4738C98.578 17.4738 97.8479 17.5996 97.0708 17.8429C96.3657 18.061 95.7254 18.3631 95.1648 18.7407C94.7544 18.4135 94.2482 18.1366 93.6608 17.8933C92.9851 17.6164 92.1014 17.4738 91.038 17.4738C90.5101 17.4738 89.9604 17.4989 89.4081 17.5409C88.8551 17.5912 88.3112 17.6583 87.7942 17.7338C87.2797 17.8177 86.7795 17.9101 86.3095 18.0107C85.8278 18.1198 85.4283 18.2121 85.0842 18.3044L84.8811 18.3548V32.6775H89.487V21.5851C89.6624 21.56 89.8454 21.5348 90.0317 21.5181C90.291 21.4929 90.5479 21.4844 90.7912 21.4844C91.5139 21.4844 92.0032 21.7026 92.2902 22.164C92.5965 22.6674 92.7526 23.5569 92.7526 24.8071V32.6775H97.3578V24.5806C97.3578 24.0604 97.3393 23.5486 97.3032 23.0787C97.2705 22.6759 97.205 22.2815 97.106 21.9124C97.3058 21.8033 97.5491 21.711 97.8253 21.6354C98.1895 21.5347 98.474 21.4844 98.6654 21.4844C99.3871 21.4844 99.8773 21.7026 100.162 22.164C100.471 22.6674 100.626 23.5569 100.626 24.8071V32.6775H105.232ZM133.93 22.0047L134.713 18.1534L134.507 18.0695C134.273 17.9771 133.991 17.885 133.665 17.8261C133.354 17.7591 133.036 17.7004 132.724 17.6584C132.429 17.6116 132.134 17.5793 131.849 17.548L131.784 17.5409C131.466 17.5157 131.193 17.5072 130.969 17.5072C129.738 17.5072 128.606 17.6164 127.6 17.8513C126.601 18.0779 125.726 18.3296 124.996 18.5813L124.813 18.6485V32.6775H129.418V21.669C129.568 21.6355 129.757 21.6019 129.981 21.5767C130.326 21.5347 130.621 21.5096 130.859 21.5096C131.401 21.5096 131.915 21.5599 132.385 21.6523C132.869 21.753 133.296 21.8453 133.654 21.9376L133.93 22.0047ZM161.616 32.6775H166.883L166.678 32.2747C166.608 32.1446 166.541 32.0146 166.472 31.8845C166.405 31.7545 166.336 31.6245 166.266 31.4944C165.682 30.4204 165.051 29.3716 164.346 28.3731C164.001 27.8948 163.667 27.4501 163.265 27.0054C163.034 26.7528 162.802 26.5024 162.571 26.252C162.365 26.0283 162.158 25.8047 161.952 25.579C161.845 25.4616 160.641 24.3037 160.58 24.3456C161.591 23.3471 167 17.801 167 17.801H161.678C161.678 17.801 157.424 22.248 157.175 22.5165V10.9459L152.569 11.6926V32.6775H157.175V26.7202C157.47 26.9887 157.771 27.2991 158.07 27.6431C158.521 28.155 158.958 28.7087 159.371 29.2709C159.784 29.8415 160.177 30.412 160.547 30.9826C160.914 31.5448 161.247 32.0734 161.534 32.5432L161.616 32.6775Z" fill="white" class="logo_armbrok_svg__word"/>
<defs>
<linearGradient id="paint0_linear_4286_3646" x1="43.9997" y1="7.13021e-07" x2="-32.7253" y2="67.65" gradientUnits="userSpaceOnUse">
<stop stop-color="#DF2C29"/>
<stop offset="1" stop-color="#630605"/>
</linearGradient>
<clipPath id="clip0_4286_3646">
<rect width="44" height="44" rx="22" fill="white"/>
</clipPath>
</defs>
</svg>
