<svg width="105" height="21" viewBox="0 0 105 21" fill="none" xmlns="http://www.w3.org/2000/svg">
<path fill-rule="evenodd" clip-rule="evenodd" d="M82.1615 17.3338C81.4039 17.3338 80.8309 17.0442 80.4155 16.4423C79.9866 15.8176 79.7677 14.9566 79.7677 13.8748C79.7677 12.7929 79.9866 11.9395 80.4155 11.3376C80.8286 10.7509 81.4017 10.4614 82.1615 10.4614C82.9228 10.4614 83.4906 10.7509 83.8963 11.3376C84.3177 11.9395 84.5306 12.7929 84.5306 13.8748C84.5306 14.9566 84.3155 15.8252 83.8941 16.4423C83.4869 17.0442 82.9198 17.3338 82.1615 17.3338ZM88.2924 10.9947C87.9697 10.1261 87.5117 9.37184 86.9319 8.76232C86.3521 8.14522 85.6483 7.65757 84.8377 7.31474C84.0278 6.97184 83.1283 6.80421 82.1615 6.80421C81.2126 6.80421 80.3206 6.97184 79.5099 7.31474C78.7023 7.65757 77.994 8.14521 77.4038 8.75474C76.8166 9.37191 76.3503 10.1261 76.0194 10.9947C75.6891 11.8557 75.521 12.831 75.521 13.8748C75.521 14.9262 75.6847 15.8938 76.0067 16.77C76.3287 17.6462 76.7852 18.4004 77.3642 19.0252C77.947 19.65 78.65 20.1451 79.4629 20.4804C80.2713 20.8233 81.1775 20.9986 82.1615 20.9986C83.1604 20.9986 84.0771 20.8233 84.8878 20.4804C85.6976 20.1451 86.4014 19.65 86.9835 19.0252C87.564 18.4004 88.0115 17.6385 88.3201 16.7623C88.6249 15.8938 88.7773 14.9185 88.7773 13.8748C88.7773 12.831 88.6137 11.8633 88.2924 10.9947ZM56.5949 17.3332C56.2724 17.3332 55.9728 17.3257 55.7029 17.3028C55.5805 17.287 55.4681 17.2747 55.366 17.2637C55.3209 17.2588 55.2778 17.2541 55.2368 17.2495V10.9028C55.4299 10.7962 55.6703 10.7047 55.9554 10.6285C56.3021 10.537 56.6588 10.4914 57.0139 10.4914C58.607 10.4914 59.3826 11.5733 59.3826 13.798C59.3826 14.88 59.1392 15.7485 58.664 16.4037C58.2002 17.0284 57.5219 17.3332 56.5949 17.3332ZM63.2478 11.0476C62.9931 10.1866 62.6137 9.43994 62.1178 8.82277C61.6175 8.19802 60.9909 7.71802 60.2495 7.38284C59.5134 7.04759 58.6564 6.87989 57.7044 6.87989C57.1797 6.87989 56.6793 6.92564 56.2178 7.03229C55.8831 7.10849 55.5562 7.19999 55.2368 7.32186V0.921875L51.0644 1.59993V20.1676L51.24 20.2209C51.5769 20.32 51.9662 20.419 52.3974 20.5104C52.8209 20.6018 53.2795 20.678 53.7578 20.7466C54.2285 20.8151 54.7136 20.8684 55.2018 20.9142C55.6953 20.9523 56.1706 20.9752 56.6169 20.9752C57.7119 20.9752 58.7058 20.8075 59.5712 20.4723C60.4381 20.1447 61.181 19.6571 61.781 19.0399C62.3779 18.4304 62.8418 17.6761 63.1558 16.8076C63.4706 15.939 63.6296 14.9638 63.6296 13.8971C63.6296 12.8609 63.501 11.9008 63.2478 11.0476ZM8.56155 8.82479C8.63783 8.62334 8.71022 8.43224 8.77911 8.25187L8.79286 8.21699C8.84508 8.08506 8.89476 7.95952 8.93765 7.84049C8.96118 7.89787 8.98509 7.95869 9.01012 8.02199C9.03814 8.09309 9.06757 8.16771 9.09895 8.24429L9.20318 8.51294C9.34431 8.87699 9.50308 9.28657 9.6788 9.72997C9.90152 10.2938 10.1371 10.9186 10.375 11.5814L10.517 11.9757C10.6807 12.43 10.8484 12.8956 11.0193 13.3795H6.834C7.06189 12.7548 7.28759 12.1605 7.50563 11.5966L7.59402 11.3663C7.81987 10.778 8.02757 10.2369 8.21436 9.73761C8.3389 9.41279 8.45426 9.10799 8.56155 8.82479ZM17.9079 20.3205C17.2637 18.4766 16.6467 16.7548 16.072 15.2005C15.4919 13.6309 14.9195 12.1376 14.372 10.7662C13.8219 9.39471 13.2667 8.06909 12.719 6.81194C12.1766 5.57767 11.6164 4.34331 11.0541 3.16236L10.9869 3.01765H7.02737L6.95787 3.16236C6.38314 4.3357 5.8205 5.57001 5.28319 6.81951C4.74762 8.06144 4.19776 9.38714 3.64531 10.7662C3.09492 12.1528 2.52248 13.6385 1.94775 15.2005C1.3804 16.7395 0.763085 18.469 0.114063 20.3205L0 20.6557H4.52961L4.5842 20.4804C4.7699 19.8862 4.97339 19.2766 5.18874 18.6519L5.77868 16.9453H12.107L12.7041 18.6519C12.9198 19.269 13.1257 19.8862 13.3139 20.4804L13.3706 20.6557H18.0241L17.9079 20.3205ZM28.3488 7.46714L27.6401 10.9643L27.39 10.9033C27.0653 10.8196 26.6762 10.7357 26.2399 10.6443C25.814 10.5604 25.3479 10.5148 24.8574 10.5148C24.6418 10.5148 24.3742 10.5376 24.0617 10.5757C23.8589 10.5985 23.6881 10.6291 23.5517 10.6595V20.6557H19.3786V7.91669L19.5425 7.85571C20.204 7.62719 20.9992 7.39859 21.9013 7.19286C22.8133 6.97956 23.8413 6.88041 24.9566 6.88041C25.1599 6.88041 25.4076 6.88807 25.6948 6.91094L25.7488 6.91686C26.0097 6.94544 26.2787 6.97491 26.5473 7.01766C26.8298 7.05576 27.117 7.10909 27.3998 7.16999C27.6949 7.22339 27.9496 7.30709 28.1602 7.39094L28.3488 7.46714ZM48.2304 20.6557V13.0595C48.2304 12.1605 48.1536 11.3224 48.0023 10.5833C47.8464 9.82904 47.5589 9.16619 47.1423 8.60999C46.724 8.04614 46.1537 7.61189 45.4503 7.30716C44.756 7.00236 43.8641 6.85004 42.7987 6.85004C42.2017 6.85004 41.5402 6.96426 40.8361 7.18521C40.1973 7.38329 39.6171 7.65756 39.1092 8.00046C38.7373 7.70331 38.2787 7.45191 37.7465 7.23096C37.1343 6.97956 36.3336 6.85004 35.3702 6.85004C34.8918 6.85004 34.3937 6.87284 33.8934 6.91094C33.3923 6.95669 32.8995 7.01759 32.4311 7.08614C31.965 7.16234 31.5118 7.24619 31.0859 7.33762C30.6494 7.43662 30.2875 7.52046 29.9757 7.60424L29.7917 7.64999V20.6557H33.9649V10.5833C34.1238 10.5605 34.2896 10.5376 34.4584 10.5224C34.6933 10.4995 34.9261 10.4919 35.1465 10.4919C35.8013 10.4919 36.2446 10.69 36.5047 11.109C36.7822 11.5661 36.9237 12.3738 36.9237 13.509V20.6557H41.0961V13.3033C41.0961 12.831 41.0794 12.3662 41.0467 11.9395C41.017 11.5738 40.9577 11.2156 40.868 10.8805C41.049 10.7814 41.2695 10.6976 41.5197 10.629C41.8497 10.5376 42.1074 10.4919 42.2809 10.4919C42.9348 10.4919 43.3789 10.69 43.6367 11.109C43.9165 11.5661 44.0572 12.3738 44.0572 13.509V20.6557H48.2304ZM74.2323 10.9643L74.9413 7.46714L74.7552 7.39094C74.5426 7.30709 74.2871 7.22339 73.992 7.16999C73.7099 7.10909 73.4225 7.05576 73.1396 7.01766C72.8723 6.97514 72.6051 6.94581 72.3464 6.91739L72.2879 6.91094C71.9998 6.88807 71.7526 6.88041 71.5495 6.88041C70.434 6.88041 69.4082 6.97956 68.4965 7.19286C67.5916 7.39859 66.7992 7.62719 66.1376 7.85571L65.9719 7.91669V20.6557H70.1443V10.6595C70.2804 10.6291 70.4515 10.5985 70.6545 10.5757C70.9663 10.5376 71.2339 10.5148 71.4499 10.5148C71.9404 10.5148 72.4066 10.5604 72.8324 10.6443C73.2711 10.7357 73.6574 10.8196 73.9821 10.9033L74.2323 10.9643ZM99.317 20.6557H104.089L103.904 20.29C103.84 20.1718 103.779 20.0538 103.717 19.9357C103.656 19.8176 103.594 19.6995 103.53 19.5814C103.001 18.6061 102.43 17.6538 101.79 16.7471C101.478 16.3128 101.175 15.909 100.811 15.5052C100.601 15.2758 100.391 15.0484 100.182 14.821C99.9954 14.6179 99.8079 14.4148 99.6211 14.2099C99.524 14.1033 98.4332 13.0519 98.3779 13.09C99.2946 12.1833 104.195 7.14711 104.195 7.14711H99.3731C99.3731 7.14711 95.5186 11.1852 95.293 11.429V0.922415L91.1203 1.60047V20.6557H95.293V15.2462C95.5605 15.49 95.8332 15.7719 96.1036 16.0843C96.5123 16.549 96.9083 17.0518 97.2826 17.5624C97.6569 18.0805 98.0133 18.5986 98.348 19.1167C98.6805 19.6271 98.9823 20.1071 99.2423 20.5338L99.317 20.6557Z" fill="black"/>
</svg>
