<svg viewBox="0 0 64 64" fill="none" xmlns="http://www.w3.org/2000/svg">
<rect width="64" height="64" rx="32" fill="white"/>
<path d="M25.7618 38.0547C25.3553 38.0547 25.0763 38.2484 24.924 38.6354C24.8443 38.8376 24.8051 39.0849 24.8051 39.3778H24.3297V39.5638H24.8051V41.3486C24.8051 41.5542 24.7735 41.6888 24.7115 41.7527C24.6496 41.8169 24.5206 41.8538 24.3242 41.8629V41.9409H25.8077V41.8629C25.5686 41.8462 25.4208 41.8091 25.3645 41.7505C25.3078 41.6923 25.2798 41.5579 25.2798 41.3486V39.5638H25.9715V39.3778H25.2798V38.719C25.2798 38.5984 25.2937 38.5013 25.3213 38.4273C25.3712 38.2882 25.4662 38.2185 25.6063 38.2185C25.669 38.2185 25.7173 38.232 25.7524 38.2584C25.7871 38.2856 25.818 38.3186 25.8437 38.3575L25.8907 38.43C25.944 38.5117 25.9902 38.5684 26.0291 38.6005C26.0676 38.633 26.1138 38.6492 26.1674 38.6492C26.2301 38.6492 26.2831 38.6253 26.3273 38.5773C26.3715 38.5289 26.3943 38.4746 26.3943 38.4134C26.3943 38.3042 26.3294 38.2166 26.2006 38.1516C26.0714 38.0869 25.925 38.0547 25.7618 38.0547ZM9.46241 38.0602C9.38081 38.0602 9.31247 38.089 9.25656 38.146C9.20103 38.2031 9.17356 38.2713 9.17356 38.3503C9.17356 38.4297 9.20104 38.4977 9.25656 38.554C9.31247 38.61 9.38081 38.6382 9.46241 38.6382C9.54211 38.6382 9.60993 38.61 9.66659 38.554C9.72287 38.4977 9.75125 38.4297 9.75125 38.3503C9.75125 38.2694 9.72287 38.2007 9.66659 38.1444C9.60993 38.0881 9.54211 38.0602 9.46241 38.0602ZM5.7168 38.1737V38.28C5.92796 38.2947 6.06397 38.3332 6.12517 38.3951C6.18636 38.4571 6.21702 38.5891 6.21702 38.791V41.2572C6.21702 41.5025 6.18898 41.6541 6.13457 41.7123C6.0798 41.7705 5.9408 41.811 5.7168 41.8352V41.9409H7.30878V41.8352C7.09384 41.8185 6.95429 41.781 6.89045 41.7228C6.82623 41.665 6.79472 41.5319 6.79472 41.3236V40.0781H7.62031C7.86094 40.0781 8.01477 40.114 8.08125 40.1855C8.14811 40.2569 8.20235 40.4026 8.24504 40.6233H8.3784V39.308H8.24504C8.20462 39.5276 8.1505 39.6732 8.08402 39.7454C8.01715 39.8172 7.86283 39.8533 7.62031 39.8533H6.79472V38.5828C6.79472 38.5068 6.80529 38.4561 6.82681 38.43C6.84798 38.4043 6.89659 38.3907 6.9729 38.3907H7.75367C8.07022 38.3907 8.28181 38.4256 8.38947 38.4948C8.49674 38.5639 8.57023 38.7286 8.60914 38.9886H8.7674L8.74802 38.1737H5.7168ZM31.8851 38.1737V38.28C32.0959 38.2947 32.2323 38.3332 32.2935 38.3951C32.3543 38.4571 32.3848 38.5891 32.3848 38.791V41.3236C32.3848 41.5375 32.3538 41.6703 32.2918 41.7228C32.2299 41.7753 32.094 41.8129 31.8851 41.8352V41.9409H34.9606L35.219 40.9788H35.0608C34.9142 41.303 34.7495 41.5079 34.5655 41.5921C34.382 41.6764 34.0969 41.7184 33.7112 41.7184C33.355 41.7184 33.1412 41.7083 33.0699 41.6879C32.9985 41.6675 32.9625 41.6005 32.9625 41.4875V40.0781H33.8412C34.0818 40.0781 34.2353 40.114 34.3022 40.1855C34.3686 40.2569 34.4233 40.4026 34.4659 40.6233H34.5993V39.308H34.4659C34.4251 39.5276 34.3718 39.6732 34.3049 39.7454C34.2384 39.8172 34.0837 39.8533 33.8412 39.8533H32.9625V38.5828C32.9625 38.5084 32.9727 38.458 32.9924 38.4311C33.0116 38.4043 33.0633 38.3907 33.1468 38.3907H33.9215C34.255 38.3907 34.4698 38.4277 34.5661 38.5014C34.6628 38.5751 34.735 38.7377 34.783 38.9886H34.9274L34.9075 38.1737H31.8851ZM14.1725 39.3052C13.8631 39.3052 13.6283 39.3767 13.4681 39.5184C13.3079 39.6601 13.2279 39.7956 13.2279 39.9253C13.2279 39.9922 13.2501 40.0526 13.2943 40.1074C13.3389 40.1622 13.4029 40.1893 13.4863 40.1893C13.54 40.1893 13.5863 40.1775 13.6252 40.1533C13.6936 40.1129 13.7282 40.0399 13.7282 39.9363C13.7282 39.9212 13.7232 39.8879 13.7138 39.835C13.7047 39.7821 13.6999 39.7444 13.6999 39.7221C13.6999 39.6352 13.7429 39.567 13.8283 39.5167C13.9133 39.4687 14.0028 39.4447 14.0972 39.4447C14.2956 39.4447 14.4263 39.5064 14.489 39.6308C14.526 39.7048 14.5449 39.8365 14.5449 40.0255V40.2619C14.0353 40.4531 13.6954 40.6036 13.5251 40.7147C13.2565 40.8946 13.1222 41.1186 13.1222 41.3873C13.1222 41.5596 13.1809 41.7024 13.2977 41.8147C13.4144 41.9265 13.5521 41.9824 13.7116 41.9824C13.8634 41.9824 14.0234 41.9325 14.1919 41.8324C14.292 41.7731 14.4123 41.6819 14.5532 41.5595C14.5585 41.6725 14.5895 41.7701 14.6462 41.8518C14.7024 41.9334 14.7939 41.9741 14.9201 41.9741C15.0273 41.9741 15.1327 41.9387 15.2366 41.8684C15.305 41.8219 15.3693 41.7629 15.4286 41.6907V41.5456C15.3598 41.5959 15.3121 41.628 15.2842 41.6409C15.2562 41.6537 15.2212 41.6597 15.1785 41.6597C15.1029 41.6597 15.0521 41.6237 15.028 41.5512C15.0132 41.5104 15.0058 41.4365 15.0058 41.3292V40.2142C15.0058 39.9697 14.9722 39.7834 14.9035 39.6557C14.7758 39.4221 14.5317 39.3052 14.1725 39.3052ZM44.175 39.3135C43.9989 39.3135 43.8279 39.3657 43.6609 39.4697C43.5684 39.529 43.4609 39.6194 43.3389 39.7415V39.3667C43.3389 39.3554 43.3363 39.3457 43.3322 39.3374C43.3273 39.3291 43.3201 39.3252 43.3106 39.3252C42.9476 39.451 42.7614 39.5148 42.7523 39.5167L42.4884 39.6031V39.695C42.5216 39.6893 42.5474 39.6852 42.5647 39.6833C42.5825 39.6819 42.6013 39.6805 42.6217 39.6805C42.7162 39.6805 42.7805 39.7006 42.8148 39.7403C42.8492 39.7804 42.8663 39.871 42.8663 40.0116V42.6804C42.8663 42.8157 42.8429 42.9146 42.796 42.9777C42.7492 43.0404 42.6393 43.0776 42.4662 43.089V43.1803H43.8391V43.0829C43.6332 43.0682 43.4998 43.0398 43.439 42.9971C43.3778 42.9544 43.3472 42.8393 43.3472 42.6522V41.7404C43.4473 41.844 43.5567 41.9157 43.6753 41.9547C43.7512 41.9807 43.8404 41.9934 43.9442 41.9934C44.2797 41.9934 44.5584 41.8425 44.7798 41.5406C45.0008 41.239 45.1112 40.9034 45.1112 40.533C45.1112 40.1555 45.0191 39.8578 44.8351 39.6401C44.6508 39.4228 44.4307 39.3135 44.175 39.3135ZM19.4774 39.3196C19.1069 39.3196 18.8003 39.4575 18.5578 39.7337C18.3153 40.0096 18.1937 40.3394 18.1937 40.723C18.1937 41.1141 18.3047 41.4235 18.5268 41.6514C18.7493 41.8793 19.0049 41.9935 19.2943 41.9935C19.5885 41.9935 19.8473 41.869 20.0717 41.6204C20.1885 41.4904 20.2996 41.3143 20.4054 41.0917L20.3279 41.0446C20.2203 41.2022 20.1235 41.3175 20.0385 41.3901C19.8882 41.5163 19.7171 41.5794 19.5245 41.5794C19.2521 41.5794 19.0359 41.4682 18.8754 41.2456C18.7152 41.023 18.6352 40.7711 18.6352 40.491C18.6352 40.1849 18.7078 39.9392 18.8533 39.7548C18.9991 39.57 19.1772 39.478 19.3883 39.478C19.4884 39.478 19.5693 39.4968 19.6302 39.5361C19.6895 39.5765 19.7314 39.6465 19.7552 39.7448L19.7884 39.8782C19.8107 39.9636 19.8467 40.0279 19.8958 40.0725C19.9449 40.1171 20.0016 40.1395 20.0662 40.1395C20.1553 40.1395 20.2214 40.1129 20.2637 40.0604C20.3064 40.0078 20.3279 39.9507 20.3279 39.8898C20.3279 39.7477 20.2439 39.6175 20.0762 39.4985C19.9084 39.3794 19.709 39.3196 19.4774 39.3196ZM29.6031 39.3196C29.5053 39.3642 29.4107 39.4035 29.3182 39.4387C29.2759 39.4553 29.1992 39.4833 29.0885 39.5223C28.9775 39.5612 28.8693 39.5993 28.7643 39.6363V39.7282C28.7975 39.7206 28.8299 39.7148 28.8605 39.7099C28.8908 39.7054 28.9156 39.7033 28.9341 39.7033C29.0248 39.7033 29.0868 39.7422 29.1212 39.8212C29.1555 39.8998 29.1726 40.031 29.1726 40.2142V41.4681C29.1726 41.6163 29.1451 41.7134 29.0896 41.7588C29.0337 41.8041 28.9208 41.8343 28.7504 41.849V41.9409H30.12V41.849C29.9477 41.8528 29.8249 41.8235 29.7509 41.7615C29.6768 41.6992 29.6397 41.5885 29.6397 41.4294V40.1755C29.6397 40.0644 29.6869 39.9567 29.7813 39.8516C29.8757 39.747 29.9552 39.695 30.0198 39.695C30.0606 39.695 30.1172 39.7272 30.1886 39.7919C30.2596 39.8569 30.3308 39.8893 30.4011 39.8893C30.4698 39.8893 30.5263 39.863 30.572 39.8112C30.6174 39.7591 30.6401 39.6956 30.6401 39.6197C30.6401 39.5347 30.6103 39.4632 30.551 39.4066C30.4917 39.3502 30.4142 39.3219 30.3197 39.3219C30.2007 39.3219 30.0858 39.3688 29.9755 39.4614C29.8649 39.5539 29.75 39.6824 29.6314 39.8472V39.3916C29.6314 39.3621 29.6302 39.3426 29.6275 39.3335C29.6244 39.324 29.6163 39.3196 29.6031 39.3196ZM38.7981 39.3196C38.7003 39.3642 38.6053 39.4035 38.5131 39.4387C38.4708 39.4553 38.394 39.4833 38.2829 39.5223C38.1722 39.5612 38.0642 39.5993 37.9592 39.6363V39.7282C37.9925 39.7206 38.0244 39.7148 38.055 39.7099C38.0856 39.7054 38.11 39.7033 38.1285 39.7033C38.2192 39.7033 38.2818 39.7422 38.3161 39.8212C38.3501 39.8998 38.3676 40.031 38.3676 40.2142V41.4681C38.3676 41.6163 38.3396 41.7134 38.284 41.7588C38.2285 41.8041 38.1158 41.8343 37.9454 41.849V41.9409H39.3149V41.849C39.1427 41.8528 39.0199 41.8235 38.9458 41.7615C38.8718 41.6992 38.8346 41.5885 38.8346 41.4294V40.1755C38.8346 40.0644 38.8818 39.9567 38.9763 39.8516C39.0707 39.747 39.1502 39.695 39.2148 39.695C39.2556 39.695 39.3116 39.7272 39.383 39.7919C39.4544 39.8569 39.5252 39.8893 39.5955 39.8893C39.6638 39.8893 39.7213 39.863 39.767 39.8112C39.812 39.7591 39.8351 39.6956 39.8351 39.6197C39.8351 39.5347 39.8047 39.4632 39.7454 39.4066C39.6857 39.3502 39.6089 39.3219 39.5141 39.3219C39.3955 39.3219 39.2808 39.3688 39.1705 39.4614C39.0598 39.5539 38.9449 39.6824 38.8263 39.8472V39.3916C38.8263 39.3621 38.8246 39.3426 38.8219 39.3335C38.8189 39.324 38.8113 39.3196 38.7981 39.3196ZM11.9453 39.3219C11.79 39.3219 11.6403 39.3674 11.496 39.4581C11.3996 39.5174 11.2668 39.6269 11.0964 39.7864V39.3778C11.0964 39.3612 11.0953 39.348 11.0926 39.3385C11.0895 39.3294 11.0816 39.3252 11.0688 39.3252L10.8076 39.4116C10.5239 39.5042 10.3445 39.5615 10.2686 39.5838V39.6806C10.2943 39.6769 10.316 39.6742 10.3334 39.6723C10.3511 39.6703 10.3684 39.6695 10.3854 39.6695C10.4945 39.6695 10.5666 39.7048 10.6017 39.7747C10.624 39.8227 10.6355 39.9052 10.6355 40.0227V41.4349C10.6355 41.6057 10.6087 41.7152 10.5558 41.7643C10.5029 41.8134 10.4111 41.8462 10.2797 41.8628V41.9409H11.4937V41.8628C11.366 41.8591 11.2721 41.8345 11.2132 41.7892C11.1539 41.7439 11.1241 41.6545 11.1241 41.5207V39.964C11.2234 39.8657 11.3049 39.7958 11.3676 39.7531C11.4798 39.679 11.5902 39.6418 11.699 39.6418C11.8573 39.6418 11.966 39.6944 12.0249 39.799C12.0842 39.9037 12.1135 40.0354 12.1135 40.1949V41.3823C12.1135 41.5713 12.0867 41.6941 12.0327 41.7505C11.979 41.8071 11.8846 41.8443 11.7494 41.8628V41.9409H12.9358V41.8628C12.8107 41.8608 12.7217 41.8303 12.6685 41.7709C12.6152 41.712 12.5888 41.6157 12.5888 41.482V40.1838C12.5888 39.8225 12.4883 39.5713 12.2889 39.4303C12.185 39.3582 12.0711 39.3219 11.9453 39.3219ZM17.0997 39.3219C16.9444 39.3219 16.7952 39.3674 16.6509 39.4581C16.5546 39.5174 16.4214 39.6269 16.2514 39.7864V39.3778C16.2514 39.3612 16.25 39.348 16.247 39.3385C16.2445 39.3294 16.2361 39.3252 16.2232 39.3252L15.9626 39.4116C15.6789 39.5042 15.4995 39.5615 15.4236 39.5838V39.6806C15.4493 39.6769 15.471 39.6742 15.4884 39.6723C15.5061 39.6703 15.5228 39.6695 15.5398 39.6695C15.649 39.6695 15.7216 39.7048 15.7567 39.7747C15.779 39.8227 15.7899 39.9052 15.7899 40.0227V41.4349C15.7899 41.6057 15.7637 41.7152 15.7108 41.7643C15.6579 41.8134 15.5656 41.8462 15.4341 41.8628V41.9409H16.6482V41.8628C16.5205 41.8591 16.4269 41.8345 16.3676 41.7892C16.3083 41.7439 16.2791 41.6545 16.2791 41.5207V39.964C16.3784 39.8657 16.4593 39.7958 16.522 39.7531C16.6342 39.679 16.7452 39.6418 16.854 39.6418C17.0123 39.6418 17.1205 39.6944 17.1794 39.799C17.2387 39.9037 17.2685 40.0354 17.2685 40.1949V41.3823C17.2685 41.5713 17.2417 41.6941 17.1877 41.7505C17.134 41.8071 17.0396 41.8443 16.9044 41.8628V41.9409H18.0907V41.8628C17.9657 41.8608 17.8767 41.8303 17.8235 41.7709C17.7702 41.712 17.7432 41.6157 17.7432 41.482V40.1838C17.7432 39.8225 17.6433 39.5713 17.4439 39.4303C17.34 39.3582 17.2255 39.3219 17.0997 39.3219ZM9.73742 39.3252C9.72269 39.3252 9.68939 39.3361 9.63726 39.3584C9.50958 39.4121 9.2839 39.4916 8.95941 39.597L8.83989 39.6363V39.7222C8.93244 39.6964 8.98884 39.6816 9.00811 39.6779C9.02774 39.6741 9.04747 39.6723 9.06787 39.6723C9.15702 39.6723 9.21477 39.7104 9.24272 39.7864C9.25935 39.8325 9.26817 39.9164 9.26817 40.0366V41.3625C9.26817 41.5794 9.2419 41.7125 9.19014 41.7616C9.13839 41.8107 9.01329 41.8444 8.81497 41.8629V41.941H10.1657V41.8629C9.98589 41.8482 9.8703 41.8136 9.8193 41.7599C9.76831 41.7063 9.74294 41.5737 9.74294 41.3625V39.3668C9.74294 39.352 9.74124 39.3381 9.73742 39.3252ZM21.7838 39.3335C21.4298 39.3335 21.1425 39.4685 20.9222 39.7388C20.7016 40.0094 20.5919 40.331 20.5919 40.7037C20.5919 41.0464 20.6868 41.3496 20.8769 41.6127C21.0665 41.8757 21.3353 42.0074 21.6836 42.0074C21.9855 42.0074 22.2404 41.9071 22.4489 41.7068C22.657 41.5065 22.7996 41.2883 22.8755 41.0524L22.7782 41.0192C22.6652 41.2059 22.5419 41.3505 22.4085 41.4521C22.2752 41.5538 22.1117 41.6044 21.9171 41.6044C21.6765 41.6044 21.4679 41.5066 21.2919 41.3104C21.1158 41.1147 21.0188 40.8021 21.0002 40.3732H22.7643C22.7643 40.0414 22.6664 39.7849 22.4699 39.6042C22.2735 39.4236 22.0448 39.3335 21.7838 39.3335ZM27.3942 39.3335C27.0255 39.3335 26.7242 39.4608 26.49 39.7155C26.2558 39.9702 26.1381 40.2822 26.1381 40.6511C26.1381 41.0456 26.2616 41.3737 26.5083 41.6348C26.7546 41.896 27.0553 42.0268 27.4108 42.0268C27.7813 42.0268 28.0832 41.8907 28.3166 41.6182C28.5501 41.3457 28.6669 41.0255 28.6669 40.6566C28.6669 40.256 28.5467 39.9358 28.3061 39.695C28.0651 39.4539 27.761 39.3335 27.3942 39.3335ZM41.1017 39.3335C40.733 39.3335 40.4317 39.4608 40.1975 39.7155C39.9629 39.9702 39.8456 40.2822 39.8456 40.6511C39.8456 41.0456 39.9691 41.3737 40.2158 41.6348C40.4621 41.896 40.7628 42.0268 41.1183 42.0268C41.4889 42.0268 41.7907 41.8907 42.0241 41.6182C42.2576 41.3457 42.3744 41.0255 42.3744 40.6566C42.3744 40.256 42.2541 39.9358 42.013 39.695C41.7724 39.4539 41.4685 39.3335 41.1017 39.3335ZM46.473 39.3335C46.1194 39.3335 45.8326 39.4685 45.612 39.7388C45.3914 40.0094 45.2811 40.331 45.2811 40.7037C45.2811 41.0464 45.3761 41.3496 45.5661 41.6127C45.7557 41.8757 46.0246 42.0074 46.3729 42.0074C46.6751 42.0074 46.9302 41.9071 47.1387 41.7068C47.3468 41.5065 47.4894 41.2883 47.5653 41.0524L47.4679 41.0192C47.3546 41.2059 47.2317 41.3505 47.0983 41.4521C46.965 41.5538 46.8011 41.6044 46.6069 41.6044C46.3659 41.6044 46.1571 41.5066 45.9811 41.3104C45.8054 41.1147 45.708 40.8021 45.6895 40.3732H47.4541C47.4541 40.0414 47.3556 39.7849 47.1592 39.6042C46.9627 39.4236 46.7344 39.3335 46.473 39.3335ZM35.239 39.3667V39.4448C35.3723 39.4576 35.4594 39.4793 35.5001 39.5107C35.5629 39.5602 35.5948 39.6587 35.5948 39.8057V41.2501C35.5948 41.5173 35.6668 41.7078 35.8111 41.8208C35.9539 41.9361 36.1058 41.9935 36.2671 41.9935C36.4431 41.9935 36.6098 41.938 36.7673 41.8269C36.8708 41.7544 36.9853 41.6431 37.1115 41.4931V41.941C37.1115 41.9519 37.1123 41.9614 37.1143 41.9697C37.1163 41.978 37.1219 41.9825 37.1309 41.9825C37.2941 41.9197 37.3996 41.8795 37.448 41.8629C37.5609 41.8259 37.6418 41.8001 37.6898 41.7865C37.7378 41.7725 37.813 41.7519 37.915 41.7239V41.6459C37.7685 41.6516 37.6721 41.6306 37.6267 41.5833C37.5814 41.5361 37.5587 41.4499 37.5587 41.3237V39.3667H36.6611V39.4581C36.8281 39.4675 36.9393 39.4943 36.9948 39.5389C37.0503 39.5835 37.0784 39.6767 37.0784 39.8196V41.3431C37.0077 41.4247 36.9381 41.4885 36.8698 41.5346C36.7493 41.6181 36.6265 41.6597 36.5007 41.6597C36.3171 41.6597 36.1909 41.5898 36.1222 41.4488C36.087 41.3728 36.0696 41.2717 36.0696 41.1454V39.3667L35.239 39.3667ZM27.315 39.5002C27.5859 39.5002 27.7931 39.6419 27.9359 39.9253C28.0791 40.2088 28.15 40.5111 28.15 40.8316C28.15 41.1411 28.094 41.3914 27.9818 41.5822C27.8696 41.7731 27.7093 41.8684 27.5015 41.8684C27.236 41.8684 27.0288 41.7258 26.8796 41.4405C26.73 41.1552 26.6555 40.8476 26.6555 40.5177C26.6555 40.1046 26.7478 39.8136 26.9332 39.6446C27.0409 39.5483 27.1685 39.5002 27.315 39.5002ZM41.0226 39.5002C41.2934 39.5002 41.5001 39.6419 41.6429 39.9253C41.786 40.2088 41.8576 40.5111 41.8576 40.8316C41.8576 41.1411 41.8015 41.3914 41.6893 41.5822C41.5768 41.7731 41.4166 41.8684 41.2085 41.8684C40.9433 41.8684 40.7363 41.7258 40.5871 41.4405C40.4375 41.1552 40.3624 40.8476 40.3624 40.5177C40.3624 40.1046 40.4553 39.8136 40.6407 39.6446C40.7484 39.5483 40.876 39.5002 41.0226 39.5002ZM21.6228 39.5361C21.8354 39.5361 21.9875 39.6176 22.0782 39.7808C22.128 39.8715 22.1635 40.0094 22.1839 40.1949H21.0113C21.0374 40.043 21.0798 39.9171 21.1391 39.8174C21.2502 39.6299 21.4112 39.5361 21.6228 39.5361ZM46.312 39.5361C46.5251 39.5361 46.6769 39.6176 46.768 39.7808C46.8178 39.8715 46.8531 40.0094 46.8731 40.1949H45.7006C45.7266 40.043 45.7691 39.9171 45.8284 39.8174C45.9394 39.6299 46.1012 39.5361 46.312 39.5361ZM43.8917 39.6557C44.0858 39.6557 44.2573 39.74 44.4046 39.9082C44.5516 40.0767 44.6248 40.3312 44.6248 40.6721C44.6248 41.0274 44.5546 41.3045 44.4129 41.5036C44.2709 41.7024 44.0998 41.8014 43.9 41.8014C43.77 41.8014 43.658 41.7708 43.5624 41.7084C43.4668 41.6465 43.3951 41.5529 43.3472 41.4267V40.0305C43.3472 39.9489 43.4035 39.8662 43.5165 39.7819C43.6298 39.6977 43.7542 39.6557 43.8917 39.6557ZM14.5449 40.4009V41.2822C14.5449 41.3876 14.489 41.4745 14.3772 41.5429C14.265 41.6117 14.1477 41.6459 14.0253 41.6459C13.9365 41.6459 13.8556 41.6202 13.7835 41.5684C13.6724 41.4886 13.6169 41.3644 13.6169 41.1958C13.6169 40.9864 13.7503 40.7992 14.017 40.6345C14.156 40.5491 14.3315 40.4712 14.5449 40.4009Z" fill="#1D1D1B"/>
<path d="M51.9787 37.9919H48.9355L57.3262 21.6719H60.3701L51.9787 37.9919Z" fill="#77990F"/>
<path d="M40.8055 29.859C40.8463 29.037 41.379 27.6002 43.2265 27.6002C44.6427 27.6002 45.2796 28.3791 45.5448 29.859H40.8055ZM12.7129 32.1976C12.7129 32.8347 12.6298 34.6412 10.3523 34.6412C9.40795 34.6412 8.56632 34.3759 8.56632 33.2879C8.56632 32.2191 9.38793 31.9118 10.2908 31.7274C11.1936 31.5619 12.2199 31.5411 12.7129 31.111V32.1976ZM43.3089 25.4026C40.608 25.4026 38.6282 27.1051 38.0581 29.531V29.201C38.0581 26.4509 36.4357 25.4026 34.1786 25.4026C32.7005 25.4026 31.5914 26.2442 30.9761 27.1682C30.4007 25.8957 29.2112 25.4026 27.8774 25.4026C26.502 25.4026 25.3933 26.0386 24.6344 27.1274H24.5939V25.6902H20.0179V25.0541C20.0179 24.1709 20.3465 23.8418 21.1251 23.8418C21.4949 23.8418 21.8447 23.8633 22.1922 23.9045V21.7277C21.6996 21.7065 21.1666 21.6445 20.6532 21.6445C18.2727 21.6445 17.1028 23.0001 17.1028 24.8689V25.6902H15.3587V27.1614C14.6527 25.7106 12.671 25.4026 10.9677 25.4026C8.58747 25.4026 6.14493 26.2242 5.98137 28.9554H8.89534C8.99734 27.8046 9.71544 27.3538 10.8249 27.3538C11.8509 27.3538 12.7129 27.5374 12.7129 28.7906C12.7129 29.9814 11.05 29.9195 9.26478 30.1874C7.45875 30.4327 5.65234 31.009 5.65234 33.4103C5.65234 35.5875 7.25288 36.5928 9.26478 36.5928C10.5571 36.5928 11.9124 36.2436 12.836 35.2795C12.8561 35.6276 12.938 35.9767 13.0404 36.3052H15.9963C15.7296 35.874 15.6261 34.908 15.6261 33.9439V28.4214C15.6261 28.1353 15.5925 27.8764 15.5324 27.6406H17.1028V36.3052H20.0179V27.6406H21.8435V36.3052H24.7575V30.1458C24.7575 28.0726 26.1529 27.703 26.7271 27.703C28.5747 27.703 28.492 29.119 28.492 30.3499V36.3052H31.4067V30.3926C31.4067 29.057 31.7142 27.703 33.3582 27.703C35.0206 27.703 35.143 28.873 35.143 30.2894V36.3052H38.0581V32.5539C38.6131 34.9915 40.5173 36.5928 43.3089 36.5928C45.7099 36.5928 47.4547 35.5244 48.2752 33.0207H45.7099C45.5252 33.676 44.5804 34.3959 43.4109 34.3959C41.7892 34.3959 40.8879 33.5539 40.8055 31.707H48.4599C48.665 28.4418 46.921 25.4026 43.3089 25.4026Z" fill="#1D1D1B"/>
</svg>
