<svg viewBox="0 0 48 48" fill="none" xmlns="http://www.w3.org/2000/svg">
<path fill-rule="evenodd" clip-rule="evenodd" d="M12.2996 0H28.3476L41.9488 14.1769V41.7511C41.9488 45.2054 39.1542 48 35.7119 48H12.2996C8.84537 48 6.05078 45.2054 6.05078 41.7511V6.24885C6.05072 2.79459 8.84531 0 12.2996 0Z" fill="#DF2C29"/>
<path fill-rule="evenodd" clip-rule="evenodd" d="M28.3354 0V9.06897C28.3354 11.8304 30.574 14.069 33.3354 14.069H41.9487L28.3354 0Z" fill="#FFA2A0"/>
<path d="M12.9951 35.8145V27.0469H16.7253C17.6488 27.0469 18.3805 27.2987 18.9322 27.8145C19.4839 28.3182 19.7598 29.0019 19.7598 29.8535C19.7598 30.705 19.4839 31.3887 18.9322 31.8925C18.3805 32.4082 17.6488 32.6601 16.7253 32.6601H15.238V35.8145H12.9951ZM15.238 30.7531H16.4734C16.8092 30.7531 17.0731 30.6811 17.253 30.5132C17.4329 30.3573 17.5289 30.1414 17.5289 29.8535C17.5289 29.5657 17.433 29.3498 17.253 29.1939C17.0731 29.0259 16.8093 28.954 16.4734 28.954H15.238V30.7531ZM20.6833 35.8145V27.0469H23.7897C24.4014 27.0469 24.9771 27.1308 25.5168 27.3108C26.0565 27.4906 26.5483 27.7426 26.9801 28.0904C27.4119 28.4262 27.7597 28.882 28.0116 29.4577C28.2515 30.0334 28.3834 30.6931 28.3834 31.4367C28.3834 32.1683 28.2515 32.828 28.0116 33.4037C27.7597 33.9794 27.4119 34.4352 26.9801 34.771C26.5483 35.1188 26.0565 35.3707 25.5168 35.5506C24.9771 35.7305 24.4014 35.8145 23.7897 35.8145H20.6833ZM22.8782 33.9075H23.5258C23.8736 33.9075 24.1975 33.8715 24.4973 33.7875C24.7852 33.7036 25.0611 33.5716 25.325 33.3917C25.5768 33.2119 25.7807 32.9599 25.9246 32.6241C26.0686 32.2883 26.1405 31.8925 26.1405 31.4367C26.1405 30.9689 26.0686 30.5731 25.9246 30.2373C25.7807 29.9015 25.5768 29.6496 25.325 29.4697C25.0611 29.2898 24.7852 29.1578 24.4973 29.0739C24.1975 28.99 23.8736 28.9539 23.5258 28.9539H22.8782V33.9075ZM29.5109 35.8145V27.0469H35.7478V28.9539H31.7537V30.3572H34.9441V32.2523H31.7537V35.8145H29.5109Z" fill="white"/>
</svg>
