<svg width="48" height="48" viewBox="0 0 48 48" fill="none" xmlns="http://www.w3.org/2000/svg">
<path d="M29.3515 6.50194C29.3519 6.00645 29.201 5.52202 28.9178 5.11016C28.6347 4.6983 28.232 4.37758 27.761 4.18872C27.2901 3.99986 26.7721 3.95139 26.2728 4.04945C25.7734 4.14751 25.3153 4.38768 24.9567 4.73948L6.76028 22.4141C6.39782 22.7637 6.15062 23.2104 6.05021 23.6973C5.9498 24.1842 6.00072 24.6891 6.19647 25.1477C6.39222 25.6063 6.72395 25.9978 7.14935 26.2723C7.57476 26.5468 8.07457 26.6919 8.58506 26.6889H13.7253L29.3515 11.5018V6.50194Z" fill="#E3E3E3"/>
<path d="M39.4315 11.5H29.3567V24.1872C29.3567 24.8502 29.0859 25.4861 28.6039 25.9549C28.122 26.4238 27.4683 26.6871 26.7866 26.6871H13.7305V41.4992C13.7305 42.1623 14.0012 42.7982 14.4832 43.267C14.9653 43.7358 15.6189 43.9992 16.3006 43.9992H39.4315C40.1132 43.9992 40.7669 43.7358 41.2489 43.267C41.7309 42.7982 42.0017 42.1623 42.0017 41.4992V13.9999C42.0017 13.3369 41.7309 12.701 41.2489 12.2322C40.7669 11.7634 40.1132 11.5 39.4315 11.5Z" fill="#DF2C29"/>
<path d="M29.3567 24.1872V11.5L13.7305 26.6871H26.7866C27.4682 26.6871 28.122 26.4238 28.6039 25.9549C29.0859 25.4861 29.3567 24.8502 29.3567 24.1872Z" fill="#FFA2A0"/>
</svg>
