<svg width="64" height="64" viewBox="0 0 64 64" fill="none" xmlns="http://www.w3.org/2000/svg">
<rect width="64" height="64" rx="32" fill="white"/>
<g clip-path="url(#clip0_1154_21879)">
<mask id="mask0_1154_21879" style="mask-type:luminance" maskUnits="userSpaceOnUse" x="-94" y="-21" width="215" height="430">
<path d="M-93.9277 408.787H120.467V-20.0016H-93.9277V408.787Z" fill="white"/>
</mask>
<g mask="url(#mask0_1154_21879)">
<path d="M8.84794 29.9293C8.84794 30.3824 8.49067 30.5913 7.89928 30.5913H6.30594V29.25H7.85534C8.54325 29.25 8.84794 29.5029 8.84794 29.912V29.9293ZM8.50867 27.4917C8.50867 27.9441 8.13411 28.1357 7.54201 28.1357H6.30594V26.8471H7.62916C8.19461 26.8471 8.50867 27.074 8.50867 27.4745V27.4917ZM9.03955 28.5801C9.47462 28.336 9.84054 27.9527 9.84054 27.2656V27.2476C9.84054 26.8298 9.7008 26.4905 9.42276 26.2117C9.07412 25.8638 8.52596 25.6722 7.82941 25.6722H5V31.7661H7.89928C9.27437 31.7661 10.1798 31.2093 10.1798 30.095V30.0777C10.1798 29.2587 9.74474 28.8495 9.03955 28.5801Z" fill="#00529F"/>
<path d="M15.7284 28.7292C15.7284 29.7736 14.9793 30.6272 13.9003 30.6272C12.8205 30.6272 12.0541 29.7563 12.0541 28.7119V28.6946C12.0541 27.6494 12.8032 26.7966 13.883 26.7966C14.962 26.7966 15.7284 27.6667 15.7284 28.7119V28.7292ZM17.1302 28.7119V28.6946C17.1302 26.9615 15.781 25.5605 13.9003 25.5605C12.0195 25.5605 10.6523 26.9795 10.6523 28.7119V28.7292C10.6523 30.4615 12.0022 31.8633 13.883 31.8633C15.763 31.8633 17.1302 30.4443 17.1302 28.7119Z" fill="#00529F"/>
</g>
<path d="M14.2793 25.1059H15.5507V24.0002H14.2793V25.1059Z" fill="#00529F"/>
<path d="M12.3828 25.1059H13.6542V24.0002H12.3828V25.1059Z" fill="#00529F"/>
<mask id="mask1_1154_21879" style="mask-type:luminance" maskUnits="userSpaceOnUse" x="-94" y="-21" width="215" height="430">
<path d="M-93.9277 408.787H120.467V-20.0016H-93.9277V408.787Z" fill="white"/>
</mask>
<g mask="url(#mask1_1154_21879)">
<path d="M26.4688 31.8455C27.7833 31.8455 28.7061 31.1662 28.7061 29.9561V29.9388C28.7061 28.8763 28.0095 28.4326 26.7735 28.1106C25.7203 27.8405 25.4589 27.7101 25.4589 27.3096V27.2923C25.4589 26.9963 25.729 26.7607 26.2426 26.7607C26.7562 26.7607 27.287 26.9876 27.8273 27.3615L28.5231 26.3516C27.9051 25.8553 27.148 25.5772 26.2599 25.5772C25.0152 25.5772 24.127 26.3084 24.127 27.4141V27.4313C24.127 28.6415 24.9194 28.9808 26.1468 29.2948C27.1653 29.5556 27.3742 29.7299 27.3742 30.0692V30.0872C27.3742 30.4437 27.0436 30.6613 26.4947 30.6613C25.7981 30.6613 25.224 30.3738 24.6752 29.9215L23.8828 30.8701C24.6147 31.5235 25.546 31.8455 26.4688 31.8455Z" fill="#00529F"/>
</g>
<path d="M29.7422 31.7664H34.3825V30.5735H31.0741V29.2935H33.9474V28.1014H31.0741V26.8646H34.3393V25.6717H29.7422V31.7664Z" fill="#00529F"/>
<path d="M4.99976 33.3077V39.4023H6.34027V37.0426H9.2482V35.8238H6.34027V34.5265H9.64005V33.3077H4.99976Z" fill="#C8D32D"/>
<path d="M20.1527 36.8945H18.5334L19.3431 34.9179L20.1527 36.8945ZM22.573 39.4048L19.9784 33.3073H18.7423L16.1484 39.4048H17.5149L18.0544 38.0787H20.6317L21.1719 39.4048H22.573Z" fill="#C8D32D"/>
<path d="M23.1699 39.4016H24.4931V35.5277L27.445 39.4016H28.5853V33.307H27.2621V37.0599L24.406 33.307H23.1699V39.4016Z" fill="#C8D32D"/>
<path d="M29.75 39.4016H31.0905V37.5389L31.7957 36.807L33.6851 39.4016H35.2957L32.7011 35.8929L35.1826 33.307H33.5634L31.0905 35.9715V33.307H29.75V39.4016Z" fill="#C8D32D"/>
<path d="M36.074 39.4016H37.4145V37.0426H40.3224V35.8231H37.4145V34.5258H40.7143V33.307H36.074V39.4016Z" fill="#C8D32D"/>
<mask id="mask2_1154_21879" style="mask-type:luminance" maskUnits="userSpaceOnUse" x="-94" y="-21" width="215" height="430">
<path d="M-93.9277 408.787H120.467V-20.0016H-93.9277V408.787Z" fill="white"/>
</mask>
<g mask="url(#mask2_1154_21879)">
<path d="M44.183 39.498C45.8203 39.498 46.8561 38.5926 46.8561 36.7471V33.3076H45.5148V36.799C45.5148 37.7657 45.0185 38.262 44.2003 38.262C43.382 38.262 42.8857 37.7484 42.8857 36.7558V33.3076H41.5452V36.7904C41.5452 38.584 42.5464 39.498 44.183 39.498Z" fill="#C8D32D"/>
</g>
<path d="M55.2845 39.4016H56.625V34.5438H58.4798V33.307H53.4297V34.5438H55.2845V39.4016Z" fill="#C8D32D"/>
<mask id="mask3_1154_21879" style="mask-type:luminance" maskUnits="userSpaceOnUse" x="-94" y="-21" width="215" height="430">
<path d="M-93.9277 408.787H120.467V-20.0016H-93.9277V408.787Z" fill="white"/>
</mask>
<g mask="url(#mask3_1154_21879)">
<path d="M52.9676 35.3407V35.3234C52.9676 34.7493 52.7854 34.271 52.4454 33.9318C52.0456 33.532 51.4456 33.3145 50.672 33.3145H47.8887V39.4026H49.2277V34.5231H49.4597H50.5603C51.2122 34.5231 51.612 34.8271 51.612 35.4171V35.4351C51.612 35.9631 51.2382 36.3203 50.5863 36.3203H49.4597C49.4597 36.3203 49.3754 36.3232 49.428 36.3917C49.7291 36.7886 51.7496 39.4026 51.7496 39.4026H53.3148L51.6631 37.2279C52.4375 36.9413 52.9676 36.3232 52.9676 35.3407Z" fill="#C8D32D"/>
<path d="M23.0906 27.7009V27.6836C23.0906 27.1088 22.9076 26.6298 22.5684 26.2905C22.1679 25.89 21.5671 25.6725 20.7921 25.6725H18.0059V31.7664H19.3471V26.8826H19.579H20.6804C21.333 26.8826 21.7335 27.1866 21.7335 27.7772V27.7952C21.7335 28.324 21.3597 28.6812 20.7063 28.6812H19.579C19.579 28.6812 19.494 28.6848 19.5473 28.7533C19.8484 29.1502 21.8711 31.7664 21.8711 31.7664H23.4378L21.7847 29.5903C22.5597 29.3029 23.0906 28.6848 23.0906 27.7009Z" fill="#00529F"/>
<path d="M15.4422 35.3364V35.3191C15.4422 34.7443 15.2592 34.2653 14.9199 33.926C14.5194 33.5255 13.9187 33.308 13.1436 33.308H10.3574V39.4019H11.6987V34.5181H11.9306H13.032C13.6846 34.5181 14.0851 34.8221 14.0851 35.4127V35.4307C14.0851 35.9595 13.7112 36.3167 13.0579 36.3167H11.9306C11.9306 36.3167 11.8456 36.3203 11.8989 36.3888C12.2 36.7857 14.2227 39.4019 14.2227 39.4019H15.7893L14.1362 37.2258C14.9113 36.9384 15.4422 36.3203 15.4422 35.3364Z" fill="#C8D32D"/>
</g>
</g>
<defs>
<clipPath id="clip0_1154_21879">
<rect width="53.4803" height="15.4976" fill="white" transform="translate(5 24)"/>
</clipPath>
</defs>
</svg>
