<svg width="64" height="64" viewBox="0 0 64 64" fill="none" xmlns="http://www.w3.org/2000/svg">
<g clip-path="url(#clip0_1154_21868)">
<path d="M0 0H64V64H0V0Z" fill="#0090BA"/>
<path d="M40.32 18.2756H48L40.8889 37.9379C40.7934 38.2001 40.6191 38.4263 40.39 38.5854C40.1608 38.7446 39.8879 38.8289 39.6089 38.8267H32.0711C32.3254 38.8014 32.5673 38.7044 32.7687 38.547C32.9701 38.3897 33.1227 38.1785 33.2089 37.9379L40.32 18.2756ZM31.4311 38.5423C31.1804 38.5411 30.9356 38.4664 30.727 38.3273C30.5184 38.1883 30.3553 37.991 30.2578 37.7601L28.7289 33.529L31.36 26.3112C31.4397 26.0574 31.5965 25.8347 31.8086 25.6741C32.0208 25.5135 32.2776 25.423 32.5436 25.4152C32.8095 25.4074 33.0713 25.4826 33.2925 25.6305C33.5137 25.7783 33.6833 25.9914 33.7778 26.2401L35.3067 30.4712L32.6756 37.689C32.5872 37.9389 32.4235 38.1552 32.2069 38.308C31.9904 38.4609 31.7317 38.5427 31.4667 38.5423H31.4311ZM32 25.1734C31.4311 25.1734 30.9689 25.529 30.7911 26.0623L23.68 45.7245H16L23.1111 26.0623C23.3244 25.529 23.8222 25.1734 24.3911 25.1734H32Z" fill="white"/>
</g>
<defs>
<clipPath id="clip0_1154_21868">
<rect width="64" height="64" rx="32" fill="white"/>
</clipPath>
</defs>
</svg>
