<svg width="64" height="64" viewBox="0 0 64 64" fill="none" xmlns="http://www.w3.org/2000/svg">
<rect width="64" height="64" rx="32" fill="white"/>
<path d="M25.7618 38.0552C25.3553 38.0552 25.0763 38.2489 24.924 38.6359C24.8443 38.8381 24.8051 39.0854 24.8051 39.3783H24.3297V39.5643H24.8051V41.3491C24.8051 41.5546 24.7735 41.6893 24.7115 41.7532C24.6496 41.8174 24.5206 41.8543 24.3242 41.8633V41.9414H25.8077V41.8633C25.5686 41.8467 25.4208 41.8095 25.3645 41.751C25.3078 41.6928 25.2798 41.5584 25.2798 41.3491V39.5643H25.9715V39.3783H25.2798V38.7195C25.2798 38.5989 25.2937 38.5018 25.3213 38.4277C25.3712 38.2887 25.4662 38.219 25.6063 38.219C25.669 38.219 25.7173 38.2324 25.7524 38.2589C25.7871 38.2861 25.818 38.3191 25.8437 38.358L25.8907 38.4305C25.944 38.5121 25.9902 38.5689 26.0291 38.601C26.0676 38.6335 26.1138 38.6497 26.1674 38.6497C26.2301 38.6497 26.2831 38.6258 26.3273 38.5778C26.3715 38.5294 26.3943 38.4751 26.3943 38.4139C26.3943 38.3047 26.3294 38.2171 26.2006 38.1521C26.0714 38.0874 25.925 38.0552 25.7618 38.0552ZM9.46241 38.0607C9.38081 38.0607 9.31247 38.0894 9.25656 38.1465C9.20103 38.2036 9.17356 38.2718 9.17356 38.3508C9.17356 38.4301 9.20104 38.4982 9.25656 38.5545C9.31247 38.6104 9.38081 38.6387 9.46241 38.6387C9.54211 38.6387 9.60993 38.6105 9.66659 38.5545C9.72287 38.4982 9.75125 38.4301 9.75125 38.3508C9.75125 38.2699 9.72287 38.2012 9.66659 38.1448C9.60993 38.0885 9.54211 38.0607 9.46241 38.0607ZM5.7168 38.1742V38.2805C5.92796 38.2952 6.06397 38.3336 6.12517 38.3956C6.18636 38.4576 6.21702 38.5896 6.21702 38.7914V41.2577C6.21702 41.503 6.18898 41.6546 6.13457 41.7128C6.0798 41.771 5.9408 41.8115 5.7168 41.8357V41.9414H7.30878V41.8357C7.09384 41.819 6.95429 41.7815 6.89045 41.7233C6.82623 41.6655 6.79472 41.5324 6.79472 41.3241V40.0785H7.62031C7.86094 40.0785 8.01477 40.1145 8.08125 40.1859C8.14811 40.2574 8.20235 40.4031 8.24504 40.6238H8.3784V39.3085H8.24504C8.20462 39.5281 8.1505 39.6737 8.08402 39.7458C8.01715 39.8176 7.86283 39.8538 7.62031 39.8538H6.79472V38.5833C6.79472 38.5073 6.80529 38.4566 6.82681 38.4305C6.84798 38.4048 6.89659 38.3912 6.9729 38.3912H7.75367C8.07022 38.3912 8.28181 38.4261 8.38947 38.4953C8.49674 38.5644 8.57023 38.7291 8.60914 38.9891H8.7674L8.74802 38.1742H5.7168ZM31.8851 38.1742V38.2805C32.0959 38.2952 32.2323 38.3336 32.2935 38.3956C32.3543 38.4576 32.3848 38.5896 32.3848 38.7914V41.3241C32.3848 41.538 32.3538 41.6707 32.2918 41.7233C32.2299 41.7758 32.094 41.8134 31.8851 41.8357V41.9414H34.9606L35.219 40.9792H35.0608C34.9142 41.3035 34.7495 41.5083 34.5655 41.5926C34.382 41.6769 34.0969 41.7188 33.7112 41.7188C33.355 41.7188 33.1412 41.7088 33.0699 41.6884C32.9985 41.668 32.9625 41.601 32.9625 41.488V40.0785H33.8412C34.0818 40.0785 34.2353 40.1145 34.3022 40.1859C34.3686 40.2574 34.4233 40.4031 34.4659 40.6238H34.5993V39.3085H34.4659C34.4251 39.5281 34.3718 39.6737 34.3049 39.7458C34.2384 39.8176 34.0837 39.8538 33.8412 39.8538H32.9625V38.5833C32.9625 38.5088 32.9727 38.4584 32.9924 38.4316C33.0116 38.4048 33.0633 38.3912 33.1468 38.3912H33.9215C34.255 38.3912 34.4698 38.4282 34.5661 38.5019C34.6628 38.5756 34.735 38.7381 34.783 38.9891H34.9274L34.9075 38.1742H31.8851ZM14.1725 39.3057C13.8631 39.3057 13.6283 39.3771 13.4681 39.5189C13.3079 39.6606 13.2279 39.7961 13.2279 39.9258C13.2279 39.9927 13.2501 40.0531 13.2943 40.1079C13.3389 40.1627 13.4029 40.1898 13.4863 40.1898C13.54 40.1898 13.5863 40.178 13.6252 40.1538C13.6936 40.1134 13.7282 40.0404 13.7282 39.9368C13.7282 39.9217 13.7232 39.8884 13.7138 39.8355C13.7047 39.7826 13.6999 39.7449 13.6999 39.7226C13.6999 39.6357 13.7429 39.5675 13.8283 39.5172C13.9133 39.4692 14.0028 39.4452 14.0972 39.4452C14.2956 39.4452 14.4263 39.5069 14.489 39.6312C14.526 39.7053 14.5449 39.837 14.5449 40.026V40.2623C14.0353 40.4536 13.6954 40.6041 13.5251 40.7152C13.2565 40.8951 13.1222 41.1191 13.1222 41.3878C13.1222 41.5601 13.1809 41.7029 13.2977 41.8152C13.4144 41.927 13.5521 41.9829 13.7116 41.9829C13.8634 41.9829 14.0234 41.933 14.1919 41.8329C14.292 41.7736 14.4123 41.6824 14.5532 41.56C14.5585 41.673 14.5895 41.7706 14.6462 41.8523C14.7024 41.9339 14.7939 41.9746 14.9201 41.9746C15.0273 41.9746 15.1327 41.9392 15.2366 41.8689C15.305 41.8224 15.3693 41.7633 15.4286 41.6912V41.5461C15.3598 41.5964 15.3121 41.6285 15.2842 41.6413C15.2562 41.6542 15.2212 41.6602 15.1785 41.6602C15.1029 41.6602 15.0521 41.6242 15.028 41.5517C15.0132 41.5108 15.0058 41.437 15.0058 41.3297V40.2147C15.0058 39.9702 14.9722 39.7839 14.9035 39.6562C14.7758 39.4226 14.5317 39.3057 14.1725 39.3057ZM44.175 39.314C43.9989 39.314 43.8279 39.3662 43.6609 39.4702C43.5684 39.5295 43.4609 39.6199 43.3389 39.742V39.3672C43.3389 39.3558 43.3363 39.3462 43.3322 39.3378C43.3273 39.3295 43.3201 39.3257 43.3106 39.3257C42.9476 39.4515 42.7614 39.5153 42.7523 39.5172L42.4884 39.6036V39.6955C42.5216 39.6898 42.5474 39.6857 42.5647 39.6838C42.5825 39.6824 42.6013 39.681 42.6217 39.681C42.7162 39.681 42.7805 39.7011 42.8148 39.7408C42.8492 39.7808 42.8663 39.8715 42.8663 40.012V42.6809C42.8663 42.8162 42.8429 42.9151 42.796 42.9782C42.7492 43.0409 42.6393 43.0781 42.4662 43.0895V43.1808H43.8391V43.0834C43.6332 43.0686 43.4998 43.0403 43.439 42.9976C43.3778 42.9549 43.3472 42.8398 43.3472 42.6527V41.7409C43.4473 41.8445 43.5567 41.9162 43.6753 41.9552C43.7512 41.9812 43.8404 41.9939 43.9442 41.9939C44.2797 41.9939 44.5584 41.843 44.7798 41.5411C45.0008 41.2395 45.1112 40.9039 45.1112 40.5335C45.1112 40.156 45.0191 39.8583 44.8351 39.6406C44.6508 39.4233 44.4307 39.314 44.175 39.314ZM19.4774 39.3201C19.1069 39.3201 18.8003 39.458 18.5578 39.7342C18.3153 40.0101 18.1937 40.3399 18.1937 40.7235C18.1937 41.1146 18.3047 41.424 18.5268 41.6519C18.7493 41.8798 19.0049 41.994 19.2943 41.994C19.5885 41.994 19.8473 41.8695 20.0717 41.6209C20.1885 41.4909 20.2996 41.3148 20.4054 41.0922L20.3279 41.0451C20.2203 41.2027 20.1235 41.318 20.0385 41.3906C19.8882 41.5168 19.7171 41.5799 19.5245 41.5799C19.2521 41.5799 19.0359 41.4687 18.8754 41.2461C18.7152 41.0235 18.6352 40.7716 18.6352 40.4915C18.6352 40.1854 18.7078 39.9397 18.8533 39.7553C18.9991 39.5705 19.1772 39.4785 19.3883 39.4785C19.4884 39.4785 19.5693 39.4973 19.6302 39.5366C19.6895 39.577 19.7314 39.647 19.7552 39.7453L19.7884 39.8787C19.8107 39.9641 19.8467 40.0284 19.8958 40.073C19.9449 40.1176 20.0016 40.14 20.0662 40.14C20.1553 40.14 20.2214 40.1134 20.2637 40.0608C20.3064 40.0083 20.3279 39.9512 20.3279 39.8903C20.3279 39.7482 20.2439 39.618 20.0762 39.4989C19.9084 39.3799 19.709 39.3201 19.4774 39.3201ZM29.6031 39.3201C29.5053 39.3647 29.4107 39.404 29.3182 39.4392C29.2759 39.4558 29.1992 39.4838 29.0885 39.5227C28.9775 39.5617 28.8693 39.5998 28.7643 39.6368V39.7287C28.7975 39.7211 28.8299 39.7153 28.8605 39.7104C28.8908 39.7059 28.9156 39.7038 28.9341 39.7038C29.0248 39.7038 29.0868 39.7427 29.1212 39.8217C29.1555 39.9003 29.1726 40.0314 29.1726 40.2147V41.4686C29.1726 41.6168 29.1451 41.7139 29.0896 41.7593C29.0337 41.8046 28.9208 41.8348 28.7504 41.8495V41.9414H30.12V41.8495C29.9477 41.8533 29.8249 41.824 29.7509 41.762C29.6768 41.6997 29.6397 41.589 29.6397 41.4299V40.176C29.6397 40.0649 29.6869 39.9572 29.7813 39.8521C29.8757 39.7474 29.9552 39.6955 30.0198 39.6955C30.0606 39.6955 30.1172 39.7277 30.1886 39.7923C30.2596 39.8573 30.3308 39.8898 30.4011 39.8898C30.4698 39.8898 30.5263 39.8635 30.572 39.8117C30.6174 39.7596 30.6401 39.6961 30.6401 39.6202C30.6401 39.5351 30.6103 39.4637 30.551 39.407C30.4917 39.3507 30.4142 39.3223 30.3197 39.3223C30.2007 39.3223 30.0858 39.3693 29.9755 39.4618C29.8649 39.5544 29.75 39.6829 29.6314 39.8477V39.3921C29.6314 39.3626 29.6302 39.343 29.6275 39.334C29.6244 39.3245 29.6163 39.3201 29.6031 39.3201ZM38.7981 39.3201C38.7003 39.3647 38.6053 39.404 38.5131 39.4392C38.4708 39.4558 38.394 39.4838 38.2829 39.5227C38.1722 39.5617 38.0642 39.5998 37.9592 39.6368V39.7287C37.9925 39.7211 38.0244 39.7153 38.055 39.7104C38.0856 39.7059 38.11 39.7038 38.1285 39.7038C38.2192 39.7038 38.2818 39.7427 38.3161 39.8217C38.3501 39.9003 38.3676 40.0314 38.3676 40.2147V41.4686C38.3676 41.6168 38.3396 41.7139 38.284 41.7593C38.2285 41.8046 38.1158 41.8348 37.9454 41.8495V41.9414H39.3149V41.8495C39.1427 41.8533 39.0199 41.824 38.9458 41.762C38.8718 41.6997 38.8346 41.589 38.8346 41.4299V40.176C38.8346 40.0649 38.8818 39.9572 38.9763 39.8521C39.0707 39.7474 39.1502 39.6955 39.2148 39.6955C39.2556 39.6955 39.3116 39.7277 39.383 39.7923C39.4544 39.8573 39.5252 39.8898 39.5955 39.8898C39.6638 39.8898 39.7213 39.8635 39.767 39.8117C39.812 39.7596 39.8351 39.6961 39.8351 39.6202C39.8351 39.5351 39.8047 39.4637 39.7454 39.407C39.6857 39.3507 39.6089 39.3223 39.5141 39.3223C39.3955 39.3223 39.2808 39.3693 39.1705 39.4618C39.0598 39.5544 38.9449 39.6829 38.8263 39.8477V39.3921C38.8263 39.3626 38.8246 39.343 38.8219 39.334C38.8189 39.3245 38.8113 39.3201 38.7981 39.3201ZM11.9453 39.3224C11.79 39.3224 11.6403 39.3679 11.496 39.4586C11.3996 39.5179 11.2668 39.6274 11.0964 39.7869V39.3783C11.0964 39.3617 11.0953 39.3485 11.0926 39.339C11.0895 39.3299 11.0816 39.3257 11.0688 39.3257L10.8076 39.4121C10.5239 39.5047 10.3445 39.5619 10.2686 39.5842V39.6811C10.2943 39.6774 10.316 39.6747 10.3334 39.6728C10.3511 39.6708 10.3684 39.67 10.3854 39.67C10.4945 39.67 10.5666 39.7052 10.6017 39.7752C10.624 39.8232 10.6355 39.9056 10.6355 40.0232V41.4354C10.6355 41.6062 10.6087 41.7156 10.5558 41.7648C10.5029 41.8139 10.4111 41.8467 10.2797 41.8633V41.9414H11.4937V41.8633C11.366 41.8595 11.2721 41.835 11.2132 41.7897C11.1539 41.7443 11.1241 41.655 11.1241 41.5212V39.9645C11.2234 39.8662 11.3049 39.7963 11.3676 39.7536C11.4798 39.6795 11.5902 39.6423 11.699 39.6423C11.8573 39.6423 11.966 39.6948 12.0249 39.7995C12.0842 39.9042 12.1135 40.0359 12.1135 40.1953V41.3828C12.1135 41.5718 12.0867 41.6946 12.0327 41.7509C11.979 41.8076 11.8846 41.8448 11.7494 41.8633V41.9414H12.9358V41.8633C12.8107 41.8613 12.7217 41.8308 12.6685 41.7714C12.6152 41.7125 12.5888 41.6162 12.5888 41.4824V40.1843C12.5888 39.823 12.4883 39.5718 12.2889 39.4308C12.185 39.3586 12.0711 39.3224 11.9453 39.3224ZM17.0997 39.3224C16.9444 39.3224 16.7952 39.3679 16.6509 39.4586C16.5546 39.5179 16.4214 39.6274 16.2514 39.7869V39.3783C16.2514 39.3617 16.25 39.3485 16.247 39.339C16.2445 39.3299 16.2361 39.3257 16.2232 39.3257L15.9626 39.4121C15.6789 39.5047 15.4995 39.5619 15.4236 39.5842V39.6811C15.4493 39.6774 15.471 39.6747 15.4884 39.6728C15.5061 39.6708 15.5228 39.67 15.5398 39.67C15.649 39.67 15.7216 39.7052 15.7567 39.7752C15.779 39.8232 15.7899 39.9056 15.7899 40.0232V41.4354C15.7899 41.6062 15.7637 41.7156 15.7108 41.7648C15.6579 41.8139 15.5656 41.8467 15.4341 41.8633V41.9414H16.6482V41.8633C16.5205 41.8595 16.4269 41.835 16.3676 41.7897C16.3083 41.7443 16.2791 41.655 16.2791 41.5212V39.9645C16.3784 39.8662 16.4593 39.7963 16.522 39.7536C16.6342 39.6795 16.7452 39.6423 16.854 39.6423C17.0123 39.6423 17.1205 39.6948 17.1794 39.7995C17.2387 39.9042 17.2685 40.0359 17.2685 40.1953V41.3828C17.2685 41.5718 17.2417 41.6946 17.1877 41.7509C17.134 41.8076 17.0396 41.8448 16.9044 41.8633V41.9414H18.0907V41.8633C17.9657 41.8613 17.8767 41.8308 17.8235 41.7714C17.7702 41.7125 17.7432 41.6162 17.7432 41.4824V40.1843C17.7432 39.823 17.6433 39.5718 17.4439 39.4308C17.34 39.3586 17.2255 39.3224 17.0997 39.3224ZM9.73742 39.3257C9.72269 39.3257 9.68939 39.3366 9.63726 39.3589C9.50958 39.4126 9.2839 39.4921 8.95941 39.5975L8.83989 39.6368V39.7226C8.93244 39.6969 8.98884 39.6821 9.00811 39.6784C9.02774 39.6746 9.04747 39.6728 9.06787 39.6728C9.15702 39.6728 9.21477 39.7109 9.24272 39.7869C9.25935 39.833 9.26817 39.9169 9.26817 40.0371V41.3629C9.26817 41.5799 9.2419 41.713 9.19014 41.7621C9.13839 41.8112 9.01329 41.8449 8.81497 41.8634V41.9414H10.1657V41.8634C9.98589 41.8487 9.8703 41.8141 9.8193 41.7604C9.76831 41.7068 9.74294 41.5742 9.74294 41.3629V39.3672C9.74294 39.3525 9.74124 39.3386 9.73742 39.3257ZM21.7838 39.334C21.4298 39.334 21.1425 39.469 20.9222 39.7392C20.7016 40.0098 20.5919 40.3315 20.5919 40.7042C20.5919 41.0469 20.6868 41.3501 20.8769 41.6132C21.0665 41.8762 21.3353 42.0079 21.6836 42.0079C21.9855 42.0079 22.2404 41.9076 22.4489 41.7073C22.657 41.507 22.7996 41.2887 22.8755 41.0529L22.7782 41.0197C22.6652 41.2064 22.5419 41.351 22.4085 41.4526C22.2752 41.5543 22.1117 41.6049 21.9171 41.6049C21.6765 41.6049 21.4679 41.507 21.2919 41.3109C21.1158 41.1151 21.0188 40.8026 21.0002 40.3737H22.7643C22.7643 40.0419 22.6664 39.7854 22.4699 39.6047C22.2735 39.4241 22.0448 39.334 21.7838 39.334ZM27.3942 39.334C27.0255 39.334 26.7242 39.4613 26.49 39.716C26.2558 39.9707 26.1381 40.2827 26.1381 40.6516C26.1381 41.0461 26.2616 41.3742 26.5083 41.6353C26.7546 41.8964 27.0553 42.0272 27.4108 42.0272C27.7813 42.0272 28.0832 41.8912 28.3166 41.6187C28.5501 41.3462 28.6669 41.026 28.6669 40.6571C28.6669 40.2565 28.5467 39.9363 28.3061 39.6955C28.0651 39.4544 27.761 39.334 27.3942 39.334ZM41.1017 39.334C40.733 39.334 40.4317 39.4613 40.1975 39.716C39.9629 39.9707 39.8456 40.2827 39.8456 40.6516C39.8456 41.0461 39.9691 41.3742 40.2158 41.6353C40.4621 41.8964 40.7628 42.0272 41.1183 42.0272C41.4889 42.0272 41.7907 41.8912 42.0241 41.6187C42.2576 41.3462 42.3744 41.026 42.3744 40.6571C42.3744 40.2565 42.2541 39.9363 42.013 39.6955C41.7724 39.4544 41.4685 39.334 41.1017 39.334ZM46.473 39.334C46.1194 39.334 45.8326 39.469 45.612 39.7392C45.3914 40.0098 45.2811 40.3315 45.2811 40.7042C45.2811 41.0469 45.3761 41.3501 45.5661 41.6132C45.7557 41.8762 46.0246 42.0079 46.3729 42.0079C46.6751 42.0079 46.9302 41.9076 47.1387 41.7073C47.3468 41.507 47.4894 41.2887 47.5653 41.0529L47.4679 41.0197C47.3546 41.2064 47.2317 41.351 47.0983 41.4526C46.965 41.5543 46.8011 41.6049 46.6069 41.6049C46.3659 41.6049 46.1571 41.507 45.9811 41.3109C45.8054 41.1151 45.708 40.8026 45.6895 40.3737H47.4541C47.4541 40.0419 47.3556 39.7854 47.1592 39.6047C46.9627 39.4241 46.7344 39.334 46.473 39.334ZM35.239 39.3672V39.4453C35.3723 39.4581 35.4594 39.4798 35.5001 39.5112C35.5629 39.5607 35.5948 39.6592 35.5948 39.8062V41.2506C35.5948 41.5177 35.6668 41.7083 35.8111 41.8213C35.9539 41.9366 36.1058 41.994 36.2671 41.994C36.4431 41.994 36.6098 41.9385 36.7673 41.8274C36.8708 41.7548 36.9853 41.6436 37.1115 41.4936V41.9414C37.1115 41.9524 37.1123 41.9619 37.1143 41.9702C37.1163 41.9785 37.1219 41.983 37.1309 41.983C37.2941 41.9202 37.3996 41.88 37.448 41.8634C37.5609 41.8263 37.6418 41.8006 37.6898 41.787C37.7378 41.773 37.813 41.7524 37.915 41.7244V41.6464C37.7685 41.652 37.6721 41.6311 37.6267 41.5838C37.5814 41.5366 37.5587 41.4504 37.5587 41.3242V39.3672H36.6611V39.4586C36.8281 39.468 36.9393 39.4948 36.9948 39.5394C37.0503 39.584 37.0784 39.6772 37.0784 39.8201V41.3436C37.0077 41.4252 36.9381 41.489 36.8698 41.5351C36.7493 41.6186 36.6265 41.6602 36.5007 41.6602C36.3171 41.6602 36.1909 41.5903 36.1222 41.4493C36.087 41.3733 36.0696 41.2721 36.0696 41.1459V39.3672L35.239 39.3672ZM27.315 39.5007C27.5859 39.5007 27.7931 39.6424 27.9359 39.9258C28.0791 40.2092 28.15 40.5116 28.15 40.832C28.15 41.1416 28.094 41.3919 27.9818 41.5827C27.8696 41.7736 27.7093 41.8689 27.5015 41.8689C27.236 41.8689 27.0288 41.7263 26.8796 41.441C26.73 41.1557 26.6555 40.8481 26.6555 40.5182C26.6555 40.1051 26.7478 39.8141 26.9332 39.6451C27.0409 39.5488 27.1685 39.5007 27.315 39.5007ZM41.0226 39.5007C41.2934 39.5007 41.5001 39.6424 41.6429 39.9258C41.786 40.2092 41.8576 40.5116 41.8576 40.832C41.8576 41.1416 41.8015 41.3919 41.6893 41.5827C41.5768 41.7736 41.4166 41.8689 41.2085 41.8689C40.9433 41.8689 40.7363 41.7263 40.5871 41.441C40.4375 41.1557 40.3624 40.8481 40.3624 40.5182C40.3624 40.1051 40.4553 39.8141 40.6407 39.6451C40.7484 39.5488 40.876 39.5007 41.0226 39.5007ZM21.6228 39.5366C21.8354 39.5366 21.9875 39.6181 22.0782 39.7813C22.128 39.872 22.1635 40.0099 22.1839 40.1954H21.0113C21.0374 40.0435 21.0798 39.9176 21.1391 39.8179C21.2502 39.6304 21.4112 39.5366 21.6228 39.5366ZM46.312 39.5366C46.5251 39.5366 46.6769 39.6181 46.768 39.7813C46.8178 39.872 46.8531 40.0099 46.8731 40.1954H45.7006C45.7266 40.0435 45.7691 39.9176 45.8284 39.8179C45.9394 39.6304 46.1012 39.5366 46.312 39.5366ZM43.8917 39.6562C44.0858 39.6562 44.2573 39.7405 44.4046 39.9086C44.5516 40.0772 44.6248 40.3317 44.6248 40.6726C44.6248 41.0279 44.5546 41.3049 44.4129 41.5041C44.2709 41.7029 44.0998 41.8019 43.9 41.8019C43.77 41.8019 43.658 41.7713 43.5624 41.7089C43.4668 41.647 43.3951 41.5534 43.3472 41.4272V40.031C43.3472 39.9494 43.4035 39.8667 43.5165 39.7824C43.6298 39.6982 43.7542 39.6562 43.8917 39.6562ZM14.5449 40.4013V41.2827C14.5449 41.3881 14.489 41.475 14.3772 41.5434C14.265 41.6122 14.1477 41.6464 14.0253 41.6464C13.9365 41.6464 13.8556 41.6206 13.7835 41.5689C13.6724 41.4891 13.6169 41.3649 13.6169 41.1963C13.6169 40.9869 13.7503 40.7997 14.017 40.635C14.156 40.5496 14.3315 40.4716 14.5449 40.4013Z" fill="#1D1D1B"/>
<path d="M51.9787 37.9922H48.9355L57.3262 21.6721H60.3701L51.9787 37.9922Z" fill="#77990F"/>
<path d="M40.8055 29.8595C40.8463 29.0375 41.379 27.6007 43.2265 27.6007C44.6427 27.6007 45.2796 28.3795 45.5448 29.8595H40.8055ZM12.7129 32.198C12.7129 32.8352 12.6298 34.6417 10.3523 34.6417C9.40795 34.6417 8.56632 34.3764 8.56632 33.2883C8.56632 32.2196 9.38793 31.9123 10.2908 31.7279C11.1936 31.5624 12.2199 31.5416 12.7129 31.1115V32.198ZM43.3089 25.403C40.608 25.403 38.6282 27.1056 38.0581 29.5314V29.2015C38.0581 26.4514 36.4357 25.403 34.1786 25.403C32.7005 25.403 31.5914 26.2447 30.9761 27.1687C30.4007 25.8962 29.2112 25.403 27.8774 25.403C26.502 25.403 25.3933 26.0391 24.6344 27.1279H24.5939V25.6906H20.0179V25.0546C20.0179 24.1714 20.3465 23.8422 21.1251 23.8422C21.4949 23.8422 21.8447 23.8638 22.1922 23.905V21.7282C21.6996 21.707 21.1666 21.645 20.6532 21.645C18.2727 21.645 17.1028 23.0006 17.1028 24.8694V25.6906H15.3587V27.1619C14.6527 25.7111 12.671 25.403 10.9677 25.403C8.58747 25.403 6.14493 26.2246 5.98137 28.9559H8.89534C8.99734 27.8051 9.71544 27.3542 10.8249 27.3542C11.8509 27.3542 12.7129 27.5379 12.7129 28.7911C12.7129 29.9819 11.05 29.9199 9.26478 30.1879C7.45875 30.4332 5.65234 31.0095 5.65234 33.4108C5.65234 35.588 7.25288 36.5932 9.26478 36.5932C10.5571 36.5932 11.9124 36.244 12.836 35.28C12.8561 35.628 12.938 35.9772 13.0404 36.3057H15.9963C15.7296 35.8744 15.6261 34.9085 15.6261 33.9444V28.4219C15.6261 28.1358 15.5925 27.8769 15.5324 27.6411H17.1028V36.3057H20.0179V27.6411H21.8435V36.3057H24.7575V30.1463C24.7575 28.0731 26.1529 27.7034 26.7271 27.7034C28.5747 27.7034 28.492 29.1195 28.492 30.3504V36.3057H31.4067V30.3931C31.4067 29.0575 31.7142 27.7034 33.3582 27.7034C35.0206 27.7034 35.143 28.8735 35.143 30.2899V36.3057H38.0581V32.5544C38.6131 34.992 40.5173 36.5932 43.3089 36.5932C45.7099 36.5932 47.4547 35.5249 48.2752 33.0212H45.7099C45.5252 33.6765 44.5804 34.3964 43.4109 34.3964C41.7892 34.3964 40.8879 33.5544 40.8055 31.7075H48.4599C48.665 28.4423 46.921 25.403 43.3089 25.403Z" fill="#1D1D1B"/>
</svg>
