<svg width="64" height="64" viewBox="0 0 64 64" fill="none" xmlns="http://www.w3.org/2000/svg">
<rect width="64" height="64" rx="32" fill="white"/>
<path d="M53.1778 26.6608C52.9154 25.6111 52.5655 24.649 52.2156 23.6868C52.0407 23.337 51.9532 23.0746 51.7783 22.8122C51.341 21.85 50.3788 20.2756 49.7665 19.4884C49.5916 19.226 49.4166 18.9636 49.1542 18.7011L48.2796 17.6515C47.8422 17.1267 46.4427 15.8147 45.8304 15.2899C45.3056 14.8525 44.8683 14.5027 44.3435 14.1528C41.3696 12.141 38.2207 10.9165 34.6345 10.4791C33.9348 10.3917 33.3225 10.3042 32.7102 10.3042H30.7859C30.436 10.3917 29.9112 10.3917 29.5614 10.3917C27.7245 10.5666 25.8877 11.0914 24.2258 11.7037C23.4386 12.0536 22.5639 12.4034 21.9516 12.7533C21.7767 12.9282 21.6892 12.9282 21.5143 13.0157C21.3394 13.1032 21.2519 13.1907 21.0769 13.2781C20.902 13.3656 20.8145 13.4531 20.6396 13.5405C19.6775 14.1528 19.3276 14.4152 18.278 15.2024C17.7532 15.6398 17.3158 16.0771 16.8785 16.5144L15.9163 17.4766C15.7414 17.6515 15.7414 17.739 15.5665 17.8265C15.3915 18.0889 15.2166 18.3513 14.9542 18.6137C14.7792 18.8761 14.6043 19.051 14.4294 19.3134L13.3797 20.8879L12.68 22.1999C12.3301 22.8996 11.8928 23.8618 11.6304 24.5615C11.4554 25.2613 11.193 25.8735 11.0181 26.5733C10.8432 27.273 10.6682 27.9728 10.5808 28.76C10.4058 29.6347 10.3184 30.5094 10.3184 31.384C10.3184 32.9585 10.3184 33.5707 10.4933 35.2326C10.8432 37.6817 11.6304 40.0434 12.7675 42.1426C14.3419 45.204 16.7035 47.9155 19.5025 49.8398C20.3772 50.4521 21.7767 51.3268 22.8263 51.7641C25.3629 52.9012 28.4243 53.7759 31.3107 53.7759C33.7598 53.7759 34.9844 53.7759 37.346 53.1636C39.2703 52.7263 40.7573 52.0265 42.5067 51.1519C43.3813 50.7145 44.9558 49.6649 45.6555 49.0526C46.8801 48.003 47.5798 47.3907 48.6294 46.0787C49.0668 45.5539 49.4166 45.1165 49.7665 44.5917L50.5537 43.4547C50.6412 43.2797 50.7287 43.1922 50.8161 43.0173C51.6034 41.7053 51.9532 40.8306 52.478 39.4311C52.7404 38.8188 52.9154 38.1191 53.0903 37.4193C54.0525 33.8331 54.0525 30.247 53.1778 26.6608ZM48.7169 19.7508C49.0668 20.2756 49.4166 20.7129 49.6791 21.2377C50.0289 21.7625 50.2913 22.2873 50.5537 22.8122C50.6412 22.9871 50.6412 23.0746 50.7287 23.2495L51.0785 24.1242C51.166 24.2991 51.166 24.474 51.2535 24.5615H43.3813C43.2939 24.3866 43.2064 23.8618 43.2064 23.6868C43.1189 23.4244 43.0315 23.162 42.944 22.8122L42.4192 21.2377C42.0693 20.2756 41.632 19.4009 41.1072 18.5262L41.0197 18.3513H47.6673C47.6673 18.5262 48.6294 19.6633 48.7169 19.7508ZM35.5092 11.6162C36.8212 11.7912 38.2207 12.2285 39.4453 12.6658L41.3696 13.5405C41.8944 13.8029 42.3317 14.0653 42.7691 14.3277C44.0811 15.115 44.8683 15.7272 45.9179 16.7768C46.1803 16.9518 46.4427 17.1267 46.6177 17.3017H40.32C39.8826 16.5144 37.9583 14.3277 37.1711 13.628L36.9962 13.4531L36.2089 12.7533C36.034 12.6658 35.9465 12.5784 35.7716 12.4034C35.5967 12.316 35.5092 12.2285 35.3343 12.0536L34.4596 11.4413C34.8095 11.5288 35.1593 11.6162 35.5092 11.6162ZM32.6228 11.4413C32.7102 11.4413 33.41 11.8786 33.5849 12.0536C33.9348 12.2285 35.4217 13.4531 35.7716 13.7155L36.2089 14.0653C36.4714 14.3277 36.7338 14.5027 36.9962 14.7651L39.0079 17.3017H32.6228V11.4413ZM32.6228 18.4387H39.7951C39.7951 18.6137 39.8826 18.6137 39.9701 18.7886L40.9322 20.538C41.1946 21.0628 41.3696 21.5001 41.632 22.1124C41.8069 22.5497 42.3317 24.2991 42.3317 24.649H32.6228V18.4387ZM31.5731 11.4413V17.3017H25.188C25.5378 16.6894 26.1501 16.1646 26.5874 15.6398L28.9491 13.4531C29.5614 13.0157 30.0862 12.4909 30.6985 12.141C30.7859 11.9661 31.3982 11.5288 31.5731 11.4413ZM31.5731 18.4387V24.5615H21.8642C21.8642 24.2116 22.214 23.162 22.3015 22.8122C22.4764 22.1999 22.6514 21.7625 22.9138 21.2377C23.2637 20.363 23.5261 19.8382 23.9634 19.051C24.0509 18.9636 24.3133 18.5262 24.3133 18.4387H31.5731ZM17.8406 17.0393L18.103 16.7768C20.2023 14.7651 23.1762 13.1907 25.9752 12.2285C26.7624 11.9661 27.812 11.7912 28.6867 11.6162C29.0366 11.5288 29.3864 11.5288 29.7363 11.5288C29.3864 11.7912 28.5992 12.316 28.0744 12.7533C27.9869 12.8408 27.8995 12.8408 27.812 12.9282C27.3747 13.2781 25.9752 14.5901 25.7128 14.94L25.188 15.5523C24.9255 15.8147 23.9634 17.0393 23.7885 17.4766H17.5782C17.6657 17.2142 17.7532 17.1267 17.8406 17.0393ZM13.5547 22.8122C13.6422 22.7247 13.6422 22.6372 13.7296 22.4623C13.8171 22.1999 13.9046 22.0249 14.0795 21.7625L14.8667 20.4505C15.0416 20.363 16.1787 18.7011 16.4411 18.4387C16.5286 18.3513 16.6161 18.3513 16.8785 18.3513H23.0887C23.0887 18.4387 23.0012 18.6137 22.9138 18.7011C22.4764 19.4884 22.0391 20.363 21.6892 21.2377C21.5143 21.7625 21.2519 22.2873 21.1644 22.8122C21.0769 23.162 20.7271 24.2116 20.7271 24.5615H12.7675C12.9424 24.1242 13.2923 23.337 13.5547 22.8122ZM16.4411 45.6414C16.4411 45.5539 15.479 44.4168 15.3915 44.2419L13.5547 41.1805C13.2923 40.6557 13.0299 39.8685 12.7675 39.4311H20.7271C20.7271 39.8685 20.9895 40.7431 21.1644 41.1805C21.7767 43.1922 23.0887 45.6414 23.0887 45.6414H16.4411ZM27.7245 52.2889C25.4504 51.7641 23.3511 50.9769 21.3394 49.7524C20.902 49.49 20.3772 49.1401 20.0273 48.8777C19.8524 48.7027 19.59 48.5278 19.4151 48.3529C19.3276 48.2654 19.2401 48.1779 19.0652 48.0905C18.9777 48.003 18.9777 48.003 18.8902 48.003L18.7153 47.8281L18.4529 47.5657L18.1905 47.3032C18.0156 47.1283 17.7532 46.9534 17.6657 46.7784H23.9634C24.3133 47.3907 25.013 48.1779 25.5378 48.7902C25.6253 48.9651 25.8002 49.0526 25.8877 49.1401C26.4125 49.8398 28.1619 51.3268 28.9491 51.9391L29.8238 52.5513C29.124 52.5513 28.1619 52.3764 27.7245 52.2889ZM31.5731 52.5513C31.1358 52.4639 29.3864 50.9769 28.8616 50.627L28.4243 50.2772C27.9869 49.8398 27.2872 49.315 26.8498 48.7902L25.4504 47.1283C25.3629 46.9534 25.2754 46.8659 25.1005 46.691H31.4857L31.5731 52.5513ZM31.5731 45.6414H24.3133C24.3133 45.5539 24.2258 45.4664 24.1383 45.2915C24.0509 45.204 23.9634 45.0291 23.9634 44.9416L23.1762 43.5421C22.6514 42.58 21.9516 40.4807 21.7767 39.4311H31.4857L31.5731 45.6414ZM39.0079 46.7784C38.5706 47.4782 37.521 48.6153 36.9087 49.2276C36.7338 49.4025 36.6463 49.49 36.5588 49.6649L35.3343 50.7145C34.8969 51.0644 32.9726 52.5513 32.6228 52.6388V46.7784H39.0079ZM32.6228 45.6414V39.5186H42.3317C42.3317 39.9559 41.8069 41.5303 41.632 42.0552C41.5445 42.3176 41.457 42.58 41.2821 42.8424C41.0197 43.4547 40.4074 44.6792 39.9701 45.3789C39.8826 45.4664 39.7951 45.5539 39.7951 45.7288H32.6228V45.6414ZM45.3931 47.8281L44.7808 48.3529C44.6059 48.5278 44.3435 48.7027 44.1686 48.8777C41.5445 50.7145 38.6581 52.0265 35.5092 52.5513C35.1593 52.6388 34.8095 52.6388 34.4596 52.6388L36.5588 51.0644C36.9962 50.7145 38.5706 49.1401 39.0954 48.4403L40.0576 47.2158L40.2325 47.0408C40.32 46.9534 40.32 46.9534 40.4074 46.7784H46.7051C46.4427 46.9534 45.743 47.5657 45.3931 47.8281ZM51.166 39.9559L50.8161 40.8306C50.3788 41.7928 49.4166 43.4547 48.7169 44.3293L47.6673 45.7288H41.0197C42.0693 43.8045 42.3317 43.4547 42.944 41.2679L43.3813 39.5186H51.2535C51.3409 39.6061 51.2535 39.781 51.166 39.9559ZM52.1282 36.982C52.0407 37.2444 52.0407 37.5068 51.9532 37.7692C51.8658 37.9442 51.7783 38.3815 51.7783 38.469H12.4176L11.9803 36.982C11.8928 36.4572 11.7179 35.9324 11.6304 35.4076C11.5429 34.8828 11.4554 34.358 11.4554 33.7457C11.4554 33.4833 11.368 33.1334 11.368 32.871V31.9963C11.368 30.1595 11.6304 28.0602 12.1552 26.3109C12.2427 26.0485 12.3301 25.7861 12.3301 25.6111H51.6908C51.7783 25.7861 51.8658 26.0485 51.8658 26.3109C52.2156 27.448 52.478 29.0224 52.5655 30.247V31.9963C52.7404 33.6582 52.5655 35.4076 52.1282 36.982Z" fill="#7A6E67"/>
<path d="M21.9518 36.5446C23.0014 36.5446 22.739 36.7195 23.1764 35.9323L23.9636 34.4453C24.0511 34.2704 24.0511 34.1829 24.1385 34.0955C24.6633 33.2208 25.2756 31.8213 25.8004 30.9466L25.8879 30.8591C25.8879 31.1216 25.9754 31.4714 25.9754 31.6464C25.9754 31.9962 25.9754 32.1712 26.0628 32.4336L26.4127 36.1072C26.4127 36.5446 26.2378 36.4571 27.4623 36.4571C27.5498 36.2822 28.9493 33.3957 29.2117 33.0459C29.2992 32.8709 29.3866 32.696 29.4741 32.4336L30.9611 29.5471L31.2235 29.0223C31.3984 28.7599 31.8357 27.8852 32.0107 27.7103C32.1856 27.5354 32.1856 27.7103 32.1856 27.4479H30.4362C30.4362 28.0602 30.7861 27.7103 29.9989 29.4597C29.9114 29.7221 29.824 29.897 29.649 30.1594L28.2495 32.8709C28.1621 33.0459 27.9871 33.4832 27.8997 33.4832C27.8997 32.7834 27.5498 29.9845 27.5498 29.1098C27.5498 28.585 27.4623 28.1476 27.4623 27.6228H26.6751L24.0511 32.4336C23.9636 32.6085 23.5263 33.4832 23.4388 33.4832C23.4388 32.3461 23.0014 29.897 23.0014 28.585C23.0014 28.41 23.0014 28.1476 23.0889 27.9727C23.1764 27.7103 23.3513 27.7103 23.3513 27.4479H20.7273C20.7273 27.7978 20.9022 27.6228 21.0771 28.41L21.3396 30.6842C21.427 31.6464 21.9518 36.1072 21.9518 36.5446ZM16.004 29.4597C16.004 31.209 19.4153 31.384 19.4153 33.7456C19.4153 34.3579 19.3278 34.7077 19.1528 35.0576C18.9779 35.4075 18.803 35.6699 18.5406 35.9323C18.2782 36.1947 17.9283 36.3696 17.5784 36.4571C16.6163 36.807 15.3917 36.7195 14.3421 36.4571C14.1672 36.3696 13.9048 36.2822 13.7298 36.2822C12.9426 35.9323 13.2925 35.9323 13.5549 34.5328C13.6424 34.3579 13.5549 34.2704 13.7298 34.1829C13.7298 34.7077 13.9922 35.2326 14.2546 35.495C14.692 36.0198 15.3042 36.0198 16.004 36.0198C16.7912 36.0198 17.4035 35.495 17.5784 34.8827C17.8408 33.5707 16.7037 33.0459 16.004 32.4336C15.2168 31.8213 14.3421 31.209 14.3421 29.9845C14.3421 29.3722 14.6045 28.6724 14.9544 28.41C15.3042 28.0602 15.7416 27.7103 16.2664 27.5354C16.7037 27.3604 17.1411 27.3604 17.6659 27.2729C18.1032 27.2729 19.4153 27.4479 19.8526 27.7103C19.8526 27.9727 19.5027 29.1098 19.5027 29.2847H19.3278C19.3278 28.9348 19.0654 28.4975 18.803 28.2351C18.628 28.1476 18.5406 28.0602 18.2782 27.9727C17.2285 27.7103 16.004 28.1476 16.004 29.4597ZM38.6583 27.9727C38.6583 28.4975 37.6961 31.7338 37.5212 32.3461C37.2588 33.3083 36.9089 34.6203 36.559 35.5824C36.4716 35.9323 36.2966 36.2822 35.9467 36.3696V36.5446H38.6583C38.6583 36.0198 38.2209 36.4571 39.0081 34.0955L39.5329 32.2586H41.0199C41.4572 32.3461 41.8071 32.4336 41.8946 32.8709C42.157 32.8709 42.0695 32.696 42.2445 32.0837C42.3319 31.8213 42.4194 31.4714 42.5069 31.209C42.2445 31.209 42.3319 31.384 41.982 31.4714C41.6322 31.5589 40.1452 31.5589 39.7079 31.5589L40.4951 28.7599C40.67 27.9727 40.845 28.1476 42.2445 28.1476C42.5943 28.1476 42.9442 28.3226 43.1191 28.4975C43.6439 29.0223 43.3815 29.1098 43.7314 29.1098C43.7314 28.9348 43.9063 28.4975 43.9938 28.2351C44.0813 28.0602 44.0813 27.9727 44.1688 27.7978C44.2562 27.6228 44.3437 27.4479 44.1688 27.4479H38.7457C38.4833 27.7103 38.6583 27.7978 38.6583 27.9727ZM44.0813 29.1098C44.4312 29.1098 44.2562 28.7599 45.0434 28.3226C45.5682 28.0602 46.0056 28.1476 46.7053 28.1476L44.8685 34.5328C44.6936 35.0576 44.4312 36.2822 43.9938 36.3696V36.5446H46.6179C46.6179 36.0198 46.268 36.5446 46.7053 34.9702C46.7928 34.6203 46.8803 34.3579 46.9677 34.008L47.4925 32.0837C47.8424 30.9466 48.1923 29.6346 48.5422 28.41C48.6296 28.1476 48.5422 28.2351 49.4168 28.2351C50.0291 28.2351 50.5539 28.6724 50.7289 29.1973C50.9913 29.1973 50.9038 28.9348 51.0787 28.4975C51.1662 28.3226 51.3411 27.7978 51.3411 27.6228H44.781C44.6061 27.6228 44.5186 28.0602 44.4312 28.41C44.2562 28.4975 44.0813 28.8474 44.0813 29.1098ZM33.6726 27.8852C33.6726 28.41 33.6726 28.2351 33.5851 28.7599L33.1478 30.3343C32.9728 31.0341 31.6608 35.7574 31.3109 36.1072C31.136 36.3696 31.0485 36.2822 30.9611 36.4571H33.6726C33.6726 35.9323 33.3227 36.3696 33.76 34.7952L34.0224 33.7456C34.1974 33.0459 34.4598 32.3461 34.6347 31.6464C34.8971 30.6842 35.247 29.3722 35.5969 28.41C35.6843 28.0602 35.8593 27.7103 36.2091 27.6228V27.4479C32.623 27.4479 33.6726 27.3604 33.6726 27.8852Z" fill="#7A6E67"/>
</svg>
