<svg width="151" height="29" viewBox="0 0 151 29" fill="none" xmlns="http://www.w3.org/2000/svg">
<path fill-rule="evenodd" clip-rule="evenodd" d="M118.679 23.7102C117.585 23.7102 116.757 23.292 116.157 22.4226C115.538 21.5202 115.221 20.2766 115.221 18.7139C115.221 17.1511 115.538 15.9184 116.157 15.049C116.754 14.2015 117.582 13.7833 118.679 13.7833C119.779 13.7833 120.599 14.2015 121.185 15.049C121.794 15.9184 122.101 17.1511 122.101 18.7139C122.101 20.2766 121.79 21.5312 121.182 22.4226C120.594 23.292 119.774 23.7102 118.679 23.7102ZM127.535 14.5537C127.069 13.2991 126.407 12.2096 125.57 11.3291C124.732 10.4377 123.716 9.73335 122.545 9.23815C121.375 8.74285 120.076 8.50072 118.679 8.50072C117.309 8.50072 116.02 8.74285 114.849 9.23815C113.682 9.73335 112.659 10.4377 111.807 11.3182C110.959 12.2097 110.285 13.2991 109.807 14.5537C109.33 15.7974 109.087 17.2062 109.087 18.7139C109.087 20.2326 109.324 21.6303 109.789 22.8959C110.254 24.1616 110.913 25.251 111.75 26.1535C112.591 27.0559 113.607 27.7712 114.781 28.2554C115.949 28.7507 117.258 29.0039 118.679 29.0039C120.122 29.0039 121.446 28.7507 122.617 28.2554C123.787 27.7712 124.804 27.0559 125.644 26.1535C126.483 25.251 127.129 24.1504 127.575 22.8848C128.015 21.6302 128.235 20.2215 128.235 18.7139C128.235 17.2062 127.999 15.8083 127.535 14.5537ZM81.7491 23.7095C81.2834 23.7095 80.8506 23.6985 80.4607 23.6655C80.2839 23.6426 80.1215 23.625 79.974 23.6091C79.9089 23.602 79.8466 23.5952 79.7874 23.5885V14.421C80.0663 14.2669 80.4135 14.1348 80.8253 14.0247C81.3262 13.8926 81.8414 13.8267 82.3543 13.8267C84.6555 13.8267 85.7758 15.3895 85.7758 18.603C85.7758 20.1659 85.4243 21.4204 84.7379 22.3668C84.0679 23.2692 83.0881 23.7095 81.7491 23.7095ZM91.359 14.6301C90.991 13.3864 90.443 12.3079 89.7268 11.4164C89.004 10.514 88.099 9.82067 87.028 9.33652C85.9648 8.85226 84.7269 8.61003 83.3517 8.61003C82.5938 8.61003 81.8711 8.67611 81.2044 8.83016C80.721 8.94023 80.2487 9.0724 79.7874 9.24844V0.00390625L73.7605 0.983327V27.8036L74.0142 27.8806C74.5008 28.0237 75.0632 28.1667 75.686 28.2988C76.2978 28.4308 76.9601 28.5409 77.651 28.6399C78.3309 28.7389 79.0317 28.8159 79.7369 28.882C80.4497 28.9371 81.1363 28.9701 81.781 28.9701C83.3626 28.9701 84.7983 28.728 86.0482 28.2437C87.3004 27.7705 88.3736 27.0662 89.2403 26.1747C90.1024 25.2943 90.7725 24.2048 91.2261 22.9502C91.6809 21.6955 91.9104 20.2869 91.9104 18.7461C91.9104 17.2494 91.7248 15.8626 91.359 14.6301ZM12.3668 11.4194C12.477 11.1284 12.5816 10.8523 12.6811 10.5918L12.7009 10.5414C12.7764 10.3509 12.8481 10.1695 12.9101 9.99758C12.9441 10.0805 12.9786 10.1683 13.0148 10.2597C13.0552 10.3624 13.0978 10.4702 13.1431 10.5809L13.2936 10.9689C13.4975 11.4948 13.7268 12.0864 13.9806 12.7269C14.3024 13.5413 14.6426 14.4437 14.9864 15.4012L15.1914 15.9707C15.4278 16.627 15.67 17.2995 15.9169 17.9985H9.87144C10.2006 17.0961 10.5266 16.2376 10.8416 15.4232L10.9693 15.0905C11.2955 14.2407 11.5955 13.4591 11.8653 12.7379C12.0452 12.2687 12.2115 11.8295 12.3665 11.4204L12.3668 11.4194ZM25.8673 28.0245C24.9367 25.361 24.0455 22.8739 23.2153 20.6288C22.3774 18.3617 21.5507 16.2046 20.7598 14.2236C19.9652 12.2426 19.1633 10.3278 18.3721 8.51188C17.5886 6.72901 16.7794 4.94604 15.9672 3.24021L15.8702 3.03118H10.1508L10.0504 3.24021C9.2202 4.93505 8.40749 6.71796 7.63136 8.52282C6.85776 10.3167 6.0635 12.2317 5.26551 14.2236C4.47049 16.2266 3.64362 18.3726 2.81345 20.6288C1.99393 22.8518 1.10225 25.3501 0.16476 28.0245L0 28.5087H6.54285L6.6217 28.2554C6.88994 27.3971 7.18387 26.5167 7.49494 25.6142L8.34708 23.1491H17.4881L18.3506 25.6142C18.6622 26.5056 18.9595 27.3971 19.2315 28.2554L19.3134 28.5087H26.0352L25.8673 28.0245ZM40.9488 9.45829L39.925 14.5098L39.5637 14.4217C39.0947 14.3007 38.5328 14.1796 37.9025 14.0476C37.2873 13.9264 36.6141 13.8605 35.9056 13.8605C35.5941 13.8605 35.2076 13.8934 34.7562 13.9484C34.4632 13.9815 34.2165 14.0256 34.0196 14.0695V28.5087H27.9916V10.1076L28.2284 10.0196C29.1839 9.68947 30.3325 9.35927 31.6355 9.06211C32.9529 8.754 34.4378 8.61079 36.0489 8.61079C36.3424 8.61079 36.7003 8.62184 37.1151 8.65488L37.1932 8.66344C37.57 8.70471 37.9585 8.74729 38.3466 8.80904C38.7547 8.86407 39.1694 8.9411 39.578 9.02907C40.0041 9.1062 40.3722 9.2271 40.6764 9.34822L40.9488 9.45829ZM69.6669 28.5087V17.5363C69.6669 16.2376 69.556 15.027 69.3374 13.9595C69.1122 12.87 68.697 11.9125 68.0952 11.1091C67.491 10.2946 66.6672 9.66737 65.6512 9.22721C64.6483 8.78694 63.36 8.56691 61.821 8.56691C60.9588 8.56691 60.0033 8.7319 58.9861 9.05106C58.0634 9.33717 57.2254 9.73335 56.4917 10.2287C55.9545 9.79943 55.2921 9.4363 54.5233 9.11714C53.639 8.754 52.4824 8.56691 51.0908 8.56691C50.3999 8.56691 49.6804 8.59984 48.9577 8.65488C48.2339 8.72096 47.522 8.80893 46.8455 8.90795C46.1722 9.01802 45.5175 9.13913 44.9024 9.27119C44.2719 9.4142 43.7491 9.53531 43.2987 9.65632L43.0329 9.72241V28.5087H49.061V13.9595C49.2905 13.9265 49.53 13.8935 49.7738 13.8715C50.1132 13.8385 50.4494 13.8274 50.7678 13.8274C51.7136 13.8274 52.3539 14.1135 52.7296 14.7188C53.1305 15.3791 53.3348 16.5458 53.3348 18.1855V28.5087H59.3618V17.8885C59.3618 17.2062 59.3376 16.5348 59.2903 15.9185C59.2475 15.3901 59.1618 14.8728 59.0322 14.3887C59.2937 14.2456 59.6121 14.1246 59.9736 14.0255C60.4503 13.8934 60.8226 13.8274 61.0731 13.8274C62.0177 13.8274 62.6591 14.1135 63.0315 14.7188C63.4357 15.3791 63.639 16.5458 63.639 18.1855V28.5087H69.6669ZM107.226 14.5098L108.25 9.45829L107.981 9.34822C107.674 9.2271 107.305 9.1062 106.879 9.02907C106.471 8.9411 106.056 8.86407 105.647 8.80904C105.261 8.74761 104.875 8.70525 104.501 8.66419L104.417 8.65488C104.001 8.62184 103.644 8.61079 103.351 8.61079C101.739 8.61079 100.257 8.754 98.9405 9.06211C97.6334 9.35927 96.4888 9.68947 95.5333 10.0196L95.2938 10.1076V28.5087H101.321V14.0695C101.517 14.0256 101.764 13.9815 102.058 13.9484C102.508 13.8934 102.895 13.8605 103.207 13.8605C103.915 13.8605 104.588 13.9264 105.204 14.0476C105.837 14.1796 106.395 14.3007 106.864 14.4217L107.226 14.5098ZM143.46 28.5087H150.352L150.085 27.9804C149.993 27.8097 149.905 27.6392 149.815 27.4686C149.726 27.2981 149.637 27.1274 149.545 26.9568C148.781 25.5481 147.956 24.1725 147.032 22.8629C146.581 22.2355 146.144 21.6522 145.617 21.0689C145.315 20.7375 145.011 20.4092 144.709 20.0807C144.439 19.7873 144.169 19.494 143.899 19.198C143.759 19.0439 142.183 17.5252 142.103 17.5802C143.427 16.2706 150.506 8.99602 150.506 8.99602H143.541C143.541 8.99602 137.973 14.8289 137.647 15.1811V0.00468629L131.62 0.984107V28.5087H137.647V20.6949C138.033 21.0471 138.427 21.4542 138.818 21.9054C139.408 22.5767 139.98 23.303 140.521 24.0404C141.062 24.7888 141.576 25.5372 142.06 26.2856C142.54 27.0229 142.976 27.7162 143.352 28.3326L143.46 28.5087Z" fill="#3E3E3E"/>
</svg>
