<svg viewBox="0 0 37 95" fill="none" xmlns="http://www.w3.org/2000/svg">
<path d="M27.7406 85.7325C27.7406 85.7325 31.493 88.0035 37 90.1321C33.595 91 37 90.1321 33.595 91C31.8116 90.1229 30.0875 89.1442 28.4883 88.0699C28.4317 88.0751 28.3577 88.0532 28.2684 87.9946C27.8628 87.7345 27.465 87.4637 27.0721 87.1848C26.2919 87.5757 25.3312 87.7155 24.2476 87.6545C23.4545 87.6107 22.6022 87.4639 21.7274 87.2469C21.5115 87.1933 21.2904 87.1335 21.0738 87.0712C20.8607 86.9993 20.6476 86.9275 20.4324 86.8483C20.0098 86.6948 19.5815 86.5252 19.1621 86.3493C18.3224 85.9917 17.5022 85.6016 16.7535 85.2104C16.0334 84.796 15.3762 84.384 14.8204 84.019C14.2629 83.658 13.8098 83.3428 13.4967 83.1175L13.4139 83.0593C13.2944 82.9756 13.1982 82.9082 13.1348 82.854C13.0557 82.7905 13.0136 82.7557 13.0136 82.7557C13.0136 82.7557 13.1961 82.7539 13.5261 82.7489C13.8548 82.7423 14.3321 82.7383 14.912 82.7471C16.0693 82.7632 17.6286 82.8214 19.2463 83.0083C19.4602 83.0362 19.6798 83.0627 19.9027 83.0896L19.9047 83.0898C20.5098 83.1629 21.1388 83.2388 21.7421 83.3527C22.0821 83.4153 22.4172 83.4875 22.7477 83.565C21.7188 82.5716 20.739 81.527 19.8024 80.4504C18.858 80.9299 17.6796 81.0031 16.4004 80.7579C15.6515 80.5984 14.8663 80.3307 14.0775 79.9859C13.6828 79.8177 13.2857 79.6266 12.8936 79.4245C12.6968 79.3241 12.5017 79.221 12.3083 79.1138C12.1757 79.0374 12.0495 78.9566 11.9234 78.8758C11.8684 78.8407 11.8132 78.8053 11.7578 78.7705C11.0366 78.2992 10.343 77.7974 9.71034 77.3065L9.59988 77.2204C9.32376 77.0053 9.0541 76.7953 8.81835 76.5848C8.55715 76.3425 8.312 76.1101 8.0908 75.8939C7.19775 75.0272 6.651 74.4084 6.651 74.4084C6.651 74.4084 7.37917 74.4936 8.48162 74.687C9.03326 74.7873 9.67851 74.9097 10.372 75.0602C10.8485 75.1611 11.3344 75.2805 11.8473 75.4065C12.0886 75.4658 12.336 75.5266 12.5909 75.5875C13.3733 75.7854 14.1629 76.0137 14.9213 76.2834C15.3002 76.4219 15.6717 76.5639 16.0321 76.7235C16.1369 76.7686 16.2386 76.8159 16.3409 76.8634C16.4143 76.8975 16.4888 76.9321 16.564 76.9657L16.675 77.0167C16.818 77.0822 16.9609 77.1477 17.1022 77.217C17.1501 77.2421 17.1984 77.2689 17.2462 77.2954C16.119 75.8118 15.0637 74.305 14.0689 72.8141C12.9231 73.3578 11.5998 73.278 10.2133 72.7765C9.85295 72.6524 9.51232 72.4916 9.17651 72.3057C8.83768 72.1223 8.49775 71.9175 8.16347 71.6947C7.49491 71.249 6.83187 70.7342 6.22029 70.1896C5.64596 69.6353 5.10743 69.0542 4.62595 68.4963C4.14319 67.9369 3.70311 67.4052 3.40014 66.9305C2.7617 65.9842 2.38921 65.3259 2.38921 65.3259C2.38921 65.3259 3.06318 65.5104 4.0722 65.8552C4.57456 66.0282 5.16083 66.2394 5.78782 66.4853C5.89626 66.5288 6.00652 66.5732 6.11854 66.6184C6.32664 66.7023 6.54086 66.7886 6.76096 66.8755C7.10467 67.0152 7.45223 67.1595 7.8034 67.3112C8.50134 67.6171 9.20098 67.9545 9.85857 68.3267C10.1886 68.515 10.5099 68.7069 10.8133 68.9129C11.134 69.1118 11.4455 69.3213 11.7395 69.5393C11.9248 69.6786 12.1009 69.827 12.2698 69.9776C11.2645 68.2498 10.4166 66.4826 9.71007 64.6846C8.50041 64.9912 7.27414 64.7149 6.09322 64.0457C5.94152 63.9605 5.78911 63.8667 5.63575 63.7671C5.49366 63.667 5.35062 63.5612 5.20931 63.4513C4.9282 63.2301 4.65435 62.9882 4.38882 62.7299C3.85208 62.2143 3.34676 61.6388 2.88237 61.0425C2.45142 60.4491 2.07695 59.8333 1.73923 59.2491L1.66344 59.113C1.36568 58.5783 1.08281 58.0704 0.902049 57.6293C0.497488 56.6698 0.284849 56.0122 0.284849 56.0122C0.284849 56.0122 0.889807 56.2705 1.78242 56.7207C2.22722 56.9471 2.74689 57.2196 3.29429 57.5313C3.4028 57.5943 3.51476 57.6587 3.62917 57.7244C4.08579 57.987 4.58165 58.2721 5.05515 58.579C5.6546 58.9591 6.24984 59.3744 6.79779 59.8198C7.05319 60.0235 7.28541 60.2337 7.52522 60.4508L7.58603 60.5058C7.84651 60.7395 8.09667 60.9794 8.32504 61.2289C8.43573 61.3533 8.54353 61.4789 8.64425 61.6054C8.16514 60.0156 7.78721 58.4058 7.50002 56.7837C7.4578 56.557 7.41708 56.3289 7.37937 56.0983C6.16391 56.2139 5.05776 55.7856 4.08125 55.0156C3.55116 54.61 3.1223 54.1134 2.70864 53.5669C2.30056 53.0208 1.93309 52.4228 1.60566 51.8152C0.98851 50.602 0.596614 49.3606 0.318391 48.4175C0.0843025 47.4837 0 46.8525 0 46.8525C0 46.8525 0.537149 47.152 1.31918 47.6697C1.71542 47.9247 2.15067 48.2356 2.64419 48.5898C3.13503 48.9423 3.65326 49.3384 4.15636 49.7658C5.16953 50.6214 6.103 51.5968 6.79987 52.6547C6.8297 52.7027 6.85792 52.7534 6.88602 52.8055C6.6555 51.0005 6.48742 49.1865 6.39652 47.3719C5.40103 47.2444 4.55382 46.7525 3.84709 46.0293C3.63425 45.8138 3.43296 45.5766 3.24278 45.3232C3.06352 45.0736 2.90234 44.8084 2.7489 44.5339C2.44087 43.9821 2.18543 43.3863 1.96655 42.7893C1.85845 42.4916 1.75766 42.1903 1.67162 41.8973C1.5906 41.6119 1.51922 41.3287 1.45691 41.0547C1.33207 40.5097 1.23808 40 1.16934 39.5606C1.02722 38.6871 1.01707 38.0934 1.01707 38.0934C1.01707 38.0934 1.49657 38.4123 2.20413 38.9493C2.91492 39.4809 3.8395 40.2338 4.69926 41.1134C5.12833 41.5546 5.53564 42.0224 5.90263 42.5209C6.05579 42.7285 6.20036 42.9383 6.33762 43.1517C6.372 41.6305 6.46813 40.1088 6.63894 38.6005C5.94157 38.3401 5.35762 37.8888 4.87667 37.3068C4.51609 36.8685 4.20457 36.3604 3.95482 35.8163C3.71785 35.2704 3.52872 34.6873 3.38057 34.1005C3.24055 33.5172 3.10888 32.9347 3.06342 32.3792C3.00926 31.8273 2.98606 31.3093 2.97663 30.865C2.96579 30.4205 2.97279 30.0514 2.97797 29.7931C2.9929 29.5356 3.01482 29.3839 3.01482 29.3839C3.01482 29.3839 3.11696 29.4749 3.30064 29.6339C3.36162 29.6903 3.43318 29.7549 3.51331 29.8272C3.66662 29.9657 3.85141 30.1325 4.05349 30.324C4.67166 30.909 5.47079 31.7224 6.19424 32.6404C6.37497 32.8717 6.55256 33.1069 6.71823 33.3511C6.8898 33.5916 7.06093 33.8377 7.21594 34.0923C7.25824 34.1599 7.29764 34.2286 7.33693 34.2987C7.64362 32.8629 8.02464 31.4447 8.49276 30.0424C7.84565 29.7322 7.34228 29.2379 6.96291 28.6132C6.37049 27.6878 6.15238 26.5008 6.07334 25.3114C6.05626 25.0156 6.04195 24.7202 6.04844 24.4278C6.06724 24.1394 6.09 23.8541 6.12032 23.5794C6.1812 23.0272 6.26144 22.5136 6.34268 22.0754C6.41707 21.6353 6.52287 21.2759 6.60167 21.0266C6.68475 20.7763 6.72991 20.6322 6.72991 20.6322C6.72991 20.6322 7.05847 21.0322 7.5022 21.6765L7.57418 21.7813C8.00953 22.4149 8.59581 23.2681 9.07578 24.1927C9.33689 24.6823 9.56286 25.1903 9.75856 25.7086C9.83564 25.9027 9.90588 26.0949 9.96602 26.2904C10.6828 24.69 11.4436 23.2226 12.2633 21.8612C11.5593 21.4737 11.1018 20.861 10.8449 20.1073C10.5602 19.1578 10.5956 17.9751 10.817 16.835C11.0909 15.722 11.4971 14.6216 11.8826 13.8336C12.2851 13.0599 12.6029 12.5576 12.6029 12.5576C12.6029 12.5576 12.8244 12.9814 13.0977 13.6512C13.2351 13.9869 13.3859 14.3819 13.5293 14.8176L13.5796 14.9696C13.71 15.3631 13.8547 15.7998 13.9684 16.2406C14.0994 16.7435 14.2027 17.2597 14.2567 17.7789C14.2867 18.0359 14.2982 18.2956 14.2975 18.5501L14.2965 18.8272C15.4494 17.2804 16.7034 15.8544 18.0667 14.4831C17.7343 14.2718 17.4727 14.0181 17.2834 13.7179C17.0477 13.3498 16.9276 12.9204 16.8948 12.4527C16.8649 11.9839 16.9218 11.4811 17.0429 10.9653C17.1616 10.4449 17.3416 9.91124 17.5852 9.42413C18.0596 8.43603 18.6547 7.4808 19.1583 6.81219C19.6694 6.15417 20.0507 5.73547 20.0507 5.73547C20.0507 5.73547 20.1897 6.15516 20.3324 6.81115C20.4751 7.46573 20.618 8.34779 20.6759 9.32651C20.726 10.2989 20.6494 11.3118 20.3107 12.2345C20.29 12.301 20.2653 12.3644 20.2407 12.4263C21.8193 11.0119 23.5364 9.61903 25.4109 8.16832C23.7606 7.03614 24.3925 5.00493 25.5079 3.20762C26.0762 2.3255 26.7704 1.53497 27.311 0.947657C27.8525 0.366108 28.2506 0 28.2506 0C28.2506 0 28.6081 1.63651 28.4484 3.44572C28.3662 4.35298 28.1415 5.2881 27.7026 6.14837C27.6117 6.3213 27.5089 6.48471 27.3938 6.64423L27.3968 6.64164C29.1044 5.35037 31.9878 4.10654 31.9878 4.10654C20.2265 12.5345 10.916 23.1372 8.62506 35.9976C7.79528 40.6679 7.98326 45.4151 8.33245 50.146C8.72583 55.4833 9.61752 60.8511 11.9224 65.9635C15.4844 73.8655 20.56 80.3775 27.7406 85.7325Z" fill="#DF2C29"/>
<path d="M28.538 14.2793C27.7535 14.1438 26.6708 14.0018 25.5576 14.0137C24.4351 14.019 23.2132 14.1454 22.1662 14.5225C21.1599 14.9172 20.2788 15.5357 19.8665 16.4679C20.2916 16.7651 20.7613 16.9424 21.2547 17.035C21.759 17.1313 22.2939 17.142 22.8323 17.0919C23.3706 17.0433 23.9176 16.937 24.451 16.7912C24.9069 16.6659 25.3465 16.5144 25.7967 16.3593L26.032 16.2784C27.0547 15.916 27.9402 15.4825 28.6253 15.1471L28.6755 15.1225C29.3795 14.7906 29.8144 14.5427 29.8144 14.5427C29.8144 14.5427 29.3197 14.4145 28.538 14.2793Z" fill="#DF2C29"/>
<path d="M21.4349 19.9106C21.9614 19.9036 22.4456 19.9172 22.8503 19.9426C23.6673 19.987 24.1885 20.0648 24.1885 20.0648C24.1885 20.0648 23.8159 20.3577 23.1898 20.7687L23.0569 20.8609C22.47 21.2686 21.7239 21.7868 20.8268 22.258C19.9232 22.7907 18.9039 23.2952 17.8255 23.5559C16.7963 23.8336 15.7197 23.8783 14.7049 23.4136C14.8176 22.3696 15.5909 21.607 16.5134 21.0503C16.7461 20.9106 16.985 20.7828 17.2516 20.6758C17.521 20.569 17.7989 20.4786 18.0818 20.3957C18.6461 20.2326 19.2275 20.1179 19.7946 20.0417C20.3674 19.9647 20.9026 19.9186 21.4349 19.9106Z" fill="#DF2C29"/>
<path d="M14.4371 30.7629C15.4046 30.291 16.3653 29.6067 17.1515 28.8935C17.3158 28.7478 17.4698 28.5983 17.6227 28.4498L17.7159 28.3594C17.9088 28.1922 18.0892 28.0225 18.2622 27.8579C18.6025 27.531 18.8967 27.2187 19.1383 26.9504C19.3616 26.6916 19.5628 26.4844 19.7083 26.3345L19.7276 26.3146C19.8661 26.1612 19.946 26.0741 19.946 26.0741C19.946 26.0741 19.3989 26.0751 18.5577 26.1581C17.7197 26.2371 16.6454 26.4285 15.5196 26.7748C14.9658 26.9473 14.3921 27.1594 13.8703 27.4227C13.3622 27.6914 12.8826 28.0066 12.4722 28.3688C12.267 28.5507 12.0776 28.7438 11.9098 28.9486C11.7422 29.1507 11.5945 29.3672 11.4988 29.5994C11.2867 30.0608 11.183 30.5696 11.2196 31.1129C12.3537 31.4369 13.4491 31.2259 14.4371 30.7629Z" fill="#DF2C29"/>
<path d="M12.888 39.105C11.9228 39.6879 10.8237 39.9967 9.61957 39.7421C9.42261 38.6067 9.78172 37.5862 10.5414 36.7486C10.9115 36.3289 11.3571 35.9483 11.8427 35.6095C12.0864 35.438 12.3348 35.2783 12.5963 35.1296C12.8632 34.9842 13.135 34.8478 13.4086 34.7229C14.4964 34.2213 15.595 33.8826 16.4184 33.6702C16.8292 33.5668 17.1706 33.4902 17.4193 33.4485C17.6696 33.4055 17.8061 33.3828 17.8061 33.3828C17.8061 33.3828 17.7416 33.4883 17.63 33.6737C17.5195 33.8635 17.3604 34.1345 17.1539 34.4555C16.9472 34.778 16.6917 35.1504 16.392 35.5489C16.2823 35.6901 16.1732 35.8384 16.0614 35.9901C15.8628 36.2599 15.6554 36.5416 15.4229 36.814C15.0659 37.2447 14.6689 37.6677 14.2366 38.058C13.818 38.4536 13.3712 38.8142 12.888 39.105Z" fill="#DF2C29"/>
<path d="M12.8181 46.8558C13.0444 46.6914 13.2637 46.5093 13.4729 46.3136C13.6874 46.1212 13.9004 45.913 14.0984 45.6993C14.496 45.2692 14.8571 44.8033 15.1735 44.3365C15.3338 44.1026 15.4799 43.8717 15.6234 43.6378C15.7729 43.3987 15.9136 43.1645 16.0443 42.9324C16.3022 42.4778 16.5203 42.0468 16.6971 41.6763C17.0397 40.9331 17.244 40.447 17.244 40.447C17.244 40.447 16.6743 40.5911 15.8478 40.8943C15.0267 41.2007 13.9381 41.6596 12.8815 42.2804C12.3546 42.5916 11.8301 42.9415 11.359 43.327C10.9006 43.7108 10.4865 44.1367 10.1539 44.5965C9.8238 45.0593 9.56695 45.5538 9.44902 46.0827C9.34653 46.6115 9.36646 47.1705 9.54339 47.7484C10.8119 47.9173 11.8987 47.5151 12.8181 46.8558Z" fill="#DF2C29"/>
<path d="M15.0941 52.7877C14.7657 53.2648 14.3665 53.7147 13.9768 54.0986C13.1665 54.868 12.1361 55.4057 10.814 55.3815C10.53 54.8104 10.3863 54.2382 10.415 53.6833C10.4566 53.128 10.6245 52.5876 10.8825 52.079C11.3729 51.0652 12.3331 50.1762 13.3184 49.4641C13.8111 49.1073 14.3172 48.7943 14.8015 48.525C15.2815 48.2582 15.7708 48.032 16.1737 47.8511C16.9907 47.4917 17.5523 47.3085 17.5523 47.3085C17.5523 47.3085 17.4057 47.8094 17.1257 48.5593C16.8866 49.3056 16.4747 50.3032 15.9553 51.3102C15.7109 51.8072 15.4252 52.3121 15.0941 52.7877Z" fill="#DF2C29"/>
<path d="M12.1908 62.9851C12.3254 63.2665 12.4971 63.5411 12.7054 63.813C14.0472 63.6441 14.9643 62.9433 15.6075 62.0533C15.6879 61.942 15.7631 61.8261 15.8382 61.7102C15.9164 61.5916 15.9921 61.4699 16.0665 61.3454C16.2097 61.0972 16.3411 60.8395 16.4589 60.5765C16.6942 60.0531 16.8776 59.5126 17.0195 58.9814C17.1942 58.4444 17.3375 57.9134 17.4424 57.4246C17.4971 57.179 17.5425 56.9439 17.5813 56.7211L17.5979 56.6182C17.6272 56.4355 17.6551 56.2608 17.6944 56.0951C17.8561 55.3154 17.9041 54.8019 17.9041 54.8019C17.9041 54.8019 17.3686 55.0442 16.6044 55.499C16.2216 55.7256 15.7814 56.0043 15.323 56.3355C14.8591 56.6648 14.4255 57.0365 13.9922 57.4579C13.5616 57.8796 13.1558 58.3431 12.8071 58.8456C12.6371 59.0958 12.4675 59.3574 12.344 59.6228C12.2248 59.8858 12.1248 60.1546 12.0479 60.4325C11.8973 60.9843 11.8432 61.557 11.925 62.1325C11.9523 62.4234 12.0646 62.703 12.1908 62.9851Z" fill="#DF2C29"/>
<path d="M16.9975 71.4605C16.7167 71.218 16.472 70.9629 16.2672 70.6983C16.0568 70.4347 15.8822 70.1628 15.7805 69.8727C15.5543 69.2965 15.4628 68.703 15.4759 68.117C15.4826 67.8218 15.5142 67.5316 15.5708 67.2435C15.6475 66.95 15.7447 66.6638 15.8584 66.3819C16.0869 65.8196 16.3875 65.2875 16.7196 64.7993C16.8848 64.5558 17.0606 64.3217 17.241 64.0995C17.4101 63.8871 17.6084 63.6811 17.7931 63.4893L17.8162 63.4653C18.2042 63.0671 18.5837 62.7236 18.923 62.4435C19.5905 61.8825 20.0758 61.5663 20.0758 61.5663C20.0758 61.5663 20.1429 62.0795 20.1507 62.8777C20.1425 63.1137 20.1538 63.3666 20.1659 63.6365C20.1746 63.8303 20.1837 64.033 20.1862 64.2441C20.1949 64.751 20.1749 65.2995 20.1169 65.869C20.0962 66.4274 20.0521 66.9981 19.9436 67.5662C19.889 67.8474 19.8216 68.1289 19.738 68.4034C19.6516 68.6776 19.5473 68.9475 19.4503 69.1967C19.0346 70.2054 18.2953 71.0689 16.9975 71.4605Z" fill="#DF2C29"/>
<path d="M24.5122 72.8201L24.4465 72.3781C24.3545 71.7904 24.2281 71.2296 24.0881 70.7174C24.0544 70.5888 24.0172 70.464 23.9808 70.3421C23.9453 70.2228 23.9106 70.1062 23.8808 69.992C23.8295 69.756 23.7741 69.5366 23.7214 69.336C23.5105 68.5336 23.3165 68.0282 23.3165 68.0282C23.3165 68.0282 22.9061 68.426 22.3785 69.0969C22.1103 69.4355 21.8156 69.8415 21.5288 70.3065C21.2451 70.769 20.9431 71.3024 20.7511 71.845C20.5472 72.3966 20.3881 72.9846 20.3071 73.5948C20.2647 73.8984 20.2443 74.2066 20.2462 74.5167C20.248 74.6703 20.2507 74.8298 20.2709 74.9808C20.2927 75.1305 20.3226 75.2822 20.3585 75.4303C20.5001 76.0293 20.7532 76.6192 21.1331 77.1672C21.3276 77.4365 21.5357 77.7113 21.813 77.945C22.0915 78.1816 22.4051 78.3998 22.7523 78.601C23.9624 77.9902 24.4594 76.9997 24.6274 75.895C24.7301 75.3292 24.7464 74.7377 24.704 74.1442C24.6801 73.845 24.6434 73.5491 24.5953 73.2564C24.5704 73.1107 24.5429 72.9634 24.5122 72.8201Z" fill="#DF2C29"/>
<path d="M28.7582 75.5771C28.5426 75.1851 28.3493 74.8661 28.2124 74.647L28.1728 74.5848C28.1218 74.5048 28.0806 74.44 28.0517 74.3933C28.0174 74.3321 27.9987 74.3021 27.9987 74.3021C27.9987 74.3021 27.9147 74.423 27.7939 74.6361C27.6717 74.849 27.507 75.1565 27.3304 75.5412C26.9745 76.3103 26.5785 77.3889 26.3972 78.6063C26.2917 79.2258 26.312 79.8332 26.3806 80.4673C26.4566 81.0978 26.6148 81.7338 26.879 82.3431C26.9439 82.4964 27.0161 82.6461 27.0939 82.7962C27.1764 82.941 27.2749 83.0772 27.376 83.2165C27.5784 83.4922 27.8098 83.7562 28.0706 84.0041C28.5935 84.5 29.235 84.9334 30.0078 85.267C31.0832 84.4814 31.3947 83.3716 31.3187 82.1966C31.2814 81.6091 31.1433 81.0019 30.9413 80.4049C30.8917 80.2529 30.8362 80.1046 30.7794 79.9548C30.73 79.8015 30.6804 79.6479 30.6267 79.4956C30.5176 79.1922 30.3998 78.8937 30.2717 78.6C30.021 78.016 29.7339 77.4645 29.4585 76.9608C29.2184 76.4374 28.9766 75.9693 28.7582 75.5771Z" fill="#DF2C29"/>
<path d="M28.2182 8.58305C27.2313 8.96233 26.3642 9.54642 25.9473 10.4469C27.5232 11.5985 29.9561 11.0433 31.9285 10.2477C32.9403 9.85487 33.8793 9.40619 34.5421 9.04522C35.2116 8.68766 35.6227 8.42216 35.6227 8.42216C35.6227 8.42216 33.7072 7.99423 31.4957 8.0419C30.394 8.06749 29.2012 8.19918 28.2182 8.58305Z" fill="#DF2C29"/>
</svg>
