<svg width="114" height="38" viewBox="0 0 114 38" fill="none" xmlns="http://www.w3.org/2000/svg">
<path d="M104.922 -0.007689H9.08337C8.73403 -0.007689 8.38888 -0.007689 8.04046 -0.005789C7.7488 -0.003889 7.45947 0.0016305 7.16501 0.006276C6.52531 0.0137827 5.88711 0.0699034 5.25596 0.17415C4.6257 0.280667 4.01518 0.481481 3.44505 0.7698C2.87562 1.06056 2.35532 1.43837 1.90302 1.88953C1.44834 2.33942 1.06933 2.85943 0.780568 3.42956C0.491005 3.99856 0.290221 4.6083 0.185151 5.23772C0.0790818 5.86634 0.0220051 6.50221 0.0144329 7.13962C0.00559216 7.43089 0.00465854 7.72313 0 8.01443V29.973C0.00465854 30.268 0.00559216 30.5537 0.0144329 30.8488C0.0220074 31.4862 0.0790841 32.122 0.185151 32.7506C0.289931 33.3804 0.490727 33.9905 0.780568 34.5597C1.0692 35.128 1.44826 35.6459 1.90302 36.0933C2.35361 36.5464 2.87425 36.9245 3.44505 37.213C4.01517 37.5021 4.62563 37.7041 5.25596 37.8123C5.88721 37.9157 6.52535 37.9718 7.16501 37.9802C7.45947 37.9867 7.7488 37.9904 8.04046 37.9904C8.38887 37.9923 8.73405 37.9923 9.08337 37.9923H104.922C105.264 37.9923 105.612 37.9923 105.954 37.9904C106.245 37.9904 106.542 37.9867 106.833 37.9802C107.471 37.9723 108.108 37.9161 108.738 37.8123C109.37 37.7034 109.983 37.5014 110.556 37.213C111.126 36.9243 111.646 36.5463 112.097 36.0933C112.55 35.6441 112.93 35.1266 113.222 34.5597C113.51 33.99 113.709 33.38 113.812 32.7506C113.918 32.1219 113.977 31.4862 113.989 30.8488C113.993 30.5537 113.993 30.268 113.993 29.973C114 29.6278 114 29.2846 114 28.9339V9.05163C114 8.70373 114 8.35862 113.993 8.01443C113.993 7.72313 113.993 7.43089 113.989 7.13958C113.977 6.50211 113.918 5.86638 113.812 5.23768C113.709 4.60863 113.51 3.99894 113.222 3.42952C112.634 2.28675 111.702 1.35654 110.556 0.769715C109.983 0.4821 109.37 0.281339 108.738 0.174065C108.108 0.0693586 107.471 0.0132184 106.833 0.006143C106.542 0.001507 106.245 -0.00406 105.954 -0.0059125C105.612 -0.0078125 105.264 -0.0078125 104.922 -0.0078125V-0.007689Z" fill="#131313"/>
<path d="M8.04545 37.1607C7.75519 37.1607 7.47195 37.157 7.18397 37.1506C6.58739 37.1428 5.99221 37.091 5.4033 36.9956C4.85417 36.9013 4.32222 36.7259 3.82498 36.4751C3.3323 36.2264 2.88293 35.9004 2.4941 35.5094C2.09964 35.123 1.77123 34.6748 1.5219 34.1827C1.26981 33.6873 1.09535 33.1564 1.0046 32.6083C0.906591 32.0195 0.853566 31.424 0.845978 30.8271C0.839938 30.6267 0.832031 29.9597 0.832031 29.9597V8.01412C0.832031 8.01412 0.840453 7.35728 0.846026 7.1643C0.853291 6.56835 0.906008 5.97381 1.00372 5.38584C1.09464 4.83628 1.26924 4.3038 1.52146 3.80684C1.76988 3.31504 2.09646 2.86656 2.48855 2.47879C2.88019 2.08733 3.33099 1.75957 3.82451 1.50744C4.32061 1.25748 4.85156 1.08329 5.39957 0.990699C5.99042 0.894337 6.58766 0.842238 7.18631 0.834842L8.04592 0.823242H105.95L106.82 0.835307C107.413 0.842336 108.005 0.89397 108.59 0.989768C109.144 1.08352 109.68 1.25893 110.182 1.51023C111.171 2.01833 111.975 2.8222 112.483 3.80916C112.731 4.30269 112.903 4.83082 112.993 5.37563C113.092 5.96843 113.147 6.56764 113.158 7.16848C113.161 7.43752 113.161 7.72651 113.161 8.01412C113.169 8.37037 113.169 8.70945 113.169 9.05132V28.9336C113.169 29.2787 113.169 29.6155 113.161 29.955C113.161 30.2639 113.161 30.5469 113.157 30.8382C113.146 31.4283 113.092 32.0168 112.995 32.599C112.906 33.151 112.732 33.6861 112.48 34.1855C112.229 34.6723 111.903 35.1166 111.513 35.5019C111.123 35.895 110.673 36.223 110.179 36.4733C109.679 36.726 109.143 36.9021 108.59 36.9956C108.002 37.0915 107.406 37.1433 106.81 37.1506C106.531 37.157 106.238 37.1607 105.955 37.1607L104.922 37.1626L8.04545 37.1607Z" fill="white"/>
<path d="M23.8126 18.8878C23.8233 18.0633 24.0429 17.2548 24.4511 16.5376C24.8593 15.8205 25.4428 15.2179 26.1472 14.786C25.6997 14.1487 25.1093 13.6241 24.4229 13.2541C23.7366 12.8841 22.9731 12.6788 22.1933 12.6544C20.5297 12.4803 18.9169 13.6471 18.0692 13.6471C17.205 13.6471 15.8998 12.6717 14.4943 12.7006C13.5852 12.7298 12.6992 12.9935 11.9226 13.4657C11.1461 13.938 10.5054 14.6028 10.0631 15.3954C8.14721 18.7033 9.57631 23.5648 11.4116 26.2387C12.3299 27.548 13.4031 29.0106 14.8073 28.9587C16.1814 28.9019 16.6946 28.0849 18.3533 28.0849C19.9966 28.0849 20.4781 28.9587 21.9108 28.9257C23.3853 28.9019 24.3143 27.6106 25.2004 26.2889C25.8602 25.356 26.3678 24.3249 26.7046 23.2338C25.848 22.8725 25.117 22.2677 24.6027 21.4949C24.0884 20.722 23.8136 19.8153 23.8126 18.8878Z" fill="black"/>
<path d="M21.1074 10.8957C21.9113 9.93324 22.3074 8.69621 22.2115 7.44727C20.9833 7.57591 19.8487 8.1613 19.0339 9.08679C18.6355 9.53892 18.3303 10.0649 18.1359 10.6347C17.9415 11.2045 17.8616 11.8069 17.9008 12.4075C18.5152 12.4138 19.1229 12.281 19.6784 12.0192C20.2338 11.7573 20.7224 11.3731 21.1074 10.8957Z" fill="black"/>
<path d="M40.2989 25.7755H35.7895L34.7066 28.9641H32.7966L37.0678 17.167H39.0522L43.3234 28.9641H41.3809L40.2989 25.7755ZM36.2566 24.3041H39.831L38.0689 19.1292H38.0196L36.2566 24.3041Z" fill="black"/>
<path d="M52.5483 24.6631C52.5483 27.3359 51.1137 29.0531 48.9488 29.0531C48.4004 29.0817 47.855 28.9557 47.375 28.6896C46.8951 28.4235 46.5 28.0279 46.235 27.5483H46.194V31.8085H44.4236V20.3621H46.1373V21.7927H46.1698C46.447 21.3153 46.8488 20.9218 47.3324 20.6541C47.816 20.3863 48.3633 20.2543 48.9162 20.2721C51.1053 20.2721 52.5483 21.9977 52.5483 24.6631ZM50.7285 24.6631C50.7285 22.9217 49.8261 21.7769 48.4492 21.7769C47.0965 21.7769 46.1866 22.9458 46.1866 24.6631C46.1866 26.3961 47.0965 27.5567 48.4492 27.5567C49.8261 27.5567 50.7285 26.4202 50.7285 24.6631H50.7285Z" fill="black"/>
<path d="M62.0412 24.6631C62.0412 27.3359 60.6061 29.0531 58.4412 29.0531C57.8928 29.0817 57.3474 28.9557 56.8675 28.6896C56.3875 28.4235 55.9924 28.0279 55.7274 27.5483H55.6865V31.8085H53.916V20.3621H55.6297V21.7927H55.6623C55.9394 21.3153 56.3412 20.9218 56.8248 20.6541C57.3084 20.3863 57.8558 20.2543 58.4086 20.2721C60.5977 20.2721 62.0412 21.9977 62.0412 24.6631ZM60.221 24.6631C60.221 22.9217 59.3185 21.7769 57.9416 21.7769C56.5889 21.7769 55.679 22.9458 55.679 24.6631C55.679 26.3961 56.5889 27.5567 57.9416 27.5567C59.3185 27.5567 60.221 26.4202 60.221 24.6631Z" fill="black"/>
<path d="M68.3138 25.6766C68.445 26.8464 69.5847 27.6146 71.142 27.6146C72.6343 27.6146 73.7079 26.8464 73.7079 25.7916C73.7079 24.8759 73.0604 24.3276 71.5272 23.9519L69.994 23.5835C67.8217 23.0603 66.8132 22.0472 66.8132 20.4033C66.8132 18.3678 68.592 16.9697 71.1169 16.9697C73.6177 16.9697 75.3314 18.3678 75.389 20.4033H73.6018C73.4949 19.226 72.5189 18.5153 71.0927 18.5153C69.6665 18.5153 68.6906 19.2343 68.6906 20.2808C68.6906 21.1149 69.3139 21.6056 70.8387 21.9813L72.1421 22.3005C74.5694 22.8729 75.5769 23.8452 75.5769 25.5707C75.5769 27.7778 73.8149 29.1601 71.0108 29.1601C68.3873 29.1601 66.6159 27.8103 66.5015 25.6765L68.3138 25.6766Z" fill="black"/>
<path d="M79.3989 18.3271V20.3626H81.0391V21.7607H79.3989V26.5023C79.3989 27.239 79.7273 27.5822 80.4483 27.5822C80.643 27.5788 80.8374 27.5652 81.0307 27.5414V28.9311C80.7065 28.9915 80.377 29.0189 80.0473 29.0128C78.3011 29.0128 77.6201 28.3587 77.6201 26.6906V21.7607H76.366V20.3626H77.62V18.3271H79.3989Z" fill="black"/>
<path d="M81.99 24.6636C81.99 21.9574 83.5883 20.2568 86.0807 20.2568C88.5814 20.2568 90.1723 21.9573 90.1723 24.6636C90.1723 27.3772 88.5898 29.0703 86.0807 29.0703C83.5725 29.0703 81.99 27.3772 81.99 24.6636ZM88.3684 24.6636C88.3684 22.8072 87.5153 21.7115 86.0807 21.7115C84.6461 21.7115 83.793 22.8155 83.793 24.6636C83.793 26.5274 84.6461 27.6147 86.0807 27.6147C87.5153 27.6147 88.3684 26.5274 88.3684 24.6636H88.3684Z" fill="black"/>
<path d="M91.6333 20.362H93.3219V21.826H93.3628C93.4771 21.3687 93.7457 20.9647 94.1235 20.6817C94.5013 20.3987 94.9653 20.254 95.4375 20.272C95.6415 20.2713 95.845 20.2934 96.0441 20.3379V21.9892C95.7865 21.9108 95.5178 21.8747 95.2486 21.8826C94.9914 21.8722 94.735 21.9174 94.497 22.0151C94.259 22.1129 94.045 22.2608 93.8697 22.4488C93.6944 22.6368 93.562 22.8604 93.4816 23.1042C93.4012 23.3481 93.3746 23.6064 93.4037 23.8614V28.963H91.6333L91.6333 20.362Z" fill="black"/>
<path d="M104.206 26.4374C103.968 27.9988 102.443 29.0703 100.492 29.0703C97.9827 29.0703 96.4253 27.3939 96.4253 24.7044C96.4253 22.0065 97.991 20.2568 100.417 20.2568C102.804 20.2568 104.304 21.8915 104.304 24.4994V25.1042H98.2125V25.2109C98.1844 25.5275 98.2241 25.8464 98.3291 26.1464C98.434 26.4465 98.6018 26.7208 98.8213 26.9512C99.0407 27.1816 99.3068 27.3629 99.6019 27.4829C99.897 27.6028 100.214 27.6589 100.533 27.6472C100.951 27.6863 101.371 27.5896 101.73 27.3717C102.089 27.1537 102.367 26.826 102.525 26.4374L104.206 26.4374ZM98.2208 23.8704H102.533C102.549 23.5857 102.506 23.3009 102.406 23.0338C102.306 22.7666 102.152 22.5229 101.953 22.3179C101.755 22.113 101.516 21.9511 101.251 21.8426C100.987 21.7341 100.703 21.6813 100.417 21.6874C100.129 21.6857 99.8433 21.7409 99.5765 21.8499C99.3097 21.9589 99.0672 22.1195 98.863 22.3225C98.6588 22.5255 98.4969 22.7667 98.3867 23.0324C98.2765 23.2981 98.2201 23.5829 98.2208 23.8704V23.8704Z" fill="black"/>
</svg>
