<svg width="24" height="24" viewBox="0 0 24 24" fill="none" xmlns="http://www.w3.org/2000/svg">
<rect y="-0.0078125" width="24" height="24" rx="4" fill="#B9B9B9"/>
<g clip-path="url(#clip0_4260_4613)">
<path d="M22 11.9922C22 6.46934 17.5229 1.99219 12 1.99219C6.47715 1.99219 2 6.46934 2 11.9922C2 16.9834 5.65684 21.1205 10.4375 21.8707V14.8828H7.89844V11.9922H10.4375V9.78906C10.4375 7.28281 11.9305 5.89844 14.2146 5.89844C15.3084 5.89844 16.4531 6.09375 16.4531 6.09375V8.55469H15.1922C13.95 8.55469 13.5625 9.32559 13.5625 10.1172V11.9922H16.3359L15.8926 14.8828H13.5625V21.8707C18.3432 21.1205 22 16.9834 22 11.9922Z" fill="white"/>
</g>
<defs>
<clipPath id="clip0_4260_4613">
<rect width="20" height="20" fill="white" transform="translate(2 1.99219)"/>
</clipPath>
</defs>
</svg>
