<svg width="128" height="38" viewBox="0 0 128 38" fill="none" xmlns="http://www.w3.org/2000/svg">
<path d="M117.807 -0.007689H10.1989C9.80663 -0.007689 9.41909 -0.007689 9.02789 -0.005789C8.70041 -0.003889 8.37554 0.0016305 8.04492 0.006276C7.32666 0.0137827 6.61008 0.0699034 5.90143 0.17415C5.19377 0.280667 4.50827 0.481481 3.86813 0.7698C3.22877 1.06056 2.64457 1.43837 2.13672 1.88953C1.62621 2.33942 1.20066 2.85943 0.876427 3.42956C0.551304 3.99856 0.325862 4.6083 0.207889 5.23772C0.0887936 5.86634 0.0247074 6.50221 0.0162054 7.13962C0.00627891 7.43089 0.00523064 7.72313 0 8.01443V29.973C0.00523064 30.268 0.00627891 30.5537 0.0162054 30.8488C0.02471 31.4862 0.0887962 32.122 0.207889 32.7506C0.325536 33.3804 0.550991 33.9905 0.876427 34.5597C1.20051 35.128 1.62612 35.6459 2.13672 36.0933C2.64265 36.5464 3.22722 36.9245 3.86813 37.213C4.50827 37.5021 5.19369 37.7041 5.90143 37.8123C6.61021 37.9157 7.32671 37.9718 8.04492 37.9802C8.37554 37.9867 8.70041 37.9904 9.02789 37.9904C9.41908 37.9923 9.80665 37.9923 10.1989 37.9923H117.807C118.191 37.9923 118.582 37.9923 118.966 37.9904C119.292 37.9904 119.627 37.9867 119.953 37.9802C120.669 37.9723 121.385 37.9161 122.092 37.8123C122.802 37.7034 123.49 37.5014 124.133 37.213C124.773 36.9243 125.357 36.5463 125.863 36.0933C126.372 35.6441 126.799 35.1266 127.127 34.5597C127.45 33.99 127.673 33.38 127.789 32.7506C127.908 32.1219 127.975 31.4862 127.987 30.8488C127.992 30.5537 127.992 30.268 127.992 29.973C128 29.6278 128 29.2846 128 28.9339V9.05163C128 8.70373 128 8.35862 127.992 8.01443C127.992 7.72313 127.992 7.43089 127.987 7.13958C127.975 6.50211 127.908 5.86638 127.789 5.23768C127.673 4.60863 127.449 3.99894 127.127 3.42952C126.466 2.28675 125.419 1.35654 124.133 0.769715C123.49 0.4821 122.802 0.281339 122.092 0.174065C121.385 0.0693586 120.669 0.0132184 119.953 0.006143C119.627 0.001507 119.292 -0.00406 118.966 -0.0059125C118.582 -0.0078125 118.191 -0.0078125 117.807 -0.0078125V-0.007689Z" fill="#601715"/>
<path d="M9.03287 37.1607C8.70697 37.1607 8.38894 37.157 8.06559 37.1506C7.39575 37.1428 6.72747 37.091 6.06624 36.9956C5.44968 36.9013 4.8524 36.7259 4.29409 36.4751C3.74091 36.2264 3.23636 35.9004 2.79978 35.5094C2.35687 35.123 1.98814 34.6748 1.70818 34.1827C1.42513 33.6873 1.22925 33.1564 1.12735 32.6083C1.01731 32.0195 0.957773 31.424 0.949254 30.8271C0.942472 30.6267 0.933594 29.9597 0.933594 29.9597V8.01412C0.933594 8.01412 0.94305 7.35728 0.949307 7.1643C0.957464 6.56835 1.01666 5.97381 1.12637 5.38584C1.22846 4.83628 1.42449 4.3038 1.70769 3.80684C1.98662 3.31504 2.35331 2.86656 2.79354 2.47879C3.23328 2.08733 3.73944 1.75957 4.29357 1.50744C4.85059 1.25748 5.44675 1.08329 6.06206 0.990699C6.72546 0.894337 7.39606 0.842238 8.06822 0.834842L9.0334 0.823242H118.961L119.938 0.835307C120.604 0.842336 121.268 0.89397 121.925 0.989768C122.547 1.08352 123.149 1.25893 123.713 1.51023C124.823 2.01833 125.726 2.8222 126.296 3.80916C126.575 4.30269 126.768 4.83082 126.868 5.37563C126.98 5.96843 127.042 6.56764 127.054 7.16848C127.058 7.43752 127.058 7.72651 127.058 8.01412C127.066 8.37037 127.066 8.70945 127.066 9.05132V28.9336C127.066 29.2787 127.066 29.6155 127.058 29.955C127.058 30.2639 127.057 30.5469 127.053 30.8382C127.041 31.4283 126.98 32.0168 126.871 32.599C126.771 33.151 126.576 33.6861 126.293 34.1855C126.011 34.6723 125.644 35.1166 125.207 35.5019C124.77 35.895 124.264 36.223 123.71 36.4733C123.148 36.726 122.546 36.9021 121.925 36.9956C121.264 37.0915 120.596 37.1433 119.926 37.1506C119.613 37.157 119.285 37.1607 118.966 37.1607L117.807 37.1626L9.03287 37.1607Z" fill="white"/>
<path d="M45.0487 9.72063C45.0643 10.069 45.0092 10.417 44.8868 10.7435C44.7643 11.07 44.577 11.3684 44.3362 11.6206C44.0663 11.8993 43.7406 12.1178 43.3805 12.2618C43.0203 12.4059 42.6338 12.4723 42.2462 12.4566C41.8564 12.4653 41.4689 12.3939 41.1078 12.2469C40.7467 12.0998 40.4196 11.8802 40.1467 11.6016C39.5931 11.0354 39.2832 10.275 39.2832 9.48313C39.2832 8.69127 39.5931 7.93086 40.1467 7.36463C40.5699 6.95108 41.1059 6.67183 41.6874 6.56196C42.2688 6.4521 42.8698 6.51652 43.4147 6.74713C43.7573 6.88795 44.0628 7.10574 44.3077 7.38363L43.8042 7.88713C43.6155 7.65986 43.3765 7.47971 43.1061 7.36098C42.8356 7.24224 42.5412 7.1882 42.2462 7.20313C41.8738 7.20571 41.5077 7.29945 41.18 7.47617C40.8522 7.6529 40.5727 7.90721 40.3659 8.2169C40.1591 8.52659 40.0313 8.88221 39.9936 9.25269C39.956 9.62318 40.0097 9.99723 40.15 10.3422C40.2903 10.6871 40.513 10.9924 40.7986 11.2315C41.0841 11.4705 41.4239 11.6359 41.7881 11.7133C42.1524 11.7907 42.5301 11.7777 42.8881 11.6754C43.2462 11.5731 43.5738 11.3847 43.8422 11.1266C44.1324 10.8085 44.3006 10.3979 44.3172 9.96763H42.2462V9.28363H45.0107C45.0323 9.42838 45.045 9.57432 45.0487 9.72063Z" fill="#131313" stroke="#131313" stroke-width="0.17974" stroke-miterlimit="10"/>
<path d="M49.3998 7.34558H46.8347V9.15058H49.1718V9.83458H46.8347V11.6396H49.3998V12.3426H46.0938V6.64258H49.3998V7.34558Z" fill="#131313" stroke="#131313" stroke-width="0.17974" stroke-miterlimit="10"/>
<path d="M52.515 12.3426H51.7835V7.34558H50.1875V6.64258H54.149V7.34558H52.515V12.3426Z" fill="#131313" stroke="#131313" stroke-width="0.17974" stroke-miterlimit="10"/>
<path d="M56.9453 12.3426V6.64258H57.6768V12.3426H56.9453Z" fill="#131313" stroke="#131313" stroke-width="0.17974" stroke-miterlimit="10"/>
<path d="M60.9212 12.3426H60.1898V7.34558H58.5938V6.64258H62.5078V7.34558H60.9212V12.3426Z" fill="#131313" stroke="#131313" stroke-width="0.17974" stroke-miterlimit="10"/>
<path d="M69.9301 11.601C69.6558 11.8756 69.33 12.0935 68.9713 12.2421C68.6127 12.3907 68.2283 12.4672 67.8401 12.4672C67.452 12.4672 67.0676 12.3907 66.7089 12.2421C66.3503 12.0935 66.0245 11.8756 65.7501 11.601C65.2131 11.0301 64.9141 10.2758 64.9141 9.49203C64.9141 8.70822 65.2131 7.95393 65.7501 7.38303C66.0186 7.10069 66.3434 6.87785 66.7034 6.72893C67.0634 6.58002 67.4507 6.50834 67.8401 6.51853C68.2291 6.51238 68.6151 6.5859 68.9746 6.73458C69.334 6.88326 69.6592 7.10394 69.9301 7.38303C70.2033 7.6609 70.418 7.99068 70.5616 8.35291C70.7052 8.71514 70.7747 9.10247 70.7661 9.49203C70.7786 9.88207 70.7108 10.2705 70.567 10.6333C70.4232 10.9961 70.2065 11.3255 69.9301 11.601ZM66.2916 11.126C66.494 11.3311 66.7351 11.494 67.0009 11.6051C67.2668 11.7162 67.552 11.7735 67.8401 11.7735C68.1283 11.7735 68.4135 11.7162 68.6793 11.6051C68.9452 11.494 69.1863 11.3311 69.3886 11.126C69.7986 10.6806 70.0261 10.0974 70.0261 9.49203C70.0261 8.88669 69.7986 8.30346 69.3886 7.85803C69.1863 7.65295 68.9452 7.49011 68.6793 7.37896C68.4135 7.26782 68.1283 7.21058 67.8401 7.21058C67.552 7.21058 67.2668 7.26782 67.0009 7.37896C66.7351 7.49011 66.494 7.65295 66.2916 7.85803C65.8817 8.30346 65.6542 8.88669 65.6542 9.49203C65.6542 10.0974 65.8817 10.6806 66.2916 11.126Z" fill="#131313" stroke="#131313" stroke-width="0.17974" stroke-miterlimit="10"/>
<path d="M71.8008 12.3426V6.64258H72.6843L75.4583 11.0791V9.97708V6.64258H76.1898V12.3426H75.4298L72.5323 7.69708V8.78958V12.3426H71.8008Z" fill="#131313" stroke="#131313" stroke-width="0.17974" stroke-miterlimit="10"/>
<path d="M64.7338 20.6553C63.9334 20.6572 63.1515 20.8964 62.487 21.3426C61.8225 21.7889 61.3053 22.4221 61.0007 23.1624C60.6962 23.9026 60.6179 24.7165 60.7759 25.5011C60.9339 26.2858 61.321 27.006 61.8884 27.5707C62.4557 28.1353 63.1777 28.5191 63.9631 28.6734C64.7485 28.8277 65.562 28.7456 66.3008 28.4376C67.0396 28.1295 67.6704 27.6093 68.1135 26.9428C68.5566 26.2762 68.7922 25.4932 68.7903 24.6928C68.798 24.1588 68.6983 23.6288 68.4969 23.1342C68.2955 22.6396 67.9967 22.1905 67.6182 21.8138C67.2397 21.4371 66.7893 21.1404 66.2938 20.9414C65.7982 20.7423 65.2677 20.645 64.7338 20.6553ZM64.7338 27.1438C64.2432 27.1781 63.7536 27.064 63.3287 26.8164C62.9038 26.5688 62.5632 26.1991 62.3512 25.7553C62.1392 25.3116 62.0656 24.8143 62.14 24.3281C62.2143 23.842 62.4332 23.3895 62.7682 23.0294C63.1032 22.6693 63.5387 22.4183 64.0182 22.309C64.4977 22.1998 64.999 22.2373 65.4569 22.4167C65.9148 22.5961 66.3082 22.9091 66.5858 23.315C66.8635 23.7209 67.0126 24.201 67.0138 24.6928C67.0291 25.0044 66.9818 25.3159 66.8748 25.609C66.7678 25.9021 66.6032 26.1707 66.3907 26.3992C66.1782 26.6276 65.9221 26.8112 65.6376 26.9391C65.353 27.067 65.0457 27.1366 64.7338 27.1438ZM55.8798 20.6553C55.0794 20.6572 54.2975 20.8964 53.633 21.3426C52.9685 21.7889 52.4513 22.4221 52.1467 23.1624C51.8422 23.9026 51.7639 24.7165 51.9219 25.5011C52.0799 26.2858 52.467 27.006 53.0344 27.5707C53.6017 28.1353 54.3237 28.5191 55.1091 28.6734C55.8945 28.8277 56.708 28.7456 57.4468 28.4376C58.1856 28.1295 58.8164 27.6093 59.2595 26.9428C59.7026 26.2762 59.9382 25.4932 59.9363 24.6928C59.944 24.1588 59.8443 23.6288 59.6429 23.1342C59.4415 22.6396 59.1427 22.1905 58.7642 21.8138C58.3857 21.4371 57.9353 21.1404 57.4398 20.9414C56.9442 20.7423 56.4137 20.645 55.8798 20.6553ZM55.8798 27.1438C55.3892 27.1781 54.8996 27.064 54.4747 26.8164C54.0498 26.5688 53.7092 26.1991 53.4972 25.7553C53.2852 25.3116 53.2116 24.8143 53.286 24.3281C53.3603 23.842 53.5792 23.3895 53.9142 23.0294C54.2492 22.6693 54.6847 22.4183 55.1642 22.309C55.6437 22.1998 56.145 22.2373 56.6029 22.4167C57.0608 22.5961 57.4542 22.9091 57.7318 23.315C58.0095 23.7209 58.1586 24.201 58.1598 24.6928C58.1751 25.0044 58.1278 25.3159 58.0208 25.609C57.9138 25.9021 57.7492 26.1707 57.5367 26.3992C57.3242 26.6276 57.0681 26.8112 56.7836 26.9391C56.499 27.067 56.1917 27.1366 55.8798 27.1438ZM45.3538 21.8998V23.6098H49.4578C49.3934 24.4152 49.0586 25.1752 48.5078 25.7663C48.0961 26.1857 47.601 26.5141 47.0544 26.7301C46.5078 26.9461 45.922 27.045 45.3348 27.0203C44.1254 27.0203 42.9655 26.5399 42.1104 25.6847C41.2552 24.8295 40.7748 23.6697 40.7748 22.4603C40.7748 21.2509 41.2552 20.0911 42.1104 19.2359C42.9655 18.3807 44.1254 17.9003 45.3348 17.9003C46.4942 17.8831 47.6137 18.3234 48.4508 19.1258L49.6573 17.9193C49.0911 17.3593 48.4188 16.9179 47.6798 16.621C46.9408 16.3241 46.1501 16.1777 45.3538 16.1903C44.5092 16.1574 43.6667 16.2954 42.8768 16.5959C42.0868 16.8964 41.3656 17.3534 40.7565 17.9393C40.1473 18.5252 39.6627 19.228 39.3317 20.0057C39.0007 20.7834 38.8301 21.6199 38.8301 22.465C38.8301 23.3102 39.0007 24.1467 39.3317 24.9244C39.6627 25.7021 40.1473 26.4049 40.7565 26.9908C41.3656 27.5767 42.0868 28.0337 42.8768 28.3342C43.6667 28.6347 44.5092 28.7727 45.3538 28.7398C46.1664 28.7723 46.9768 28.6324 47.7315 28.3295C48.4863 28.0267 49.1685 27.5675 49.7333 26.9823C50.7309 25.8864 51.2625 24.445 51.2153 22.9638C51.2187 22.6073 51.1901 22.2512 51.1298 21.8998H45.3538ZM88.3983 23.2298C88.1505 22.5009 87.6872 21.8644 87.0697 21.4047C86.4522 20.945 85.7096 20.6836 84.9403 20.6553C84.4206 20.6543 83.9063 20.7599 83.4291 20.9655C82.9518 21.1712 82.5218 21.4725 82.1657 21.8509C81.8095 22.2293 81.5348 22.6768 81.3584 23.1656C81.182 23.6544 81.1078 24.1742 81.1403 24.6928C81.1322 25.56 81.4048 26.4066 81.9175 27.106C82.4302 27.8055 83.1554 28.3204 83.9848 28.5737C84.8143 28.827 85.7034 28.8052 86.5194 28.5115C87.3354 28.2178 88.0345 27.6681 88.5123 26.9443L87.1348 25.9943C86.9294 26.3366 86.6382 26.6192 86.2899 26.8142C85.9416 27.0091 85.5484 27.1097 85.1493 27.1058C84.7375 27.1228 84.3303 27.0148 83.981 26.7961C83.6317 26.5774 83.3568 26.2582 83.1923 25.8803L88.5978 23.6478L88.3983 23.2298ZM82.8883 24.5788C82.869 24.2837 82.9088 23.9877 83.0054 23.7082C83.1019 23.4287 83.2533 23.1713 83.4506 22.951C83.6479 22.7307 83.8871 22.552 84.1543 22.4253C84.4216 22.2987 84.7114 22.2266 85.0068 22.2133C85.3129 22.1946 85.6177 22.2667 85.883 22.4205C86.1483 22.5742 86.3624 22.8029 86.4983 23.0778L82.8883 24.5788ZM78.4993 28.4928H80.2758V16.6178H78.4993V28.4928ZM75.5923 21.5578H75.5258C75.2604 21.2556 74.9329 21.0142 74.5656 20.8503C74.1983 20.6863 73.8 20.6036 73.3978 20.6078C72.3596 20.6581 71.3806 21.106 70.6637 21.8586C69.9467 22.6111 69.5468 23.6107 69.5468 24.65C69.5468 25.6894 69.9467 26.689 70.6637 27.4415C71.3806 28.1941 72.3596 28.642 73.3978 28.6923C73.8005 28.7004 74.2001 28.6194 74.568 28.4552C74.9358 28.291 75.2629 28.0475 75.5258 27.7423H75.5923V28.3218C75.5923 29.8703 74.7658 30.6968 73.4358 30.6968C72.9915 30.687 72.5601 30.5455 72.1965 30.2901C71.8328 30.0346 71.5532 29.6769 71.3933 29.2623L69.8543 29.8988C70.1388 30.6134 70.6335 31.2249 71.273 31.6524C71.9125 32.0798 72.6667 32.3031 73.4358 32.2928C75.5163 32.2928 77.2358 31.0673 77.2358 28.0843V20.8928H75.5923V21.5578ZM73.5498 27.1438C72.9273 27.105 72.3431 26.8304 71.9161 26.3759C71.489 25.9214 71.2513 25.3212 71.2513 24.6975C71.2513 24.0739 71.489 23.4737 71.9161 23.0192C72.3431 22.5647 72.9273 22.2901 73.5498 22.2513C73.854 22.2644 74.1525 22.3386 74.4275 22.4695C74.7024 22.6003 74.9483 22.7851 75.1503 23.0129C75.3524 23.2407 75.5066 23.5068 75.6038 23.7954C75.7009 24.084 75.739 24.3892 75.7158 24.6928C75.7417 24.9975 75.7056 25.3042 75.6095 25.5945C75.5135 25.8848 75.3596 26.1526 75.1572 26.3817C74.9547 26.6108 74.7078 26.7965 74.4316 26.9275C74.1553 27.0585 73.8553 27.1321 73.5498 27.1438ZM96.7203 16.6178H92.4643V28.4928H94.2408V23.9898H96.7203C97.2266 24.0262 97.735 23.9578 98.2137 23.7891C98.6924 23.6203 99.1313 23.3548 99.5028 23.0089C99.8744 22.6631 100.171 22.2444 100.373 21.779C100.576 21.3136 100.681 20.8114 100.681 20.3038C100.681 19.7962 100.576 19.294 100.373 18.8286C100.171 18.3632 99.8744 17.9445 99.5028 17.5987C99.1313 17.2528 98.6924 16.9873 98.2137 16.8185C97.735 16.6497 97.2266 16.5814 96.7203 16.6178ZM96.7203 22.3178H94.2408V18.2708H96.7583C97.0253 18.2708 97.2896 18.3234 97.5363 18.4255C97.7829 18.5277 98.007 18.6775 98.1958 18.8662C98.3846 19.055 98.5344 19.2791 98.6365 19.5258C98.7387 19.7725 98.7913 20.0368 98.7913 20.3038C98.7913 20.5708 98.7387 20.8351 98.6365 21.0818C98.5344 21.3284 98.3846 21.5526 98.1958 21.7413C98.007 21.9301 97.7829 22.0799 97.5363 22.182C97.2896 22.2842 97.0253 22.3368 96.7583 22.3368L96.7203 22.3178ZM107.683 20.6173C107.036 20.5774 106.392 20.728 105.83 21.0505C105.267 21.373 104.812 21.8532 104.52 22.4318L106.087 23.0873C106.246 22.8017 106.483 22.5681 106.772 22.4147C107.06 22.2613 107.386 22.1947 107.712 22.2228C107.937 22.1965 108.166 22.2153 108.384 22.2782C108.602 22.3411 108.806 22.4468 108.982 22.5892C109.159 22.7316 109.306 22.9078 109.414 23.1075C109.522 23.3071 109.589 23.5264 109.612 23.7523V23.8663C109.041 23.566 108.405 23.4095 107.759 23.4103C106.068 23.4103 104.339 24.3603 104.339 26.0893C104.356 26.4568 104.446 26.8172 104.605 27.1491C104.764 27.4809 104.988 27.7775 105.263 28.0212C105.539 28.2649 105.861 28.4507 106.209 28.5677C106.558 28.6846 106.927 28.7302 107.294 28.7018C107.74 28.7265 108.184 28.6321 108.581 28.4285C108.979 28.2248 109.315 27.9191 109.555 27.5428H109.612V28.4928H111.322V23.9233C111.322 21.8428 109.745 20.6363 107.721 20.6363L107.683 20.6173ZM107.465 27.1248C106.885 27.1248 106.078 26.8303 106.078 26.1178C106.078 25.1678 107.085 24.8448 107.978 24.8448C108.542 24.8309 109.1 24.9687 109.593 25.2438C109.533 25.7597 109.289 26.2365 108.904 26.5859C108.52 26.9352 108.022 27.1334 107.503 27.1438L107.465 27.1248ZM117.554 20.8928L115.521 26.0418H115.464L113.355 20.8928H111.455L114.618 28.0938L112.813 32.0933H114.666L119.53 20.8928H117.554ZM101.594 28.4928H103.361V16.6178H101.594V28.4928Z" fill="#131313"/>
<path d="M9.91934 7.15537C9.60628 7.52551 9.44655 8.00131 9.47284 8.48537V29.4994C9.44051 29.9842 9.60099 30.4622 9.91934 30.8294L9.98584 30.9054L21.7563 19.1349V18.8499L9.98584 7.08887L9.91934 7.15537Z" fill="url(#paint0_linear_4260_4591)"/>
<path d="M25.6489 23.0588L21.7539 19.1353V18.8503L25.6489 14.9268L25.7344 14.9838L30.3989 17.6248C31.7289 18.3753 31.7289 19.6103 30.3989 20.3703L25.7534 23.0113L25.6489 23.0588Z" fill="url(#paint1_linear_4260_4591)"/>
<path d="M25.764 23.0012L21.755 18.9922L9.91797 30.8292C10.1864 31.0681 10.53 31.2056 10.8892 31.2178C11.2484 31.2299 11.6005 31.116 11.8845 30.8957L25.764 23.0012Z" fill="url(#paint2_linear_4260_4591)"/>
<path d="M25.764 14.9828L11.8845 7.09784C11.6023 6.87451 11.2505 6.7578 10.8908 6.76822C10.5312 6.77865 10.1867 6.91554 9.91797 7.15484L21.755 18.9918L25.764 14.9828Z" fill="url(#paint3_linear_4260_4591)"/>
<path opacity="0.2" d="M25.65 22.916L11.8845 30.7535C11.6108 30.96 11.2773 31.0718 10.9345 31.0718C10.5916 31.0718 10.2581 30.96 9.98447 30.7535L9.91797 30.82L9.98447 30.896C10.2581 31.1025 10.5916 31.2143 10.9345 31.2143C11.2773 31.2143 11.6108 31.1025 11.8845 30.896L25.764 23.0015L25.65 22.916Z" fill="#131313"/>
<path opacity="0.12" d="M9.91954 30.6959C9.6144 30.3191 9.46486 29.8399 9.50154 29.3564V29.4989C9.46922 29.9838 9.62969 30.4618 9.94804 30.8289L10.0145 30.7624L9.91954 30.6959Z" fill="#131313"/>
<path opacity="0.12" d="M30.4023 20.2272L25.6523 22.9157L25.7378 23.0012L30.4023 20.3602C30.6777 20.2438 30.9165 20.0553 31.0937 19.8145C31.271 19.5738 31.38 19.2897 31.4093 18.9922C31.35 19.2625 31.2279 19.5151 31.053 19.7296C30.8781 19.9442 30.6552 20.1146 30.4023 20.2272Z" fill="#131313"/>
<path opacity="0.25" d="M11.8857 7.2317L30.4012 17.7577C30.654 17.8703 30.8769 18.0407 31.0518 18.2552C31.2267 18.4698 31.3488 18.7224 31.4082 18.9927C31.3788 18.6952 31.2698 18.4111 31.0926 18.1704C30.9153 17.9296 30.6765 17.7411 30.4012 17.6247L11.8857 7.0987C10.5652 6.3387 9.47266 6.9657 9.47266 8.4857V8.6282C9.50116 7.1082 10.5652 6.4812 11.8857 7.2317Z" fill="white"/>
<defs>
<linearGradient id="paint0_linear_4260_4591" x1="20.7113" y1="8.26687" x2="4.77034" y2="24.2079" gradientUnits="userSpaceOnUse">
<stop stop-color="#00A0FF"/>
<stop offset="0.01" stop-color="#00A1FF"/>
<stop offset="0.26" stop-color="#00BEFF"/>
<stop offset="0.51" stop-color="#00D2FF"/>
<stop offset="0.76" stop-color="#00DFFF"/>
<stop offset="1" stop-color="#00E3FF"/>
</linearGradient>
<linearGradient id="paint1_linear_4260_4591" x1="32.1374" y1="18.9928" x2="9.15691" y2="18.9928" gradientUnits="userSpaceOnUse">
<stop stop-color="#FFE000"/>
<stop offset="0.41" stop-color="#FFBD00"/>
<stop offset="0.78" stop-color="#FFA500"/>
<stop offset="1" stop-color="#FF9C00"/>
</linearGradient>
<linearGradient id="paint2_linear_4260_4591" x1="23.5885" y1="21.1772" x2="1.96646" y2="42.7897" gradientUnits="userSpaceOnUse">
<stop stop-color="#FF3A44"/>
<stop offset="1" stop-color="#C31162"/>
</linearGradient>
<linearGradient id="paint3_linear_4260_4591" x1="6.93497" y1="0.162842" x2="16.587" y2="9.81484" gradientUnits="userSpaceOnUse">
<stop stop-color="#32A071"/>
<stop offset="0.07" stop-color="#2DA771"/>
<stop offset="0.48" stop-color="#15CF74"/>
<stop offset="0.8" stop-color="#06E775"/>
<stop offset="1" stop-color="#00F076"/>
</linearGradient>
</defs>
</svg>
