<svg width="24" height="24" viewBox="0 0 24 24" fill="none" xmlns="http://www.w3.org/2000/svg">
<rect y="-0.0078125" width="24" height="24" rx="4" fill="#B9B9B9"/>
<g clip-path="url(#clip0_4260_4622)">
<path d="M6.97344 9.29395H3.46484V20.5229H6.97344V9.29395Z" fill="white"/>
<path d="M5.14453 3.99219C3.85078 3.99219 3 4.82891 3 5.93984C3 7.02969 3.82266 7.8875 5.09531 7.8875H5.12344C6.44531 7.8875 7.26797 7.02266 7.26094 5.93984C7.23281 4.82891 6.43828 3.99219 5.14453 3.99219Z" fill="white"/>
<path d="M16.5555 9.18848C14.5445 9.18848 13.2859 10.2854 13.0539 11.0588V9.29395H9.10938C9.15859 10.2291 9.10938 20.5229 9.10938 20.5229H13.0539V14.4549C13.0539 14.1104 13.0398 13.7729 13.1383 13.5338C13.4055 12.8588 13.9891 12.1557 15.0367 12.1557C16.4078 12.1557 17.0266 13.1963 17.0266 14.715V20.5229H21.0063V14.2791C21.0063 10.8057 19.0516 9.18848 16.5555 9.18848Z" fill="white"/>
</g>
<defs>
<clipPath id="clip0_4260_4622">
<rect width="18" height="16.5305" fill="white" transform="translate(3 3.99219)"/>
</clipPath>
</defs>
</svg>
