<svg width="24" height="24" viewBox="0 0 24 24" fill="none" xmlns="http://www.w3.org/2000/svg">
<rect y="-0.0078125" width="24" height="24" rx="4" fill="#B9B9B9"/>
<path d="M21.8008 7.99316C21.8008 7.99316 21.6055 6.61426 21.0039 6.00879C20.2422 5.21191 19.3906 5.20801 19 5.16113C16.2031 4.95801 12.0039 4.95801 12.0039 4.95801H11.9961C11.9961 4.95801 7.79688 4.95801 5 5.16113C4.60938 5.20801 3.75781 5.21191 2.99609 6.00879C2.39453 6.61426 2.20312 7.99316 2.20312 7.99316C2.20312 7.99316 2 9.61426 2 11.2314V12.7471C2 14.3643 2.19922 15.9854 2.19922 15.9854C2.19922 15.9854 2.39453 17.3643 2.99219 17.9697C3.75391 18.7666 4.75391 18.7393 5.19922 18.8252C6.80078 18.9775 12 19.0244 12 19.0244C12 19.0244 16.2031 19.0166 19 18.8174C19.3906 18.7705 20.2422 18.7666 21.0039 17.9697C21.6055 17.3643 21.8008 15.9854 21.8008 15.9854C21.8008 15.9854 22 14.3682 22 12.7471V11.2314C22 9.61426 21.8008 7.99316 21.8008 7.99316ZM9.93359 14.5869V8.96582L15.3359 11.7861L9.93359 14.5869Z" fill="white"/>
</svg>
