<svg width="24" height="24" viewBox="0 0 24 24" fill="none" xmlns="http://www.w3.org/2000/svg">
<rect y="-0.0078125" width="24" height="24" rx="4" fill="#B9B9B9"/>
<g clip-path="url(#clip0_4260_4616)">
<path d="M12 3.79297C14.6719 3.79297 14.9883 3.80469 16.0391 3.85156C17.0156 3.89453 17.543 4.05859 17.8945 4.19531C18.3594 4.375 18.6953 4.59375 19.043 4.94141C19.3945 5.29297 19.6094 5.625 19.7891 6.08984C19.9258 6.44141 20.0898 6.97266 20.1328 7.94531C20.1797 9 20.1914 9.31641 20.1914 11.9844C20.1914 14.6563 20.1797 14.9727 20.1328 16.0234C20.0898 17 19.9258 17.5273 19.7891 17.8789C19.6094 18.3438 19.3906 18.6797 19.043 19.0273C18.6914 19.3789 18.3594 19.5938 17.8945 19.7734C17.543 19.9102 17.0117 20.0742 16.0391 20.1172C14.9844 20.1641 14.668 20.1758 12 20.1758C9.32813 20.1758 9.01172 20.1641 7.96094 20.1172C6.98438 20.0742 6.45703 19.9102 6.10547 19.7734C5.64063 19.5938 5.30469 19.375 4.95703 19.0273C4.60547 18.6758 4.39063 18.3438 4.21094 17.8789C4.07422 17.5273 3.91016 16.9961 3.86719 16.0234C3.82031 14.9688 3.80859 14.6523 3.80859 11.9844C3.80859 9.3125 3.82031 8.99609 3.86719 7.94531C3.91016 6.96875 4.07422 6.44141 4.21094 6.08984C4.39063 5.625 4.60938 5.28906 4.95703 4.94141C5.30859 4.58984 5.64063 4.375 6.10547 4.19531C6.45703 4.05859 6.98828 3.89453 7.96094 3.85156C9.01172 3.80469 9.32813 3.79297 12 3.79297ZM12 1.99219C9.28516 1.99219 8.94531 2.00391 7.87891 2.05078C6.81641 2.09766 6.08594 2.26953 5.45313 2.51562C4.79297 2.77344 4.23438 3.11328 3.67969 3.67188C3.12109 4.22656 2.78125 4.78516 2.52344 5.44141C2.27734 6.07813 2.10547 6.80469 2.05859 7.86719C2.01172 8.9375 2 9.27734 2 11.9922C2 14.707 2.01172 15.0469 2.05859 16.1133C2.10547 17.1758 2.27734 17.9063 2.52344 18.5391C2.78125 19.1992 3.12109 19.7578 3.67969 20.3125C4.23438 20.8672 4.79297 21.2109 5.44922 21.4648C6.08594 21.7109 6.8125 21.8828 7.875 21.9297C8.94141 21.9766 9.28125 21.9883 11.9961 21.9883C14.7109 21.9883 15.0508 21.9766 16.1172 21.9297C17.1797 21.8828 17.9102 21.7109 18.543 21.4648C19.1992 21.2109 19.7578 20.8672 20.3125 20.3125C20.8672 19.7578 21.2109 19.1992 21.4648 18.543C21.7109 17.9063 21.8828 17.1797 21.9297 16.1172C21.9766 15.0508 21.9883 14.7109 21.9883 11.9961C21.9883 9.28125 21.9766 8.94141 21.9297 7.875C21.8828 6.8125 21.7109 6.08203 21.4648 5.44922C21.2188 4.78516 20.8789 4.22656 20.3203 3.67188C19.7656 3.11719 19.207 2.77344 18.5508 2.51953C17.9141 2.27344 17.1875 2.10156 16.125 2.05469C15.0547 2.00391 14.7148 1.99219 12 1.99219Z" fill="white"/>
<path d="M12 6.85547C9.16406 6.85547 6.86328 9.15625 6.86328 11.9922C6.86328 14.8281 9.16406 17.1289 12 17.1289C14.8359 17.1289 17.1367 14.8281 17.1367 11.9922C17.1367 9.15625 14.8359 6.85547 12 6.85547ZM12 15.3242C10.1602 15.3242 8.66797 13.832 8.66797 11.9922C8.66797 10.1523 10.1602 8.66016 12 8.66016C13.8398 8.66016 15.332 10.1523 15.332 11.9922C15.332 13.832 13.8398 15.3242 12 15.3242Z" fill="white"/>
<path d="M18.5391 6.65137C18.5391 7.31543 18 7.85059 17.3398 7.85059C16.6758 7.85059 16.1406 7.31153 16.1406 6.65137C16.1406 5.98731 16.6797 5.45215 17.3398 5.45215C18 5.45215 18.5391 5.99121 18.5391 6.65137Z" fill="white"/>
</g>
<defs>
<clipPath id="clip0_4260_4616">
<rect width="20" height="20" fill="white" transform="translate(2 1.99219)"/>
</clipPath>
</defs>
</svg>
