<svg width="16" height="12" viewBox="0 0 16 12" fill="none" xmlns="http://www.w3.org/2000/svg">
<path fill-rule="evenodd" clip-rule="evenodd" d="M5.39752 1.89775C5.61719 1.67808 5.61719 1.32192 5.39752 1.10225C5.17785 0.882583 4.8217 0.882583 4.60203 1.10225L1.79908 3.9052L1.78294 3.92134C1.49966 4.20461 1.26321 4.44105 1.08582 4.65C0.90082 4.86792 0.747266 5.09266 0.65954 5.36265C0.524945 5.77689 0.524945 6.22311 0.65954 6.63735C0.747266 6.90734 0.900821 7.13208 1.08582 7.35C1.26321 7.55895 1.49967 7.7954 1.78296 8.07868L1.79908 8.0948L4.60203 10.8977C4.8217 11.1174 5.17785 11.1174 5.39752 10.8977C5.61719 10.6781 5.61719 10.3219 5.39752 10.1023L2.59458 7.29931C2.291 6.99573 2.08755 6.79166 1.94346 6.62193C1.80363 6.45722 1.75303 6.3622 1.72948 6.2897C1.6683 6.10141 1.6683 5.89859 1.72948 5.7103C1.75303 5.6378 1.80363 5.54278 1.94346 5.37807C2.08755 5.20834 2.291 5.00427 2.59458 4.70069L5.39752 1.89775ZM11.3975 1.10225C11.1779 0.882583 10.8217 0.882583 10.602 1.10225C10.3824 1.32192 10.3824 1.67808 10.602 1.89775L13.405 4.70069C13.7085 5.00427 13.912 5.20834 14.0561 5.37807C14.1959 5.54278 14.2465 5.6378 14.2701 5.7103C14.3312 5.89859 14.3312 6.10141 14.2701 6.2897C14.2465 6.3622 14.1959 6.45722 14.0561 6.62193C13.912 6.79166 13.7085 6.99573 13.405 7.29931L10.602 10.1023C10.3824 10.3219 10.3824 10.6781 10.602 10.8977C10.8217 11.1174 11.1779 11.1174 11.3975 10.8977L14.2005 8.0948L14.2166 8.07867L14.2166 8.07866C14.4999 7.79539 14.7363 7.55895 14.9137 7.35C15.0987 7.13208 15.2523 6.90734 15.34 6.63735C15.4746 6.22311 15.4746 5.77689 15.34 5.36265C15.2523 5.09266 15.0987 4.86792 14.9137 4.65C14.7363 4.44106 14.4999 4.20462 14.2166 3.92136L14.2166 3.92133L14.2005 3.9052L11.3975 1.10225Z" fill="white"/>
</svg>
