<svg viewBox="0 0 17 20" fill="none" xmlns="http://www.w3.org/2000/svg">
<g clip-path="url(#clip0_5866_10070)">
<path d="M13.4811 13.1816C13.481 12.6774 13.481 12.176 13.481 11.6885L13.4811 13.1816Z" fill="#212121"/>
<path d="M13.4809 8.54425C13.4809 7.55311 13.4809 6.91554 13.4809 6.91217C13.4693 5.01358 12.7144 3.28215 11.5067 2.03806C10.2915 0.78126 8.59698 -0.000982762 6.74049 9.26669e-07C4.88393 -0.000912498 3.18923 0.781331 1.97424 2.03813C0.756794 3.29234 -0.000951985 5.04183 8.97649e-07 6.95854H3.02105C3.02173 5.89314 3.43494 4.94318 4.1104 4.24328C4.78824 3.54599 5.70845 3.11949 6.74049 3.11857C7.77239 3.11949 8.69254 3.54599 9.37051 4.24328C10.0343 4.93109 10.4451 5.86068 10.4596 6.90374C10.4599 6.922 10.4599 20 10.4599 20H13.4811C13.4811 19.9947 13.4811 18.4 13.4811 16.3265L13.4809 8.54425Z" fill="#212121"/>
<path d="M10.4598 8.54419H7.27417V11.6887H10.4597" fill="#212121"/>
<path d="M16.6663 8.54419H13.4807V11.6887H16.6662" fill="#212121"/>
<path d="M16.6666 13.1819H13.481V16.3265H16.6664" fill="#212121"/>
<path d="M10.46 13.1816H7.27441V16.3262H10.4598" fill="#212121"/>
</g>
<defs>
<clipPath id="clip0_5866_10070">
<rect width="16.6667" height="20" fill="white"/>
</clipPath>
</defs>
</svg>
