<svg  viewBox="0 0 19 30" fill="none" xmlns="http://www.w3.org/2000/svg">
<g clip-path="url(#clip0_5866_10069)">
<path d="M14.4811 16.1816C14.481 15.6774 14.481 15.176 14.481 14.6885L14.4811 16.1816Z" fill="#212121"/>
<path d="M14.4809 11.5442C14.4809 10.5531 14.4809 9.91554 14.4809 9.91217C14.4693 8.01358 13.7144 6.28215 12.5067 5.03806C11.2915 3.78126 9.59698 2.99902 7.74049 3C5.88393 2.99909 4.18923 3.78133 2.97424 5.03813C1.75679 6.29234 0.999048 8.04183 1 9.95854H4.02105C4.02173 8.89314 4.43494 7.94318 5.1104 7.24328C5.78824 6.54599 6.70845 6.11949 7.74049 6.11857C8.77239 6.11949 9.69254 6.54599 10.3705 7.24328C11.0343 7.93109 11.4451 8.86068 11.4596 9.90374C11.4599 9.922 11.4599 23 11.4599 23H14.4811C14.4811 22.9947 14.4811 21.4 14.4811 19.3265L14.4809 11.5442Z" fill="#212121"/>
<path d="M11.4598 11.5442H8.27417V14.6887H11.4597" fill="#212121"/>
<path d="M17.6663 11.5442H14.4807V14.6887H17.6662" fill="#212121"/>
<path d="M17.6666 16.1819H14.481V19.3265H17.6664" fill="#212121"/>
<path d="M11.46 16.1816H8.27441V19.3262H11.4598" fill="#212121"/>
</g>
<defs>
<clipPath id="clip0_5866_10069">
<rect width="16.6667" height="20" fill="white" transform="translate(1 3)"/>
</clipPath>
</defs>
</svg>
