<svg version="1.1" xmlns="http://www.w3.org/2000/svg" xmlns:xlink="http://www.w3.org/1999/xlink" viewBox="0,0,162.13281,256"><defs><clipPath id="clip-1"><rect x="1" y="3" width="16.6667" height="20" id="clip0_5866_10069" fill="none"></rect></clipPath></defs><g transform="translate(-8.10664,-12.8) scale(1.1,1.1)"><g fill="none" fill-rule="nonzero" stroke="none" stroke-width="1" stroke-linecap="butt" stroke-linejoin="miter" stroke-miterlimit="10" stroke-dasharray="" stroke-dashoffset="0" font-family="none" font-weight="none" font-size="none" text-anchor="none" style="mix-blend-mode: normal"><g transform="translate(1.42182,17.06667) scale(8.53333,8.53333)"><g clip-path="url(#clip-1)"><path d="M14.4811,16.1816c-0.0001,-0.5042 -0.0001,-1.0056 -0.0001,-1.4931z" fill="#212121"></path><path d="M14.4809,11.5442c0,-0.9911 0,-1.62866 0,-1.63203c-0.0116,-1.89859 -0.7665,-3.63002 -1.9742,-4.87411c-1.2152,-1.2568 -2.90972,-2.03904 -4.76621,-2.03806c-1.85656,-0.00091 -3.55126,0.78133 -4.76625,2.03813c-1.21745,1.25421 -1.97519,3.0037 -1.97424,4.92041h3.02105c0.00068,-1.0654 0.41389,-2.01536 1.08935,-2.71526c0.67784,-0.69729 1.59805,-1.12379 2.63009,-1.12471c1.0319,0.00092 1.95205,0.42742 2.63001,1.12471c0.6638,0.68781 1.0746,1.6174 1.0891,2.66046c0.0003,0.01826 0.0003,13.09626 0.0003,13.09626h3.0212c0,-0.0053 0,-1.6 0,-3.6735z" fill="#212121"></path><path d="M11.4598,11.5442h-3.18563v3.1445h3.18553" fill="#212121"></path><path d="M17.6663,11.5442h-3.1856v3.1445h3.1855" fill="#212121"></path><path d="M17.6666,16.1819h-3.1856v3.1446h3.1854" fill="#212121"></path><path d="M11.46,16.1816h-3.18559v3.1446h3.18539" fill="#212121"></path></g></g></g></g></svg>