<svg version="1.1" xmlns="http://www.w3.org/2000/svg" xmlns:xlink="http://www.w3.org/1999/xlink"  viewBox="0,0,256,256"><g transform="translate(-11.52,-11.52) scale(1.09,1.09)"><g fill="#212121" fill-rule="nonzero" stroke="none" stroke-width="1" stroke-linecap="butt" stroke-linejoin="miter" stroke-miterlimit="10" stroke-dasharray="" stroke-dashoffset="0" font-family="none" font-weight="none" font-size="none" text-anchor="none" style="mix-blend-mode: normal"><g transform="translate(-2.496,0) scale(16,16)"><path d="M4,10.781c0.148,1.667 1.513,2.85 3.591,3.003v1.216h1.043v-1.216c2.27,-0.179 3.678,-1.438 3.678,-3.3c0,-1.59 -0.947,-2.51 -2.956,-3.028l-0.722,-0.187v-3.802c1.122,0.11 1.879,0.714 2.07,1.616h1.47c-0.166,-1.6 -1.54,-2.748 -3.54,-2.875v-1.208h-1.043v1.233c-1.939,0.23 -3.27,1.472 -3.27,3.156c0,1.454 0.966,2.483 2.661,2.917l0.61,0.162v4.031c-1.149,-0.17 -1.94,-0.8 -2.131,-1.718zM7.391,6.945c-1.043,-0.263 -1.6,-0.825 -1.6,-1.616c0,-0.944 0.704,-1.641 1.8,-1.828v3.495l-0.2,-0.05zM8.982,8.817c1.287,0.323 1.852,0.859 1.852,1.769c0,1.097 -0.826,1.828 -2.2,1.939v-3.795z"></path></g></g></g></svg>