<svg viewBox="0 0 37 95" fill="none" xmlns="http://www.w3.org/2000/svg">
<path d="M9.25944 85.7325C9.25944 85.7325 5.50704 88.0035 0 90.1321C3.40497 91 0 90.1321 3.40497 91C5.18838 90.1229 6.91246 89.1442 8.51175 88.0699C8.56827 88.0751 8.64227 88.0532 8.73157 87.9946C9.13721 87.7345 9.53499 87.4637 9.92792 87.1848C10.7081 87.5757 11.6688 87.7155 12.7524 87.6545C13.5455 87.6107 14.3978 87.4639 15.2726 87.2469C15.4885 87.1933 15.7096 87.1335 15.9262 87.0712C16.1393 86.9993 16.3524 86.9275 16.5676 86.8483C16.9902 86.6948 17.4185 86.5252 17.8379 86.3493C18.6776 85.9917 19.4978 85.6016 20.2465 85.2104C20.9666 84.796 21.6238 84.384 22.1796 84.019C22.7371 83.658 23.1902 83.3428 23.5033 83.1175L23.5861 83.0593C23.7056 82.9756 23.8018 82.9082 23.8652 82.854C23.9443 82.7905 23.9864 82.7557 23.9864 82.7557C23.9864 82.7557 23.8039 82.7539 23.4739 82.7489C23.1452 82.7423 22.6679 82.7383 22.088 82.7471C20.9307 82.7632 19.3714 82.8214 17.7537 83.0083C17.5398 83.0362 17.3202 83.0627 17.0973 83.0896L17.0953 83.0898C16.4902 83.1629 15.8612 83.2388 15.2579 83.3527C14.9179 83.4153 14.5828 83.4875 14.2523 83.565C15.2812 82.5716 16.261 81.527 17.1976 80.4504C18.142 80.9299 19.3204 81.0031 20.5996 80.7579C21.3485 80.5984 22.1337 80.3307 22.9225 79.9859C23.3172 79.8177 23.7143 79.6266 24.1064 79.4245C24.3032 79.3241 24.4983 79.221 24.6917 79.1138C24.8243 79.0374 24.9505 78.9566 25.0766 78.8758C25.1316 78.8407 25.1868 78.8053 25.2422 78.7705C25.9634 78.2992 26.657 77.7974 27.2897 77.3065L27.4001 77.2204C27.6762 77.0053 27.9459 76.7953 28.1817 76.5848C28.4429 76.3425 28.688 76.1101 28.9092 75.8939C29.8022 75.0272 30.349 74.4084 30.349 74.4084C30.349 74.4084 29.6208 74.4936 28.5184 74.687C27.9667 74.7873 27.3215 74.9097 26.628 75.0602C26.1515 75.1611 25.6656 75.2805 25.1527 75.4065C24.9114 75.4658 24.664 75.5266 24.4091 75.5875C23.6267 75.7854 22.8371 76.0137 22.0787 76.2834C21.6998 76.4219 21.3283 76.5639 20.9679 76.7235C20.8631 76.7686 20.7614 76.8159 20.6591 76.8634C20.5857 76.8975 20.5112 76.9321 20.436 76.9657L20.325 77.0167C20.182 77.0822 20.0391 77.1477 19.8978 77.217C19.8499 77.2421 19.8016 77.2689 19.7538 77.2954C20.881 75.8118 21.9363 74.305 22.9311 72.8141C24.0769 73.3578 25.4002 73.278 26.7867 72.7765C27.147 72.6524 27.4877 72.4916 27.8235 72.3057C28.1623 72.1223 28.5022 71.9175 28.8365 71.6947C29.5051 71.249 30.1681 70.7342 30.7797 70.1896C31.354 69.6353 31.8926 69.0542 32.374 68.4963C32.8568 67.9369 33.2969 67.4052 33.5999 66.9305C34.2383 65.9842 34.6108 65.3259 34.6108 65.3259C34.6108 65.3259 33.9368 65.5104 32.9278 65.8552C32.4254 66.0282 31.8392 66.2394 31.2122 66.4853C31.1037 66.5288 30.9935 66.5732 30.8815 66.6184C30.6734 66.7023 30.4591 66.7886 30.239 66.8755C29.8953 67.0152 29.5478 67.1595 29.1966 67.3112C28.4987 67.6171 27.799 67.9545 27.1414 68.3267C26.8114 68.515 26.4901 68.7069 26.1867 68.9129C25.866 69.1118 25.5545 69.3213 25.2605 69.5393C25.0752 69.6786 24.8991 69.827 24.7302 69.9776C25.7355 68.2498 26.5834 66.4826 27.2899 64.6846C28.4996 64.9912 29.7259 64.7149 30.9068 64.0457C31.0585 63.9605 31.2109 63.8667 31.3642 63.7671C31.5063 63.667 31.6494 63.5612 31.7907 63.4513C32.0718 63.2301 32.3456 62.9882 32.6112 62.7299C33.1479 62.2143 33.6532 61.6388 34.1176 61.0425C34.5486 60.4491 34.9231 59.8333 35.2608 59.2491L35.3366 59.113C35.6343 58.5783 35.9172 58.0704 36.098 57.6293C36.5025 56.6698 36.7152 56.0122 36.7152 56.0122C36.7152 56.0122 36.1102 56.2705 35.2176 56.7207C34.7728 56.9471 34.2531 57.2196 33.7057 57.5313C33.5972 57.5943 33.4852 57.6587 33.3708 57.7244C32.9142 57.987 32.4184 58.2721 31.9449 58.579C31.3454 58.9591 30.7502 59.3744 30.2022 59.8198C29.9468 60.0235 29.7146 60.2337 29.4748 60.4508L29.414 60.5058C29.1535 60.7395 28.9033 60.9794 28.675 61.2289C28.5643 61.3533 28.4565 61.4789 28.3557 61.6054C28.8349 60.0156 29.2128 58.4058 29.5 56.7837C29.5422 56.557 29.5829 56.3289 29.6206 56.0983C30.8361 56.2139 31.9422 55.7856 32.9187 55.0156C33.4488 54.61 33.8777 54.1134 34.2914 53.5669C34.6994 53.0208 35.0669 52.4228 35.3943 51.8152C36.0115 50.602 36.4034 49.3606 36.6816 48.4175C36.9157 47.4837 37 46.8525 37 46.8525C37 46.8525 36.4629 47.152 35.6808 47.6697C35.2846 47.9247 34.8493 48.2356 34.3558 48.5898C33.865 48.9423 33.3467 49.3384 32.8436 49.7658C31.8305 50.6214 30.897 51.5968 30.2001 52.6547C30.1703 52.7027 30.1421 52.7534 30.114 52.8055C30.3445 51.0005 30.5126 49.1865 30.6035 47.3719C31.599 47.2444 32.4462 46.7525 33.1529 46.0293C33.3658 45.8138 33.567 45.5766 33.7572 45.3232C33.9365 45.0736 34.0977 44.8084 34.2511 44.5339C34.5591 43.9821 34.8146 43.3863 35.0334 42.7893C35.1415 42.4916 35.2423 42.1903 35.3284 41.8973C35.4094 41.6119 35.4808 41.3287 35.5431 41.0547C35.6679 40.5097 35.7619 40 35.8307 39.5606C35.9728 38.6871 35.9829 38.0934 35.9829 38.0934C35.9829 38.0934 35.5034 38.4123 34.7959 38.9493C34.0851 39.4809 33.1605 40.2338 32.3007 41.1134C31.8717 41.5546 31.4644 42.0224 31.0974 42.5209C30.9442 42.7285 30.7996 42.9383 30.6624 43.1517C30.628 41.6305 30.5319 40.1088 30.3611 38.6005C31.0584 38.3401 31.6424 37.8888 32.1233 37.3068C32.4839 36.8685 32.7954 36.3604 33.0452 35.8163C33.2822 35.2704 33.4713 34.6873 33.6194 34.1005C33.7595 33.5172 33.8911 32.9347 33.9366 32.3792C33.9907 31.8273 34.0139 31.3093 34.0234 30.865C34.0342 30.4205 34.0272 30.0514 34.022 29.7931C34.0071 29.5356 33.9852 29.3839 33.9852 29.3839C33.9852 29.3839 33.883 29.4749 33.6994 29.6339C33.6384 29.6903 33.5668 29.7549 33.4867 29.8272C33.3334 29.9657 33.1486 30.1325 32.9465 30.324C32.3283 30.909 31.5292 31.7224 30.8058 32.6404C30.625 32.8717 30.4474 33.1069 30.2818 33.3511C30.1102 33.5916 29.9391 33.8377 29.7841 34.0923C29.7418 34.1599 29.7024 34.2286 29.6631 34.2987C29.3564 32.8629 28.9754 31.4447 28.5072 30.0424C29.1543 29.7322 29.6577 29.2379 30.0371 28.6132C30.6295 27.6878 30.8476 26.5008 30.9267 25.3114C30.9437 25.0156 30.958 24.7202 30.9516 24.4278C30.9328 24.1394 30.91 23.8541 30.8797 23.5794C30.8188 23.0272 30.7386 22.5136 30.6573 22.0754C30.5829 21.6353 30.4771 21.2759 30.3983 21.0266C30.3152 20.7763 30.2701 20.6322 30.2701 20.6322C30.2701 20.6322 29.9415 21.0322 29.4978 21.6765L29.4258 21.7813C28.9905 22.4149 28.4042 23.2681 27.9242 24.1927C27.6631 24.6823 27.4371 25.1903 27.2414 25.7086C27.1644 25.9027 27.0941 26.0949 27.034 26.2904C26.3172 24.69 25.5564 23.2226 24.7367 21.8612C25.4407 21.4737 25.8982 20.861 26.1551 20.1073C26.4398 19.1578 26.4044 17.9751 26.183 16.835C25.9091 15.722 25.5029 14.6216 25.1174 13.8336C24.7149 13.0599 24.3971 12.5576 24.3971 12.5576C24.3971 12.5576 24.1756 12.9814 23.9023 13.6512C23.7649 13.9869 23.6141 14.3819 23.4707 14.8176L23.4204 14.9696C23.29 15.3631 23.1453 15.7998 23.0316 16.2406C22.9006 16.7435 22.7973 17.2597 22.7433 17.7789C22.7133 18.0359 22.7018 18.2956 22.7025 18.5501L22.7035 18.8272C21.5506 17.2804 20.2966 15.8544 18.9333 14.4831C19.2657 14.2718 19.5273 14.0181 19.7166 13.7179C19.9523 13.3498 20.0724 12.9204 20.1052 12.4527C20.1351 11.9839 20.0782 11.4811 19.9571 10.9653C19.8384 10.4449 19.6584 9.91124 19.4148 9.42413C18.9404 8.43603 18.3453 7.4808 17.8417 6.81219C17.3306 6.15417 16.9493 5.73547 16.9493 5.73547C16.9493 5.73547 16.8103 6.15516 16.6676 6.81115C16.5249 7.46573 16.382 8.34779 16.3241 9.32651C16.274 10.2989 16.3506 11.3118 16.6893 12.2345C16.71 12.301 16.7347 12.3644 16.7593 12.4263C15.1807 11.0119 13.4636 9.61903 11.5891 8.16832C13.2394 7.03614 12.6075 5.00493 11.4921 3.20762C10.9238 2.3255 10.2296 1.53497 9.68903 0.947657C9.14752 0.366108 8.74943 0 8.74943 0C8.74943 0 8.39187 1.63651 8.55161 3.44572C8.6338 4.35298 8.85846 5.2881 9.29737 6.14837C9.38831 6.3213 9.49111 6.48471 9.60623 6.64423L9.60321 6.64164C7.89564 5.35037 5.01225 4.10654 5.01225 4.10654C16.7735 12.5345 26.084 23.1372 28.3749 35.9976C29.2047 40.6679 29.0167 45.4151 28.6675 50.146C28.2742 55.4833 27.3825 60.8511 25.0776 65.9635C21.5156 73.8655 16.44 80.3775 9.25944 85.7325Z" fill="#DF2C29"/>
<path d="M8.46198 14.2793C9.24645 14.1438 10.3292 14.0018 11.4424 14.0137C12.5649 14.019 13.7868 14.1454 14.8338 14.5225C15.8401 14.9172 16.7212 15.5357 17.1335 16.4679C16.7084 16.7651 16.2387 16.9424 15.7453 17.035C15.241 17.1313 14.7061 17.142 14.1677 17.0919C13.6294 17.0433 13.0824 16.937 12.549 16.7912C12.0931 16.6659 11.6535 16.5144 11.2033 16.3593L10.968 16.2784C9.94527 15.916 9.05981 15.4825 8.37469 15.1471L8.32446 15.1225C7.62053 14.7906 7.18559 14.5427 7.18559 14.5427C7.18559 14.5427 7.6803 14.4145 8.46198 14.2793Z" fill="#DF2C29"/>
<path d="M15.5651 19.9106C15.0386 19.9036 14.5544 19.9172 14.1497 19.9426C13.3327 19.987 12.8115 20.0648 12.8115 20.0648C12.8115 20.0648 13.1841 20.3577 13.8102 20.7687L13.9431 20.8609C14.53 21.2686 15.2761 21.7868 16.1732 22.258C17.0768 22.7907 18.0961 23.2952 19.1745 23.5559C20.2037 23.8336 21.2803 23.8783 22.2951 23.4136C22.1824 22.3696 21.4091 21.607 20.4866 21.0503C20.2539 20.9106 20.015 20.7828 19.7484 20.6758C19.479 20.569 19.2011 20.4786 18.9182 20.3957C18.3539 20.2326 17.7725 20.1179 17.2054 20.0417C16.6326 19.9647 16.0974 19.9186 15.5651 19.9106Z" fill="#DF2C29"/>
<path d="M22.5629 30.7629C21.5954 30.291 20.6347 29.6067 19.8485 28.8935C19.6842 28.7478 19.5302 28.5983 19.3773 28.4498L19.2841 28.3594C19.0912 28.1922 18.9108 28.0225 18.7378 27.8579C18.3975 27.531 18.1033 27.2187 17.8617 26.9504C17.6384 26.6916 17.4372 26.4844 17.2917 26.3345L17.2724 26.3146C17.1339 26.1612 17.054 26.0741 17.054 26.0741C17.054 26.0741 17.6011 26.0751 18.4423 26.1581C19.2803 26.2371 20.3546 26.4285 21.4804 26.7748C22.0342 26.9473 22.6079 27.1594 23.1297 27.4227C23.6378 27.6914 24.1174 28.0066 24.5278 28.3688C24.733 28.5507 24.9224 28.7438 25.0902 28.9486C25.2578 29.1507 25.4055 29.3672 25.5012 29.5994C25.7133 30.0608 25.817 30.5696 25.7804 31.1129C24.6463 31.4369 23.5509 31.2259 22.5629 30.7629Z" fill="#DF2C29"/>
<path d="M24.112 39.105C25.0772 39.6879 26.1763 39.9967 27.3804 39.7421C27.5774 38.6067 27.2183 37.5862 26.4586 36.7486C26.0885 36.3289 25.6429 35.9483 25.1573 35.6095C24.9136 35.438 24.6652 35.2783 24.4037 35.1296C24.1368 34.9842 23.865 34.8478 23.5914 34.7229C22.5036 34.2213 21.405 33.8826 20.5816 33.6702C20.1708 33.5668 19.8294 33.4902 19.5807 33.4485C19.3304 33.4055 19.1939 33.3828 19.1939 33.3828C19.1939 33.3828 19.2584 33.4883 19.37 33.6737C19.4805 33.8635 19.6396 34.1345 19.8461 34.4555C20.0528 34.778 20.3083 35.1504 20.608 35.5489C20.7177 35.6901 20.8268 35.8384 20.9386 35.9901C21.1372 36.2599 21.3446 36.5416 21.5771 36.814C21.9341 37.2447 22.3311 37.6677 22.7634 38.058C23.182 38.4536 23.6288 38.8142 24.112 39.105Z" fill="#DF2C29"/>
<path d="M24.1819 46.8558C23.9556 46.6914 23.7363 46.5093 23.5271 46.3136C23.3126 46.1212 23.0996 45.913 22.9016 45.6993C22.504 45.2692 22.1429 44.8033 21.8265 44.3365C21.6662 44.1026 21.5201 43.8717 21.3766 43.6378C21.2271 43.3987 21.0864 43.1645 20.9557 42.9324C20.6978 42.4778 20.4797 42.0468 20.3029 41.6763C19.9603 40.9331 19.756 40.447 19.756 40.447C19.756 40.447 20.3257 40.5911 21.1522 40.8943C21.9733 41.2007 23.0619 41.6596 24.1185 42.2804C24.6454 42.5916 25.1699 42.9415 25.641 43.327C26.0994 43.7108 26.5135 44.1367 26.8461 44.5965C27.1762 45.0593 27.433 45.5538 27.551 46.0827C27.6535 46.6115 27.6335 47.1705 27.4566 47.7484C26.1881 47.9173 25.1013 47.5151 24.1819 46.8558Z" fill="#DF2C29"/>
<path d="M21.9059 52.7877C22.2343 53.2648 22.6335 53.7147 23.0232 54.0986C23.8335 54.868 24.8639 55.4057 26.186 55.3815C26.47 54.8104 26.6137 54.2382 26.585 53.6833C26.5434 53.128 26.3755 52.5876 26.1175 52.079C25.6271 51.0652 24.6669 50.1762 23.6816 49.4641C23.1889 49.1073 22.6828 48.7943 22.1985 48.525C21.7185 48.2582 21.2292 48.032 20.8263 47.8511C20.0093 47.4917 19.4477 47.3085 19.4477 47.3085C19.4477 47.3085 19.5943 47.8094 19.8743 48.5593C20.1134 49.3056 20.5253 50.3032 21.0447 51.3102C21.2891 51.8072 21.5748 52.3121 21.9059 52.7877Z" fill="#DF2C29"/>
<path d="M24.8092 62.9851C24.6746 63.2665 24.5029 63.5411 24.2946 63.813C22.9528 63.6441 22.0357 62.9433 21.3925 62.0533C21.3121 61.942 21.2369 61.8261 21.1618 61.7102C21.0836 61.5916 21.0079 61.4699 20.9335 61.3454C20.7903 61.0972 20.6589 60.8395 20.5411 60.5765C20.3058 60.0531 20.1224 59.5126 19.9805 58.9814C19.8058 58.4444 19.6625 57.9134 19.5576 57.4246C19.5029 57.179 19.4575 56.9439 19.4187 56.7211L19.4021 56.6182C19.3728 56.4355 19.3449 56.2608 19.3056 56.0951C19.1439 55.3154 19.0959 54.8019 19.0959 54.8019C19.0959 54.8019 19.6314 55.0442 20.3956 55.499C20.7784 55.7256 21.2186 56.0043 21.677 56.3355C22.1409 56.6648 22.5745 57.0365 23.0078 57.4579C23.4384 57.8796 23.8442 58.3431 24.1929 58.8456C24.3629 59.0958 24.5325 59.3574 24.656 59.6228C24.7752 59.8858 24.8752 60.1546 24.9521 60.4325C25.1027 60.9843 25.1568 61.557 25.075 62.1325C25.0477 62.4234 24.9354 62.703 24.8092 62.9851Z" fill="#DF2C29"/>
<path d="M20.0025 71.4605C20.2833 71.218 20.528 70.9629 20.7328 70.6983C20.9432 70.4347 21.1178 70.1628 21.2195 69.8727C21.4457 69.2965 21.5372 68.703 21.5241 68.117C21.5174 67.8218 21.4858 67.5316 21.4292 67.2435C21.3525 66.95 21.2553 66.6638 21.1416 66.3819C20.9131 65.8196 20.6125 65.2875 20.2804 64.7993C20.1152 64.5558 19.9394 64.3217 19.759 64.0995C19.5899 63.8871 19.3916 63.6811 19.2069 63.4893L19.1838 63.4653C18.7958 63.0671 18.4163 62.7236 18.077 62.4435C17.4095 61.8825 16.9242 61.5663 16.9242 61.5663C16.9242 61.5663 16.8571 62.0795 16.8493 62.8777C16.8575 63.1137 16.8462 63.3666 16.8341 63.6365C16.8254 63.8303 16.8163 64.033 16.8138 64.2441C16.8051 64.751 16.8251 65.2995 16.8831 65.869C16.9038 66.4274 16.9479 66.9981 17.0564 67.5662C17.111 67.8474 17.1784 68.1289 17.262 68.4034C17.3484 68.6776 17.4527 68.9475 17.5497 69.1967C17.9654 70.2054 18.7047 71.0689 20.0025 71.4605Z" fill="#DF2C29"/>
<path d="M12.4878 72.8201L12.5535 72.3781C12.6455 71.7904 12.7719 71.2296 12.9119 70.7174C12.9456 70.5888 12.9828 70.464 13.0192 70.3421C13.0547 70.2228 13.0894 70.1062 13.1192 69.992C13.1705 69.756 13.2259 69.5366 13.2786 69.336C13.4895 68.5336 13.6835 68.0282 13.6835 68.0282C13.6835 68.0282 14.0939 68.426 14.6215 69.0969C14.8897 69.4355 15.1844 69.8415 15.4712 70.3065C15.7549 70.769 16.0569 71.3024 16.2489 71.845C16.4528 72.3966 16.6119 72.9846 16.6929 73.5948C16.7353 73.8984 16.7557 74.2066 16.7538 74.5167C16.752 74.6703 16.7493 74.8298 16.7291 74.9808C16.7073 75.1305 16.6774 75.2822 16.6415 75.4303C16.4999 76.0293 16.2468 76.6192 15.8669 77.1672C15.6724 77.4365 15.4643 77.7113 15.187 77.945C14.9085 78.1816 14.5949 78.3998 14.2477 78.601C13.0376 77.9902 12.5406 76.9997 12.3726 75.895C12.2699 75.3292 12.2536 74.7377 12.296 74.1442C12.3199 73.845 12.3566 73.5491 12.4047 73.2564C12.4296 73.1107 12.4571 72.9634 12.4878 72.8201Z" fill="#DF2C29"/>
<path d="M8.2418 75.5771C8.45739 75.1851 8.65075 74.8661 8.78756 74.647L8.82722 74.5848C8.87816 74.5048 8.91945 74.44 8.94825 74.3933C8.98265 74.3321 9.0013 74.3021 9.0013 74.3021C9.0013 74.3021 9.08528 74.423 9.20607 74.6361C9.32825 74.849 9.49303 75.1565 9.66959 75.5412C10.0255 76.3103 10.4215 77.3889 10.6028 78.6063C10.7083 79.2258 10.688 79.8332 10.6194 80.4673C10.5434 81.0978 10.3852 81.7338 10.121 82.3431C10.0561 82.4964 9.98385 82.6461 9.90606 82.7962C9.82364 82.941 9.7251 83.0772 9.624 83.2165C9.42158 83.4922 9.19016 83.7562 8.92942 84.0041C8.40653 84.5 7.76505 84.9334 6.99217 85.267C5.91682 84.4814 5.60528 83.3716 5.68127 82.1966C5.71857 81.6091 5.85668 81.0019 6.05872 80.4049C6.10831 80.2529 6.16381 80.1046 6.22059 79.9548C6.27004 79.8015 6.31957 79.6479 6.37331 79.4956C6.48236 79.1922 6.60021 78.8937 6.72827 78.6C6.97903 78.016 7.26605 77.4645 7.54147 76.9608C7.78164 76.4374 8.02342 75.9693 8.2418 75.5771Z" fill="#DF2C29"/>
<path d="M8.78184 8.58305C9.76867 8.96233 10.6358 9.54642 11.0527 10.4469C9.47681 11.5985 7.0439 11.0433 5.07149 10.2477C4.05973 9.85487 3.12066 9.40619 2.45789 9.04522C1.78838 8.68766 1.37728 8.42216 1.37728 8.42216C1.37728 8.42216 3.29277 7.99423 5.50427 8.0419C6.60595 8.06749 7.79885 8.19918 8.78184 8.58305Z" fill="#DF2C29"/>
</svg>
