<svg width="24" height="24" viewBox="0 0 24 24" fill="none" xmlns="http://www.w3.org/2000/svg">
<rect opacity="0.1" x="5" y="2" width="14" height="20" rx="4" fill="#DF2C29"/>
<path fill-rule="evenodd" clip-rule="evenodd" d="M11.4 1.25H11.367C10.2749 1.24999 9.40936 1.24999 8.71173 1.30699C7.99834 1.36527 7.39472 1.48688 6.84354 1.76772C5.94978 2.22312 5.22312 2.94978 4.76772 3.84355C4.54167 4.28719 4.41879 4.76481 4.34905 5.3063C2.58826 5.61447 1.25 7.15095 1.25 9V15C1.25 16.849 2.58826 18.3855 4.34905 18.6937C4.41879 19.2352 4.54167 19.7128 4.76772 20.1565C5.22312 21.0502 5.94978 21.7769 6.84354 22.2323C7.39472 22.5131 7.99834 22.6347 8.71173 22.693C9.40935 22.75 10.2748 22.75 11.367 22.75H11.4H12.6H12.633C13.7252 22.75 14.5906 22.75 15.2883 22.693C16.0017 22.6347 16.6053 22.5131 17.1565 22.2323C18.0502 21.7769 18.7769 21.0502 19.2323 20.1565C19.4583 19.7128 19.5812 19.2352 19.651 18.6937C21.4117 18.3855 22.75 16.849 22.75 15V9C22.75 7.15095 21.4117 5.61447 19.651 5.3063C19.5812 4.76481 19.4583 4.28719 19.2323 3.84355C18.7769 2.94978 18.0502 2.22312 17.1565 1.76772C16.6053 1.48688 16.0017 1.36527 15.2883 1.30699C14.5906 1.24999 13.7251 1.24999 12.633 1.25H12.6H11.4ZM19.7426 6.87544C19.75 7.31964 19.75 7.81425 19.75 8.36691V8.36698V8.4V15.6V15.633V15.6331C19.75 16.1857 19.75 16.6804 19.7426 17.1246C20.6204 16.8178 21.25 15.9824 21.25 15V9C21.25 8.01758 20.6204 7.18222 19.7426 6.87544ZM2.75 9C2.75 8.01758 3.37963 7.18222 4.25738 6.87544C4.24999 7.31965 4.25 7.81429 4.25 8.36697V8.36699V8.367V8.4V15.6V15.633V15.633V15.633C4.25 16.1857 4.24999 16.6803 4.25738 17.1246C3.37963 16.8178 2.75 15.9824 2.75 15V9ZM7.52453 3.10423C7.829 2.94909 8.21325 2.85271 8.83388 2.80201C9.46326 2.75058 10.2675 2.75 11.4 2.75H12.6C13.7325 2.75 14.5367 2.75058 15.1661 2.80201C15.7867 2.85271 16.171 2.94909 16.4755 3.10423C17.087 3.41582 17.5842 3.913 17.8958 4.52453C18.0509 4.829 18.1473 5.21325 18.198 5.83388C18.2494 6.46327 18.25 7.26752 18.25 8.4V15.6C18.25 16.7325 18.2494 17.5367 18.198 18.1661C18.1473 18.7867 18.0509 19.171 17.8958 19.4755C17.5842 20.087 17.087 20.5842 16.4755 20.8958C16.171 21.0509 15.7867 21.1473 15.1661 21.198C14.5367 21.2494 13.7325 21.25 12.6 21.25H11.4C10.2675 21.25 9.46326 21.2494 8.83388 21.198C8.21325 21.1473 7.829 21.0509 7.52453 20.8958C6.913 20.5842 6.41582 20.087 6.10423 19.4755C5.94909 19.171 5.85271 18.7867 5.80201 18.1661C5.75058 17.5367 5.75 16.7325 5.75 15.6V8.4C5.75 7.26752 5.75058 6.46327 5.80201 5.83388C5.85271 5.21325 5.94909 4.829 6.10423 4.52453C6.41582 3.913 6.913 3.41582 7.52453 3.10423ZM9 6.25C8.58579 6.25 8.25 6.58579 8.25 7C8.25 7.41421 8.58579 7.75 9 7.75H15C15.4142 7.75 15.75 7.41421 15.75 7C15.75 6.58579 15.4142 6.25 15 6.25H9ZM8.25 11C8.25 10.5858 8.58579 10.25 9 10.25H15C15.4142 10.25 15.75 10.5858 15.75 11C15.75 11.4142 15.4142 11.75 15 11.75H9C8.58579 11.75 8.25 11.4142 8.25 11ZM9 14.25C8.58579 14.25 8.25 14.5858 8.25 15C8.25 15.4142 8.58579 15.75 9 15.75H11C11.4142 15.75 11.75 15.4142 11.75 15C11.75 14.5858 11.4142 14.25 11 14.25H9Z" fill="#DF2C29"/>
</svg>
