<svg width="24" height="24" viewBox="0 0 24 24" fill="none" xmlns="http://www.w3.org/2000/svg">
<path d="M22 12C22 14.0714 21.3857 15.9714 20.3286 17.5572C18.7857 19.8429 16.3429 21.4571 13.5 21.8714C13.0143 21.9571 12.5143 22 12 22C11.4857 22 10.9857 21.9571 10.5 21.8714C7.65714 21.4571 5.21429 19.8429 3.67143 17.5572C2.61429 15.9714 2 14.0714 2 12C2 6.47143 6.47143 2 12 2C17.5286 2 22 6.47143 22 12Z" fill="#DF2C29" fill-opacity="0.12" stroke="#DF2C29" stroke-width="1.5" stroke-miterlimit="10" stroke-linecap="round" stroke-linejoin="round"/>
<path d="M12.8397 7.72164L13.7244 9.49566C13.8444 9.73621 14.1593 9.97676 14.4442 10.0219L16.0487 10.2925C17.0683 10.4578 17.3083 11.2096 16.5735 11.9462L15.3289 13.1941C15.119 13.4045 14.999 13.8105 15.074 14.1112L15.4339 15.6597C15.7188 16.8774 15.074 17.3585 13.9943 16.712L12.4948 15.825C12.2249 15.6597 11.7751 15.6597 11.5052 15.825L10.0057 16.712C8.92601 17.3435 8.28122 16.8774 8.56613 15.6597L8.92601 14.1112C8.98599 13.8255 8.88102 13.4045 8.67109 13.1941L7.4265 11.9462C6.69174 11.2096 6.93166 10.4729 7.95133 10.2925L9.5558 10.0219C9.82571 9.97676 10.1406 9.73621 10.2606 9.49566L11.1453 7.72164C11.5801 6.75945 12.3599 6.75945 12.8397 7.72164Z" fill="white" stroke="#DF2C29" stroke-width="1.5" stroke-miterlimit="10" stroke-linecap="round" stroke-linejoin="round"/>
</svg>
