<svg width="48" height="48" viewBox="0 0 48 48" fill="none" xmlns="http://www.w3.org/2000/svg">
<path opacity="0.12" fill-rule="evenodd" clip-rule="evenodd" d="M24 4C12.9543 4 4 12.9543 4 24C4 35.0457 12.9543 44 24 44C35.0457 44 44 35.0457 44 24C44 12.9543 35.0457 4 24 4ZM34 26C34 26 31.4996 34 24 34C16.5004 34 14 26 14 26H34Z" fill="#DF2C29"/>
<path fill-rule="evenodd" clip-rule="evenodd" d="M24 3C12.402 3 3 12.402 3 24C3 35.598 12.402 45 24 45C35.598 45 45 35.598 45 24C45 12.402 35.598 3 24 3ZM5 24C5 13.5066 13.5066 5 24 5C34.4934 5 43 13.5066 43 24C43 34.4934 34.4934 43 24 43C13.5066 43 5 34.4934 5 24ZM14 25C13.6819 25 13.3827 25.1514 13.1943 25.4077C13.0059 25.664 12.9506 25.9947 13.0455 26.2983L14 26C13.0455 26.2983 13.0457 26.2987 13.0458 26.2992L13.0461 26.3003L13.047 26.303L13.0494 26.3106L13.0571 26.3343C13.0635 26.3539 13.0726 26.381 13.0842 26.415C13.1076 26.4829 13.1417 26.5788 13.1872 26.6986C13.278 26.9379 13.4147 27.2739 13.6024 27.6745C13.9768 28.473 14.5606 29.5418 15.3996 30.6157C17.0799 32.7664 19.8421 35 24 35C28.1579 35 30.9201 32.7664 32.6004 30.6157C33.4394 29.5418 34.0232 28.473 34.3976 27.6745C34.5853 27.2739 34.722 26.9379 34.8129 26.6986C34.8583 26.5788 34.8924 26.4829 34.9158 26.415C34.9274 26.381 34.9365 26.3539 34.9429 26.3343L34.9506 26.3106L34.953 26.303L34.9538 26.3003L34.9542 26.2992C34.9543 26.2987 34.9545 26.2983 34 26L34.9545 26.2983C35.0494 25.9947 34.9941 25.664 34.8057 25.4077C34.6173 25.1514 34.3181 25 34 25H14ZM16.9757 29.3843C16.3106 28.5331 15.826 27.6775 15.4966 27H32.5034C32.174 27.6775 31.6894 28.5331 31.0243 29.3843C29.5795 31.2336 27.3417 33 24 33C20.6583 33 18.4205 31.2336 16.9757 29.3843ZM20 18C20 19.1046 19.1046 20 18 20C16.8954 20 16 19.1046 16 18C16 16.8954 16.8954 16 18 16C19.1046 16 20 16.8954 20 18ZM30 20C31.1046 20 32 19.1046 32 18C32 16.8954 31.1046 16 30 16C28.8954 16 28 16.8954 28 18C28 19.1046 28.8954 20 30 20Z" fill="#DF2C29"/>
</svg>
