<svg  viewBox="0 0 280 203" fill="none" xmlns="http://www.w3.org/2000/svg">
<path d="M85.1799 1L77.4799 47H68.0799L63.9799 19.1L59.8799 47H50.5799L42.8799 1H51.7799L55.7799 30L59.5799 1H68.4799L72.3799 30L76.2799 1H85.1799Z" fill="white"/>
<path d="M86.9795 1H105.679V9.2H96.1795V18.8H105.479V26.8H96.1795V38.9H105.679V47.1H86.9795V1Z" fill="white"/>
<path d="M116.88 1H129.28C132.38 1 134.98 1.6 137.08 2.8C139.18 4 140.78 5.8 141.78 8C142.18 8.9 142.58 9.9 142.68 10.9C142.88 11.9 142.98 13.4 143.08 15.4C143.08 17.4 143.18 20.2 143.18 24C143.18 27.8 143.18 30.7 143.08 32.6C143.08 34.6 142.88 36 142.68 37.1C142.48 38.1 142.18 39.1 141.78 40C140.78 42.3 139.18 44 137.08 45.2C134.98 46.4 132.38 47 129.28 47H116.88V1ZM128.18 39.1C129.48 39.1 130.48 38.9 131.28 38.5C132.08 38.1 132.58 37.4 132.98 36.6C133.18 36.2 133.28 35.7 133.38 35.1C133.38 34.5 133.58 33.2 133.58 31.4C133.58 29.6 133.58 27.2 133.58 24.3C133.58 21.4 133.58 18.9 133.58 17C133.58 15.1 133.48 13.8 133.38 13.2C133.38 12.6 133.18 12.1 132.98 11.7C132.58 10.8 131.98 10.2 131.28 9.8C130.48 9.4 129.48 9.2 128.18 9.2H125.98V39.3H128.18V39.1Z" fill="white"/>
<path d="M152.38 46.2C150.38 45.1 148.78 43.4 147.68 41.2C147.18 40.2 146.78 39 146.48 37.8C146.18 36.6 146.08 34.9 145.88 32.8C145.78 30.7 145.68 27.8 145.68 24C145.68 20.2 145.68 17.4 145.78 15.4C145.78 13.4 145.98 11.8 146.28 10.6C146.58 9.4 146.78 8.3 147.28 7.3C148.28 5 149.88 3.2 151.98 1.9C154.08 0.6 156.58 0 159.58 0C162.58 0 165.18 0.6 167.28 1.8C169.38 3 170.88 4.8 171.98 7.2C172.38 8.2 172.78 9.3 172.98 10.5C173.18 11.7 173.38 13.3 173.48 15.3C173.48 17.3 173.58 20.2 173.58 23.9C173.58 27.6 173.58 30.5 173.48 32.5C173.48 34.5 173.18 36.1 172.98 37.3C172.78 38.5 172.38 39.6 171.98 40.6C170.98 43 169.38 44.8 167.28 46C165.18 47.2 162.68 47.8 159.58 47.8C156.48 47.8 154.28 47.2 152.28 46.1L152.38 46.2ZM162.18 38.9C162.78 38.5 163.28 37.9 163.58 37.1C163.78 36.7 163.88 36.1 163.98 35.4C163.98 34.7 164.18 33.4 164.18 31.5C164.18 29.6 164.18 27.1 164.18 24C164.18 20.9 164.18 18.4 164.18 16.5C164.18 14.6 164.08 13.3 163.98 12.6C163.98 11.9 163.78 11.4 163.58 11C163.28 10.2 162.78 9.6 162.18 9.2C161.58 8.8 160.78 8.6 159.78 8.6C157.88 8.6 156.58 9.4 155.98 11C155.78 11.4 155.68 12 155.58 12.7C155.58 13.4 155.48 14.7 155.38 16.6C155.38 18.5 155.38 21 155.38 24.1C155.38 27.2 155.38 29.7 155.38 31.6C155.38 33.5 155.48 34.8 155.58 35.5C155.58 36.2 155.78 36.7 155.98 37.1C156.68 38.7 157.88 39.5 159.78 39.5C161.68 39.5 161.58 39.3 162.18 38.9Z" fill="white"/>
<path d="M176.78 1H185.38L195.48 26V1H204.38V47H195.98L185.58 21.4V47H176.68V1H176.78Z" fill="white"/>
<path d="M210.08 1H218.58L213.68 18H207.18L210.08 1Z" fill="white"/>
<path d="M225.479 9.2H219.979V1H240.279V9.2H234.779V47.1H225.579V9.2H225.479Z" fill="white"/>
<path d="M17.3799 52.6999H31.1799C33.6799 52.6999 35.6799 53.0999 37.1799 53.7999C38.6799 54.4999 39.8799 55.6999 40.5799 57.1999C40.8799 58.0999 41.1799 59.0999 41.2799 60.1999C41.3799 61.2999 41.4799 63.1999 41.4799 65.7999C41.4799 68.3999 41.4799 70.0999 41.2799 71.1999C41.1799 72.2999 40.8799 73.2999 40.5799 74.1999C39.8799 75.7999 38.7799 76.8999 37.1799 77.6999C35.6799 78.3999 33.5799 78.7999 31.1799 78.7999H26.5799V98.7999H17.3799V52.7999V52.6999ZM28.5799 71.4999C29.3799 71.4999 30.0799 71.3999 30.6799 71.1999C31.1799 70.9999 31.5799 70.5999 31.7799 70.0999C31.8799 69.7999 31.9799 69.2999 32.0799 68.7999C32.0799 68.2999 32.0799 67.2999 32.0799 65.7999C32.0799 64.2999 32.0799 63.2999 32.0799 62.7999C32.0799 62.2999 31.8799 61.8999 31.7799 61.4999C31.3799 60.5999 30.2799 60.0999 28.5799 60.0999H26.5799V71.5999H28.5799V71.4999Z" fill="white"/>
<path d="M43.9795 52.6999H53.1795V90.3999H59.6795V98.6999H43.9795V52.6999Z" fill="white"/>
<path d="M80.1803 91.3999H71.0803L70.0803 98.6999H60.7803L68.5803 52.6999H82.7803L90.5803 98.6999H81.2803L80.2803 91.3999H80.1803ZM79.0803 83.6999L75.6803 60.0999H75.5803L72.1803 83.6999H79.0803Z" fill="white"/>
<path d="M95.7797 80.0999L86.6797 52.6999H95.9797L100.38 69.6999L104.78 52.6999H114.08L104.98 80.0999V98.7999H95.6797V80.0999H95.7797Z" fill="white"/>
<path d="M150.68 74.4999V77.8999C150.68 81.0999 150.68 83.5999 150.58 85.3999C150.58 87.1999 150.38 88.5999 150.08 89.5999C149.88 90.5999 149.58 91.5999 149.08 92.5999C148.08 94.8999 146.58 96.5999 144.68 97.7999C142.68 98.9999 140.28 99.4999 137.38 99.4999C134.48 99.4999 131.78 98.8999 129.68 97.5999C127.58 96.3999 126.08 94.4999 124.98 92.1999C124.58 91.1999 124.18 90.0999 124.08 88.9999C123.98 87.8999 123.78 86.2999 123.68 84.2999C123.68 82.2999 123.58 79.3999 123.58 75.6999C123.58 71.9999 123.58 69.0999 123.68 67.0999C123.68 65.0999 123.88 63.4999 124.08 62.3999C124.28 61.2999 124.58 60.1999 124.98 59.1999C126.08 56.7999 127.68 54.9999 129.68 53.7999C131.78 52.5999 134.28 51.8999 137.38 51.8999C140.48 51.8999 144.38 52.8999 146.68 54.9999C148.08 56.2999 149.08 57.8999 149.58 59.7999C150.18 61.6999 150.48 64.1999 150.48 67.4999H141.28C141.28 65.2999 141.08 63.7999 140.98 62.9999C140.78 62.1999 140.48 61.4999 140.08 61.0999C139.38 60.4999 138.48 60.1999 137.38 60.1999C135.58 60.1999 134.28 60.9999 133.68 62.4999C133.48 62.8999 133.38 63.4999 133.28 64.1999C133.28 64.8999 133.08 66.1999 133.08 68.1999C133.08 70.1999 133.08 72.6999 133.08 75.8999C133.08 79.0999 133.08 81.5999 133.08 83.5999C133.08 85.5999 133.18 86.8999 133.28 87.5999C133.28 88.2999 133.48 88.7999 133.68 89.2999C134.38 90.7999 135.68 91.5999 137.58 91.5999C139.48 91.5999 140.58 90.8999 141.28 89.5999C141.48 89.1999 141.58 88.5999 141.58 87.7999C141.58 86.9999 141.58 85.1999 141.58 82.3999H137.38V74.7999H150.78L150.68 74.4999Z" fill="white"/>
<path d="M170.58 91.3999H161.48L160.48 98.6999H151.18L158.98 52.6999H173.18L180.98 98.6999H171.68L170.68 91.3999H170.58ZM169.48 83.6999L166.08 60.0999H165.98L162.58 83.6999H169.48Z" fill="white"/>
<path d="M182.68 52.6999H193.98L200.18 78.6999L206.48 52.6999H217.68V98.6999H208.88V71.2999L202.78 98.6999H197.58L191.48 71.2999V98.6999H182.68V52.6999Z" fill="white"/>
<path d="M221.38 52.6999H240.08V60.8999H230.58V70.4999H239.88V78.4999H230.58V90.5999H240.08V98.7999H221.38V52.7999V52.6999Z" fill="white"/>
<path d="M246.979 98.0999C245.079 97.0999 243.679 95.6999 242.879 93.8999C242.579 93.1999 242.379 92.5999 242.279 91.9999C242.079 91.3999 241.979 90.4999 241.979 89.2999C241.979 88.0999 241.979 86.5999 241.979 84.7999H251.679C251.679 86.5999 251.679 87.8999 251.679 88.6999C251.679 89.4999 251.779 90.0999 251.979 90.3999C252.379 91.3999 253.279 91.9999 254.679 91.9999C256.079 91.9999 255.879 91.8999 256.279 91.5999C256.679 91.2999 257.079 90.9999 257.279 90.4999C257.379 90.1999 257.479 89.7999 257.479 89.2999C257.479 88.7999 257.479 87.8999 257.479 86.7999C257.479 85.6999 257.479 84.6999 257.479 84.1999C257.479 83.6999 257.279 83.1999 257.079 82.6999C256.779 82.1999 256.479 81.6999 255.979 81.2999C255.479 80.8999 254.879 80.4999 254.179 80.1999C253.479 79.8999 252.679 79.4999 251.979 79.1999L250.779 78.6999C248.879 77.6999 247.379 76.7999 246.179 75.7999C244.979 74.7999 244.079 73.6999 243.579 72.4999C243.179 71.5999 242.879 70.5999 242.779 69.3999C242.579 68.2999 242.579 66.6999 242.579 64.5999C242.579 62.4999 242.579 61.2999 242.779 60.3999C242.879 59.4999 243.179 58.4999 243.579 57.5999C244.379 55.7999 245.779 54.3999 247.579 53.3999C249.379 52.3999 251.779 51.8999 254.579 51.8999C257.379 51.8999 259.579 52.3999 261.479 53.2999C263.279 54.1999 264.679 55.5999 265.479 57.3999C265.779 58.0999 265.98 58.6999 266.18 59.2999C266.28 59.8999 266.379 60.7999 266.479 61.9999C266.479 63.1999 266.479 64.6999 266.479 66.4999H257.18C257.18 64.7999 257.18 63.4999 257.18 62.6999C257.18 61.8999 257.079 61.2999 256.879 60.9999C256.479 60.0999 255.679 59.5999 254.479 59.5999C253.279 59.5999 253.379 59.6999 252.979 59.9999C252.579 60.1999 252.279 60.5999 252.079 60.9999C252.079 61.2999 251.979 61.5999 251.879 62.0999C251.879 62.5999 251.879 63.2999 251.879 64.1999C251.879 65.0999 251.879 66.0999 251.879 66.5999C251.879 67.0999 252.079 67.5999 252.279 67.9999C252.579 68.6999 253.079 69.1999 253.779 69.5999C254.479 69.9999 255.579 70.4999 257.079 71.0999L258.379 71.6999C260.579 72.6999 262.279 73.6999 263.579 74.5999C264.879 75.4999 265.779 76.6999 266.379 77.9999C266.779 78.9999 267.08 79.9999 267.18 81.0999C267.28 82.1999 267.379 83.8999 267.379 86.2999C267.379 88.6999 267.38 90.0999 267.18 90.9999C267.08 91.9999 266.779 92.8999 266.379 93.7999C265.479 95.6999 264.079 97.1999 262.079 98.1999C260.079 99.1999 257.579 99.6999 254.679 99.6999C251.779 99.6999 249.179 99.1999 247.279 98.1999L246.979 98.0999Z" fill="white"/>
<path d="M98.7799 104.4L91.0799 150.4H81.6799L77.5799 122.5L73.4799 150.4H64.1799L56.3799 104.4H65.2799L69.2799 133.4L73.1799 104.4H82.0799L85.9799 133.4L89.8799 104.4H98.7799Z" fill="white"/>
<path d="M100.479 104.4H119.179V112.6H109.679V122.2H118.979V130.2H109.679V142.3H119.179V150.5H100.479V104.5V104.4Z" fill="white"/>
<path d="M130.38 104.4H144.18C146.68 104.4 148.68 104.8 150.18 105.5C151.68 106.2 152.88 107.4 153.58 108.9C153.88 109.8 154.18 110.8 154.28 111.9C154.38 113 154.48 114.9 154.48 117.5C154.48 120.1 154.48 121.8 154.28 122.9C154.18 124 153.88 125 153.58 125.9C152.88 127.5 151.78 128.6 150.18 129.4C148.68 130.1 146.58 130.5 144.18 130.5H139.58V150.5H130.38V104.5V104.4ZM141.58 123.2C142.38 123.2 143.08 123.1 143.68 122.9C144.18 122.7 144.58 122.3 144.78 121.8C144.88 121.5 144.98 121 145.08 120.5C145.08 120 145.08 119 145.08 117.5C145.08 116 145.08 115 145.08 114.5C145.08 114 144.88 113.6 144.78 113.2C144.38 112.3 143.28 111.8 141.58 111.8H139.58V123.3H141.58V123.2Z" fill="white"/>
<path d="M156.979 104.4H166.179V142.1H172.679V150.4H156.979V104.4Z" fill="white"/>
<path d="M193.18 143.1H184.08L183.08 150.4H173.78L181.58 104.4H195.78L203.58 150.4H194.28L193.28 143.1H193.18ZM192.08 135.4L188.68 111.8H188.58L185.18 135.4H192.08Z" fill="white"/>
<path d="M208.78 131.7L199.68 104.3H208.98L213.38 121.3L217.78 104.3H227.08L217.98 131.7V150.4H208.68V131.7H208.78Z" fill="white"/>
<path d="M34.9795 164.2H29.4795V156H49.7795V164.2H44.2795V202.1H35.0795V164.2H34.9795Z" fill="white"/>
<path d="M51.8799 156H61.0799V173.8H68.4799V156H77.6799V202H68.4799V181.9H61.0799V202H51.8799V156Z" fill="white"/>
<path d="M81.3799 156H100.08V164.2H90.5799V173.8H99.8799V181.8H90.5799V193.9H100.08V202.1H81.3799V156.1V156Z" fill="white"/>
<path d="M111.279 156H122.579L128.779 182L135.079 156H146.279V202H137.479V174.6L131.379 202H126.179L120.079 174.6V202H111.279V156Z" fill="white"/>
<path d="M167.379 194.7H158.279L157.279 202H147.979L155.779 156H169.979L177.779 202H168.479L167.479 194.7H167.379ZM166.279 187L162.879 163.4H162.779L159.379 187H166.279Z" fill="white"/>
<path d="M180.779 164.2H175.279V156H195.579V164.2H190.079V202.1H180.879V164.2H180.779Z" fill="white"/>
<path d="M202.879 201C200.779 199.8 199.279 198 198.179 195.5C197.779 194.5 197.379 193.5 197.179 192.3C196.979 191.1 196.779 189.6 196.679 187.6C196.679 185.6 196.579 182.7 196.579 179C196.579 175.3 196.579 172.4 196.679 170.4C196.679 168.4 196.879 166.8 197.179 165.6C197.379 164.4 197.679 163.4 198.179 162.4C199.179 160 200.779 158.2 202.879 157C204.979 155.8 207.479 155.2 210.579 155.2C213.679 155.2 217.479 156.2 219.679 158.3C221.179 159.6 222.179 161.3 222.779 163.2C223.379 165.1 223.679 167.8 223.679 171.1H214.179C214.179 169.5 214.179 168.3 214.079 167.4C214.079 166.5 213.879 165.9 213.679 165.5C213.479 165.1 213.279 164.7 212.879 164.4C212.579 164.1 212.179 163.9 211.779 163.7C211.379 163.5 210.879 163.5 210.279 163.5C209.379 163.5 208.679 163.7 208.079 164.1C207.479 164.5 206.979 165.1 206.679 165.8C206.479 166.2 206.379 166.8 206.279 167.5C206.279 168.2 206.079 169.5 206.079 171.4C206.079 173.4 206.079 175.9 206.079 179C206.079 182.1 206.079 184.7 206.079 186.7C206.079 188.7 206.179 190 206.279 190.7C206.279 191.4 206.479 191.9 206.679 192.4C207.379 193.9 208.579 194.6 210.379 194.6C212.179 194.6 212.379 194.3 213.079 193.6C213.379 193.4 213.579 193.1 213.779 192.7C213.979 192.3 214.079 191.6 214.179 190.8C214.179 189.9 214.279 188.7 214.279 187.1H223.779C223.779 190.3 223.379 192.9 222.779 194.9C222.179 196.9 221.179 198.6 219.779 199.8C218.679 200.8 217.379 201.6 215.779 202.1C214.179 202.6 212.479 202.9 210.479 202.9C207.479 202.9 204.879 202.3 202.779 201.1L202.879 201Z" fill="white"/>
<path d="M226.68 156H235.88V173.8H243.28V156H252.48V202H243.28V181.9H235.88V202H226.68V156Z" fill="white"/>
<path d="M279.117 64.0642L0 78.6921L0.72747 92.5731L279.844 77.9452L279.117 64.0642Z" fill="#CD001E"/>
</svg>
