<svg viewBox="0 0 114 38" fill="none" xmlns="http://www.w3.org/2000/svg">
<path d="M104.922 1.42968e-06H9.08337C8.73403 1.42968e-06 8.38888 1.42974e-06 8.04046 0.00190143C7.7488 0.00380143 7.45947 0.00932093 7.16501 0.0139664C6.52531 0.0214731 5.88711 0.0775939 5.25596 0.181841C4.6257 0.288357 4.01518 0.489171 3.44505 0.777491C2.87562 1.06825 2.35532 1.44606 1.90302 1.89722C1.44834 2.34711 1.06933 2.86712 0.780568 3.43725C0.491005 4.00626 0.290221 4.61599 0.185151 5.24541C0.0790818 5.87403 0.0220051 6.5099 0.0144329 7.14731C0.00559216 7.43858 0.00465854 7.73082 0 8.02212V29.9807C0.00465854 30.2756 0.00559216 30.5614 0.0144329 30.8565C0.0220074 31.4939 0.0790841 32.1297 0.185151 32.7583C0.289931 33.3881 0.490727 33.9981 0.780568 34.5674C1.0692 35.1357 1.44826 35.6536 1.90302 36.1009C2.35361 36.5541 2.87425 36.9322 3.44505 37.2207C4.01517 37.5098 4.62563 37.7118 5.25596 37.82C5.88721 37.9234 6.52535 37.9795 7.16501 37.9879C7.45947 37.9944 7.7488 37.9981 8.04046 37.9981C8.38887 38 8.73405 38 9.08337 38H104.922C105.264 38 105.612 38 105.954 37.9981C106.245 37.9981 106.542 37.9944 106.833 37.9879C107.471 37.98 108.108 37.9238 108.738 37.82C109.37 37.7111 109.983 37.5091 110.556 37.2207C111.126 36.932 111.646 36.554 112.097 36.1009C112.55 35.6518 112.93 35.1343 113.222 34.5674C113.51 33.9977 113.709 33.3877 113.812 32.7583C113.918 32.1296 113.977 31.4939 113.989 30.8565C113.993 30.5614 113.993 30.2756 113.993 29.9807C114 29.6355 114 29.2923 114 28.9416V9.05932C114 8.71142 114 8.36631 113.993 8.02212C113.993 7.73082 113.993 7.43858 113.989 7.14727C113.977 6.5098 113.918 5.87408 113.812 5.24537C113.709 4.61632 113.51 4.00663 113.222 3.43722C112.634 2.29444 111.702 1.36423 110.556 0.777405C109.983 0.48979 109.37 0.28903 108.738 0.181755C108.108 0.0770491 107.471 0.0209088 106.833 0.0138334C106.542 0.00919743 106.245 0.00363043 105.954 0.00177793C105.612 -0.00012207 105.264 -0.00012207 104.922 -0.00012207V1.42968e-06Z" fill="#131313"/>
<path d="M8.04545 37.1688C7.75519 37.1688 7.47195 37.1651 7.18397 37.1586C6.58739 37.1509 5.99221 37.0991 5.4033 37.0037C4.85417 36.9094 4.32222 36.734 3.82498 36.4832C3.3323 36.2345 2.88293 35.9084 2.4941 35.5174C2.09964 35.131 1.77123 34.6829 1.5219 34.1907C1.26981 33.6954 1.09535 33.1645 1.0046 32.6164C0.906591 32.0275 0.853566 31.432 0.845978 30.8351C0.839938 30.6348 0.832031 29.9677 0.832031 29.9677V8.02217C0.832031 8.02217 0.840453 7.36533 0.846026 7.17236C0.853291 6.57641 0.906008 5.98187 1.00372 5.39389C1.09464 4.84434 1.26924 4.31186 1.52146 3.8149C1.76988 3.3231 2.09646 2.87462 2.48855 2.48685C2.88019 2.09539 3.33099 1.76762 3.82451 1.5155C4.32061 1.26554 4.85156 1.09134 5.39957 0.998755C5.99042 0.902393 6.58766 0.850295 7.18631 0.842898L8.04592 0.831299H105.95L106.82 0.843364C107.413 0.850393 108.005 0.902026 108.59 0.997824C109.144 1.09158 109.68 1.26698 110.182 1.51828C111.171 2.02639 111.975 2.83025 112.483 3.81722C112.731 4.31075 112.903 4.83888 112.993 5.38369C113.092 5.97649 113.147 6.5757 113.158 7.17654C113.161 7.44558 113.161 7.73457 113.161 8.02217C113.169 8.37842 113.169 8.71751 113.169 9.05937V28.9416C113.169 29.2867 113.169 29.6235 113.161 29.9631C113.161 30.272 113.161 30.555 113.157 30.8463C113.146 31.4364 113.092 32.0249 112.995 32.6071C112.906 33.1591 112.732 33.6942 112.48 34.1936C112.229 34.6804 111.903 35.1247 111.513 35.51C111.123 35.9031 110.673 36.2311 110.179 36.4814C109.679 36.7341 109.143 36.9102 108.59 37.0037C108.002 37.0996 107.406 37.1514 106.81 37.1586C106.531 37.1651 106.238 37.1688 105.955 37.1688L104.922 37.1707L8.04545 37.1688Z" fill="white"/>
<path d="M23.8126 18.8952C23.8233 18.0706 24.0429 17.2621 24.4511 16.5449C24.8593 15.8278 25.4428 15.2252 26.1472 14.7933C25.6997 14.156 25.1093 13.6315 24.4229 13.2614C23.7366 12.8914 22.9731 12.6861 22.1933 12.6618C20.5297 12.4876 18.9169 13.6544 18.0692 13.6544C17.205 13.6544 15.8998 12.6791 14.4943 12.7079C13.5852 12.7372 12.6992 13.0008 11.9226 13.4731C11.1461 13.9453 10.5054 14.6102 10.0631 15.4027C8.14721 18.7106 9.57631 23.5722 11.4116 26.246C12.3299 27.5554 13.4031 29.0179 14.8073 28.966C16.1814 28.9092 16.6946 28.0923 18.3533 28.0923C19.9966 28.0923 20.4781 28.966 21.9108 28.9331C23.3853 28.9092 24.3143 27.6179 25.2004 26.2962C25.8602 25.3633 26.3678 24.3322 26.7046 23.2411C25.848 22.8798 25.117 22.275 24.6027 21.5022C24.0884 20.7294 23.8136 19.8227 23.8126 18.8952Z" fill="black"/>
<path d="M21.1074 10.9032C21.9113 9.94081 22.3074 8.70378 22.2115 7.45483C20.9833 7.58348 19.8487 8.16887 19.0339 9.09436C18.6355 9.54649 18.3303 10.0725 18.1359 10.6423C17.9415 11.2121 17.8616 11.8145 17.9008 12.4151C18.5152 12.4214 19.1229 12.2886 19.6784 12.0267C20.2338 11.7648 20.7224 11.3807 21.1074 10.9032Z" fill="black"/>
<path d="M40.2989 25.7828H35.7895L34.7066 28.9714H32.7966L37.0678 17.1743H39.0522L43.3234 28.9714H41.3809L40.2989 25.7828ZM36.2566 24.3114H39.831L38.0689 19.1365H38.0196L36.2566 24.3114Z" fill="black"/>
<path d="M52.5483 24.6714C52.5483 27.3442 51.1137 29.0614 48.9488 29.0614C48.4004 29.09 47.855 28.964 47.375 28.6979C46.8951 28.4318 46.5 28.0362 46.235 27.5566H46.194V31.8168H44.4236V20.3704H46.1373V21.801H46.1698C46.447 21.3236 46.8488 20.9301 47.3324 20.6624C47.816 20.3946 48.3633 20.2626 48.9162 20.2804C51.1053 20.2804 52.5483 22.006 52.5483 24.6714ZM50.7285 24.6714C50.7285 22.93 49.8261 21.7852 48.4492 21.7852C47.0965 21.7852 46.1866 22.9541 46.1866 24.6714C46.1866 26.4044 47.0965 27.565 48.4492 27.565C49.8261 27.565 50.7285 26.4285 50.7285 24.6714H50.7285Z" fill="black"/>
<path d="M62.0413 24.6714C62.0413 27.3442 60.6062 29.0614 58.4413 29.0614C57.8929 29.09 57.3475 28.964 56.8676 28.6979C56.3876 28.4318 55.9925 28.0362 55.7275 27.5566H55.6866V31.8168H53.9161V20.3704H55.6298V21.801H55.6624C55.9396 21.3236 56.3413 20.9301 56.8249 20.6624C57.3085 20.3946 57.8559 20.2626 58.4087 20.2804C60.5979 20.2804 62.0413 22.006 62.0413 24.6714ZM60.2211 24.6714C60.2211 22.93 59.3186 21.7852 57.9417 21.7852C56.589 21.7852 55.6792 22.9541 55.6792 24.6714C55.6792 26.4044 56.589 27.565 57.9417 27.565C59.3186 27.565 60.2211 26.4285 60.2211 24.6714Z" fill="black"/>
<path d="M68.3137 25.6844C68.4449 26.8543 69.5845 27.6224 71.1419 27.6224C72.6342 27.6224 73.7078 26.8542 73.7078 25.7994C73.7078 24.8837 73.0603 24.3354 71.5271 23.9597L69.9939 23.5914C67.8215 23.0681 66.8131 22.055 66.8131 20.4111C66.8131 18.3756 68.5919 16.9775 71.1168 16.9775C73.6175 16.9775 75.3312 18.3756 75.3889 20.4111H73.6017C73.4947 19.2338 72.5188 18.5231 71.0926 18.5231C69.6664 18.5231 68.6905 19.2421 68.6905 20.2886C68.6905 21.1227 69.3138 21.6134 70.8386 21.9891L72.142 22.3083C74.5693 22.8807 75.5768 23.853 75.5768 25.5785C75.5768 27.7856 73.8148 29.1679 71.0107 29.1679C68.3871 29.1679 66.6158 27.8181 66.5013 25.6843L68.3137 25.6844Z" fill="black"/>
<path d="M79.3989 18.3348V20.3703H81.0391V21.7684H79.3989V26.51C79.3989 27.2467 79.7273 27.5899 80.4483 27.5899C80.643 27.5865 80.8374 27.5729 81.0307 27.5491V28.9388C80.7065 28.9992 80.377 29.0266 80.0473 29.0205C78.3011 29.0205 77.6201 28.3664 77.6201 26.6983V21.7684H76.366V20.3703H77.62V18.3348H79.3989Z" fill="black"/>
<path d="M81.9899 24.6713C81.9899 21.9651 83.5882 20.2645 86.0806 20.2645C88.5813 20.2645 90.1722 21.965 90.1722 24.6713C90.1722 27.3849 88.5897 29.078 86.0806 29.078C83.5724 29.078 81.9899 27.3849 81.9899 24.6713ZM88.3683 24.6713C88.3683 22.8149 87.5151 21.7192 86.0806 21.7192C84.646 21.7192 83.7929 22.8232 83.7929 24.6713C83.7929 26.5351 84.646 27.6224 86.0806 27.6224C87.5151 27.6224 88.3683 26.5351 88.3683 24.6713H88.3683Z" fill="black"/>
<path d="M91.6334 20.3703H93.322V21.8343H93.363C93.4772 21.377 93.7458 20.973 94.1236 20.69C94.5014 20.407 94.9654 20.2623 95.4376 20.2803C95.6416 20.2796 95.8451 20.3017 96.0442 20.3462V21.9975C95.7866 21.9191 95.5179 21.883 95.2487 21.8909C94.9915 21.8805 94.7351 21.9257 94.4971 22.0234C94.2591 22.1212 94.0451 22.2691 93.8698 22.4571C93.6946 22.6451 93.5622 22.8687 93.4817 23.1125C93.4013 23.3564 93.3747 23.6147 93.4039 23.8697V28.9713H91.6334L91.6334 20.3703Z" fill="black"/>
<path d="M104.206 26.4451C103.968 28.0065 102.443 29.078 100.492 29.078C97.9827 29.078 96.4253 27.4016 96.4253 24.7121C96.4253 22.0142 97.991 20.2645 100.417 20.2645C102.804 20.2645 104.304 21.8992 104.304 24.5071V25.1119H98.2125V25.2186C98.1844 25.5352 98.2241 25.854 98.3291 26.1541C98.434 26.4541 98.6018 26.7285 98.8213 26.9589C99.0407 27.1893 99.3068 27.3706 99.6019 27.4905C99.897 27.6105 100.214 27.6665 100.533 27.6549C100.951 27.6939 101.371 27.5973 101.73 27.3793C102.089 27.1614 102.367 26.8337 102.525 26.4451L104.206 26.4451ZM98.2208 23.8781H102.533C102.549 23.5934 102.506 23.3086 102.406 23.0415C102.306 22.7743 102.152 22.5306 101.953 22.3256C101.755 22.1207 101.516 21.9588 101.251 21.8503C100.987 21.7418 100.703 21.689 100.417 21.6951C100.129 21.6934 99.8433 21.7486 99.5765 21.8576C99.3097 21.9666 99.0672 22.1272 98.863 22.3302C98.6588 22.5331 98.4969 22.7744 98.3867 23.0401C98.2765 23.3058 98.2201 23.5906 98.2208 23.8781V23.8781Z" fill="black"/>
<path d="M36.0386 8.29427C36.4098 8.26771 36.7822 8.32363 37.1291 8.45799C37.476 8.59235 37.7886 8.80181 38.0445 9.07125C38.3004 9.3407 38.4931 9.66341 38.6088 10.0161C38.7244 10.3688 38.7601 10.7427 38.7133 11.1109C38.7133 12.9218 37.7318 13.9628 36.0386 13.9628H33.9854V8.29427H36.0386ZM34.8682 13.1611H35.94C36.2052 13.1769 36.4706 13.1336 36.7169 13.0342C36.9632 12.9348 37.1842 12.7819 37.3638 12.5866C37.5434 12.3913 37.677 12.1586 37.755 11.9053C37.833 11.652 37.8533 11.3846 37.8146 11.1224C37.8505 10.8613 37.8281 10.5955 37.7489 10.3441C37.6697 10.0927 37.5358 9.86183 37.3566 9.6681C37.1774 9.47437 36.9575 9.32255 36.7126 9.22352C36.4677 9.1245 36.2039 9.08072 35.94 9.09532H34.8682V13.1611Z" fill="black"/>
<path d="M39.7101 11.8219C39.6832 11.5407 39.7154 11.2571 39.8048 10.9891C39.8942 10.7212 40.0388 10.4748 40.2293 10.2658C40.4197 10.0568 40.6519 9.88984 40.9109 9.77558C41.1699 9.66132 41.45 9.60229 41.7332 9.60229C42.0164 9.60229 42.2964 9.66132 42.5554 9.77558C42.8144 9.88984 43.0466 10.0568 43.2371 10.2658C43.4275 10.4748 43.5721 10.7212 43.6615 10.9891C43.7509 11.2571 43.7832 11.5407 43.7562 11.8219C43.7837 12.1033 43.7518 12.3873 43.6626 12.6557C43.5735 12.9241 43.429 13.1709 43.2385 13.3803C43.0479 13.5897 42.8156 13.757 42.5563 13.8715C42.2971 13.9861 42.0167 14.0452 41.7332 14.0452C41.4496 14.0452 41.1692 13.9861 40.91 13.8715C40.6507 13.757 40.4184 13.5897 40.2279 13.3803C40.0373 13.1709 39.8928 12.9241 39.8037 12.6557C39.7145 12.3873 39.6827 12.1033 39.7101 11.8219ZM42.8854 11.8219C42.8854 10.8946 42.4676 10.3523 41.7346 10.3523C40.9987 10.3523 40.5847 10.8946 40.5847 11.8219C40.5847 12.7566 40.9987 13.2946 41.7346 13.2946C42.4677 13.2946 42.8854 12.7528 42.8854 11.8219H42.8854Z" fill="black"/>
<path d="M49.1366 13.9626H48.2583L47.3717 10.812H47.3047L46.4218 13.9626H45.552L44.3695 9.68481H45.2282L45.9967 12.949H46.0599L46.9419 9.68481H47.7541L48.636 12.949H48.703L49.4678 9.68481H50.3144L49.1366 13.9626Z" fill="black"/>
<path d="M51.3064 9.68469H52.1214V10.3642H52.1846C52.292 10.1202 52.473 9.91557 52.7024 9.77896C52.9319 9.64234 53.1984 9.58052 53.4648 9.60211C53.6735 9.58646 53.8831 9.61785 54.078 9.69394C54.2729 9.77003 54.4482 9.88888 54.5908 10.0417C54.7334 10.1945 54.8397 10.3773 54.9018 10.5766C54.9639 10.776 54.9802 10.9867 54.9496 11.1932V13.9624H54.103V11.4052C54.103 10.7177 53.8034 10.3758 53.1773 10.3758C53.0356 10.3693 52.8941 10.3933 52.7626 10.4464C52.6311 10.4994 52.5126 10.5802 52.4153 10.6831C52.318 10.7861 52.2442 10.9088 52.1989 11.0429C52.1537 11.177 52.138 11.3192 52.153 11.4599V13.9625H51.3064L51.3064 9.68469Z" fill="black"/>
<path d="M56.2983 8.01489H57.1449V13.9626H56.2983V8.01489Z" fill="black"/>
<path d="M58.323 11.8219C58.2961 11.5408 58.3283 11.2571 58.4178 10.9892C58.5072 10.7212 58.6518 10.4748 58.8423 10.2658C59.0328 10.0568 59.265 9.88985 59.524 9.77558C59.783 9.66132 60.0631 9.60229 60.3463 9.60229C60.6295 9.60229 60.9096 9.66132 61.1686 9.77558C61.4276 9.88985 61.6598 10.0568 61.8503 10.2658C62.0408 10.4748 62.1854 10.7212 62.2748 10.9892C62.3642 11.2571 62.3965 11.5408 62.3695 11.8219C62.397 12.1034 62.3651 12.3874 62.2759 12.6558C62.1867 12.9242 62.0422 13.171 61.8516 13.3804C61.6611 13.5898 61.4287 13.7571 61.1695 13.8716C60.9102 13.9861 60.6298 14.0453 60.3463 14.0453C60.0627 14.0453 59.7823 13.9861 59.5231 13.8716C59.2638 13.7571 59.0315 13.5898 58.8409 13.3804C58.6504 13.171 58.5059 12.9242 58.4167 12.6558C58.3275 12.3874 58.2956 12.1034 58.323 11.8219ZM61.4983 11.8219C61.4983 10.8947 61.0805 10.3524 60.3474 10.3524C59.6115 10.3524 59.1976 10.8947 59.1976 11.8219C59.1976 12.7566 59.6116 13.2947 60.3474 13.2947C61.0805 13.2947 61.4983 12.7529 61.4983 11.8219H61.4983Z" fill="black"/>
<path d="M63.2598 12.7529C63.2598 11.9829 63.8347 11.5389 64.8553 11.4758L66.0173 11.4091V11.0398C66.0173 10.588 65.7177 10.3329 65.1391 10.3329C64.6664 10.3329 64.339 10.5059 64.245 10.8083H63.4254C63.5119 10.0736 64.205 9.60229 65.1781 9.60229C66.2536 9.60229 66.8602 10.1362 66.8602 11.0398V13.9626H66.0452V13.3615H65.9782C65.8423 13.5771 65.6513 13.7529 65.425 13.8709C65.1986 13.9889 64.9449 14.0449 64.6897 14.0331C64.5096 14.0518 64.3276 14.0326 64.1554 13.9769C63.9832 13.9211 63.8246 13.83 63.6899 13.7094C63.5552 13.5887 63.4473 13.4413 63.3732 13.2766C63.2991 13.1118 63.2605 12.9334 63.2598 12.7529ZM66.0173 12.3873V12.0297L64.9697 12.0965C64.379 12.1359 64.111 12.3363 64.111 12.7134C64.111 13.0984 64.4459 13.3225 64.9065 13.3225C65.0414 13.3361 65.1777 13.3225 65.3073 13.2825C65.4369 13.2426 65.5571 13.177 65.6607 13.0897C65.7643 13.0025 65.8493 12.8953 65.9106 12.7747C65.9718 12.654 66.0081 12.5223 66.0173 12.3873Z" fill="black"/>
<path d="M67.9745 11.8219C67.9745 10.4702 68.6713 9.61386 69.7552 9.61386C70.0232 9.60154 70.2893 9.66557 70.5223 9.79847C70.7552 9.93137 70.9454 10.1276 71.0707 10.3644H71.1339V8.01489H71.9805V13.9626H71.1693V13.2867H71.1023C70.9674 13.5219 70.7706 13.7157 70.5331 13.8472C70.2956 13.9788 70.0266 14.0431 69.7552 14.0331C68.6639 14.0331 67.9745 13.1768 67.9745 11.8219ZM68.849 11.8219C68.849 12.7292 69.2779 13.2752 69.9952 13.2752C70.7088 13.2752 71.1498 12.7213 71.1498 11.8256C71.1498 10.934 70.7041 10.3723 69.9952 10.3723C69.2825 10.3723 68.849 10.922 68.849 11.8219H68.849Z" fill="black"/>
<path d="M75.4826 11.8219C75.4556 11.5407 75.4879 11.2571 75.5773 10.9891C75.6667 10.7212 75.8112 10.4748 76.0017 10.2658C76.1922 10.0568 76.4244 9.88984 76.6834 9.77558C76.9423 9.66132 77.2224 9.60229 77.5056 9.60229C77.7888 9.60229 78.0689 9.66132 78.3279 9.77558C78.5868 9.88984 78.819 10.0568 79.0095 10.2658C79.2 10.4748 79.3445 10.7212 79.4339 10.9891C79.5233 11.2571 79.5556 11.5407 79.5286 11.8219C79.5561 12.1033 79.5242 12.3873 79.4351 12.6557C79.3459 12.9241 79.2014 13.1709 79.0109 13.3803C78.8204 13.5897 78.588 13.757 78.3288 13.8715C78.0695 13.9861 77.7891 14.0452 77.5056 14.0452C77.2221 14.0452 76.9417 13.9861 76.6824 13.8715C76.4232 13.757 76.1908 13.5897 76.0003 13.3803C75.8098 13.1709 75.6653 12.9241 75.5761 12.6557C75.487 12.3873 75.4551 12.1033 75.4826 11.8219ZM78.6578 11.8219C78.6578 10.8946 78.2401 10.3523 77.507 10.3523C76.7711 10.3523 76.3571 10.8946 76.3571 11.8219C76.3571 12.7566 76.7711 13.2946 77.507 13.2946C78.2401 13.2946 78.6578 12.7528 78.6578 11.8219Z" fill="black"/>
<path d="M80.665 9.68469H81.48V10.3642H81.5433C81.6506 10.1202 81.8316 9.91557 82.0611 9.77896C82.2906 9.64234 82.5571 9.58052 82.8234 9.60211C83.0322 9.58646 83.2417 9.61785 83.4367 9.69394C83.6316 9.77003 83.8068 9.88888 83.9494 10.0417C84.092 10.1945 84.1983 10.3773 84.2604 10.5766C84.3225 10.776 84.3389 10.9867 84.3082 11.1932V13.9624H83.4616V11.4052C83.4616 10.7177 83.1621 10.3758 82.536 10.3758C82.3942 10.3693 82.2528 10.3933 82.1212 10.4464C81.9897 10.4994 81.8713 10.5802 81.774 10.6831C81.6767 10.7861 81.6029 10.9088 81.5576 11.0429C81.5123 11.177 81.4966 11.3192 81.5116 11.4599V13.9625H80.665V9.68469Z" fill="black"/>
<path d="M89.0919 8.61975V9.70427H90.0213V10.4154H89.0919V12.615C89.0919 13.0631 89.277 13.2594 89.6985 13.2594C89.8064 13.259 89.9142 13.2525 90.0213 13.2399V13.9431C89.8693 13.9702 89.7152 13.9846 89.5608 13.9862C88.6193 13.9862 88.2444 13.6559 88.2444 12.8312V10.4153H87.5634V9.70423H88.2444V8.61975H89.0919Z" fill="black"/>
<path d="M91.1792 8.01489H92.0184V10.3723H92.0853C92.1979 10.1259 92.3839 9.92015 92.6179 9.78302C92.852 9.64589 93.1228 9.58406 93.3934 9.60596C93.601 9.59469 93.8086 9.62926 94.0013 9.7072C94.194 9.78514 94.3671 9.90453 94.5082 10.0569C94.6493 10.2092 94.7549 10.3907 94.8176 10.5884C94.8803 10.7861 94.8984 10.9952 94.8707 11.2007V13.9626H94.0233V11.409C94.0233 10.7257 93.7041 10.3797 93.106 10.3797C92.9605 10.3678 92.8141 10.3877 92.6771 10.4381C92.5402 10.4885 92.4159 10.5682 92.313 10.6715C92.2101 10.7748 92.1311 10.8992 92.0815 11.0362C92.0319 11.1731 92.0129 11.3192 92.0258 11.4642V13.9626H91.1792L91.1792 8.01489Z" fill="black"/>
<path d="M99.8053 12.8074C99.6902 13.1984 99.441 13.5366 99.1012 13.7628C98.7614 13.9891 98.3527 14.089 97.9465 14.045C97.6638 14.0525 97.383 13.9985 97.1234 13.8868C96.8638 13.7752 96.6316 13.6085 96.4431 13.3985C96.2545 13.1884 96.1141 12.9399 96.0315 12.6703C95.9489 12.4006 95.9262 12.1163 95.9648 11.837C95.9272 11.5569 95.9503 11.272 96.0327 11.0015C96.1151 10.7311 96.2548 10.4815 96.4424 10.2695C96.6299 10.0576 96.861 9.88835 97.1198 9.7732C97.3787 9.65806 97.6593 9.59971 97.9427 9.60212C99.1363 9.60212 99.8564 10.4153 99.8564 11.7586V12.0532H96.8272V12.1005C96.814 12.2575 96.8338 12.4155 96.8853 12.5644C96.9369 12.7133 97.0191 12.8499 97.1267 12.9652C97.2342 13.0806 97.3648 13.1723 97.51 13.2345C97.6551 13.2966 97.8117 13.3278 97.9697 13.326C98.1722 13.3503 98.3774 13.3139 98.5591 13.2216C98.7408 13.1292 98.8909 12.985 98.9903 12.8074L99.8053 12.8074ZM96.8272 11.4288H98.994C99.0047 11.2853 98.9851 11.141 98.9365 11.0055C98.888 10.8699 98.8116 10.7459 98.7121 10.6416C98.6127 10.5372 98.4924 10.4547 98.3591 10.3995C98.2258 10.3442 98.0824 10.3174 97.938 10.3207C97.7916 10.3188 97.6463 10.3462 97.5107 10.4013C97.3751 10.4563 97.2518 10.5379 97.1483 10.6412C97.0448 10.7445 96.9631 10.8674 96.9079 11.0026C96.8528 11.1379 96.8253 11.2828 96.8272 11.4288H96.8272Z" fill="black"/>
</svg>
