<svg width="24" height="24" viewBox="0 0 24 24" fill="none" xmlns="http://www.w3.org/2000/svg">
<rect y="-0.0078125" width="24" height="24" rx="4" fill="currentColor"/>
<path fill-rule="evenodd" clip-rule="evenodd" d="M4.23741 11.4496C9.06923 9.33274 12.2912 7.93719 13.9033 7.26293C18.5063 5.33777 19.4627 5.00335 20.0861 4.99231C20.2232 4.98988 20.5298 5.02405 20.7284 5.18608C20.8961 5.32289 20.9422 5.50771 20.9643 5.63743C20.9864 5.76715 21.0139 6.06265 20.992 6.29354C20.7426 8.92894 19.6633 15.3243 19.1142 18.276C18.8818 19.525 18.4244 19.9438 17.9815 19.9848C17.0189 20.0738 16.288 19.3451 15.3558 18.7306C13.897 17.7691 13.0729 17.1705 11.6569 16.2322C10.0205 15.1478 11.0813 14.5518 12.0139 13.5778C12.258 13.3229 16.4988 9.44407 16.5809 9.0922C16.5912 9.04819 16.6007 8.88415 16.5038 8.79754C16.4069 8.71092 16.2639 8.74054 16.1606 8.76409C16.0143 8.79749 13.6839 10.3464 9.16938 13.4107C8.5079 13.8675 7.90875 14.09 7.37193 14.0784C6.78013 14.0655 5.64175 13.7419 4.79548 13.4653C3.75749 13.126 2.93252 12.9466 3.00436 12.3704C3.04178 12.0703 3.45279 11.7633 4.23741 11.4496Z" fill="white"/>
</svg>
