<svg width="24" height="24" viewBox="0 0 24 24" fill="none" xmlns="http://www.w3.org/2000/svg">
<rect width="24" height="24" rx="4" fill="currentColor"/>
<path d="M21.8008 8.00131C21.8008 8.00131 21.6055 6.62241 21.0039 6.01694C20.2422 5.22006 19.3906 5.21616 19 5.16928C16.2031 4.96616 12.0039 4.96616 12.0039 4.96616H11.9961C11.9961 4.96616 7.79688 4.96616 5 5.16928C4.60938 5.21616 3.75781 5.22006 2.99609 6.01694C2.39453 6.62241 2.20312 8.00131 2.20312 8.00131C2.20312 8.00131 2 9.62241 2 11.2396V12.7552C2 14.3724 2.19922 15.9935 2.19922 15.9935C2.19922 15.9935 2.39453 17.3724 2.99219 17.9779C3.75391 18.7748 4.75391 18.7474 5.19922 18.8333C6.80078 18.9857 12 19.0326 12 19.0326C12 19.0326 16.2031 19.0248 19 18.8255C19.3906 18.7787 20.2422 18.7748 21.0039 17.9779C21.6055 17.3724 21.8008 15.9935 21.8008 15.9935C21.8008 15.9935 22 14.3763 22 12.7552V11.2396C22 9.62241 21.8008 8.00131 21.8008 8.00131ZM9.93359 14.5951V8.97397L15.3359 11.7943L9.93359 14.5951Z" fill="black"/>
</svg>
