<svg width="64" height="64" viewBox="0 0 64 64" fill="none" xmlns="http://www.w3.org/2000/svg">
<g clip-path="url(#clip0_1154_21713)">
<rect width="64" height="64" rx="32" fill="white"/>
<path d="M-12 -1H76V65H-12V-1Z" fill="#00008B"/>
<path d="M-6.84375 -1L9.93125 11.4438L26.6375 -1H32V3.2625L15.5 15.5688L32 27.8063V32H26.5L10 19.6938L-6.43125 32H-12V27.875L4.43125 15.6375L-12 3.4V-1H-6.84375Z" fill="white"/>
<path d="M17.15 18.3188L32 29.25V32L13.3687 18.3188H17.15ZM4.5 19.6938L4.9125 22.1L-8.2875 32H-12L4.5 19.6938ZM32 -1V-0.79375L14.8813 12.1313L15.0188 9.10625L28.5625 -1H32ZM-12 -1L4.43125 11.1H0.306251L-12 1.8875V-1Z" fill="#FF0000"/>
<path d="M4.56875 -1V32H15.5688V-1H4.56875ZM-12 10V21H32V10H-12Z" fill="white"/>
<path d="M-12 12.2688V18.8687H32V12.2688H-12ZM6.76875 -1V32H13.3687V-1H6.76875Z" fill="#FF0000"/>
<path d="M60.4616 53.5465L57.6429 53.904L57.9454 56.7228L55.9104 54.7428L53.8891 56.7365L54.1641 53.9178L51.3454 53.5878L53.7241 52.0478L52.2254 49.6415L54.9204 50.5353L55.8691 47.854L56.8454 50.5215L59.5266 49.6003L58.0554 52.0203L60.4616 53.5465ZM59.9529 37.4315L60.3241 35.644L58.9766 34.4065L60.7916 34.2003L61.5479 32.5365L62.3041 34.2003L64.1191 34.4065L62.7716 35.644L63.1429 37.4315L61.5479 36.524L59.9529 37.4315ZM45.6391 29.1815L42.8479 29.484L43.0954 32.2753L41.1154 30.2815L39.0804 32.2203L39.4104 29.429L36.6329 29.0578L39.0116 27.5728L37.5679 25.1665L40.2216 26.1015L41.2116 23.4753L42.1329 26.129L44.8004 25.2628L43.3016 27.6415L45.6529 29.1815H45.6391ZM73.6616 24.6715L70.7879 25.0428L71.1041 27.9165L69.0279 25.8953L66.9654 27.9303L67.2541 25.0428L64.3804 24.7128L66.8141 23.1315L65.2879 20.6703L68.0379 21.5915L69.0004 18.869L69.9904 21.5915L72.7266 20.6428L71.2141 23.1178L73.6616 24.6715ZM60.4479 13.1903L57.6016 13.5065L57.8629 16.3665L55.8416 14.3315L53.7654 16.3115L54.0954 13.4653L51.2491 13.0803L53.6829 11.5678L52.2116 9.10652L54.9204 10.0553L55.9241 7.37402L56.8591 10.0828L59.5816 9.18902L58.0554 11.609L60.4479 13.1903ZM20.1741 52.034L13.8766 52.7765L14.5091 59.0878L9.99914 54.6328L5.46164 59.0603L6.13539 52.749L-0.162109 51.9515L5.18664 48.5415L1.88664 43.124L7.88164 45.1865L10.0541 39.219L12.1854 45.2003L18.1941 43.179L14.8529 48.569L20.1879 52.0203L20.1741 52.034Z" fill="white"/>
</g>
<defs>
<clipPath id="clip0_1154_21713">
<rect width="64" height="64" rx="32" fill="white"/>
</clipPath>
</defs>
</svg>
