<svg width="64" height="64" viewBox="0 0 64 64" fill="none" xmlns="http://www.w3.org/2000/svg">
<g clip-path="url(#clip0_1154_21729)">
<rect width="64" height="64" rx="32" fill="white"/>
<path d="M8.63875 -1H55.3475V65H8.625L8.63875 -1Z" fill="white"/>
<path d="M-14.709 -1H8.63852V65H-14.709V-1ZM55.3473 -1H78.6948V65H55.361L55.3473 -1ZM15.6373 30.9L13.8085 31.505L22.251 38.93C22.8973 40.8138 22.031 41.3775 21.481 42.3675L30.6385 41.2125L30.4185 50.425L32.3298 50.3838L31.9035 41.2263L41.0748 42.3263C40.511 41.13 40.0023 40.4975 40.5248 38.5863L48.9535 31.5737L47.4823 31.0238C46.2723 30.0887 48.0048 26.5413 48.2523 24.3C48.2523 24.3 43.3435 25.9913 43.0273 25.0975L41.7623 22.6913L37.2798 27.6138C36.7985 27.7375 36.5923 27.545 36.4685 27.1325L38.531 16.8475L35.2585 18.69C34.9835 18.8137 34.7085 18.7038 34.5435 18.3875L31.381 12.0625L28.136 18.635C27.8885 18.8688 27.641 18.8962 27.4485 18.7313L24.2998 16.985L26.1835 27.1737C26.0323 27.5863 25.6748 27.6963 25.2623 27.4763L20.9723 22.6225C20.4223 23.5163 20.0373 24.9738 19.2948 25.3038C18.5523 25.62 16.0635 24.685 14.3998 24.3413C14.9773 26.3763 16.7373 29.7863 15.6373 30.9Z" fill="#D52B1E"/>
</g>
<defs>
<clipPath id="clip0_1154_21729">
<rect width="64" height="64" rx="32" fill="white"/>
</clipPath>
</defs>
</svg>
