<svg width="64" height="64" viewBox="0 0 64 64" fill="none" xmlns="http://www.w3.org/2000/svg">
<g clip-path="url(#clip0_1154_21850)">
<path d="M1.99048 43.1304C6.51185 55.3159 18.2412 64 32.0001 64C45.759 64 57.4884 55.3159 62.0097 43.1304L32.0001 40.3479L1.99048 43.1304Z" fill="#FFDA44"/>
<path d="M32.0001 0C18.2412 0 6.51185 8.684 1.99048 20.8696L32.0001 23.6521L62.0097 20.8695C57.4884 8.684 45.759 0 32.0001 0Z" fill="black"/>
<path d="M1.99038 20.8696C0.704125 24.3363 0 28.0858 0 32C0 35.9143 0.704125 39.6638 1.99038 43.1304H62.0098C63.296 39.6638 64 35.9143 64 32C64 28.0858 63.296 24.3363 62.0096 20.8696H1.99038Z" fill="#D80027"/>
</g>
<defs>
<clipPath id="clip0_1154_21850">
<rect width="64" height="64" fill="white"/>
</clipPath>
</defs>
</svg>
