<svg width="64" height="64" viewBox="0 0 64 64" fill="none" xmlns="http://www.w3.org/2000/svg">
<g clip-path="url(#clip0_1154_21144)">
<path d="M32 64C49.6731 64 64 49.6731 64 32C64 14.3269 49.6731 0 32 0C14.3269 0 0 14.3269 0 32C0 49.6731 14.3269 64 32 64Z" fill="#F0F0F0"/>
<path d="M62.0096 43.1304C63.296 39.6638 64 35.9143 64 32C64 28.0858 63.296 24.3363 62.0096 20.8696H1.99038C0.704125 24.3363 0 28.0858 0 32C0 35.9143 0.704125 39.6638 1.99038 43.1304L32 45.913L62.0096 43.1304Z" fill="#0052B4"/>
<path d="M32.0001 64C45.759 64 57.4884 55.316 62.0097 43.1304H1.99048C6.51185 55.316 18.2412 64 32.0001 64Z" fill="#D80027"/>
</g>
<defs>
<clipPath id="clip0_1154_21144">
<rect width="64" height="64" fill="white"/>
</clipPath>
</defs>
</svg>
