<svg width="64" height="64" viewBox="0 0 64 64" fill="none" xmlns="http://www.w3.org/2000/svg">
<g clip-path="url(#clip0_1154_21833)">
<path d="M32 64C49.6731 64 64 49.6731 64 32C64 14.3269 49.6731 0 32 0C14.3269 0 0 14.3269 0 32C0 49.6731 14.3269 64 32 64Z" fill="#F0F0F0"/>
<path d="M6.61419 12.5178C4.10056 15.7882 2.20519 19.5576 1.10156 23.6524H17.7488L6.61419 12.5178Z" fill="#0052B4"/>
<path d="M62.8968 23.6526C61.7931 19.5578 59.8976 15.7884 57.3841 12.5181L46.2498 23.6526H62.8968Z" fill="#0052B4"/>
<path d="M1.10156 40.3481C2.20531 44.4429 4.10069 48.2123 6.61419 51.4825L17.7484 40.3481H1.10156Z" fill="#0052B4"/>
<path d="M51.4822 6.61529C48.2118 4.10166 44.4425 2.20629 40.3477 1.10254V17.7497L51.4822 6.61529Z" fill="#0052B4"/>
<path d="M12.5176 57.3852C15.788 59.8989 19.5573 61.7942 23.6521 62.898V46.251L12.5176 57.3852Z" fill="#0052B4"/>
<path d="M23.652 1.10254C19.5572 2.20629 15.7878 4.10166 12.5176 6.61516L23.652 17.7495V1.10254Z" fill="#0052B4"/>
<path d="M40.3477 62.898C44.4424 61.7942 48.2118 59.8988 51.482 57.3853L40.3477 46.251V62.898Z" fill="#0052B4"/>
<path d="M46.2498 40.3481L57.3841 51.4826C59.8976 48.2124 61.7931 44.4429 62.8968 40.3481H46.2498Z" fill="#0052B4"/>
<path d="M63.7291 27.8261H36.1741H36.174V0.270875C34.8076 0.093 33.4146 0 32 0C30.5851 0 29.1924 0.093 27.8261 0.270875V27.8259V27.826H0.270875C0.093 29.1924 0 30.5854 0 32C0 33.4149 0.093 34.8076 0.270875 36.1739H27.8259H27.826V63.7291C29.1924 63.907 30.5851 64 32 64C33.4146 64 34.8076 63.9071 36.1739 63.7291V36.1741V36.174H63.7291C63.907 34.8076 64 33.4149 64 32C64 30.5854 63.907 29.1924 63.7291 27.8261Z" fill="#D80027"/>
<path d="M40.3479 40.348L54.6274 54.6275C55.2842 53.971 55.9107 53.2847 56.5084 52.5732L44.2832 40.3479H40.3479V40.348Z" fill="#D80027"/>
<path d="M23.6527 40.3481H23.6524L9.37305 54.6275C10.0295 55.2843 10.7159 55.9108 11.4274 56.5085L23.6527 44.283V40.3481Z" fill="#D80027"/>
<path d="M23.6527 23.6524V23.6522L9.37319 9.37256C8.71644 10.0291 8.08994 10.7154 7.49219 11.4269L19.7176 23.6523L23.6527 23.6524Z" fill="#D80027"/>
<path d="M40.3479 23.6523L54.6275 9.37257C53.971 8.71582 53.2847 8.08932 52.5732 7.4917L40.3479 19.7171V23.6523Z" fill="#D80027"/>
</g>
<defs>
<clipPath id="clip0_1154_21833">
<rect width="64" height="64" fill="white"/>
</clipPath>
</defs>
</svg>
