<svg width="48" height="48" viewBox="0 0 48 48" fill="none" xmlns="http://www.w3.org/2000/svg">
<path d="M29.8462 5.35294C29.69 5.22368 29.5094 5.12716 29.3151 5.06912C29.1208 5.01109 28.9168 4.99272 28.7153 5.01511C28.5138 5.0375 28.3189 5.10019 28.1421 5.19946C27.9653 5.29873 27.8102 5.43254 27.6862 5.59294L22.1662 12.5769L4.1062 35.3409C4.4302 35.6049 4.7542 35.8809 5.0422 36.1809C5.54204 36.666 5.99597 37.1963 6.3982 37.7649L6.5182 37.9209C6.88888 38.4631 7.21016 39.0374 7.4782 39.6369C7.8262 40.3809 8.0782 41.1729 8.2582 41.9769C8.41323 42.639 8.78859 43.2288 9.32276 43.6496C9.85693 44.0704 10.5182 44.2972 11.1982 44.2929H46.4422C46.6454 44.293 46.8466 44.2524 47.0338 44.1736C47.2211 44.0948 47.3908 43.9793 47.5328 43.8339C47.6748 43.6886 47.7863 43.5163 47.8607 43.3272C47.9351 43.1381 47.971 42.9361 47.9662 42.7329C47.743 35.5787 46.0139 28.5519 42.8916 22.111C39.7694 15.6701 35.3243 9.9599 29.8462 5.35294Z" fill="#DF2C29"/>
<path d="M33.3622 26.3761C30.7711 21.1621 27.0885 16.5667 22.5643 12.9018C18.0402 9.23696 12.7804 6.58844 7.14219 5.13608C6.94196 5.08827 6.7342 5.08087 6.53107 5.11433C6.32795 5.14779 6.13354 5.22143 5.95922 5.33094C5.7849 5.44045 5.63418 5.58363 5.51586 5.75209C5.39755 5.92056 5.31403 6.11094 5.27019 6.31208L0.12219 30.4801C-0.0370238 31.1614 0.0430501 31.8769 0.348966 32.5062C0.654882 33.1355 1.16801 33.6404 1.80219 33.9361C3.01304 34.4874 4.11778 35.247 5.06619 36.1801L5.27019 36.3841C5.69019 36.8161 6.07419 37.2721 6.42219 37.7641L6.54219 37.9201C6.91287 38.4622 7.23415 39.0365 7.50219 39.6361L32.6302 28.4641C32.8179 28.3779 32.9865 28.255 33.126 28.1026C33.2654 27.9502 33.373 27.7715 33.4423 27.5769C33.5117 27.3823 33.5414 27.1758 33.5297 26.9696C33.518 26.7634 33.4651 26.5616 33.3742 26.3761H33.3622Z" fill="#E3E3E3"/>
<path d="M22.1517 12.5762L22.7157 13.0322C27.1696 16.6753 30.7978 21.2239 33.3597 26.3762C33.4506 26.5617 33.5035 26.7635 33.5152 26.9697C33.5269 27.1759 33.4972 27.3824 33.4279 27.577C33.3585 27.7716 33.251 27.9503 33.1115 28.1027C32.972 28.2551 32.8034 28.378 32.6157 28.4642L7.49972 39.6362C7.23169 39.0366 6.9104 38.4623 6.53972 37.9202L6.41972 37.7642L6.14372 37.4042C5.86772 37.0442 5.57972 36.7082 5.25572 36.3842C4.89889 36.0154 4.51805 35.6707 4.11572 35.3522L22.1517 12.5762Z" fill="#FFA2A0"/>
</svg>
