<svg width="64" height="64" viewBox="0 0 64 64" fill="none" xmlns="http://www.w3.org/2000/svg">
<rect width="64" height="64" rx="32" fill="white"/>
<g clip-path="url(#clip0_1154_21979)">
<path d="M30.3539 25.9673H18.8379V37.5871H30.3539V33.3188L28.5478 31.4964L30.3539 29.674V25.9673ZM27.5555 35.4452H21.6325V32.852H27.0814L27.5555 33.3304V35.4452ZM27.5555 29.6624L26.2235 31.0064H21.6325V28.1131H27.5555V29.6624Z" fill="#002761"/>
<path d="M44.1742 25.9673H32.6582V37.5871H44.1742V33.3188L42.3681 31.4964L44.1742 29.674V25.9673ZM41.3758 35.4452H35.4586V32.852H40.9113L41.3854 33.3304L41.3758 35.4452ZM41.3758 29.6624L40.0438 31.0064H35.4586V28.1111H41.3797L41.3758 29.6624Z" fill="#002761"/>
<path d="M4.44336 25.9673V37.5832H7.24366V32.8497H13.1648V37.5871H15.9593V25.9712L4.44336 25.9673ZM7.24366 31.0009V28.1124H13.1648V31.0047L7.24366 31.0009Z" fill="#002761"/>
<path d="M55.7713 30.0038V28.1124H49.8502V35.442H55.7713V32.8265H58.5688V37.5871H47.0527V25.9673H58.5688V30.0038H55.7713Z" fill="#002761"/>
</g>
<defs>
<clipPath id="clip0_1154_21979">
<rect width="54.1252" height="11.97" fill="white" transform="translate(4.44336 25.6172)"/>
</clipPath>
</defs>
</svg>
