<svg width="64" height="64" viewBox="0 0 64 64" fill="none" xmlns="http://www.w3.org/2000/svg">
<rect width="64" height="64" rx="32" fill="white"/>
<g clip-path="url(#clip0_1154_21871)">
<path d="M46.3144 27.8849L43.1169 24.6861L46.3144 21.4874L49.5132 24.6861L46.3144 27.8849ZM46.3194 18.6411L43.1207 15.4424L46.3207 12.2449L49.5182 15.4424L46.3194 18.6411ZM50.9394 23.2649L47.7394 20.0674L49.5182 18.2949L50.9382 16.8699L54.1369 20.0674L50.9394 23.2649Z" fill="#33B540"/>
<path d="M32.2237 47.0836C25.08 47.0836 20.4362 41.3361 20.4362 32.9186C20.4362 24.5011 25.3137 18.7486 32.3937 18.7486C37.59 18.7486 39.8987 21.3811 41.7012 23.2611L44.8937 20.0574C43.185 18.3136 39.7875 14.0461 32.2237 14.0461C22.8737 14.0461 14.865 21.0724 14.865 32.9774C14.865 44.8774 22.0625 51.9611 31.99 51.9611C39.3675 51.9611 43.3762 48.0499 44.9475 46.0436L41.6325 42.7236C40.1925 44.4074 37.12 47.0836 32.2237 47.0836Z" fill="#1D2953"/>
</g>
<defs>
<clipPath id="clip0_1154_21871">
<rect width="40" height="40" fill="white" transform="translate(14.24 12.24)"/>
</clipPath>
</defs>
</svg>
