<svg width="64" height="64" viewBox="0 0 64 64" fill="none" xmlns="http://www.w3.org/2000/svg">
<rect width="64" height="64" rx="32" fill="white"/>
<path d="M16.8077 45.5577C16.74 45.5577 16.6668 45.5635 16.5766 45.575C16.5202 45.5865 16.4864 45.5922 16.4413 45.6037L16.4075 45.6152L16.4131 45.6498C16.4131 45.6498 16.4188 45.667 16.4188 45.6785C16.4357 45.7418 16.4639 45.8338 16.4639 45.9949V46.5587C16.4639 46.8061 16.4357 46.8809 16.4131 46.9614L16.3962 47.0074C16.3962 47.0074 16.6724 46.9671 16.7513 46.9556C17.1571 46.8981 17.4446 46.576 17.4446 46.1905C17.4446 46.0352 17.3995 45.8914 17.3093 45.7821C17.1909 45.6325 17.0275 45.5635 16.8077 45.5577ZM16.7288 46.7543C16.7231 46.6795 16.7231 46.6162 16.7231 46.4954V45.9662C16.7231 45.9086 16.7231 45.8281 16.7288 45.7591C17.1289 45.7763 17.1627 46.0985 17.1627 46.1963C17.1571 46.5184 16.9317 46.6968 16.7288 46.7543ZM18.3858 45.4829L18.4027 45.4312L18.0138 45.4427L18.0307 45.4887C18.0589 45.5635 18.0814 45.6382 18.0814 45.7878V46.4206C18.0814 46.6335 18.0533 46.714 18.0307 46.7888L18.0138 46.8348L18.3971 46.8233L18.3858 46.7831C18.352 46.6507 18.3407 46.576 18.3407 46.4264V45.8166C18.3407 45.6267 18.3633 45.5577 18.3858 45.4829ZM19.7836 46.668C19.7667 46.668 19.7441 46.668 19.7272 46.6622C19.4116 46.6277 19.2707 46.3861 19.2763 46.156C19.2763 45.8914 19.4454 45.7073 19.6934 45.713C19.7103 45.713 19.7216 45.713 19.7441 45.713C19.8794 45.7245 19.9865 45.7821 20.071 45.8396L20.1217 45.8741V45.575L20.1048 45.5635C20.0428 45.5347 19.9527 45.4944 19.8118 45.4772C19.7836 45.4772 19.7554 45.4714 19.7272 45.4714C19.3721 45.4714 19.0058 45.7303 19.0058 46.1618C19.0058 46.2365 19.017 46.4206 19.1523 46.599C19.2763 46.7658 19.4623 46.8636 19.699 46.8866C19.7328 46.8866 19.7667 46.8924 19.7948 46.8924C19.9527 46.8924 20.0541 46.8463 20.1274 46.8176L20.1443 46.8118L20.1612 46.5242L20.1048 46.5587C20.0259 46.6047 19.9357 46.668 19.7836 46.668ZM20.9559 45.9086C21.001 45.9086 21.0404 45.9144 21.0743 45.9201V46.7485C21.0743 46.9096 21.0573 46.9959 21.0348 47.0649L21.0235 47.1052L21.3786 47.18L21.3673 47.1282C21.3448 47.0247 21.3335 46.9326 21.3335 46.8061V45.9719C21.4575 46.0007 21.5026 46.0237 21.6266 46.1042L21.6548 46.1215L21.6717 46.087C21.7055 46.0237 21.7393 45.9604 21.7619 45.9029L21.7788 45.8626L21.7337 45.8511C21.4068 45.7763 21.0743 45.7015 20.7474 45.6498H20.7192L20.6234 45.9431L20.6797 45.9316C20.8037 45.9144 20.8883 45.9086 20.9559 45.9086ZM22.3593 46.4667V46.9902C22.3593 47.3181 22.5284 47.5884 22.8102 47.6747C22.8891 47.7093 22.968 47.7265 23.0469 47.7265C23.1089 47.7265 23.1596 47.715 23.1991 47.7093C23.1991 47.7323 23.1935 47.7553 23.1878 47.7955V47.8301L23.2104 47.8416C23.2836 47.8703 23.3625 47.8876 23.4415 47.9221L23.4978 47.9509L23.4865 47.8818C23.4527 47.692 23.4527 47.6345 23.4527 47.5309V46.8176C23.4527 46.645 23.4696 46.6162 23.4865 46.576L23.4978 46.5472L23.4302 46.5184C23.3456 46.4839 23.2667 46.4494 23.1822 46.4149L23.1089 46.3861L23.1371 46.4609C23.1822 46.576 23.1822 46.714 23.1822 46.7716V47.2951C23.1822 47.3871 23.1822 47.4044 23.1709 47.4216C23.1484 47.4791 23.0807 47.5309 23.0018 47.5309C22.9737 47.5309 22.9455 47.5252 22.9117 47.5137C22.8384 47.4791 22.6975 47.3986 22.6298 47.2203C22.6129 47.1742 22.6073 47.1167 22.6073 47.0362V46.5587C22.6073 46.3804 22.6186 46.3401 22.6468 46.2653L22.658 46.2308L22.2804 46.0985L22.3029 46.1675C22.3199 46.225 22.3368 46.2826 22.3368 46.4724L22.3593 46.4667ZM24.1911 47.0477V47.8703C24.1911 48.0889 24.1572 48.1407 24.1347 48.1867L24.1178 48.227L24.1516 48.2385C24.2587 48.2845 24.3602 48.3133 24.456 48.3363L24.5236 48.3651L24.4954 48.3133C24.4503 48.1752 24.4447 48.0544 24.4447 48.0026V47.4504C24.5687 47.6575 24.6927 47.8703 24.8167 48.0947L24.8336 48.1062H24.8618C24.9914 47.9739 25.1154 47.8761 25.2338 47.761V48.3248C25.2338 48.4571 25.2169 48.5434 25.183 48.6067L25.1661 48.6412L25.1999 48.6585C25.3127 48.7102 25.4085 48.7505 25.5043 48.7908L25.5776 48.8253L25.5494 48.7563C25.4987 48.6067 25.493 48.5031 25.493 48.3823V47.7265C25.493 47.5597 25.5381 47.5194 25.5832 47.4791L25.6283 47.4504L25.5776 47.4331C25.493 47.3986 25.4028 47.3468 25.3296 47.3123L25.3014 47.3008L25.2845 47.3296C25.2507 47.3871 25.2338 47.3986 25.1999 47.4274C25.0929 47.5137 24.9858 47.6172 24.873 47.6977L24.8449 47.7265L24.7603 47.5942C24.6758 47.4446 24.5969 47.3066 24.5123 47.18C24.4447 47.0534 24.4221 47.0074 24.4052 46.9614L24.3996 46.9441L24.3883 46.9384C24.2812 46.8924 24.1798 46.8521 24.0953 46.8233L23.9994 46.7946L24.0558 46.8809C24.0953 46.9499 24.1403 47.0074 24.1798 47.0592H24.1911V47.0477ZM30.0696 48.7448H30.0471L30.0358 48.7563C30.002 48.808 29.9851 48.831 29.9456 48.8713C29.8216 49.0094 29.6976 49.1474 29.5849 49.2625C29.4778 49.1129 29.3651 48.9519 29.258 48.7793C29.1904 48.6872 29.1678 48.6355 29.1509 48.5722L29.1453 48.5607H29.1284C28.9311 48.5261 28.886 48.5146 28.7451 48.4744L28.8015 48.5434C28.8184 48.5607 28.8409 48.5894 28.8578 48.6182C28.8747 48.647 28.8973 48.6815 28.9198 48.7102V49.5271C28.9198 49.7285 28.886 49.8033 28.8635 49.855L28.8466 49.8896L28.886 49.9011C28.9875 49.9241 29.0945 49.9471 29.196 49.9701L29.258 49.9816L29.2355 49.9241C29.1847 49.7975 29.1847 49.6652 29.1847 49.6307V49.0727L29.5905 49.6652L29.6187 49.6364C29.7483 49.4926 29.8723 49.3603 29.9963 49.2165V49.7572C29.9963 49.8953 29.9794 49.9816 29.94 50.0679L29.9231 50.1082L30.3345 50.1657L30.312 50.1139C30.2612 49.9874 30.2556 49.8723 30.2556 49.763V49.1072C30.2556 48.9346 30.3007 48.8771 30.3514 48.8138L30.3965 48.7678C30.3965 48.7678 30.1485 48.739 30.0809 48.7332V48.7448H30.0696ZM31.0898 50.0506V49.6364C31.1968 49.6537 31.2588 49.6767 31.3716 49.7112C31.4561 49.5847 31.4674 49.5501 31.5294 49.4581C31.5294 49.4581 31.2194 49.4408 31.0954 49.4351V49.0324C31.2081 49.0381 31.2814 49.0612 31.411 49.1359L31.4392 49.1474C31.535 48.9403 31.5125 49.0036 31.5745 48.8598C31.225 48.8483 30.8587 48.808 30.7685 48.8023L30.7854 48.8541C30.8136 48.9519 30.8305 49.0727 30.8305 49.1877V49.8378C30.8305 50.0104 30.8023 50.0967 30.7798 50.1657L30.7685 50.2002H30.8136C31.0278 50.2232 31.2476 50.2405 31.5012 50.2462H31.5237L31.659 49.9413L31.5857 49.9586C31.3152 50.0449 31.2307 50.0334 31.0898 50.0276V50.0506ZM32.093 49.2165V49.74C32.093 50.0679 32.2621 50.2808 32.5326 50.2808C32.5383 50.2808 32.5439 50.2808 32.5552 50.2808C32.713 50.2808 32.8482 50.206 32.9384 50.1484C32.9384 50.1657 32.9384 50.183 32.9328 50.206V50.2462L33.2371 50.2175L33.2315 50.183C33.1977 50.0104 33.1977 49.9298 33.1977 49.8435V49.1417C33.1977 48.9691 33.2146 48.9346 33.2315 48.8713L33.254 48.8138C33.0906 48.8253 33.1413 48.8253 32.8708 48.8483L32.8933 48.9001C32.9384 48.9921 32.9384 49.1302 32.9384 49.1877V49.7112C32.9384 49.7975 32.9328 49.8148 32.9272 49.8378C32.899 49.9413 32.7919 50.0564 32.6566 50.0621H32.651C32.6341 50.0621 32.4593 50.0564 32.3917 49.8838C32.3748 49.8378 32.3692 49.7918 32.3692 49.7112V49.228C32.3692 49.0381 32.3804 48.9979 32.4086 48.9231L32.4255 48.8713C32.3072 48.8771 32.2734 48.8771 32.0535 48.8828L32.0705 48.9403C32.0874 48.9921 32.1043 49.0324 32.1043 49.2222L32.093 49.2165ZM33.7951 48.9576V49.7688C33.7951 49.9643 33.7613 50.0506 33.7388 50.1197L33.7162 50.1714C33.9473 50.1427 34.0206 50.1312 34.1277 50.1139L34.1108 50.0679C34.06 49.9586 34.06 49.832 34.06 49.7918V49.2107C34.1953 49.3603 34.3193 49.4984 34.4433 49.6307L34.4715 49.6594C34.4715 49.6594 34.7251 49.2798 34.866 49.0669V49.5904C34.866 49.7227 34.8491 49.8263 34.8096 49.9183L34.7871 49.9759C34.928 49.9471 35.114 49.9068 35.1985 49.8838L35.1816 49.8493C35.1309 49.7342 35.1309 49.6134 35.1309 49.5271V48.8713C35.1309 48.693 35.176 48.6182 35.2267 48.5434L35.2774 48.4744L35.1929 48.4974C35.1084 48.5146 35.0294 48.5319 34.9393 48.5492H34.9224L34.9167 48.5607C34.8829 48.6354 34.866 48.67 34.8322 48.7217L34.8265 48.7275C34.7138 48.8828 34.6631 48.9634 34.4602 49.251C34.3475 49.1359 34.2347 49.0036 34.1333 48.8943C34.0657 48.808 34.0488 48.7793 34.0262 48.739L34.0149 48.7217H33.9868C33.8008 48.7505 33.7444 48.7505 33.6204 48.7678L33.6711 48.8138C33.7106 48.8713 33.75 48.9173 33.7951 48.9576ZM38.9748 47.1685C38.9071 47.1685 38.8395 47.1857 38.7719 47.2088C38.7099 47.2318 38.5915 47.2663 38.5013 47.3066C38.4562 47.3238 38.3548 47.3756 38.3548 47.3756L38.3717 47.4101C38.3886 47.4446 38.4168 47.4849 38.4168 47.7208V48.273C38.4168 48.4801 38.383 48.6009 38.3604 48.7102L38.3435 48.785C38.4675 48.7448 38.4619 48.7448 38.7268 48.6297L38.7211 48.5952C38.6986 48.5089 38.6704 48.3478 38.6704 48.2558V48.1292C38.9917 48.0199 39.3186 47.7495 39.3186 47.4619C39.3186 47.2835 39.1777 47.1685 38.9748 47.1685ZM38.6704 47.9221V47.5539C38.6704 47.5137 38.6761 47.4676 38.6761 47.4389C38.8282 47.3641 38.9128 47.3468 38.9804 47.4044C39.0255 47.4389 39.048 47.4791 39.048 47.5539C39.048 47.738 38.7944 47.9049 38.6704 47.9221ZM42.3847 46.9671V46.8751L42.3283 46.9441C42.2607 47.0132 42.1649 47.1225 41.9789 47.18C41.9281 47.1973 41.883 47.203 41.8436 47.203C41.652 47.203 41.5223 47.0534 41.4998 46.8406C41.4716 46.5587 41.652 46.2941 41.9169 46.2193C41.9676 46.2078 42.0183 46.202 42.069 46.202C42.131 46.202 42.1705 46.2078 42.2945 46.2423L42.2663 45.9547C42.2156 45.9489 42.193 45.9489 42.1423 45.9489C42.0803 45.9489 42.0127 45.9604 41.9394 45.9777C41.714 46.0409 41.5223 46.179 41.3927 46.3746C41.2687 46.5529 41.2123 46.7658 41.2292 46.9499C41.2518 47.2088 41.4209 47.4619 41.7478 47.4619C41.8211 47.4619 41.8943 47.4504 41.9789 47.4274C42.193 47.3583 42.3058 47.2663 42.3847 47.2145L42.3959 47.203C42.4016 47.203 42.3903 47.0362 42.3847 46.9671ZM42.9877 45.7648L42.8919 46.0985L42.9652 46.0582C43.1794 45.9431 43.2696 45.9144 43.3372 45.9029V46.7255C43.3372 46.8751 43.3203 46.9844 43.2977 47.0592L43.2865 47.1052C43.4668 47.0707 43.557 47.0649 43.6415 47.0534L43.6303 47.0189C43.6077 46.9269 43.5908 46.8233 43.5908 46.7083V45.8569C43.6359 45.8511 43.6697 45.8454 43.6979 45.8454C43.7543 45.8454 43.805 45.8569 43.8952 45.8799L43.9233 45.8856L44.053 45.5922C43.619 45.6383 43.371 45.6843 42.9877 45.7533V45.7648ZM45.7664 45.5635L45.7833 45.5174C45.6424 45.5174 45.5691 45.5174 45.4 45.5174L45.4226 45.5692C45.4677 45.6555 45.4677 45.7993 45.4677 45.8569V46.3804C45.4677 46.4609 45.4677 46.4782 45.4564 46.5069C45.4226 46.622 45.3042 46.7198 45.1859 46.7198H45.1802C45.1633 46.7198 44.9886 46.714 44.9153 46.5472C44.8984 46.5012 44.8928 46.4551 44.8928 46.3746V45.8914C44.8928 45.713 44.904 45.667 44.9379 45.5807L44.9548 45.5289C44.6166 45.552 44.6279 45.552 44.5771 45.5577L44.5941 45.6037C44.611 45.6555 44.6335 45.6958 44.6279 45.8914V46.4149C44.6279 46.7313 44.78 46.9499 45.09 46.9384C45.2535 46.9384 45.3888 46.8578 45.4733 46.8118L45.462 46.9096H45.772L45.7664 46.8636C45.7326 46.691 45.7326 46.6162 45.7326 46.5242V45.8166C45.7326 45.644 45.7438 45.6095 45.7664 45.5577V45.5635ZM46.3751 45.5347L46.2962 45.5289C46.3976 45.6555 46.3694 45.6152 46.4653 45.736V46.5587C46.4653 46.7715 46.4314 46.8463 46.4089 46.8924L46.392 46.9441L46.7978 46.9786L46.7809 46.9211C46.7302 46.8061 46.7302 46.6738 46.7302 46.6335V46.0697C46.8542 46.2365 47.1303 46.622 47.1303 46.622C47.1303 46.622 47.4065 46.3056 47.5249 46.156V46.6968C47.5249 46.8348 47.508 46.9269 47.4741 47.0132L47.4572 47.0477C47.6207 47.0707 47.7616 47.088 47.863 47.1052L47.8405 47.0534C47.7898 46.9154 47.7898 46.7946 47.7898 46.7025V46.0467C47.7898 45.8684 47.8349 45.8223 47.8799 45.7706L47.925 45.7245L47.5925 45.667L47.5812 45.6843C47.5418 45.7533 47.5305 45.7706 47.4911 45.8108L47.136 46.2193C47.0345 46.0755 46.9274 45.9259 46.8091 45.7648C46.7414 45.6728 46.7245 45.6325 46.702 45.5807L46.6964 45.5635C46.6964 45.5577 46.4765 45.5405 46.3751 45.5347ZM40.7164 47.3928C40.6487 47.2835 40.5811 47.1973 40.5078 47.0822C40.3951 46.9269 40.1584 46.5817 40.1584 46.5817L40.1302 46.5932H40.1133C40.1133 46.5932 39.8484 47.4101 39.7244 47.8186C39.6398 48.0832 39.6117 48.135 39.5722 48.1982L39.5271 48.296C39.9386 48.0832 39.8484 48.158 39.9555 48.1119L39.9498 48.0832C39.9386 48.0026 39.9555 47.9049 39.9724 47.8531L40.5135 47.6172C40.5698 47.6977 40.5811 47.7553 40.5867 47.8128V47.8646C40.6825 47.8243 40.8911 47.738 40.9925 47.7035L40.9474 47.6862C40.8967 47.6402 40.8291 47.5712 40.7107 47.4044L40.7164 47.3928ZM40.0457 47.5884L40.0851 47.4561C40.1133 47.3641 40.1358 47.272 40.164 47.1973C40.1753 47.1685 40.1809 47.1397 40.1922 47.1052C40.2147 47.1512 40.2429 47.1915 40.2655 47.2318C40.288 47.2663 40.3162 47.3008 40.3387 47.3411L40.3951 47.4389L40.0457 47.5884ZM28.4069 37.2852C28.4238 37.4003 28.4464 37.5556 28.4689 37.6764C28.4182 37.7282 28.39 37.803 28.39 37.8835C28.39 38.0561 28.5253 38.1941 28.6944 38.1941C28.8635 38.1941 28.9987 38.0561 28.9987 37.8892C28.9987 37.8087 28.9706 37.7339 28.9198 37.6821C28.9367 37.5613 28.9649 37.4118 28.9818 37.291C29.1847 37.2622 29.3764 37.2047 29.5454 37.1241V36.5546C29.3369 36.6697 29.1847 36.7272 28.9987 36.7502V35.8125C28.9987 35.3868 28.9424 34.8115 28.7 34.6849C28.4633 34.8115 28.3957 35.3868 28.3957 35.8125V36.7502C28.2097 36.7272 28.0519 36.6697 27.8433 36.5546V37.1241C28.0068 37.2047 28.204 37.2622 28.4069 37.2852ZM28.824 33.0396C29.3707 33.0281 29.7991 32.9476 29.7991 32.8441L29.7765 32.798C29.6807 32.7117 29.2974 32.6485 28.824 32.637V33.0396ZM28.7169 31.0262C28.8409 31.0262 28.9367 30.9284 28.9367 30.8018C28.9367 30.6753 28.8409 30.5775 28.7169 30.5775C28.5929 30.5775 28.4971 30.6753 28.4971 30.8018C28.4971 30.9226 28.5929 31.0262 28.7169 31.0262ZM28.6042 31.2966C28.6042 31.2966 28.5929 31.2966 28.5929 31.2908L27.8208 32.5219C28.0349 32.4644 28.3055 32.4356 28.6042 32.4299V31.2966ZM28.6042 33.0396V32.637C28.142 32.6427 27.7588 32.706 27.6517 32.7923L27.6235 32.8383C27.6235 32.9419 28.0519 33.0281 28.6042 33.0396ZM35.4296 31.3081V32.4471C35.7283 32.4529 35.9989 32.4759 36.213 32.5392L35.4465 31.3081C35.4465 31.3023 35.4353 31.3023 35.4296 31.3081ZM28.8296 31.2966V32.4356C29.1227 32.4414 29.3989 32.4644 29.6131 32.5277L28.8409 31.2908C28.8409 31.2908 28.8353 31.2908 28.8296 31.2966ZM35.4296 33.0454C35.982 33.0339 36.4047 32.9534 36.4047 32.8498L36.3821 32.8038C36.2863 32.7175 35.8974 32.6542 35.4296 32.6427V33.0454ZM34.2291 32.8441C34.2291 32.9476 34.6631 33.0339 35.2098 33.0454V32.6427C34.7476 32.6485 34.3644 32.7117 34.2573 32.798L34.2291 32.8441ZM35.3169 31.0319C35.4409 31.0319 35.5367 30.9341 35.5367 30.8076C35.5367 30.681 35.4409 30.5832 35.3225 30.5832C35.1985 30.5832 35.1027 30.681 35.1027 30.8076C35.1027 30.9341 35.1985 31.0319 35.3169 31.0319ZM34.4207 32.5334C34.6349 32.4759 34.9055 32.4471 35.2042 32.4414V31.3023C35.2042 31.3023 35.1985 31.3023 35.1929 31.2966L34.4207 32.5334ZM30.5938 15.0219C31.4279 14.625 32.8595 14.694 33.5415 15.0334L33.9304 14.6077L34.3306 13.3364C33.998 13.2213 33.6542 13.135 33.3048 13.0832L33.1751 13.6643C33.0117 13.6355 32.8426 13.6125 32.6679 13.6067V13.0142C32.2734 12.9912 31.8788 12.9969 31.5068 13.0257V13.6182C31.3152 13.6355 31.1292 13.6528 30.9601 13.6758L30.8305 13.1005C30.4529 13.158 30.1147 13.2328 29.8273 13.3133L30.2274 14.602L30.605 15.0219H30.5938ZM19.885 22.1209C22.2297 22.1266 21.7731 19.8543 23.0187 19.8543C23.5711 19.8543 24.6251 20.7172 25.0365 22.1554C23.5598 21.1659 21.852 22.4373 21.7337 23.2829C24.2418 22.443 26.1017 24.1458 26.4343 24.4738C27.0993 25.1238 26.7837 27.3214 25.617 27.586C26.8908 28.2591 28.1251 27.632 28.824 26.7403C29.0044 26.9129 29.2524 27.028 29.5173 27.0568C29.7427 27.2639 29.9174 27.5572 29.9231 28.1268C29.6018 28.2303 29.3256 28.564 29.5173 28.9667C29.7202 29.4269 30.4754 29.8238 30.8587 29.8238C31.8225 29.8238 32.1212 29.5017 32.9215 29.076C33.812 28.5985 34.8265 28.5582 35.3958 28.6733C35.1027 28.4432 34.8829 28.0175 34.7533 27.5572C34.6349 27.1028 34.6124 26.6195 34.6631 26.2399C34.8885 26.9647 36.3652 28.5582 38.1575 27.6148C36.9908 27.3444 36.7541 25.2101 37.2952 24.4507C37.6108 24.0078 38.383 23.3635 39.3017 23.4613C39.6229 23.4958 39.9498 23.864 39.7977 24.3184C40.1922 24.1631 41.0151 23.5821 41.0207 22.7652C41.0264 21.9425 39.9611 21.0854 39.0706 21.4996C39.482 20.0671 40.4402 20.0499 40.9925 20.0499C42.069 20.0499 41.5674 22.1669 43.9177 22.1726C45.1408 22.1726 46.3413 20.4698 45.8227 19.2157C45.5184 19.7507 44.8195 20.0614 44.1206 19.9808C44.4531 19.0604 44.2333 17.254 43.3372 17.162C43.3879 17.8408 42.4918 18.836 41.2856 18.9108C40.7445 18.3298 39.9329 18.0824 39.4933 18.0767C38.9241 18.0767 37.887 18.8935 38.0223 20.441C37.8306 19.814 36.6752 19.6184 36.3314 19.8888C37.0472 20.3605 37.1994 24.2839 35.734 24.2839C35.362 24.2839 34.9844 24.1746 34.4996 23.6108C34.7702 23.6396 35.052 23.5533 35.1196 23.0931C35.1478 22.8975 35.1084 22.7364 35.0238 22.6098C35.0689 22.5983 35.114 22.5811 35.1534 22.5523H35.1647L35.4578 22.351C35.5874 22.2647 35.6832 22.1036 35.7283 21.9138C35.8636 21.7354 35.8636 21.4133 35.8185 21.1659C35.9087 20.5446 35.5423 20.0671 35.1422 20.0671C35.0914 20.0671 35.0407 20.0729 34.99 20.0844C34.8547 20.0729 34.6744 20.0499 34.494 19.9693C34.4771 19.8945 34.4489 19.8255 34.4207 19.7507C34.4884 19.7565 34.5504 19.7622 34.5955 19.7622C35.0182 19.7622 35.8411 19.4113 35.8411 18.5886C35.8411 18.3355 35.7678 18.1284 35.6156 17.9673C35.7283 17.7718 35.5987 17.3691 35.3451 17.1792C35.0971 16.9894 34.7645 16.834 34.37 16.9894C34.3418 16.9146 34.2911 16.811 34.2404 16.7478C34.06 16.5407 33.8064 16.4946 33.564 16.6269L33.5077 16.6557L33.3386 15.252L33.3499 15.2405C32.7637 14.9932 31.5688 14.9011 30.7854 15.229L30.8023 15.252L30.6783 16.2185C30.5938 16.276 30.5543 16.3508 30.5543 16.3508C30.5205 16.0632 30.6558 16.0344 30.6558 16.0344C30.3007 15.7698 30.0527 16.0632 30.0527 16.0632C29.7878 15.8848 29.8498 15.6605 29.8498 15.6605C29.5511 15.695 29.5116 15.9136 29.5116 15.9136C28.9987 15.5339 28.8466 16.161 28.8466 16.161C28.8466 16.161 28.9086 16.1897 28.9818 16.23C28.8916 16.2012 28.7789 16.207 28.6549 16.2818C28.6549 16.2818 28.8578 16.4601 28.824 16.6787L28.8015 16.6615C28.7338 16.6039 28.5986 16.5292 28.5986 16.5292C28.5986 16.5292 28.2717 16.3566 28.2773 16.6327C28.2829 16.9088 28.3506 17.2425 28.3506 17.2425C28.2942 17.2943 28.2604 17.3173 28.0857 17.3978C28.018 17.3691 27.9448 17.3518 27.8659 17.3518C27.787 17.3518 27.6742 17.3633 27.601 17.3978C27.5277 17.4208 27.4544 17.4899 27.3642 17.5819C27.4319 17.6049 27.4601 17.6337 27.4713 17.6567C27.3022 17.6855 27.1952 17.766 27.1444 17.8408C26.9584 18.0364 26.9077 18.3815 27.0035 18.6174C27.0486 18.5541 27.1332 18.4678 27.1952 18.4448C27.2008 18.5944 27.2402 18.7382 27.3304 18.8648C27.415 18.9798 27.5277 19.0546 27.6573 19.0719C27.708 19.3768 27.8433 19.8543 27.9729 20.0268C28.0913 20.1879 28.1758 20.2627 28.3337 20.3432C28.4971 20.4238 28.4746 20.4123 28.6324 20.5619C28.7 20.6251 28.7902 20.6999 28.8973 20.6999C29.01 20.6999 29.072 20.6251 29.1058 20.5619C29.1791 20.6597 29.2693 20.7459 29.3764 20.8092C29.3764 20.8783 29.3764 20.9358 29.382 20.9876C29.382 20.9933 29.382 20.9991 29.382 21.0106C29.3256 21.0681 29.2693 21.1429 29.2129 21.2177C29.1284 21.327 29.0382 21.4478 28.948 21.5168C28.8973 21.5053 28.8522 21.4996 28.8015 21.4996C28.6887 21.4996 28.4858 21.5341 28.328 21.7642C28.08 21.8102 27.8997 22.0173 27.8884 22.2819C27.8771 22.4603 27.9335 22.6329 28.0237 22.7307C28.0519 22.7594 28.08 22.7824 28.1139 22.7997C28.204 22.932 28.3618 23.0298 28.5197 23.0356C28.5197 23.0413 28.5197 23.0471 28.5253 23.0528C28.6437 23.4843 29.0156 23.5993 29.3707 23.5936C29.2016 24.1976 29.5342 24.6406 29.8949 24.7441C30.0189 24.2954 30.5656 23.6799 31.039 23.5993C30.791 23.8697 30.4641 24.3012 30.4303 24.7614C32.0141 24.6924 33.2315 24.1458 34.0262 23.4843C34.0995 23.5763 34.1615 23.6511 34.2291 23.7201C34.8265 24.4853 35.3169 24.5543 35.734 24.5485C36.0609 24.5485 36.3878 24.537 36.771 24.3817L36.8668 24.3472L36.8105 24.4392C36.4779 24.957 36.4272 26.6023 37.143 27.3674L37.1937 27.4249H37.1148C36.2356 27.4249 34.6969 26.2801 34.6011 25.0835C34.4207 25.2964 34.1953 26.1708 34.2066 26.7001V26.7979L34.1502 26.7173C33.3893 25.7164 33.6429 24.5255 33.9248 23.9502C32.2903 25.1238 28.5535 26.0845 28.9536 23.9445C28.6493 24.1746 28.3506 24.6578 28.3506 25.1181C28.3506 26.1823 29.9062 26.5735 32.9891 25.3252C32.4199 25.7796 31.5519 26.2916 30.5938 26.4585C30.8699 27.0222 30.9376 28.1325 30.8192 28.7423C30.7347 28.4029 30.5543 26.9877 29.9569 26.516C29.4947 26.516 29.0269 26.4239 28.5647 26.1881L28.5535 26.1823V26.1881C28.1984 26.8727 27.3473 27.3559 26.6597 27.3559C27.3755 26.5965 27.353 24.9282 27.0092 24.3875C27.3022 24.5025 27.6348 24.56 27.9617 24.56H28.0575C28.1138 24.56 28.1702 24.56 28.2266 24.56C28.2717 24.4105 28.3337 24.2724 28.4182 24.1458C28.2435 24.1804 28.0857 24.1804 27.9673 24.1804C26.4568 24.1804 26.5301 20.6021 27.6122 20.4295C27.3868 19.8485 26.2201 19.4401 25.989 21.0969C26.1243 19.5494 25.5099 18.0364 24.3263 18.0364C23.8867 18.0364 23.0807 18.2838 22.534 18.8648C21.3279 18.7842 20.4374 17.7833 20.4881 17.1044C19.5919 17.1907 19.3665 18.9971 19.699 19.9175C19.0001 19.9923 18.3013 19.6759 17.9969 19.1409C17.4784 20.3893 18.6676 22.1036 19.8907 22.1036L19.885 22.1209ZM43.2414 18.3298C43.3992 18.1457 43.5175 17.9501 43.6021 17.7602C43.6077 17.7718 43.6134 17.7775 43.6246 17.789C43.9177 18.2665 43.9853 19.2387 43.7712 19.8313L43.6021 20.2972L44.0868 20.3548C44.1713 20.3663 44.2559 20.3663 44.3404 20.3663C44.7857 20.3663 45.214 20.2339 45.5635 20.0096C45.5297 20.303 45.4169 20.6136 45.2253 20.9128C44.8815 21.4363 44.3742 21.7699 43.9233 21.7699C42.751 21.7699 42.4636 21.2062 42.1592 20.6136C42.0127 20.326 41.7929 19.6759 41.466 19.2732C42.148 19.1927 42.8017 18.8418 43.247 18.3298H43.2414ZM31.7154 15.9136C31.7154 15.7238 31.8394 15.4304 32.0705 15.4304C32.3015 15.4304 32.4255 15.7238 32.4255 15.9194V16.3796H31.7154V15.9136ZM32.6679 17.2252C32.6679 17.2252 32.6792 17.2252 32.6904 17.2252C33.0511 17.231 33.2371 17.3748 33.5077 17.3748C34.0037 17.3748 33.7782 16.8456 33.6542 16.7938C34.0657 16.5752 34.3024 17.1102 34.2009 17.2713C34.8322 16.811 35.5367 17.5071 35.4973 17.8523C35.3451 17.7085 35.0633 17.6222 34.9111 17.6452C34.6293 17.6797 34.556 17.8926 34.1277 17.7545C34.0318 17.7257 33.9924 17.7142 33.8346 17.6394C33.8571 17.6509 33.9078 17.7545 33.9698 17.8235C34.0206 17.8811 34.0938 17.9213 34.2009 17.9156C34.0206 18.0824 33.8064 18.0767 33.6542 18.0306C33.3048 17.9328 33.3048 17.7027 32.9553 17.6394C32.6284 17.5819 32.1043 17.5992 32.1043 17.9328C32.1043 18.1399 32.3184 18.232 32.6397 18.232C32.8257 18.232 33.1075 18.1227 33.2822 18.0536C33.3555 18.1112 33.4513 18.1687 33.5979 18.2147C33.626 18.2205 33.6599 18.232 33.7049 18.2377C33.6993 18.2377 33.6993 18.2435 33.6937 18.2435C33.3104 18.37 33.0906 18.6634 32.465 18.6634C32.0423 18.6634 31.6252 18.4161 31.6308 17.9616C31.6365 17.5071 32.1606 17.2252 32.6679 17.2252ZM34.5278 18.4678C34.5673 18.4161 34.6349 18.3815 34.7082 18.3815C34.8998 18.3815 34.9731 18.5714 34.9731 18.6289C34.9731 18.8073 34.7589 19.0201 34.2235 19.0201C34.1558 19.0201 34.0882 19.0144 34.0149 19.0086C33.9417 18.9971 33.8628 18.9856 33.7782 18.9741L33.7444 18.7095C33.8346 18.8475 34.0375 19.0259 34.494 18.9051C34.4376 18.6692 34.4827 18.5311 34.5278 18.4678ZM28.452 16.6442C28.5084 16.6097 28.7 16.6845 28.8804 16.8225C28.9311 16.7478 28.9311 16.673 28.9311 16.673C28.948 16.4601 28.8578 16.3623 28.8578 16.3623C28.8578 16.3623 29.01 16.3336 29.1735 16.4544C29.2185 16.4831 29.2918 16.5694 29.2918 16.5694C29.2918 16.5694 29.3087 16.4831 29.2749 16.3221C29.2411 16.1552 29.0833 16.0689 29.0156 16.0689C29.0156 16.0689 29.1396 15.7698 29.4384 16.0114C29.506 16.0689 29.6356 16.3105 29.6356 16.3105C29.6356 16.3105 29.6018 16.0574 29.6751 15.9309C29.7258 15.8446 29.7596 15.8331 29.7596 15.8331C29.7596 15.8331 29.754 15.9539 29.8498 16.0804C29.9456 16.207 30.0921 16.2588 30.0921 16.2588C30.0921 16.2588 30.1485 16.0459 30.3176 16.0402C30.4247 16.0344 30.481 16.0919 30.481 16.0919C30.481 16.0919 30.374 16.253 30.5149 16.5579C30.5149 16.5579 30.7234 16.2243 30.9094 16.253C30.9094 16.253 30.8023 16.3105 30.8136 16.5809L30.8192 16.7305V16.7765C30.9827 16.7478 31.1348 16.765 31.2081 16.8225C31.2025 16.8743 31.163 17.1044 31.101 17.162L30.5092 17.7027C30.5092 17.7027 30.622 17.9386 30.4529 18.1112C30.3796 18.1572 30.1485 18.255 29.9682 17.9789C29.9569 17.9616 29.94 17.9386 29.9287 17.9271C29.9456 17.9271 30.0189 17.9271 30.0527 17.8523C30.0865 17.766 30.2049 17.7545 30.2049 17.7545L30.0752 17.6797C30.0752 17.6797 29.9738 17.8005 29.8836 17.8005H29.7089C29.6187 17.8005 29.5173 17.674 29.5173 17.674L29.3933 17.7487C29.3933 17.7487 29.5454 17.7602 29.5849 17.8465C29.6187 17.9213 29.7033 17.9156 29.7033 17.9156L29.6751 17.9558C29.5285 18.1687 29.3594 18.2607 29.1453 18.1227C28.948 17.9501 29.072 17.6797 29.072 17.6797L28.6887 17.3518C28.3618 17.0642 28.4182 16.6787 28.4464 16.6327V16.6442H28.452ZM29.7991 18.7095C30.1091 18.7095 30.1091 18.2665 30.126 18.2147L30.1598 18.232C30.188 18.2435 30.25 18.2492 30.2894 18.2435C30.1147 18.3988 30.2161 18.5369 30.0245 18.7037C30.0245 18.7037 30.0189 18.7095 30.0132 18.7095C29.94 18.7612 29.8723 18.7842 29.7934 18.7842C29.7427 18.7842 29.6863 18.7727 29.6469 18.7555C29.4553 18.698 29.4778 18.4046 29.2636 18.2722C29.3313 18.278 29.3933 18.2722 29.4271 18.2665L29.4553 18.255C29.4609 18.2607 29.4891 18.7095 29.7991 18.7095ZM29.7991 18.2953C29.8498 18.301 30.0358 18.3125 29.9963 18.4506C29.9456 18.6289 29.7991 18.6174 29.7991 18.6174C29.7991 18.6174 29.6469 18.6289 29.5962 18.4506C29.5567 18.301 29.7596 18.301 29.7991 18.2953ZM28.142 17.6279C28.142 17.72 28.0631 17.835 27.9617 17.7948V17.7718C27.9448 17.6855 27.7813 17.5704 27.7137 17.5589C27.8997 17.4784 28.0744 17.5531 28.142 17.6279ZM27.7982 17.8235C27.8489 17.8753 27.8489 17.9156 27.8208 17.9501C27.77 18.0076 27.7137 18.0191 27.6573 18.0134C27.601 17.9213 27.4544 17.8753 27.2966 17.9213C27.4206 17.7142 27.6742 17.743 27.7982 17.8235ZM27.1275 18.278C27.1726 17.9961 27.4488 18.0249 27.5897 18.0997C27.6348 18.1457 27.6291 18.209 27.5953 18.2492C27.5784 18.2722 27.4826 18.2953 27.4093 18.2665C27.3361 18.2147 27.2121 18.2205 27.1275 18.278ZM28.9818 20.441C28.948 20.5158 28.9142 20.5791 28.7564 20.4295C28.5986 20.28 28.6042 20.2742 28.4126 20.1764C28.2886 20.1189 28.2209 20.0614 28.1195 19.9175C28.204 19.9463 28.2491 19.9348 28.3337 19.8945C28.1984 19.8945 27.9842 19.6932 27.9053 19.5206C27.9617 19.5494 28.018 19.5379 28.0744 19.5206C27.8659 19.3825 27.8602 19.1467 27.7982 18.9108C27.4488 18.8418 27.3586 18.5541 27.3755 18.3758C27.5108 18.3931 27.6517 18.3643 27.6968 18.2895C27.725 18.2377 27.725 18.1572 27.7024 18.0997C27.849 18.1169 27.9335 18.0249 27.956 17.9156C28.0575 17.9673 28.2209 17.9386 28.266 17.7027C28.2998 17.7372 28.3224 17.789 28.3449 17.8523C28.2604 18.0134 28.1082 18.232 28.0124 18.347L28.1251 18.4678C28.1533 18.5024 28.1928 18.5254 28.2378 18.5426C28.1364 18.7612 28.1702 19.3193 28.5027 19.6126C28.5535 19.8255 28.6606 20.2282 29.0213 20.3548V20.3605C28.9987 20.395 28.9875 20.4238 28.9818 20.441ZM29.3651 20.5734C29.3651 20.5734 29.3482 20.5619 29.3425 20.5561C29.0269 20.2455 29.072 19.7335 29.3031 19.4343C29.0438 19.5206 28.9536 19.8485 28.9649 20.1649C28.4013 19.4631 28.8522 19.0029 29.0551 18.813C28.8522 18.836 28.638 19.1179 28.5253 19.348C28.2773 18.9108 28.3844 18.5426 28.6493 18.3355C28.4746 18.4046 28.3055 18.3931 28.2604 18.3413C28.2604 18.3413 28.5309 18.0076 28.5704 17.789C28.5704 17.789 28.576 17.7775 28.5873 17.674V17.6567C28.4408 17.674 28.3618 17.5704 28.3168 17.4726C28.3449 17.4611 28.3675 17.4496 28.3844 17.4381C28.4746 17.4036 28.5647 17.3806 28.6098 17.4323L28.8635 17.789C28.8635 17.789 28.8184 18.0997 29.1115 18.232C29.196 18.3068 29.3144 18.4391 29.3538 18.5886C29.4214 18.8418 29.6413 18.9396 29.7653 18.9396C29.9343 18.9396 30.1203 18.8475 30.188 18.5944C30.2274 18.4391 30.3401 18.3068 30.4247 18.232C30.7347 18.0997 30.6896 17.7833 30.6896 17.7833L30.977 17.4208C30.9996 17.4036 31.0278 17.4093 31.0616 17.4323C31.1461 17.5474 31.2138 17.5877 31.3096 17.6509C31.2532 17.743 31.1236 17.7487 30.977 17.7142C30.9996 17.8983 31.0841 18.1917 31.1687 18.37L31.1743 18.3815C31.1743 18.3873 31.1799 18.3931 31.1856 18.3988C31.2025 18.4333 31.2363 18.4909 31.2758 18.5254C31.2307 18.5599 31.1067 18.5599 30.9714 18.5081H30.977C31.039 18.5656 31.0898 18.6404 31.1236 18.7555C31.2025 19.0489 31.0954 19.4631 30.9376 19.6587C30.9432 19.4343 30.8981 19.0949 30.6445 18.9798C30.9658 19.4343 30.6107 20.1534 30.1372 20.2455C30.2105 20.1189 30.4134 19.6932 30.0865 19.2675C30.543 20.0844 29.4891 20.1764 29.754 20.815C29.6074 20.7632 29.5398 20.7172 29.5173 20.6999C29.3087 20.0499 29.6525 19.371 29.6525 19.371C29.6525 19.371 29.1453 19.9348 29.3651 20.5734ZM28.1702 22.6041C28.1138 22.5466 28.0744 22.4143 28.08 22.2934C28.0913 22.0863 28.2491 21.9425 28.4464 21.954C28.5929 21.6664 28.8296 21.6664 28.9762 21.7354C29.2411 21.6089 29.4271 21.2062 29.5849 21.0969C29.5849 21.0393 29.5793 20.9646 29.5736 20.884C29.7089 20.9358 29.8442 20.9588 29.94 20.9645C29.8103 20.6309 29.9062 20.5331 30.0076 20.372C30.3345 20.4295 30.6107 20.2397 30.7629 20.0441C31.1067 19.8255 31.3096 19.3825 31.3547 19.0374C32.1606 18.8648 33.2879 19.1006 33.9868 19.1984C34.7758 19.3077 35.1591 18.9741 35.1591 18.6347C35.1591 18.4333 34.9731 18.1917 34.7025 18.1917C34.432 18.1917 34.2178 18.4276 34.2967 18.767C33.8064 18.767 33.7782 18.3988 33.9642 18.2435C34.0769 18.2262 34.2009 18.1687 34.3193 18.0651L34.4151 17.9789C34.6067 17.9673 34.7589 17.9041 34.8829 17.8408C35.2943 17.9156 35.6382 18.1169 35.6382 18.6002C35.6382 19.2962 34.9055 19.5839 34.5842 19.5839C34.4602 19.5839 34.1897 19.5666 33.9022 19.4055C34.1164 19.5436 34.2686 19.86 34.3193 20.1246C34.5786 20.257 34.8322 20.28 34.9956 20.2972C35.4014 20.1649 35.61 20.6366 35.6438 20.861C35.5874 20.7805 35.3958 20.7057 35.2831 20.7114C35.5705 20.8783 35.6945 21.2062 35.6776 21.5283C35.6325 21.4248 35.5142 21.2867 35.4127 21.2982C35.6607 21.6031 35.548 22.0633 35.3451 22.2014C35.3507 22.0863 35.3282 21.9425 35.2887 21.8447C35.3338 22.0748 35.0914 22.5408 34.8322 22.4373C34.6293 22.3395 34.4602 22.3049 34.2798 22.2877C34.2742 22.2877 34.2686 22.2877 34.2629 22.2877C34.1953 22.2819 34.1277 22.2877 34.0938 22.3855C34.0093 22.2647 34.0657 22.0806 34.1333 21.9713C34.1277 21.9425 34.1277 21.9195 34.1277 21.885C34.1446 21.7469 34.2911 21.5974 34.3813 21.5974C34.5504 21.5974 34.5842 21.8505 34.8491 21.8505C34.9055 21.8505 34.9393 21.839 34.9787 21.6204C35.0069 21.4593 34.99 21.3903 34.9393 21.2464C34.8322 21.1084 34.8153 20.9473 34.8096 20.815C34.4884 20.8898 33.7782 20.8495 33.5415 20.769H33.5359C33.4288 20.5964 33.3217 20.1131 33.0793 19.906C32.7468 20.326 32.9272 20.7114 33.1864 21.0623C33.2541 21.0796 33.378 21.35 33.0962 21.442C33.0962 21.4305 33.0906 21.419 33.085 21.4133C33.0681 21.396 33.0342 21.3903 33.0004 21.396C32.9102 21.4018 32.7919 21.465 32.7806 21.5974C32.7355 21.5859 32.6961 21.5859 32.6566 21.5916C32.4424 21.6261 32.4199 21.8447 32.2621 21.9598H32.2564C32.1888 21.9483 32.1212 21.9483 32.0479 21.9425C31.7436 21.9195 31.5801 21.9828 31.4336 22.0691C31.2194 21.931 30.9376 21.9368 30.7065 21.9943C30.7234 21.816 30.8756 21.4535 31.0559 21.4535C31.2194 21.4535 31.5181 21.5686 31.5801 21.5628H31.5857C31.8563 21.5341 31.7492 21.465 32.0761 21.1486C32.2114 21.0163 32.3692 20.907 32.4988 20.9013C32.0535 20.8898 31.9746 20.5101 31.9746 20.303C31.9746 20.0326 32.3015 19.7104 32.4819 19.6414C32.4312 19.6299 32.3748 19.6184 32.3297 19.6184C31.9972 19.6126 31.8168 19.906 31.721 20.0729C31.7097 20.0901 31.6928 20.1131 31.6703 20.1304C31.6139 20.1879 31.5125 20.2455 31.3941 20.3087C31.2307 20.395 31.0278 20.4813 30.8023 20.5906C30.7967 20.5906 30.7967 20.5849 30.791 20.5849C30.7854 20.6712 30.7741 20.7575 30.7459 20.8265C30.7178 20.9013 30.6783 20.9588 30.622 21.0048C30.605 20.9645 30.5543 20.8322 30.4698 20.7805C30.5994 21.1544 30.3571 21.5571 30.1541 21.6779C30.1936 21.6146 30.1992 21.4133 30.1316 21.304C30.1147 21.4305 30.0696 21.5628 30.002 21.6721C29.8554 21.9253 29.6187 22.0748 29.4947 22.1324C29.4214 22.2474 29.2805 22.4085 29.1453 22.4085C29.2129 22.2187 29.072 22.0748 28.948 22.0461C28.8409 22.0173 28.7056 22.0978 28.6718 22.2647C28.5535 22.1209 28.4126 22.2129 28.4069 22.3452C28.3957 22.3165 28.2942 22.2589 28.2322 22.2877C28.1533 22.3222 28.1082 22.4373 28.1533 22.6041H28.1702ZM34.0206 21.0278C34.122 21.0336 34.2235 21.0393 34.3137 21.0393C34.4038 21.0393 34.5222 21.0393 34.6406 21.0278C34.6575 21.1256 34.6969 21.2349 34.7645 21.3327C34.7984 21.4305 34.804 21.4708 34.7871 21.5801C34.7815 21.6031 34.7758 21.6204 34.7758 21.6376C34.7476 21.6261 34.7251 21.5974 34.6856 21.5628C34.6236 21.4938 34.5278 21.396 34.3757 21.396C34.2629 21.396 34.1558 21.465 34.0826 21.5456L34.0206 21.0278ZM28.5478 22.8457C28.4408 22.8515 28.3111 22.7767 28.2435 22.6386C28.1984 22.5408 28.2322 22.4143 28.2773 22.397C28.3337 22.3797 28.3844 22.4085 28.4126 22.466C28.4182 22.5753 28.4746 22.7249 28.5197 22.7997C28.5309 22.8285 28.5422 22.84 28.5478 22.8457ZM28.4802 22.4373C28.4802 22.3625 28.5309 22.328 28.5591 22.3222C28.6042 22.3107 28.6493 22.3395 28.6831 22.4027V22.4085C28.6831 22.4085 28.6887 22.42 28.6944 22.4258C28.6718 22.5926 28.7056 22.7191 28.7338 22.7824C28.5817 22.7709 28.4971 22.5926 28.4802 22.4373ZM28.7676 22.2762C28.7846 22.1784 28.9198 22.1669 28.9649 22.1899C29.0044 22.2072 29.0889 22.2704 29.072 22.3682C29.0325 22.443 29.0382 22.4545 29.0269 22.4775C29.0213 22.5063 29.0156 22.5293 29.01 22.5523C28.9987 22.5868 28.9987 22.6674 29.0213 22.7019C28.9142 22.6904 28.7451 22.466 28.7676 22.2762ZM29.8385 23.2139C29.5116 23.3577 28.9142 23.2254 28.8466 22.9147C28.8747 22.8917 28.8973 22.8687 28.9029 22.8515C29.0269 22.9205 29.1171 22.8572 29.196 22.84C29.1678 22.7652 29.1565 22.6616 29.196 22.5983C29.2129 22.5983 29.2298 22.5868 29.2467 22.5868C29.5623 22.7134 29.94 23.1506 29.94 23.1506L29.8385 23.2139ZM30.8699 23.1621C30.7121 23.2772 30.3345 23.1966 30.1316 22.8917C29.9287 22.5926 29.6976 22.4775 29.6976 22.4775C29.6976 22.4775 29.7202 22.4488 29.7483 22.4258C29.8554 22.3452 29.9512 22.3049 30.1429 22.3337C30.3571 22.3625 30.5938 22.6846 30.7065 22.8285C30.8192 22.9723 30.9432 23.0988 30.9432 23.0988L30.8699 23.1621ZM31.8112 23.0586C31.659 23.1679 31.2983 23.0873 31.101 22.8054C30.9038 22.5178 30.6896 22.4085 30.6896 22.4085C30.6896 22.4085 30.7065 22.3797 30.7403 22.3567C30.7967 22.3107 30.853 22.2819 30.9263 22.2704C31.0221 22.2877 31.1348 22.3049 31.2363 22.3165C31.4054 22.4143 31.5688 22.6329 31.659 22.7479C31.7661 22.886 31.8901 23.0068 31.8901 23.0068L31.8112 23.0586ZM32.7581 23.1161C32.5946 23.2081 32.2452 23.0931 32.0761 22.7882C31.907 22.4833 31.7041 22.351 31.7041 22.351C31.7041 22.351 31.7266 22.3222 31.7605 22.3049H31.7661C31.8675 22.2934 31.969 22.2704 32.0705 22.2417C32.093 22.2474 32.1155 22.2474 32.1437 22.2532C32.3466 22.2992 32.5383 22.6271 32.6341 22.7767C32.7242 22.9262 32.8426 23.0528 32.8426 23.0528L32.7581 23.1161ZM33.7106 23.2427C33.5415 23.3174 33.2146 23.1679 33.085 22.8515C32.9553 22.5351 32.7693 22.3855 32.7693 22.3855C32.7693 22.3855 32.7975 22.3625 32.8257 22.3452C32.9384 22.2934 33.0342 22.2762 33.2033 22.3337C33.395 22.4027 33.5528 22.7422 33.626 22.8975C33.6993 23.0528 33.7951 23.1909 33.7951 23.1909L33.7106 23.2427ZM34.1277 23.0873C34.0262 22.9665 33.7895 22.5926 33.7895 22.5926C33.7895 22.5926 33.936 22.5638 34.0995 22.5581C34.0995 22.5581 34.5898 22.5638 34.7645 22.886V22.8917C34.7927 22.9608 34.7927 23.0471 34.7589 23.1621C34.6631 23.5245 34.2291 23.2081 34.1277 23.0873ZM18.2505 19.9693C18.5943 20.1994 19.0227 20.326 19.4736 20.326C19.5581 20.326 19.6483 20.3202 19.7272 20.3145L20.2119 20.2627L20.0428 19.7967C19.8287 19.2042 19.9019 18.2262 20.195 17.7545C20.2006 17.743 20.2063 17.7372 20.2119 17.7257C20.2965 17.9213 20.4148 18.1169 20.567 18.301C21.0123 18.8188 21.6604 19.1697 22.348 19.2502C22.0211 19.6529 21.8013 20.303 21.6491 20.5849C21.3392 21.1774 21.0517 21.7354 19.885 21.7354C19.4341 21.7354 18.9212 21.396 18.5831 20.8725C18.3914 20.5734 18.2787 20.2627 18.2505 19.9693ZM30.3063 17.277L30.5374 17.1735H30.0471V17.5071L30.0921 17.4496C30.0978 17.4553 30.3063 17.4784 30.3063 17.277ZM29.5116 17.4554L29.5567 17.5129V17.1792H29.0664L29.2974 17.2828C29.3031 17.4784 29.5116 17.4554 29.5116 17.4554ZM28.5027 16.7593C28.5197 17.2137 28.7395 17.0239 28.8409 17.1505C28.8635 17.0354 28.8353 16.7535 28.5027 16.7593ZM31.1574 16.8801C30.8474 16.7938 30.7459 17.0527 30.7459 17.1677C30.8925 17.0412 31.0616 17.2483 31.1574 16.8801ZM26.4174 28.3511C26.4174 28.3511 26.1074 28.3454 25.7072 28.4834C25.3127 28.6215 25.1041 28.7826 24.9407 28.8804C24.7829 28.9782 24.6814 29.0587 24.6814 29.0587C24.6814 29.0587 25.0196 29.4211 25.2281 29.7548C25.2281 29.7548 25.2845 29.5477 25.617 29.3751V28.8171L28.0913 28.8229C27.9448 28.6848 27.787 28.541 27.7362 28.5065C27.6235 28.4374 27.663 28.4202 27.3586 28.4087C27.0655 28.3856 26.4174 28.3511 26.4174 28.3511ZM25.6001 37.2277C25.6001 37.2277 25.6452 37.0206 25.5325 36.94C25.5325 36.94 25.369 36.8422 25.2394 37.0493C25.0421 37.36 24.6701 37.4578 24.6701 37.4578C24.6701 37.4578 25.1436 37.7684 25.5607 37.3255C25.5607 37.3255 25.5888 37.3025 25.6001 37.2277ZM23.5091 35.1279C23.278 35.3062 23.4358 35.9621 23.4471 35.9908C23.4584 36.0196 23.4809 36.0886 23.4809 36.0886C23.4809 36.0886 23.4978 35.8125 23.7345 35.6111C23.7345 35.6111 23.8473 35.4903 23.8473 35.335C23.8473 35.1797 23.7233 34.9611 23.5091 35.1279ZM26.3103 37.5844C26.3948 37.4175 26.2539 37.1759 26.0059 37.291C25.9326 37.3255 25.8988 37.337 25.8706 37.4003C25.8256 37.4981 25.8368 37.7052 25.5888 37.941C25.5888 37.9468 26.0623 38.0676 26.3103 37.5844ZM26.3666 38.3034L26.4174 38.2862C26.4174 38.2862 25.8876 37.8202 25.3747 38.4012C25.3747 38.4012 25.2676 38.5163 25.3408 38.6026C25.4085 38.6889 25.493 38.7694 25.6847 38.8212C25.6847 38.8212 25.7523 38.8442 25.7692 38.8097C25.7805 38.7694 25.9214 38.453 26.3666 38.3034ZM27.4826 39.362C27.4826 39.362 27.0373 38.8097 26.3948 39.2296C26.3948 39.2296 26.2652 39.2987 26.299 39.4195C26.3385 39.5691 26.5357 39.8164 26.6315 39.7186C26.8964 39.4367 27.2346 39.3274 27.4826 39.362ZM26.5752 41.0475C26.6315 41.0303 26.9472 40.9555 27.4262 41.1166L27.4713 41.1338C27.4713 41.1338 27.2008 40.5183 26.6879 40.5643C26.6879 40.5643 26.5977 40.57 26.5583 40.6793C26.5188 40.7887 26.5019 40.898 26.5075 41.0245C26.5075 41.0245 26.5075 41.0705 26.5752 41.0475ZM20.1499 43.5327C20.1499 43.5327 19.9921 43.4062 19.8963 43.642C19.8005 43.8837 19.8681 43.9239 19.9357 43.9354C20.0034 43.9527 20.4317 44.0677 20.6065 44.2806L20.6515 44.3324C20.6515 44.3381 20.6628 43.9124 20.1499 43.5327ZM19.8005 43.9814C19.5694 43.9124 19.6258 44.5107 19.7723 44.5567C19.8625 44.5855 20.1443 44.6545 20.3472 44.9192L20.3923 44.9767C20.3979 44.9767 20.4036 44.1655 19.8005 43.9814ZM19.4059 45.4657L19.4341 45.5059C19.4341 45.5059 19.4398 44.7121 19.0847 44.5165C18.724 44.3209 18.6 44.5912 18.6282 44.7236C18.6451 44.8098 18.7127 44.9767 18.9156 45.0802C19.1185 45.178 19.2989 45.3391 19.4059 45.4657ZM22.6129 25.492C21.7111 25.2791 21.4857 25.9637 21.4857 25.9637L21.5646 25.9292C22.0606 25.7509 22.4382 25.8774 22.7482 25.958C23.0582 26.0443 23.2329 26.004 23.2329 26.004C23.9262 25.8372 23.5993 25.0835 23.5993 25.0835C23.5993 25.0835 23.5091 25.6991 22.6129 25.492ZM20.2514 29.9734L20.1161 29.8238C20.2514 29.6915 20.3866 29.5707 20.5219 29.4499L20.6459 29.611L20.753 29.5247L20.6234 29.3579C20.9672 29.0645 21.3166 28.8056 21.6661 28.587L21.7731 28.7711L21.8859 28.702L21.7788 28.518C21.9817 28.3914 22.1846 28.2821 22.3875 28.19L22.3311 28.0635C22.224 28.1153 22.117 28.167 22.0155 28.2246L21.8971 28.0175L21.7844 28.0865L21.8971 28.2936C21.7281 28.3856 21.5646 28.4892 21.3899 28.6043L21.2659 28.4202L21.1532 28.4949L21.2772 28.679C21.125 28.7883 20.9728 28.8976 20.8206 29.0185L20.691 28.8459L20.5839 28.9322L20.7135 29.1105C20.5614 29.2371 20.4092 29.3636 20.2626 29.5017L20.0992 29.3233L20.0034 29.4154L20.1668 29.5937C20.0428 29.7088 19.9188 29.8353 19.7948 29.9619L19.6652 29.8296L19.5694 29.9274L19.699 30.0597C19.6483 30.1115 19.6032 30.1575 19.5525 30.215L19.6483 30.3071C19.7723 30.1748 19.885 30.054 20.0147 29.9274L20.1499 30.077L20.2514 29.9734ZM38.817 29.7778C39.0311 29.4442 39.3693 29.0817 39.3693 29.0817C39.3693 29.0817 39.2679 29.0012 39.11 28.9034C38.9522 28.8056 38.7437 28.6445 38.3492 28.5065C37.9546 28.3684 37.639 28.3741 37.639 28.3741C37.639 28.3741 36.9908 28.4087 36.6921 28.4202C36.3878 28.4317 36.4272 28.4489 36.3145 28.518C36.2638 28.5525 36.106 28.6905 35.9594 28.8344H38.4281V29.3924C38.755 29.5707 38.8113 29.7778 38.817 29.7778ZM38.4619 37.3485C38.8733 37.7914 39.3524 37.4808 39.3524 37.4808C39.3524 37.4808 38.986 37.383 38.7888 37.0666C38.6592 36.8595 38.4957 36.9573 38.4957 36.9573C38.383 37.0321 38.4281 37.2449 38.4281 37.2449C38.445 37.3255 38.4675 37.3485 38.4619 37.3485ZM40.5473 36.1174C40.5473 36.1174 40.5755 36.0484 40.5811 36.0196C40.5867 35.9908 40.7502 35.335 40.5247 35.1567C40.3049 34.9841 40.1809 35.1969 40.1809 35.358C40.1809 35.5191 40.2936 35.6342 40.2936 35.6342C40.5304 35.8413 40.5473 36.1231 40.5473 36.1174ZM38.4281 37.9698C38.1744 37.7224 38.1913 37.5153 38.1519 37.429C38.1237 37.3657 38.0843 37.3485 38.0166 37.314C37.9039 37.2622 37.8194 37.3025 37.8194 37.3025C37.6108 37.4118 37.7123 37.6131 37.7123 37.6131C37.9603 38.0906 38.4281 37.9698 38.4281 37.9698ZM38.3323 38.8442C38.5182 38.7982 38.6028 38.7176 38.6761 38.6314C38.7437 38.5451 38.6422 38.43 38.6422 38.43C38.135 37.849 37.5995 38.315 37.5995 38.315L37.6503 38.3322C38.0955 38.4818 38.2421 38.8039 38.2533 38.8327C38.2703 38.8672 38.3379 38.8442 38.3323 38.8442ZM37.3854 39.7359C37.4305 39.7877 37.4812 39.7474 37.4812 39.7474C37.5939 39.6784 37.6841 39.5633 37.7179 39.4367C37.7517 39.3102 37.6221 39.2469 37.6221 39.2469C36.9796 38.827 36.5343 39.3792 36.5343 39.3792L36.5794 39.3735C37.0472 39.3562 37.3403 39.6841 37.3854 39.7359ZM37.3234 40.5873C36.8105 40.5413 36.5399 41.1511 36.5399 41.1511L36.585 41.1338C37.0641 40.9727 37.3741 41.0475 37.4361 41.0705C37.4981 41.0878 37.4981 41.0475 37.4981 41.0475C37.5094 40.921 37.4868 40.8117 37.453 40.7024C37.4136 40.5873 37.3234 40.5816 37.3234 40.5873ZM44.1093 43.6938C44.0135 43.4522 43.8557 43.5788 43.8557 43.5788C43.3428 43.9584 43.3485 44.3841 43.3485 44.3841L43.3935 44.3324C43.5683 44.1195 44.0023 44.0045 44.0643 43.9872C44.1319 43.9757 44.1995 43.9354 44.1093 43.6938ZM44.2052 44.0275C43.6021 44.2173 43.6021 45.0227 43.6021 45.0227L43.6472 44.9652C43.8557 44.6948 44.1375 44.6315 44.2277 44.6027C44.3799 44.5567 44.4306 43.9584 44.2052 44.0275ZM45.09 45.132C45.2986 45.0285 45.3606 44.8674 45.3775 44.7753C45.4057 44.643 45.2817 44.3726 44.921 44.5625C44.5602 44.7581 44.5659 45.552 44.5659 45.552L44.5941 45.5117C44.7011 45.3909 44.8871 45.2298 45.09 45.132ZM40.8291 26.0443C40.8291 26.0443 41.0038 26.0788 41.3138 25.9982C41.6238 25.9177 42.0014 25.7911 42.4974 25.9695L42.5763 26.004C42.5763 26.004 42.3565 25.3252 41.4547 25.5265C40.5529 25.7336 40.4684 25.1181 40.4684 25.1181C40.4684 25.1181 40.1358 25.8774 40.8291 26.0443ZM44.3968 30.3416L44.4926 30.2495C44.4419 30.1978 44.3968 30.146 44.3461 30.0942L44.4757 29.9619L44.3799 29.8641L44.2502 29.9964C44.1262 29.8699 44.0023 29.7433 43.8783 29.6282L44.0417 29.4499L43.9459 29.3579L43.7824 29.5362C43.6359 29.3981 43.4837 29.2658 43.3315 29.145L43.4668 28.9667L43.3597 28.8804L43.2301 29.053C43.0779 28.9322 42.9257 28.8171 42.7736 28.7136L42.8976 28.5295L42.7848 28.4547L42.6608 28.6388C42.4918 28.5237 42.3283 28.4202 42.1592 28.3281L42.2719 28.1268L42.1592 28.0577L42.0409 28.2648C41.9338 28.2073 41.8267 28.1555 41.7252 28.1038L41.6689 28.2303C41.8718 28.3281 42.0747 28.4374 42.2776 28.564L42.1705 28.7481L42.2832 28.8171L42.3903 28.633C42.7397 28.8516 43.0892 29.1162 43.433 29.4096L43.3034 29.5765L43.4105 29.6628L43.5345 29.5017C43.6697 29.6225 43.805 29.7491 43.9403 29.8756L43.805 30.0252L43.9008 30.1172L44.0361 29.9677C44.1601 30.0885 44.2784 30.215 44.3968 30.3473V30.3416ZM52 34.9496C51.6224 35.1279 51.4082 34.4836 50.9855 34.2477C50.7939 34.1384 50.574 34.0924 50.3317 34.0924C50.3317 34.0924 49.5708 34.0694 49.0805 34.6792C49.0805 34.6792 48.5507 35.312 48.7536 36.1577C48.7536 36.1577 48.8381 36.6581 49.2045 37.4923C49.2045 37.4923 49.5144 38.2344 49.4975 38.8557C49.4863 39.477 49.3228 40.0408 48.7874 40.1328C48.7874 40.1328 48.3703 40.2076 47.9589 39.5863C47.9589 39.5863 47.5305 38.8902 47.2994 38.0216C47.2994 38.0216 46.9838 36.7272 46.7584 36.2497C46.7584 36.2497 46.5836 35.8528 46.4709 35.6802C46.4709 35.6802 46.1835 35.6629 45.9355 35.5421C45.6875 35.4155 45.5691 35.289 45.5691 35.289C45.5691 35.289 45.4902 35.6572 45.1802 35.893C45.1802 35.893 44.1037 35.5766 44.3348 34.4548C44.3348 34.4548 44.3855 35.3408 45.1577 35.5939C45.1577 35.5939 45.3944 35.2257 45.4677 34.8403C45.4677 34.8403 45.8904 35.4213 46.5498 35.4846C46.5498 35.4846 46.7584 35.2315 46.7584 34.6849C46.7584 34.6849 47.2262 35.0014 47.8461 34.8748C47.8461 34.8748 48.0716 34.4778 47.8856 33.684C47.8856 33.684 48.4492 33.8565 48.979 33.5747C48.979 33.5747 49.1875 33.4711 49.2946 33.3445C49.2946 33.3445 49.2101 33.218 48.9846 32.9764C48.7592 32.7348 48.5901 32.5794 48.4323 32.4874C48.4323 32.4874 49.1875 32.7175 49.8019 32.5449C50.4162 32.3666 50.698 31.8316 50.7262 31.728C50.7262 31.728 49.9033 31.6532 49.1706 31.2045C49.1706 31.2045 50.2979 31.0952 51.0813 29.9964C51.0813 29.9964 51.4082 29.5189 51.5209 29.1565C51.5209 29.1565 50.698 29.3866 49.7793 29.2313C49.7793 29.2313 51.6336 28.8574 51.5773 27.1545C51.5773 27.1545 51.2898 27.517 50.3373 27.6263C50.3373 27.6263 51.9098 25.8659 51.1489 24.445C51.1489 24.445 51.0869 25.2676 50.1344 26.0443C50.1344 26.0443 50.822 24.5025 50.3824 23.0643C50.3824 23.0643 50.2359 22.5236 49.9484 22.2244C49.9484 22.2244 49.9597 22.7767 49.6835 23.4555C49.4074 24.1343 49.0579 24.6578 49.0185 24.7211C49.0185 24.7211 49.0917 23.8064 48.8325 23.2254C48.8325 23.2254 48.7197 22.909 48.3872 22.7076C48.3872 22.7076 48.483 24.6406 46.9049 27.1776C46.9049 27.1776 46.2624 28.2188 46.1778 28.5295C46.0933 28.8459 45.9918 29.2486 46.3413 29.9389C46.6907 30.6292 45.9411 31.3541 45.6649 31.4691C45.3888 31.5842 44.611 31.9236 44.2221 30.9456C44.2221 30.9456 44.2164 30.9284 44.2108 30.9054L44.2333 30.9341L45.3775 29.8238C45.2309 29.6052 45.1239 29.4729 44.9322 29.2601C45.1633 28.7768 45.1971 28.3684 45.1971 28.3684C45.1971 28.3684 45.3042 28.6848 45.5409 28.8516C45.5409 28.8516 45.8227 28.3684 45.7269 27.6493C45.7269 27.6493 45.6762 27.2178 45.5747 27.028C45.5747 27.028 45.8002 27.0798 45.9636 26.9532C45.9636 26.9532 45.8678 26.2111 45.648 25.8429C45.4282 25.4747 45.1069 25.3021 45.1069 25.3021C45.1069 25.3021 45.8002 25.3482 46.2624 24.7499C46.2624 24.7499 46.4765 24.4507 46.4709 24.2379C46.4709 24.2379 46.3075 24.3702 45.8791 24.3644C45.8791 24.3644 46.3864 24.2091 46.6344 23.7834C46.8823 23.3577 46.7865 22.8054 46.7471 22.7134C46.7471 22.7134 45.9016 23.7719 44.5941 23.9387C44.5941 23.9387 44.9379 23.8007 45.1295 23.6108C45.1295 23.6108 45.1182 22.6904 44.6166 22.512C44.6166 22.512 44.7124 22.7882 44.5208 23.1103C44.5208 23.1103 44.363 23.4037 43.9797 23.8352C43.9797 23.8352 43.8839 23.933 43.8557 24.0078C43.8557 24.0078 43.5006 24.002 43.3034 23.9618C43.1061 23.9215 42.8468 23.8064 42.6496 23.864C42.6496 23.864 42.4128 23.9272 42.3058 24.1689C42.3058 24.1689 41.59 23.8697 41.2574 24.422C41.0151 24.8304 41.2011 25.2619 41.2011 25.2619C41.2011 25.2619 41.2405 24.9742 41.6463 24.9167C41.6463 24.9167 41.9 24.8592 42.0803 25.0893C42.0803 25.0893 42.317 25.4517 42.5707 25.5495C42.7397 25.6186 42.9427 25.6416 43.1343 25.8026C43.1343 25.8026 43.3259 25.9465 43.4161 26.1075C43.4161 26.1075 43.4612 26.1766 43.4668 26.1938C43.4668 26.1938 43.2977 26.1363 42.9539 26.1938C42.6101 26.2514 42.565 26.2916 42.4241 26.3146C42.2832 26.3319 42.1198 26.3664 42.007 26.3261C42.007 26.3261 41.8323 26.2801 41.6632 26.119C41.6632 26.119 41.59 26.7116 42.0578 26.9244C42.0578 26.9244 42.3001 27.0625 42.7905 26.9302C42.7905 26.9302 43.0046 26.8669 43.0441 26.8439C43.0441 26.8439 43.4499 27.0222 43.681 27.0222C43.9177 27.0222 44.1319 26.9877 44.3348 26.7116C44.3348 26.7116 44.4813 26.493 44.4362 26.2571C44.4362 26.2571 44.4193 26.1306 44.4024 26.1075C44.4024 26.1075 44.6391 26.3492 44.4926 26.8266C44.4926 26.8266 44.3573 27.2984 43.7092 27.2639C43.7092 27.2639 43.5683 27.2581 43.3428 27.2063C43.3428 27.2063 42.8525 27.3732 42.3565 27.6263L42.5087 27.3099C42.255 27.1718 42.1141 27.0913 41.8098 26.9705L41.094 28.4547C40.9813 28.4834 40.7164 28.5525 40.5811 28.5985C40.4289 28.6503 39.6398 28.9494 39.2115 29.6052C39.2115 29.6052 39.5046 29.4959 39.8766 29.5765C39.8766 29.5765 38.9466 29.8181 38.7437 30.3934C38.5352 30.9686 38.8508 31.5209 38.8508 31.5209C38.8508 31.5209 38.9466 30.7385 39.5159 30.5717C39.5159 30.5717 38.9015 31.3598 39.3017 32.4759C39.3017 32.4759 39.6511 31.9754 40.4627 32.0444C40.4627 32.0444 39.8202 32.7002 39.4877 33.3791C39.1608 34.0579 38.569 34.4894 38.4619 34.6044C38.4168 34.6504 38.3153 34.754 38.2083 34.869L38.2195 29.0127L34.7871 29.0069C34.122 29.0012 33.5809 29.1738 33.2484 29.2946C32.8201 29.4499 32.5833 29.6858 31.9859 29.9677C31.3885 30.2495 30.8756 30.2035 30.8756 30.2035C29.9625 30.1172 29.5229 29.4039 29.5229 29.4039C29.5229 29.4039 29.3256 29.1162 29.2918 28.9954L25.8087 28.9897L25.7974 34.8518C25.6847 34.731 25.5832 34.6274 25.5437 34.5814C25.4367 34.4663 24.8505 34.0291 24.5236 33.3503C24.1967 32.6715 23.5542 32.0099 23.5542 32.0099C24.3658 31.9466 24.7152 32.4471 24.7152 32.4471C25.121 31.3311 24.5067 30.5429 24.5067 30.5429C25.0703 30.7098 25.1661 31.4921 25.1661 31.4921C25.1661 31.4921 25.4818 30.9399 25.2788 30.3646C25.0703 29.7893 24.146 29.542 24.146 29.542C24.518 29.4672 24.811 29.5765 24.811 29.5765C24.3827 28.9207 23.5993 28.6158 23.4415 28.564C23.3062 28.5122 23.0469 28.4489 22.9286 28.4144L22.2184 26.9244C21.9366 27.0395 21.807 27.1028 21.5139 27.2639L21.6661 27.5803C21.1701 27.3214 20.6797 27.1545 20.6797 27.1545C20.4543 27.2063 20.3134 27.2121 20.3134 27.2121C19.6708 27.2466 19.5299 26.7749 19.5299 26.7749C19.3834 26.2974 19.6201 26.0558 19.6201 26.0558C19.6088 26.0788 19.5863 26.2053 19.5863 26.2053C19.5412 26.4412 19.6878 26.6598 19.6878 26.6598C19.8907 26.9302 20.1048 26.9705 20.3416 26.9705C20.5726 26.9705 20.9841 26.7979 20.9841 26.7979C21.0235 26.8151 21.2377 26.8842 21.2377 26.8842C21.7281 27.0165 21.9704 26.8784 21.9704 26.8784C22.4326 26.6713 22.3649 26.0788 22.3649 26.0788C22.0719 26.3607 21.8408 26.3089 21.6041 26.2744C21.4913 26.2514 20.8544 26.0443 20.5614 26.1478C20.567 26.1306 20.6121 26.0615 20.6121 26.0615C20.8488 25.6588 21.3053 25.5668 21.4575 25.5092C21.7111 25.4115 21.9479 25.049 21.9479 25.049C22.1282 24.8189 22.3819 24.8764 22.3819 24.8764C22.7877 24.9397 22.8271 25.2274 22.8271 25.2274C22.8271 25.2274 23.0131 24.7959 22.7707 24.3875C22.4438 23.8352 21.7224 24.1343 21.7224 24.1343C21.621 23.8927 21.3786 23.8237 21.3786 23.8237C21.1813 23.7662 20.9221 23.8812 20.7248 23.9215C20.5275 23.9618 20.1725 23.9675 20.1725 23.9675C20.1443 23.8927 20.0485 23.7949 20.0485 23.7949C19.6652 23.3635 19.513 23.0701 19.513 23.0701C19.3214 22.7422 19.4172 22.4718 19.4172 22.4718C18.9212 22.6444 18.9043 23.5648 18.9043 23.5648C19.096 23.7547 19.4341 23.8985 19.4341 23.8985C18.1322 23.7259 17.2867 22.6674 17.2867 22.6674C17.2473 22.7652 17.1515 23.3117 17.3995 23.7374C17.6418 24.1631 18.1491 24.3184 18.1491 24.3184C17.7207 24.3184 17.5573 24.1919 17.5573 24.1919C17.546 24.4047 17.7658 24.7039 17.7658 24.7039C18.228 25.3022 18.9212 25.2619 18.9212 25.2619C18.9212 25.2619 18.5943 25.4345 18.3745 25.8026C18.1547 26.1708 18.0533 26.9129 18.0533 26.9129C18.2111 27.0395 18.4365 26.9877 18.4365 26.9877C18.3351 27.1833 18.2843 27.609 18.2843 27.609C18.1885 28.3281 18.4703 28.8114 18.4703 28.8114C18.7014 28.6445 18.8141 28.3281 18.8141 28.3281C18.8141 28.3281 18.848 28.7308 19.079 29.2198C18.8931 29.4269 18.7803 29.5535 18.6282 29.7836L19.7723 30.8996L19.7948 30.8708C19.7892 30.8939 19.7836 30.9111 19.7836 30.9111C19.3947 31.8833 18.6169 31.5439 18.3407 31.4289C18.0645 31.3138 17.3149 30.5832 17.67 29.8986C18.0194 29.2083 17.9236 28.8056 17.8391 28.4892C17.7545 28.1785 17.1233 27.1373 17.1233 27.1373C15.5564 24.5946 15.6579 22.6616 15.6579 22.6616C15.331 22.8572 15.2126 23.1794 15.2126 23.1794C14.9534 23.7604 15.021 24.6751 15.021 24.6751C14.9759 24.6118 14.6321 24.0883 14.3559 23.4095C14.0798 22.7307 14.1023 22.1784 14.1023 22.1784C13.8149 22.4718 13.6627 23.0183 13.6627 23.0183C13.2174 24.4507 13.8994 25.9982 13.8994 25.9982C12.9525 25.2216 12.8905 24.399 12.8905 24.399C12.124 25.8141 13.6965 27.5803 13.6965 27.5803C12.7383 27.471 12.4565 27.1028 12.4565 27.1028C12.3889 28.7998 14.2488 29.1853 14.2488 29.1853C13.3301 29.3406 12.5073 29.1047 12.5073 29.1047C12.62 29.4672 12.9412 29.9447 12.9412 29.9447C13.7247 31.0434 14.8519 31.1585 14.8519 31.1585C14.1136 31.6014 13.2907 31.6762 13.2907 31.6762C13.3245 31.774 13.6007 32.3148 14.215 32.4931C14.8294 32.6715 15.5846 32.4414 15.5846 32.4414C15.4268 32.5334 15.2577 32.6887 15.0323 32.9246C14.8068 33.1605 14.7223 33.287 14.7223 33.287C14.8294 33.4136 15.0323 33.5171 15.0323 33.5171C15.5621 33.8048 16.1257 33.6264 16.1257 33.6264C15.9341 34.4146 16.1595 34.8173 16.1595 34.8173C16.7795 34.9438 17.2473 34.6274 17.2473 34.6274C17.2473 35.1739 17.4558 35.4271 17.4558 35.4271C18.1096 35.3638 18.538 34.7885 18.538 34.7885C18.6112 35.1739 18.848 35.5364 18.848 35.5364C19.6201 35.2832 19.6765 34.3973 19.6765 34.3973C19.9019 35.5249 18.8254 35.8355 18.8254 35.8355C18.5154 35.5996 18.4365 35.2315 18.4365 35.2315C18.4365 35.2315 18.3182 35.358 18.0702 35.4788C17.8222 35.5996 17.5347 35.6169 17.5347 35.6169C17.4276 35.7895 17.2473 36.1864 17.2473 36.1864C17.0218 36.6582 16.7006 37.9583 16.7006 37.9583C16.4695 38.8212 16.0355 39.5173 16.0355 39.5173C15.6184 40.1386 15.2014 40.058 15.2014 40.058C14.6716 39.9602 14.5081 39.4022 14.4968 38.7752C14.4856 38.1539 14.7955 37.4118 14.7955 37.4118C15.1619 36.5776 15.2521 36.0771 15.2521 36.0771C15.4606 35.2315 14.9252 34.5987 14.9252 34.5987C14.4348 33.9946 13.6739 34.0061 13.6739 34.0061C13.4316 34.0061 13.2174 34.0521 13.0201 34.1614C12.5636 34.4146 12.3889 35.0416 12 34.8575C12.0451 34.9726 12.1522 35.0761 12.1522 35.0761C12.31 35.2315 12.5862 35.3062 12.5862 35.3062C12.5862 35.3062 12.5129 35.4271 12.4565 35.5709C12.4058 35.7147 12.4114 35.8585 12.4509 35.9563C12.5354 36.1864 12.7778 36.2094 12.682 36.5028C12.5862 36.7962 12.3551 36.8422 12.3551 36.8422C12.496 37.0263 12.7158 37.0551 12.7158 37.0551C12.7102 37.2104 12.7271 37.3773 12.7271 37.3773C12.8003 38.0273 13.1385 38.1539 13.1385 38.1539C13.1047 38.0446 13.1272 37.8432 13.1836 37.6706C13.24 37.4981 13.3865 37.0608 13.3865 37.0608C13.55 36.5834 13.5161 36.1001 13.5161 36.1001L13.5838 36.2324C13.7247 36.4971 13.7021 36.6697 13.7021 36.6697C14.0121 36.5316 14.0685 36.0829 14.0685 36.0829C14.1812 35.243 13.6909 35.0761 13.6909 35.0761C13.6909 34.9093 13.9445 34.6619 14.2263 34.8863C14.587 35.1797 14.5814 35.5018 14.5588 35.8182C14.5306 36.1922 13.9952 37.5613 13.9952 37.5613C13.6119 38.6371 13.7247 39.2296 13.7247 39.2296C13.781 39.7244 14.1587 40.5988 14.773 40.8117C15.3873 41.0245 15.9679 40.8289 16.4075 40.4205C16.8528 40.012 17.2022 39.0628 17.2304 38.988C17.2586 38.9075 17.298 38.7982 17.298 38.7982C17.2191 39.1146 17.3375 39.7877 17.3656 40.0523C17.3938 40.3227 17.1853 40.6851 16.9824 40.8002C16.7795 40.921 16.5371 40.8692 16.5371 40.8692C16.5991 41.0015 16.6217 41.1453 16.6217 41.1453C16.6949 41.5653 16.4808 41.8932 16.385 42.0082C16.3568 42.0428 16.2891 42.106 16.2891 42.106C16.244 42.1521 16.0637 42.3074 15.9848 42.6871C15.9115 43.084 16.1651 43.4234 16.1651 43.4234C16.1313 42.9632 16.385 42.5835 16.385 42.5835C16.4526 42.8366 16.3511 42.8021 16.3511 43.3947C16.3511 43.9872 16.6499 44.2576 16.6499 44.2576C16.6386 43.5327 16.9768 43.4752 16.9768 43.4752C16.9429 43.6018 16.8697 44.0677 17.0387 44.528C17.05 44.5567 17.0669 44.5797 17.0726 44.6085C16.4639 44.6833 15.8326 44.7926 15.1901 44.9537L15.0886 44.9824L15.083 47.9911L15.2464 47.9451C16.4019 47.646 17.5178 47.5137 18.5549 47.5137C21.0179 47.5194 22.6806 48.319 24.0107 48.9806C24.873 49.4006 25.6057 49.763 26.3159 49.763C26.609 49.763 26.8119 49.7055 27.0599 49.6249V48.785C27.3079 48.7965 27.5615 48.8713 27.787 48.9691V50.2808L27.8489 50.321C28.6718 50.8273 30.9658 50.9941 31.9521 50.9999C32.9384 51.0056 35.2324 50.8445 36.0552 50.3383L36.1229 50.298V48.9864C36.3483 48.8886 36.5963 48.8195 36.8499 48.808V49.6479C37.081 49.7285 37.2839 49.786 37.5939 49.786C38.3041 49.786 39.0424 49.4293 39.9047 49.0094C41.2405 48.3536 42.9032 47.5597 45.3662 47.5654C46.4033 47.5654 47.5136 47.7035 48.6747 48.0084L48.8381 48.0544L48.8437 45.0457L48.7423 45.0169C48.0998 44.8559 47.4685 44.7408 46.8598 44.666C46.8711 44.6373 46.888 44.6143 46.8936 44.5855C47.0683 44.1253 46.9894 43.6593 46.9613 43.5327C46.9613 43.5327 47.2994 43.5903 47.2825 44.3151C47.2825 44.3151 47.5869 44.039 47.5869 43.4522C47.5869 42.8654 47.4854 42.8942 47.553 42.6411C47.553 42.6411 47.8067 43.0207 47.7672 43.481C47.7672 43.481 48.0209 43.1415 47.9532 42.7446C47.8799 42.3649 47.6996 42.2096 47.6545 42.1636C47.6545 42.1636 47.5812 42.0945 47.5587 42.0658C47.4629 41.9507 47.2487 41.6228 47.322 41.2029C47.322 41.2029 47.3389 41.059 47.4065 40.9267C47.4065 40.9267 47.1698 40.9785 46.9613 40.8577C46.7527 40.7369 46.5498 40.3745 46.578 40.1098C46.6062 39.8452 46.7245 39.1721 46.6513 38.8557C46.6513 38.8557 46.6907 38.965 46.7189 39.0456C46.7471 39.1261 47.0965 40.0753 47.5418 40.4838C47.9814 40.8922 48.5619 41.0878 49.1763 40.8807C49.7906 40.6678 50.1682 39.7934 50.2302 39.3044C50.2302 39.3044 50.343 38.7119 49.9653 37.6361C49.9653 37.6361 49.4355 36.267 49.4074 35.8873C49.3848 35.5709 49.3792 35.2487 49.7399 34.9553C50.0217 34.731 50.2753 34.9783 50.2753 35.1452C50.2753 35.1452 49.785 35.312 49.8921 36.1519C49.8921 36.1519 49.9428 36.6006 50.2528 36.7444C50.2528 36.7444 50.2302 36.5719 50.3768 36.3072L50.4444 36.1749C50.4444 36.1749 50.4106 36.6582 50.574 37.1356C50.574 37.1356 50.7206 37.5728 50.777 37.7512C50.8333 37.9295 50.8502 38.1309 50.8164 38.2344C50.8164 38.2344 51.1602 38.1079 51.2335 37.4578C51.2335 37.4578 51.2504 37.291 51.2504 37.1356C51.2504 37.1356 51.4702 37.1069 51.6111 36.9228C51.6111 36.9228 51.38 36.8768 51.2898 36.5834C51.1771 36.2324 51.7069 36.1577 51.5209 35.6514C51.4702 35.5076 51.3969 35.3868 51.3969 35.3868C51.3969 35.3868 51.6731 35.312 51.8309 35.1567C51.8309 35.1567 51.938 35.0589 51.9831 34.9438L52 34.9496ZM43.061 24.8074L43.0554 24.7959C43.0554 24.7959 43.2132 24.8304 43.2921 24.7902C43.3485 24.7556 43.4048 24.7384 43.4555 24.7211C43.4386 24.7499 43.4274 24.7786 43.4274 24.8132C43.4274 24.9052 43.5006 24.9857 43.5908 24.9857C43.681 24.9857 43.7599 24.911 43.7599 24.8132C43.7599 24.7671 43.743 24.7326 43.7148 24.7039C43.7881 24.7154 43.8388 24.7441 43.8614 24.7614C43.9121 24.7959 44.0361 24.8822 44.0361 24.8822C43.5288 25.5783 43.0554 24.8132 43.061 24.8074ZM20.2119 24.7211C20.2288 24.7096 20.2852 24.6809 20.3585 24.6636C20.3303 24.6924 20.3134 24.7326 20.3134 24.7729C20.3134 24.8649 20.3866 24.9455 20.4768 24.9455C20.567 24.9455 20.6459 24.8707 20.6459 24.7729C20.6459 24.7384 20.6346 24.7096 20.6177 24.6809C20.6685 24.6981 20.7192 24.7154 20.7812 24.7499C20.8601 24.7959 21.0179 24.7614 21.0179 24.7614L21.0123 24.7729C21.0123 24.7729 20.5388 25.538 20.0372 24.8419C20.0316 24.8419 20.1556 24.7556 20.2119 24.7211ZM44.3292 32.4931C44.4362 32.6887 44.4982 32.821 44.842 32.821C44.9379 32.821 45.0731 32.7635 45.1915 32.5679C45.2197 32.5967 45.338 32.7693 45.6593 32.6887C45.7438 32.6657 45.8847 32.5794 45.9524 32.3608C45.9975 32.3781 46.0425 32.4011 46.1215 32.4011C46.1947 32.4011 46.3075 32.3781 46.4089 32.2745C46.5442 32.1365 46.578 31.9581 46.5724 31.8431C46.6118 31.8603 46.6287 31.8661 46.6682 31.8661C46.7358 31.8661 46.8373 31.8373 46.9218 31.6935C46.9951 31.5727 47.0458 31.3886 46.9669 31.1757C47.1191 31.2218 47.2149 31.147 47.2656 30.9974C47.3163 30.8593 47.3107 30.6637 47.198 30.4739C47.4629 30.4451 47.4911 30.1748 47.4911 30.0827C47.4911 30.0482 47.508 29.726 47.2205 29.5707C47.7898 29.1565 48.1392 28.4662 48.2858 27.7874C48.2858 27.7931 48.297 27.9024 48.297 27.9024C48.3703 28.1785 48.0829 29.0645 47.4798 29.588C47.5869 29.6858 47.6996 29.8871 47.6883 30.1402C47.6827 30.3761 47.4741 30.5142 47.4009 30.5544C47.4516 30.6062 47.57 30.7846 47.4854 31.0319C47.4009 31.2735 47.2262 31.3196 47.1585 31.3253C47.1923 31.4059 47.2431 31.6187 47.0965 31.8258C46.9838 31.9869 46.8316 32.0099 46.7471 32.0099C46.7358 32.0099 46.7245 32.0099 46.7133 32.0099C46.7583 32.2803 46.5498 32.6024 46.2342 32.6024C46.144 32.6024 46.0707 32.5737 46.0369 32.5564C45.8622 32.9879 45.5184 33.0512 45.1971 32.8613C44.7857 33.3676 44.1995 32.8613 44.3292 32.4931ZM41.8943 27.1545C42.0296 27.2121 42.1818 27.2869 42.3509 27.3789L42.193 27.7011C42.1198 27.6608 42.0465 27.6263 41.9732 27.586L41.9169 27.7126C42.2043 27.8564 42.379 27.9657 42.6721 28.1613L42.9314 27.7413C43.1061 27.8564 43.2865 27.9887 43.4668 28.1268L43.2583 28.4202C43.1681 28.3511 43.0723 28.2821 42.9934 28.2246L42.9201 28.3396C43.1906 28.5352 43.4217 28.7193 43.6754 28.9379L43.9741 28.541C44.1375 28.679 44.3066 28.8286 44.4644 28.9839L44.2333 29.2601C44.1601 29.1853 44.0924 29.122 44.0248 29.0645L43.9346 29.168C44.115 29.3349 44.3461 29.5592 44.5828 29.8123L44.9153 29.4499C45.0393 29.588 45.1408 29.7203 45.2197 29.8296L44.9604 30.0827C44.9266 30.0367 44.8871 29.9849 44.8364 29.9216L44.7293 30.0079C44.78 30.077 44.8251 30.1345 44.859 30.1805L44.2502 30.7731C43.5795 30.0137 42.5312 29.0242 41.2631 28.4604L41.8887 27.1718L41.8943 27.1545ZM27.4206 32.7693L28.4069 31.1988C28.2998 31.1067 28.2266 30.9629 28.2322 30.8076C28.2322 30.5257 28.4577 30.2956 28.7282 30.2956C28.948 30.2956 29.134 30.4451 29.2016 30.6465H31.7492C31.7492 30.4912 31.8788 30.3588 32.031 30.3588C32.1832 30.3588 32.3128 30.4854 32.3128 30.6465L34.8604 30.6522C34.928 30.4451 35.114 30.3013 35.3338 30.3013C35.61 30.3013 35.8298 30.5314 35.8298 30.8133C35.8298 30.9686 35.7622 31.1125 35.6494 31.2045L36.6301 32.7808C36.6752 32.8441 36.6978 32.9246 36.6978 33.0109C36.6978 33.4538 36.0834 33.8163 35.3282 33.8163C34.5729 33.8105 33.9586 33.4539 33.9642 33.0051C33.9642 32.9188 33.9811 32.8383 34.0262 32.775L35.0125 31.2045C34.9336 31.1355 34.8773 31.0492 34.8491 30.9456C34.1897 30.9514 33.8909 31.0262 33.5077 31.3138C33.1413 31.0319 32.8482 30.9571 32.2339 30.9399C32.3015 31.2275 32.4255 31.5094 32.5833 31.705C32.3635 31.9984 32.217 32.1767 32.0254 32.6082C31.8394 32.1767 31.6928 31.9984 31.473 31.705C31.6365 31.5094 31.7548 31.2275 31.8281 30.9399C31.2138 30.9514 30.9207 31.0262 30.5543 31.3081C30.1711 31.0147 29.878 30.9399 29.2129 30.9341C29.1847 31.0377 29.1284 31.1297 29.0495 31.193L30.0302 32.7693C30.0752 32.8325 30.0978 32.9131 30.0978 32.9994C30.0978 33.4423 29.4834 33.8048 28.7282 33.8048C27.9729 33.799 27.3586 33.4423 27.3642 32.9936C27.3642 32.9073 27.3811 32.8268 27.4319 32.7635V32.7693H27.4206ZM19.7892 30.7098L19.1805 30.1172C19.2143 30.0655 19.2538 30.0137 19.3101 29.9447L19.203 29.8584C19.1523 29.9216 19.1129 29.9734 19.079 30.0194L18.8254 29.7663C18.9043 29.657 19.0058 29.5304 19.1298 29.3924L19.4567 29.7548C19.6427 29.5535 19.7103 29.4844 19.9019 29.3061C19.9752 29.2313 20.0485 29.168 20.1105 29.1105L20.0203 29.0069C19.9527 29.0645 19.8907 29.1278 19.8118 29.2025L19.5807 28.9264C19.7441 28.7711 19.9076 28.6273 20.071 28.4834L20.3641 28.8804C20.6177 28.6675 20.8544 28.4777 21.1193 28.2878L21.0461 28.1728C20.9615 28.2303 20.8714 28.2994 20.7755 28.3684L20.567 28.075C20.7474 27.9369 20.9277 27.8104 21.1024 27.6953L21.3617 28.1153C21.6548 27.9254 21.8295 27.8161 22.1226 27.6723L22.0662 27.5457C21.993 27.5803 21.9197 27.6205 21.8464 27.6608L21.6886 27.3386C21.8577 27.2466 22.0042 27.1718 22.1508 27.1143L22.7764 28.4144C21.5082 28.9782 20.4599 29.9619 19.7836 30.7155L19.7892 30.7098ZM19.3552 33.0051C19.1636 33.0799 18.972 32.9591 18.8423 32.798C18.7972 32.8268 18.6563 32.8958 18.4929 32.8958C18.2505 32.8958 18.0927 32.7175 18.0025 32.4931C17.6644 32.6715 17.2698 32.3263 17.3318 31.9409C16.9993 31.9754 16.7569 31.5727 16.8922 31.2563C16.8246 31.2505 16.6499 31.2045 16.5653 30.9629C16.4751 30.7155 16.5991 30.5429 16.6499 30.4854C16.5822 30.4451 16.3737 30.3071 16.3624 30.0712C16.3568 29.8181 16.4695 29.6167 16.5766 29.5189C16.4639 29.4211 15.8101 28.8114 15.7593 27.9024C15.7593 27.8967 15.7593 27.8564 15.765 27.8334C15.765 27.8276 15.7762 27.7183 15.7762 27.7183C15.9228 28.3972 16.261 29.0932 16.8358 29.5132C16.6555 29.611 16.5597 29.7951 16.5597 30.0252C16.5653 30.2841 16.6949 30.3991 16.8528 30.4164C16.6893 30.6983 16.7795 30.9169 16.7851 30.9399C16.8358 31.0895 16.9317 31.17 17.0838 31.1182C16.9768 31.4001 17.112 31.613 17.1289 31.636C17.2135 31.7798 17.3149 31.8086 17.3769 31.8086C17.4164 31.8086 17.4389 31.8028 17.4727 31.7855C17.4558 32.0617 17.6587 32.3436 17.9236 32.3436C18.0025 32.3436 18.0533 32.3206 18.0927 32.3033C18.1434 32.4644 18.2562 32.6024 18.3802 32.6312C18.4027 32.637 18.6676 32.7232 18.848 32.5161C18.9381 32.6772 19.0678 32.7693 19.1918 32.7693C19.3101 32.7693 19.5018 32.8153 19.7047 32.4471C19.8118 32.7578 19.5356 32.9361 19.3496 33.0051H19.3552ZM35.8918 49.1302V50.1542C35.548 50.3325 34.9393 50.4821 34.1051 50.5972C33.2822 50.7007 32.4763 50.741 31.9915 50.7352C31.5068 50.7295 30.7009 50.6892 29.878 50.5856C29.0438 50.4706 28.4295 50.3153 28.0913 50.1369V47.7898C29.0438 48.2097 31.0785 48.3478 31.9915 48.3536C32.9046 48.3593 34.9449 48.2212 35.8918 47.8013V49.1244V49.1302ZM48.6014 45.2758V47.715C47.4741 47.4619 46.3976 47.3066 45.3888 47.3008C44.2672 47.3008 43.2076 47.4676 42.1536 47.8013C41.2462 48.0947 40.4853 48.4571 39.8089 48.785C38.9466 49.1992 38.259 49.5271 37.6165 49.5271C37.453 49.5271 37.2952 49.5041 37.143 49.4639V47.0247C37.3008 47.0592 37.4586 47.0764 37.6221 47.0764C38.3323 47.0764 39.0706 46.7255 39.9329 46.3113C40.8854 45.8511 42.007 45.3103 43.4668 45.04L43.4161 44.7753C42.9934 44.8501 42.5819 44.9594 42.1649 45.0917C41.2518 45.3794 40.4965 45.7476 39.8202 46.0697C39.048 46.4436 38.4168 46.7485 37.8306 46.8061V46.4724C37.8306 46.2653 37.763 45.9431 37.0021 45.9374C36.2356 45.9316 35.3958 46.4379 35.3958 47.0074V47.7035C34.4658 47.9739 32.9441 48.1177 31.9915 48.1119C31.5068 48.1119 30.7009 48.0429 29.878 47.9394C29.3594 47.8761 28.9255 47.7898 28.5929 47.6862V46.9902C28.5929 46.4206 27.7531 45.9144 26.9922 45.9144C26.2314 45.9144 26.1637 46.2365 26.1637 46.4436V46.7773C25.5719 46.7198 24.9463 46.4091 24.1742 46.0352C23.2047 45.5635 22.0662 45.0054 20.5726 44.7293L20.5557 45.0054C21.9986 45.2816 23.1089 45.8223 24.0558 46.2883C24.9125 46.7083 25.6508 47.0649 26.361 47.0649C26.5244 47.0649 26.6823 47.0477 26.8344 47.0132V49.4523C26.6766 49.4984 26.5188 49.5156 26.3554 49.5156C25.7072 49.5156 25.0252 49.1877 24.1629 48.7678C22.8046 48.1119 21.1137 47.272 18.5943 47.2663C17.5855 47.2663 16.5089 47.4159 15.3873 47.669V45.2298C16.0355 45.0745 16.6611 44.9652 17.2755 44.9019C17.4389 45.0802 17.6024 45.1378 17.6024 45.1378C17.5967 45.0515 17.6024 44.3381 17.6193 44.4302C17.6362 44.5222 17.7827 44.7811 17.7827 44.7811C17.8278 44.8559 18.1209 45.3218 18.3858 45.2816C18.5718 45.2528 18.6338 45.1493 18.6563 45.0975L18.6507 45.086C18.5549 44.9134 18.5436 44.7983 18.5436 44.7983C18.4929 44.2863 18.8874 44.2576 19.1805 44.4992C19.4961 44.7696 19.6088 44.5912 19.6088 44.5912C19.2538 43.9469 19.7216 43.9124 19.7216 43.9124C19.7103 43.3717 19.9921 43.4522 19.9921 43.4522C19.9808 43.3141 19.8399 43.1933 19.5976 43.1818C19.3665 43.1703 18.8874 43.4925 18.8085 43.5327C18.724 43.573 18.5943 43.4177 18.5943 43.4177C18.2393 42.9344 18.3013 42.3016 18.3013 42.3016C18.6451 41.8644 18.8198 41.3582 18.8198 41.3582C18.5267 40.9382 18.6056 40.4607 18.6056 40.4607C19.0227 41.5538 19.5299 41.4445 19.5299 41.4445C19.3214 40.4147 19.7554 39.5978 19.9245 39.2872C20.0316 39.0973 19.8794 38.6716 19.7723 38.3955C19.7723 38.3955 19.5581 37.8835 19.5187 37.6879C19.4736 37.4923 19.4341 37.1932 19.7272 36.8135V36.8422C19.7103 36.9573 19.7103 37.0896 19.7328 37.3255C19.761 37.5613 19.885 37.8835 19.9696 38.0503C20.0597 38.2172 20.133 38.3322 20.133 38.3322C21.1081 38.7752 21.8915 38.8557 21.8915 38.8557C22.0042 39.2296 21.8802 40.058 21.8464 40.2651C21.8126 40.4722 21.7844 40.7484 21.7844 40.7484C21.7731 40.9037 21.7844 41.3294 22.0324 41.3524C22.2748 41.3812 22.4664 41.548 22.5791 41.8702C22.6918 42.1923 22.9511 42.3131 22.9511 42.3131C22.8666 42.1406 22.9455 41.9507 22.9455 41.9507C23.1878 42.6641 24.3714 42.6065 24.3714 42.6065C24.1516 42.4109 24.0614 42.129 24.0614 42.129C24.7265 42.7734 25.4198 42.2268 25.4198 42.2268C25.1436 42.0888 25.0759 41.7781 25.0759 41.7781C25.9721 42.3016 26.2595 41.4617 26.2595 41.4617C26.0172 41.4157 25.9777 41.2201 25.9777 41.2201C26.299 41.3179 26.3723 41.1626 26.3723 41.1626C26.2257 40.7944 26.4624 40.6103 26.4624 40.6103C26.8964 40.1961 26.6597 39.8855 26.6597 39.8855C26.1412 39.9372 26.1468 39.3447 26.1468 39.3447C25.9552 39.2584 25.6734 39.4598 25.6734 39.4598C25.9214 39.1088 25.7805 38.9593 25.7805 38.9593C25.2225 39.0225 25.2169 38.6026 25.2169 38.6026C24.9858 38.5853 24.9069 38.7579 24.873 38.9075C24.8449 39.0571 24.8449 39.4598 24.9689 39.7474C25.0929 40.035 24.9576 40.386 24.9576 40.386C24.0614 39.9142 23.3005 39.9775 23.3005 39.9775L23.4189 39.5C23.0695 38.9823 23.1315 38.7867 23.1315 38.7867C23.6387 39.523 24.1854 39.4713 24.1854 39.4713L24.2362 39.4598H24.2418C23.7853 39.2642 23.7176 37.9985 23.2216 37.4463C22.9455 37.1356 22.4157 36.9458 22.0155 36.871C20.6685 36.6179 20.6008 35.8355 20.6008 35.8355V35.8298C21.0912 35.1049 22.2353 34.311 22.2353 34.311C22.1451 34.2075 21.9873 33.799 21.9873 33.799C21.5195 33.8278 21.2997 33.6725 21.2997 33.6725C20.6459 33.2583 20.877 32.706 20.877 32.706C20.8826 32.7693 21.001 33.2755 21.4462 33.4538C21.8915 33.6264 22.1733 33.4251 22.1733 33.4251C22.1733 33.4251 22.1339 33.4826 22.2579 33.8163C22.3819 34.1499 22.8666 34.754 22.8666 34.754C23.3175 34.3053 23.1709 33.5516 23.1709 33.5516C23.3456 33.7185 24.4052 34.6504 24.4052 34.6504C24.3376 34.6504 23.8642 34.7022 23.8642 34.7022C23.464 34.777 23.5936 35.0244 23.5936 35.0244C23.7007 34.9668 23.8304 34.9668 23.9093 35.1279C23.9938 35.289 23.9093 35.5191 23.9093 35.5191C24.0163 35.6744 24.1178 35.6226 24.2982 35.4731C24.4729 35.3235 24.7829 35.381 24.8618 35.404C24.935 35.4328 24.9407 35.5018 24.9632 35.5536C25.0083 35.6399 25.1718 35.7665 25.1154 35.8643C25.0478 36.0368 25.0534 36.1979 25.0534 36.1979C25.0534 36.1979 24.9576 36.3015 24.9407 36.4223C24.9238 36.5431 24.9914 36.6582 25.1098 36.802C25.2225 36.94 25.3803 36.848 25.3803 36.848C25.4141 36.8307 25.5494 36.7272 25.6565 36.8537C25.7917 37.0091 25.6734 37.2507 25.6734 37.2507C25.7692 37.337 25.9157 37.2334 25.9496 37.2104C25.9834 37.1932 26.113 37.0781 26.2539 37.1126C26.3892 37.1471 26.4061 37.4003 26.4061 37.4003C26.6034 37.3082 26.6766 37.1414 26.6766 37.1414C26.8457 36.8077 26.6034 36.336 26.5301 36.2324C26.4568 36.1289 26.4005 36.0829 26.361 35.9793C26.3272 35.8815 26.2539 35.6514 26.1919 35.4443C26.1694 35.3753 26.1243 35.2947 26.0679 35.2142V34.3513L30.9883 34.3628L30.9827 38.6601L26.0792 38.6486C25.8199 38.8902 25.9777 39.0398 25.8988 39.2469C25.989 39.2239 26.0397 39.2066 26.1637 39.2066C26.4963 38.9938 27.2515 38.6486 27.7024 39.477C27.4262 39.523 27.0768 39.5518 26.8344 39.7474C26.9021 39.92 26.9021 40.2076 26.8795 40.3745L30.9883 40.3802L30.977 46.3573C29.6638 45.8684 28.5591 45.0169 27.7362 43.8549C27.2064 43.1013 26.8006 42.2441 26.5244 41.2776C26.4512 41.3467 26.3666 41.41 26.2877 41.4157C26.5752 42.3822 26.9866 43.2566 27.5221 44.0102C28.5929 45.5289 30.1316 46.5357 31.969 46.9269L31.9972 46.9326L32.0254 46.9269C33.8684 46.5414 35.4127 45.5405 36.4836 44.0275C37.0247 43.2681 37.4361 42.3994 37.7292 41.433C37.6446 41.4272 37.5657 41.3639 37.4925 41.2949C37.2107 42.2556 36.8048 43.1185 36.2694 43.8664C35.4465 45.0227 34.3362 45.8684 33.023 46.3573L33.0342 40.3802L37.143 40.386C37.1148 40.2191 37.1205 39.9315 37.1881 39.7589C36.9458 39.5633 36.5963 39.5403 36.3201 39.4885C36.771 38.6601 37.5263 39.011 37.8588 39.2239C37.9772 39.2239 38.0335 39.2412 38.1237 39.2642C38.0448 39.0571 38.2083 38.9132 37.949 38.6659L33.0455 38.6544L33.0511 34.357L37.9659 34.3685V35.2257C37.9095 35.312 37.8588 35.3925 37.8363 35.4616C37.7686 35.6687 37.701 35.893 37.6672 35.9966C37.6334 36.0944 37.577 36.1404 37.4981 36.2439C37.4248 36.3475 37.1825 36.8192 37.3459 37.1529C37.3459 37.1529 37.4192 37.3197 37.6165 37.4118C37.6165 37.4118 37.6334 37.1586 37.7743 37.1241C37.9095 37.0896 38.0448 37.2047 38.0786 37.2219C38.1124 37.2392 38.259 37.3485 38.3548 37.2622C38.3548 37.2622 38.2421 37.0206 38.3717 36.8653C38.4788 36.7387 38.6141 36.8422 38.6479 36.8653C38.6479 36.8653 38.8001 36.9573 38.9184 36.8192C39.0311 36.6812 39.1044 36.5604 39.0875 36.4395C39.0706 36.3187 38.9748 36.2152 38.9748 36.2152C38.9804 35.8988 38.8339 35.8815 38.9579 35.7204C39.1664 35.5018 39.0593 35.4673 39.172 35.4213C39.2509 35.3925 39.5553 35.3408 39.7357 35.4903C39.9104 35.6399 40.0118 35.6917 40.1246 35.5364C40.1246 35.5364 40.0457 35.312 40.1246 35.1452C40.2091 34.9783 40.3387 34.9841 40.4402 35.0416C40.4402 35.0416 40.5698 34.7942 40.1753 34.7195C40.1753 34.7195 39.7018 34.6619 39.6342 34.6619C39.6342 34.6619 40.6994 33.73 40.8685 33.5689C40.8685 33.5689 40.722 34.3225 41.1673 34.7712C41.1673 34.7712 41.6576 34.1672 41.7816 33.8335C41.9056 33.4999 41.8661 33.4423 41.8661 33.4423C41.8661 33.4423 42.1423 33.6494 42.5932 33.4711C43.0385 33.2928 43.1625 32.7865 43.1625 32.7232C43.1625 32.7232 43.3879 33.2755 42.7341 33.684C42.7341 33.684 42.5087 33.8393 42.0465 33.8048C42.0465 33.8048 41.8943 34.2075 41.7985 34.311C41.7985 34.311 42.9426 35.1107 43.4274 35.8355V35.8413C43.4274 35.8413 43.3597 36.6236 42.0127 36.871C41.6069 36.9458 41.0827 37.1356 40.8009 37.4463C40.3049 37.9985 40.2373 39.2584 39.7751 39.454H39.7808L39.8315 39.4655C39.8315 39.4655 40.3782 39.523 40.8854 38.7867C40.8854 38.7867 40.9474 38.9765 40.5924 39.5L40.7107 39.9775C40.7107 39.9775 39.9498 39.9085 39.0593 40.3745C39.0593 40.3745 38.9241 40.0235 39.048 39.7359C39.172 39.4483 39.1777 39.0456 39.1495 38.896C39.1213 38.7464 39.0424 38.5738 38.8057 38.5911C38.8057 38.5911 38.8001 39.011 38.2421 38.9478C38.2421 38.9478 38.1012 39.0973 38.3492 39.454C38.3492 39.454 38.073 39.2584 37.8757 39.3389C37.8757 39.3389 37.8814 39.9315 37.3628 39.874C37.3628 39.874 37.1261 40.1846 37.5601 40.5988C37.5601 40.5988 37.7912 40.7829 37.6446 41.1511C37.6446 41.1511 37.7179 41.3122 38.0392 41.2086C38.0392 41.2086 37.9941 41.4042 37.7517 41.4502C37.7517 41.4502 38.0279 42.2901 38.9353 41.7666C38.9353 41.7666 38.8677 42.0715 38.5915 42.2096C38.5915 42.2096 39.2848 42.7619 39.9498 42.1175C39.9498 42.1175 39.8597 42.4052 39.6398 42.595C39.6398 42.595 40.8234 42.6526 41.0658 41.945C41.0658 41.945 41.1391 42.1348 41.0602 42.3074C41.0602 42.3074 41.3251 42.1866 41.4378 41.8702C41.5505 41.548 41.7421 41.3812 41.9901 41.3524C42.2325 41.3237 42.2494 40.898 42.2381 40.7484C42.2381 40.7484 42.2099 40.4722 42.1818 40.2651C42.1479 40.058 42.0296 39.2296 42.1367 38.8557C42.1367 38.8557 42.9201 38.7752 43.9008 38.338C43.9008 38.338 43.9741 38.2229 44.0643 38.0561C44.1544 37.8892 44.2784 37.5728 44.3066 37.3312C44.3348 37.0954 44.3348 36.9631 44.3179 36.848V36.8192C44.6053 37.1989 44.5659 37.4981 44.5208 37.6937C44.4757 37.8892 44.2672 38.4012 44.2672 38.4012C44.1544 38.6774 44.0079 39.0973 44.115 39.2929C44.2784 39.6036 44.7124 40.4147 44.4982 41.4502C44.4982 41.4502 45.0055 41.5653 45.4226 40.4665C45.4226 40.4665 45.5015 40.9382 45.2084 41.3639C45.2084 41.3639 45.3831 41.8702 45.7213 42.3074C45.7213 42.3074 45.7777 42.9402 45.4226 43.4177C45.4226 43.4177 45.2873 43.573 45.2084 43.5327C45.1239 43.4925 44.6504 43.1646 44.4193 43.1761C44.1826 43.1876 44.0361 43.3084 44.0248 43.4464C44.0248 43.4464 44.301 43.3659 44.2897 43.9067C44.2897 43.9067 44.7575 43.9412 44.3968 44.5855C44.3968 44.5855 44.5039 44.7581 44.8251 44.4934C45.1182 44.2461 45.5127 44.2806 45.4564 44.7926C45.4564 44.7926 45.4451 44.9076 45.3493 45.0802L45.3437 45.0917C45.3662 45.1435 45.4282 45.2471 45.6142 45.2816C45.8791 45.3218 46.1778 44.8616 46.2229 44.7868C46.2229 44.7868 46.3638 44.528 46.3864 44.4359C46.4033 44.3439 46.4089 45.0572 46.4033 45.1435C46.4033 45.1435 46.5724 45.0917 46.7302 44.9134C47.3389 44.9824 47.9701 45.0917 48.6183 45.2471L48.6014 45.2758Z" fill="#001EFF"/>
</svg>
