<svg width="64" height="64" viewBox="0 0 64 64" fill="none" xmlns="http://www.w3.org/2000/svg">
<rect width="64" height="64" rx="32" fill="white"/>
<g clip-path="url(#clip0_1154_21949)">
<path fill-rule="evenodd" clip-rule="evenodd" d="M25.8516 35.4268L17.7126 39.5048L25.8516 25.4075V35.4268Z" fill="#48AC3C"/>
<path fill-rule="evenodd" clip-rule="evenodd" d="M33.9903 39.5046L25.8513 35.4268V25.4075L33.9903 39.5046Z" fill="#93C02C"/>
<path fill-rule="evenodd" clip-rule="evenodd" d="M33.9907 39.5047H17.7126L25.8517 35.4268L33.9907 39.5047Z" fill="#077D36"/>
<path fill-rule="evenodd" clip-rule="evenodd" d="M49.3918 39.5049H59.1169V37.259H52.024V33.5792H58.5101V31.3333H52.024V27.6533H59.1169V25.4074H49.3918C49.3918 30.1066 49.3918 34.8057 49.3918 39.5049ZM8.18884 31.3336H10.4667L13.8873 25.4089H16.6863L12.6177 32.4559L16.6863 39.5029H13.8873L10.4668 33.5784H8.18884V39.5046H5.55664V25.4074H8.18884V31.3336ZM35.3815 29.1319C35.3815 26.2256 38.0222 25.0894 40.5715 25.0894C42.376 25.0894 44.0252 25.5035 45.6243 26.3351L44.4531 28.3636C43.368 27.8803 42.1106 27.4335 40.9164 27.4491C39.8973 27.4624 37.8348 27.6835 37.8348 29.0916C37.8348 31.8612 46.2446 30.5966 46.2446 35.6343C46.2446 38.9166 43.5337 39.8177 40.7124 39.8177C38.913 39.8177 36.8791 39.2922 35.2155 38.6203L36.4981 36.3987C36.838 36.5345 37.1809 36.6556 37.5306 36.7649C38.3948 37.0349 39.5833 37.3338 40.491 37.3338C41.4773 37.3338 43.7483 37.1743 43.7485 35.7752C43.7487 32.8165 35.3815 34.1506 35.3815 29.1319Z" fill="#525359"/>
</g>
<defs>
<clipPath id="clip0_1154_21949">
<rect width="53.6752" height="14.8433" fill="white" transform="translate(5.5 25.0317)"/>
</clipPath>
</defs>
</svg>
