<svg width="64" height="64" viewBox="0 0 64 64" fill="none" xmlns="http://www.w3.org/2000/svg">
<g clip-path="url(#clip0_1154_21090)">
<rect width="64" height="64" rx="32" fill="white"/>
<path d="M-12 -1H76V65H-12V-1Z" fill="#74ACDF"/>
<path d="M-12 21H76V43H-12V21Z" fill="white"/>
<path d="M31.5781 32.1718L35.3401 40.3558C35.3401 40.3558 35.4061 40.5142 35.5117 40.4746C35.6173 40.4218 35.5513 40.2634 35.5513 40.2634L32.4229 31.8154M32.3305 35.0098C32.2777 36.2506 33.0433 36.937 32.9509 38.0458C32.8453 39.1678 33.4525 39.7882 33.6109 40.2238C33.7429 40.6594 33.4525 40.9102 33.5713 40.9762C33.7033 41.0422 33.9673 40.699 33.8881 40.0786C33.7957 39.4714 33.3337 39.2866 33.4393 37.927C33.5449 36.5674 32.8849 36.2506 33.0433 35.023" fill="#F6B40E"/>
<path d="M31.5781 32.1718L35.3401 40.3558C35.3401 40.3558 35.4061 40.5142 35.5117 40.4746C35.6173 40.4218 35.5513 40.2634 35.5513 40.2634L32.4229 31.8154M32.3305 35.0098C32.2777 36.2506 33.0433 36.937 32.9509 38.0458C32.8453 39.1678 33.4525 39.7882 33.6109 40.2238C33.7429 40.6594 33.4525 40.9102 33.5713 40.9762C33.7033 41.0422 33.9673 40.699 33.8881 40.0786C33.7957 39.4714 33.3337 39.2866 33.4393 37.927C33.5449 36.5674 32.8849 36.2506 33.0433 35.023" stroke="#85340A" stroke-width="0.1452"/>
<path d="M31.5453 31.9972L31.889 40.9979C31.889 40.9979 31.8894 41.1695 32.0021 41.1734C32.1199 41.165 32.1195 40.9934 32.1195 40.9934L32.4621 31.9913M31.1543 34.9071C30.6307 36.0333 31.0754 36.9604 30.5657 37.9495C30.0387 38.9456 30.3623 39.7512 30.342 40.2142C30.2972 40.6672 29.9329 40.7878 30.0174 40.8942C30.1141 41.0057 30.4894 40.7897 30.6536 40.1862C30.8006 39.5898 30.4445 39.2423 31.0624 38.0266C31.6802 36.8109 31.1917 36.2656 31.8078 35.1921" fill="#F6B40E"/>
<path d="M31.5453 31.9972L31.889 40.9979C31.889 40.9979 31.8894 41.1695 32.0021 41.1734C32.1199 41.165 32.1195 40.9934 32.1195 40.9934L32.4621 31.9913M31.1543 34.9071C30.6307 36.0333 31.0754 36.9604 30.5657 37.9495C30.0387 38.9456 30.3623 39.7512 30.342 40.2142C30.2972 40.6672 29.9329 40.7878 30.0174 40.8942C30.1141 41.0057 30.4894 40.7897 30.6536 40.1862C30.8006 39.5898 30.4445 39.2423 31.0624 38.0266C31.6802 36.8109 31.1917 36.2656 31.8078 35.1921" stroke="#85340A" stroke-width="0.1452"/>
<path d="M31.58 31.8228L28.4532 40.2699C28.4532 40.2699 28.3879 40.4286 28.4905 40.4753C28.6025 40.5126 28.6679 40.3539 28.6679 40.3539L32.4294 32.1682M30.1053 34.3616C29.1906 35.2017 29.2466 36.2284 28.3972 36.9471C27.5291 37.6658 27.5198 38.5338 27.3238 38.9538C27.1091 39.3552 26.7264 39.3272 26.7638 39.4579C26.8104 39.5979 27.2398 39.5419 27.6225 39.0472C27.9865 38.5525 27.7905 38.0951 28.8265 37.2084C29.8626 36.3217 29.6199 35.631 30.6 34.875" fill="#F6B40E"/>
<path d="M31.58 31.8228L28.4532 40.2699C28.4532 40.2699 28.3879 40.4286 28.4905 40.4753C28.6025 40.5126 28.6679 40.3539 28.6679 40.3539L32.4294 32.1682M30.1053 34.3616C29.1906 35.2017 29.2466 36.2284 28.3972 36.9471C27.5291 37.6658 27.5198 38.5338 27.3238 38.9538C27.1091 39.3552 26.7264 39.3272 26.7638 39.4579C26.8104 39.5979 27.2398 39.5419 27.6225 39.0472C27.9865 38.5525 27.7905 38.0951 28.8265 37.2084C29.8626 36.3217 29.6199 35.631 30.6 34.875" stroke="#85340A" stroke-width="0.1452"/>
<path d="M31.6807 31.6755L25.5594 38.283C25.5594 38.283 25.4383 38.4046 25.5153 38.487C25.6045 38.5643 25.7256 38.4427 25.7256 38.4427L32.3333 32.3196M29.3467 33.4566C28.1801 33.8827 27.839 34.8527 26.7792 35.1916C25.7022 35.5234 25.3614 36.3218 25.0196 36.6349C24.6677 36.9235 24.3248 36.7512 24.3093 36.8862C24.2988 37.0334 24.7169 37.146 25.2598 36.8354C25.7854 36.5177 25.7794 36.0201 27.0759 35.5974C28.3724 35.1747 28.4125 34.4437 29.6073 34.1202" fill="#F6B40E"/>
<path d="M31.6807 31.6755L25.5594 38.283C25.5594 38.283 25.4383 38.4046 25.5153 38.487C25.6045 38.5643 25.7256 38.4427 25.7256 38.4427L32.3333 32.3196M29.3467 33.4566C28.1801 33.8827 27.839 34.8527 26.7792 35.1916C25.7022 35.5234 25.3614 36.3218 25.0196 36.6349C24.6677 36.9235 24.3248 36.7512 24.3093 36.8862C24.2988 37.0334 24.7169 37.146 25.2598 36.8354C25.7854 36.5177 25.7794 36.0201 27.0759 35.5974C28.3724 35.1747 28.4125 34.4437 29.6073 34.1202" stroke="#85340A" stroke-width="0.1452"/>
<path d="M32.5679 35.2209C32.6339 36.4089 33.3071 36.9369 33.1751 38.0325C33.4655 37.1745 32.7659 36.5013 32.8055 35.2341M31.7891 32.0925L34.3631 37.7157L32.2115 31.9209" fill="#85340A"/>
<path d="M31.2927 35.193C30.8991 36.3159 31.319 37.0613 30.7777 38.023C31.3744 37.3414 30.9857 36.4517 31.5072 35.2961M31.7704 32.0047L31.9966 38.1849L32.2263 32.0078" fill="#85340A"/>
<path d="M30.1254 34.6791C29.3321 35.5658 29.4347 36.4152 28.5667 37.0965C29.3787 36.6952 29.3601 35.7245 30.2841 34.8564M31.7869 31.9163L29.6308 37.7126L32.2069 32.0936" fill="#85340A"/>
<path d="M29.2434 33.7573C28.1711 34.2729 27.9409 35.0969 26.8782 35.3942C27.782 35.3342 28.1362 34.4302 29.3221 33.9818M31.8356 31.8406L27.6255 36.3705L32.1558 32.1652" fill="#85340A"/>
<path d="M31.8291 31.5776L23.6451 35.3396C23.6451 35.3396 23.4867 35.4056 23.5263 35.5112C23.5791 35.6168 23.7375 35.5508 23.7375 35.5508L32.1855 32.4224M28.9911 32.33C27.7503 32.2772 27.0639 33.0428 25.9551 32.9504C24.8331 32.8448 24.2127 33.452 23.7771 33.6104C23.3415 33.7424 23.0907 33.452 23.0247 33.5708C22.9587 33.7028 23.3019 33.9668 23.9223 33.8876C24.5295 33.7952 24.7143 33.3332 26.0739 33.4388C27.4335 33.5444 27.7503 32.8844 28.9779 33.0428" fill="#F6B40E"/>
<path d="M31.8291 31.5776L23.6451 35.3396C23.6451 35.3396 23.4867 35.4056 23.5263 35.5112C23.5791 35.6168 23.7375 35.5508 23.7375 35.5508L32.1855 32.4224M28.9911 32.33C27.7503 32.2772 27.0639 33.0428 25.9551 32.9504C24.8331 32.8448 24.2127 33.452 23.7771 33.6104C23.3415 33.7424 23.0907 33.452 23.0247 33.5708C22.9587 33.7028 23.3019 33.9668 23.9223 33.8876C24.5295 33.7952 24.7143 33.3332 26.0739 33.4388C27.4335 33.5444 27.7503 32.8844 28.9779 33.0428" stroke="#85340A" stroke-width="0.1452"/>
<path d="M32.0028 31.5438L23.0021 31.8875C23.0021 31.8875 22.8305 31.8879 22.8266 32.0006C22.835 32.1184 23.0066 32.118 23.0066 32.118L32.0087 32.4607M29.0929 31.1529C27.9667 30.6292 27.0396 31.0739 26.0505 30.5642C25.0544 30.0373 24.2488 30.3608 23.7858 30.3405C23.3328 30.2957 23.2122 29.9315 23.1058 30.016C22.9943 30.1127 23.2103 30.4879 23.8138 30.6521C24.4102 30.7991 24.7577 30.443 25.9734 31.0609C27.1891 31.6788 27.7344 31.1902 28.8079 31.8064" fill="#F6B40E"/>
<path d="M32.0028 31.5438L23.0021 31.8875C23.0021 31.8875 22.8305 31.8879 22.8266 32.0006C22.835 32.1184 23.0066 32.118 23.0066 32.118L32.0087 32.4607M29.0929 31.1529C27.9667 30.6292 27.0396 31.0739 26.0505 30.5642C25.0544 30.0373 24.2488 30.3608 23.7858 30.3405C23.3328 30.2957 23.2122 29.9315 23.1058 30.016C22.9943 30.1127 23.2103 30.4879 23.8138 30.6521C24.4102 30.7991 24.7577 30.443 25.9734 31.0609C27.1891 31.6788 27.7344 31.1902 28.8079 31.8064" stroke="#85340A" stroke-width="0.1452"/>
<path d="M32.1777 31.58L23.7306 28.4532C23.7306 28.4532 23.5719 28.3879 23.5252 28.4905C23.4879 28.6025 23.6466 28.6679 23.6466 28.6679L31.8323 32.4294M29.6389 30.1053C28.7988 29.1906 27.7721 29.2466 27.0534 28.3972C26.3347 27.5291 25.4667 27.5198 25.0466 27.3238C24.6453 27.1091 24.6733 26.7264 24.5426 26.7638C24.4026 26.8104 24.4586 27.2398 24.9533 27.6225C25.448 27.9865 25.9054 27.7905 26.7921 28.8265C27.6788 29.8626 28.3695 29.6199 29.1255 30.6" fill="#F6B40E"/>
<path d="M32.1777 31.58L23.7306 28.4532C23.7306 28.4532 23.5719 28.3879 23.5252 28.4905C23.4879 28.6025 23.6466 28.6679 23.6466 28.6679L31.8323 32.4294M29.6389 30.1053C28.7988 29.1906 27.7721 29.2466 27.0534 28.3972C26.3347 27.5291 25.4667 27.5198 25.0466 27.3238C24.6453 27.1091 24.6733 26.7264 24.5426 26.7638C24.4026 26.8104 24.4586 27.2398 24.9533 27.6225C25.448 27.9865 25.9054 27.7905 26.7921 28.8265C27.6788 29.8626 28.3695 29.6199 29.1255 30.6" stroke="#85340A" stroke-width="0.1452"/>
<path d="M32.3245 31.6798L25.717 25.5584C25.717 25.5584 25.5954 25.4373 25.513 25.5143C25.4357 25.6035 25.5573 25.7246 25.5573 25.7246L31.6804 32.3323M30.5434 29.3457C30.1173 28.1792 29.1473 27.838 28.8084 26.7782C28.4766 25.7012 27.6782 25.3604 27.3651 25.0186C27.0765 24.6667 27.2488 24.3238 27.1138 24.3083C26.9666 24.2979 26.854 24.716 27.1646 25.2588C27.4823 25.7845 27.9799 25.7784 28.4026 27.0749C28.8253 28.3714 29.5563 28.4115 29.8798 29.6063" fill="#F6B40E"/>
<path d="M32.3245 31.6798L25.717 25.5584C25.717 25.5584 25.5954 25.4373 25.513 25.5143C25.4357 25.6035 25.5573 25.7246 25.5573 25.7246L31.6804 32.3323M30.5434 29.3457C30.1173 28.1792 29.1473 27.838 28.8084 26.7782C28.4766 25.7012 27.6782 25.3604 27.3651 25.0186C27.0765 24.6667 27.2488 24.3238 27.1138 24.3083C26.9666 24.2979 26.854 24.716 27.1646 25.2588C27.4823 25.7844 27.9799 25.7784 28.4026 27.0749C28.8253 28.3714 29.5563 28.4115 29.8798 29.6063" stroke="#85340A" stroke-width="0.1452"/>
<path d="M28.7801 32.5674C27.5921 32.6334 27.0641 33.3066 25.9685 33.1746C26.8265 33.465 27.4997 32.7654 28.7669 32.805M31.9085 31.7886L26.2853 34.3626L32.0801 32.211" fill="#85340A"/>
<path d="M28.8075 31.2916C27.6846 30.898 26.9392 31.3179 25.9775 30.7766C26.6591 31.3733 27.5488 30.9846 28.7043 31.5061M31.9958 31.7693L25.8156 31.9955L31.9927 32.2252" fill="#85340A"/>
<path d="M29.3212 30.1237C28.4345 29.3304 27.5851 29.433 26.9037 28.565C27.3051 29.377 28.2758 29.3584 29.1438 30.2824M32.084 31.7852L26.2877 29.629L31.9066 32.2052" fill="#85340A"/>
<path d="M30.2422 29.2414C29.7266 28.1691 28.9026 27.9389 28.6053 26.8762C28.6654 27.78 29.5693 28.1343 30.0177 29.3201M32.1589 31.8336L27.629 27.6235L31.8344 32.1538" fill="#85340A"/>
<path d="M32.4219 31.8282L28.6599 23.6442C28.6599 23.6442 28.5939 23.4858 28.4883 23.5254C28.3827 23.5782 28.4487 23.7366 28.4487 23.7366L31.5771 32.1846M31.6695 28.9902C31.7223 27.7494 30.9567 27.063 31.0491 25.9542C31.1547 24.8322 30.5475 24.2118 30.3891 23.7762C30.2571 23.3406 30.5475 23.0898 30.4287 23.0238C30.2967 22.9578 30.0327 23.301 30.1119 23.9214C30.2043 24.5286 30.6663 24.7134 30.5607 26.073C30.4551 27.4326 31.1151 27.7494 30.9567 28.977" fill="#F6B40E"/>
<path d="M32.4219 31.8282L28.6599 23.6442C28.6599 23.6442 28.5939 23.4858 28.4883 23.5254C28.3827 23.5782 28.4487 23.7366 28.4487 23.7366L31.5771 32.1846M31.6695 28.9902C31.7223 27.7494 30.9567 27.063 31.0491 25.9542C31.1547 24.8322 30.5475 24.2118 30.3891 23.7762C30.2571 23.3406 30.5475 23.0898 30.4287 23.0238C30.2967 22.9578 30.0327 23.301 30.1119 23.9214C30.2043 24.5286 30.6663 24.7134 30.5607 26.073C30.4551 27.4326 31.1151 27.7494 30.9567 28.977" stroke="#85340A" stroke-width="0.1452"/>
<path d="M32.4547 32.0028L32.111 23.0021C32.111 23.0021 32.1106 22.8305 31.9979 22.8266C31.8801 22.835 31.8805 23.0066 31.8805 23.0066L31.5379 32.0087M32.8457 29.0929C33.3693 27.9667 32.9246 27.0396 33.4343 26.0505C33.9613 25.0544 33.6377 24.2488 33.658 23.7858C33.7028 23.3328 34.0671 23.2122 33.9826 23.1058C33.8859 22.9943 33.5106 23.2103 33.3464 23.8138C33.1994 24.4102 33.5555 24.7577 32.9376 25.9734C32.3198 27.1891 32.8083 27.7344 32.1922 28.8079" fill="#F6B40E"/>
<path d="M32.4547 32.0028L32.111 23.0021C32.111 23.0021 32.1106 22.8305 31.9979 22.8266C31.8801 22.835 31.8805 23.0066 31.8805 23.0066L31.5379 32.0087M32.8457 29.0929C33.3693 27.9667 32.9246 27.0396 33.4343 26.0505C33.9613 25.0544 33.6377 24.2488 33.658 23.7858C33.7028 23.3328 34.0671 23.2122 33.9826 23.1058C33.8859 22.9943 33.5106 23.2103 33.3464 23.8138C33.1994 24.4102 33.5555 24.7577 32.9376 25.9734C32.3198 27.1891 32.8083 27.7344 32.1922 28.8079" stroke="#85340A" stroke-width="0.1452"/>
<path d="M32.42 32.1772L35.5468 23.7301C35.5468 23.7301 35.6121 23.5714 35.5095 23.5247C35.3975 23.4874 35.3321 23.6461 35.3321 23.6461L31.5706 31.8318M33.8947 29.6384C34.8094 28.7983 34.7534 27.7716 35.6028 27.0529C36.4709 26.3342 36.4802 25.4662 36.6762 25.0462C36.8909 24.6448 37.2736 24.6728 37.2362 24.5421C37.1896 24.4021 36.7602 24.4581 36.3775 24.9528C36.0135 25.4475 36.2095 25.9049 35.1735 26.7916C34.1374 27.6783 34.3801 28.369 33.4 29.125" fill="#F6B40E"/>
<path d="M32.42 32.1772L35.5468 23.7301C35.5468 23.7301 35.6121 23.5714 35.5095 23.5247C35.3975 23.4874 35.3321 23.6461 35.3321 23.6461L31.5706 31.8318M33.8947 29.6384C34.8094 28.7983 34.7534 27.7716 35.6028 27.0529C36.4709 26.3342 36.4802 25.4662 36.6762 25.0462C36.8909 24.6448 37.2736 24.6728 37.2362 24.5421C37.1896 24.4021 36.7602 24.4581 36.3775 24.9528C36.0135 25.4475 36.2095 25.9049 35.1735 26.7916C34.1374 27.6783 34.3801 28.369 33.4 29.125" stroke="#85340A" stroke-width="0.1452"/>
<path d="M32.3193 32.3245L38.4406 25.717C38.4406 25.717 38.5617 25.5954 38.4847 25.513C38.3955 25.4357 38.2744 25.5573 38.2744 25.5573L31.6667 31.6804M34.6533 30.5434C35.8199 30.1173 36.161 29.1473 37.2208 28.8084C38.2978 28.4766 38.6386 27.6782 38.9804 27.3651C39.3323 27.0765 39.6752 27.2488 39.6907 27.1138C39.7012 26.9666 39.2831 26.854 38.7402 27.1646C38.2146 27.4823 38.2206 27.9799 36.9241 28.4026C35.6276 28.8253 35.5875 29.5563 34.3927 29.8798" fill="#F6B40E"/>
<path d="M32.3193 32.3245L38.4406 25.717C38.4406 25.717 38.5617 25.5954 38.4847 25.513C38.3955 25.4357 38.2744 25.5573 38.2744 25.5573L31.6667 31.6804M34.6533 30.5434C35.8199 30.1173 36.161 29.1473 37.2208 28.8084C38.2978 28.4766 38.6386 27.6782 38.9804 27.3651C39.3323 27.0765 39.6752 27.2488 39.6907 27.1138C39.7012 26.9666 39.2831 26.854 38.7402 27.1646C38.2146 27.4823 38.2206 27.9799 36.9241 28.4026C35.6276 28.8253 35.5875 29.5563 34.3927 29.8798" stroke="#85340A" stroke-width="0.1452"/>
<path d="M31.4321 28.7791C31.3661 27.5911 30.6929 27.0631 30.8249 25.9675C30.5345 26.8255 31.2341 27.4987 31.1945 28.7659M32.2109 31.9075L29.6369 26.2843L31.7885 32.0791" fill="#85340A"/>
<path d="M32.7073 28.807C33.1009 27.6841 32.681 26.9387 33.2223 25.977C32.6256 26.6586 33.0143 27.5483 32.4928 28.7039M32.2296 31.9953L32.0034 25.8151L31.7737 31.9922" fill="#85340A"/>
<path d="M33.8746 29.3209C34.6679 28.4342 34.5653 27.5848 35.4333 26.9035C34.6213 27.3048 34.6399 28.2755 33.7159 29.1436M32.2131 32.0837L34.3692 26.2874L31.7931 31.9064" fill="#85340A"/>
<path d="M34.7566 30.2427C35.8289 29.7271 36.0591 28.9031 37.1218 28.6058C36.218 28.6658 35.8638 29.5698 34.6779 30.0182M32.1644 32.1594L36.3745 27.6295L31.8442 31.8348" fill="#85340A"/>
<path d="M32.1709 32.4224L40.3549 28.6604C40.3549 28.6604 40.5133 28.5944 40.4737 28.4888C40.4209 28.3832 40.2625 28.4492 40.2625 28.4492L31.8145 31.5776M35.0089 31.67C36.2497 31.7228 36.9361 30.9572 38.0449 31.0496C39.1669 31.1552 39.7873 30.548 40.2229 30.3896C40.6585 30.2576 40.9093 30.548 40.9753 30.4292C41.0413 30.2972 40.6981 30.0332 40.0777 30.1124C39.4705 30.2048 39.2857 30.6668 37.9261 30.5612C36.5665 30.4556 36.2497 31.1156 35.0221 30.9572" fill="#F6B40E"/>
<path d="M32.1709 32.4224L40.3549 28.6604C40.3549 28.6604 40.5133 28.5944 40.4737 28.4888C40.4209 28.3832 40.2625 28.4492 40.2625 28.4492L31.8145 31.5776M35.0089 31.67C36.2497 31.7228 36.9361 30.9572 38.0449 31.0496C39.1669 31.1552 39.7873 30.548 40.2229 30.3896C40.6585 30.2576 40.9093 30.548 40.9753 30.4292C41.0413 30.2972 40.6981 30.0332 40.0777 30.1124C39.4705 30.2048 39.2857 30.6668 37.9261 30.5612C36.5665 30.4556 36.2497 31.1156 35.0221 30.9572" stroke="#85340A" stroke-width="0.1452"/>
<path d="M31.9972 32.4562L40.9979 32.1125C40.9979 32.1125 41.1695 32.1121 41.1734 31.9994C41.165 31.8816 40.9934 31.882 40.9934 31.882L31.9913 31.5393M34.9071 32.8471C36.0333 33.3708 36.9604 32.9261 37.9495 33.4358C38.9456 33.9627 39.7512 33.6392 40.2142 33.6595C40.6672 33.7043 40.7878 34.0685 40.8942 33.984C41.0057 33.8873 40.7897 33.5121 40.1862 33.3479C39.5898 33.2009 39.2423 33.557 38.0266 32.9391C36.8109 32.3212 36.2656 32.8098 35.1921 32.1936" fill="#F6B40E"/>
<path d="M31.9972 32.4562L40.9979 32.1125C40.9979 32.1125 41.1695 32.1121 41.1734 31.9994C41.165 31.8816 40.9934 31.882 40.9934 31.882L31.9913 31.5393M34.9071 32.8471C36.0333 33.3708 36.9604 32.9261 37.9495 33.4358C38.9456 33.9627 39.7512 33.6392 40.2142 33.6595C40.6672 33.7043 40.7878 34.0685 40.8942 33.984C41.0057 33.8873 40.7897 33.5121 40.1862 33.3479C39.5898 33.2009 39.2423 33.557 38.0266 32.9391C36.8109 32.3212 36.2656 32.8098 35.1921 32.1936" stroke="#85340A" stroke-width="0.1452"/>
<path d="M31.8223 32.42L40.2694 35.5468C40.2694 35.5468 40.4281 35.6121 40.4748 35.5095C40.5121 35.3975 40.3534 35.3321 40.3534 35.3321L32.1677 31.5706M34.3611 33.8947C35.2012 34.8094 36.2279 34.7534 36.9466 35.6028C37.6653 36.4709 38.5333 36.4802 38.9534 36.6762C39.3547 36.8909 39.3267 37.2736 39.4574 37.2362C39.5974 37.1896 39.5414 36.7602 39.0467 36.3775C38.552 36.0135 38.0946 36.2095 37.2079 35.1735C36.3212 34.1374 35.6305 34.3801 34.8745 33.4" fill="#F6B40E"/>
<path d="M31.8223 32.42L40.2694 35.5468C40.2694 35.5468 40.4281 35.6121 40.4748 35.5095C40.5121 35.3975 40.3534 35.3321 40.3534 35.3321L32.1677 31.5706M34.3611 33.8947C35.2012 34.8094 36.2279 34.7534 36.9466 35.6028C37.6653 36.4709 38.5333 36.4802 38.9534 36.6762C39.3547 36.8909 39.3267 37.2736 39.4574 37.2362C39.5974 37.1896 39.5414 36.7602 39.0467 36.3775C38.552 36.0135 38.0946 36.2095 37.2079 35.1735C36.3212 34.1374 35.6305 34.3801 34.8745 33.4" stroke="#85340A" stroke-width="0.1452"/>
<path d="M31.6755 32.3202L38.283 38.4416C38.283 38.4416 38.4046 38.5627 38.487 38.4857C38.5643 38.3965 38.4427 38.2754 38.4427 38.2754L32.3196 31.6677M33.4566 34.6543C33.8827 35.8208 34.8527 36.162 35.1916 37.2218C35.5234 38.2988 36.3218 38.6396 36.6349 38.9814C36.9235 39.3333 36.7512 39.6762 36.8862 39.6917C37.0334 39.7021 37.146 39.284 36.8354 38.7412C36.5177 38.2155 36.0201 38.2216 35.5974 36.9251C35.1747 35.6286 34.4437 35.5885 34.1202 34.3937" fill="#F6B40E"/>
<path d="M31.6755 32.3202L38.283 38.4416C38.283 38.4416 38.4046 38.5627 38.487 38.4857C38.5643 38.3965 38.4427 38.2754 38.4427 38.2754L32.3196 31.6677M33.4566 34.6543C33.8827 35.8208 34.8527 36.162 35.1916 37.2218C35.5234 38.2988 36.3218 38.6396 36.6349 38.9814C36.9235 39.3333 36.7512 39.6762 36.8862 39.6917C37.0334 39.7021 37.146 39.284 36.8354 38.7412C36.5177 38.2156 36.0201 38.2216 35.5974 36.9251C35.1747 35.6286 34.4437 35.5885 34.1202 34.3937" stroke="#85340A" stroke-width="0.1452"/>
<path d="M35.2199 31.4326C36.4079 31.3666 36.9359 30.6934 38.0315 30.8254C37.1735 30.535 36.5003 31.2346 35.2331 31.195M32.0915 32.2114L37.7147 29.6374L31.9199 31.789" fill="#85340A"/>
<path d="M35.1925 32.7084C36.3154 33.102 37.0608 32.6821 38.0225 33.2234C37.3409 32.6267 36.4512 33.0154 35.2957 32.4939M32.0042 32.2307L38.1844 32.0045L32.0073 31.7748" fill="#85340A"/>
<path d="M34.6788 33.8763C35.5655 34.6696 36.4149 34.567 37.0963 35.435C36.6949 34.623 35.7242 34.6416 34.8562 33.7176M31.916 32.2148L37.7123 34.371L32.0934 31.7948" fill="#85340A"/>
<path d="M33.7578 34.7586C34.2734 35.8309 35.0974 36.0611 35.3947 37.1238C35.3346 36.22 34.4307 35.8657 33.9823 34.6799M31.8411 32.1664L36.371 36.3765L32.1656 31.8462" fill="#85340A"/>
<path d="M31.9994 35.6716C34.027 35.6716 35.6706 34.0279 35.6706 32.0004C35.6706 29.9728 34.027 28.3291 31.9994 28.3291C29.9718 28.3291 28.3281 29.9728 28.3281 32.0004C28.3281 34.0279 29.9718 35.6716 31.9994 35.6716Z" fill="#F6B40E" stroke="#85340A" stroke-width="0.1925"/>
<path d="M33.2379 31.2163C33.0041 31.2163 32.7566 31.3263 32.6191 31.5463C32.8941 31.8076 33.5266 31.8213 33.9529 31.5188C33.8628 31.4232 33.7542 31.3471 33.6336 31.295C33.513 31.243 33.383 31.2162 33.2516 31.2163H33.2379ZM33.2379 31.2713C33.4854 31.2713 33.7191 31.3813 33.7466 31.4913C33.4716 31.8076 33.0179 31.7663 32.7291 31.5463C32.8666 31.3538 33.0591 31.2713 33.2516 31.2713H33.2379Z" fill="#843511"/>
<path d="M33.2932 31.0376C32.9219 31.0376 32.8394 31.1201 32.6744 31.2713C32.5094 31.4088 32.4132 31.3813 32.3994 31.4088C32.3582 31.4363 32.3994 31.5188 32.4407 31.4913C32.5094 31.4638 32.6194 31.4088 32.7844 31.2713C32.9494 31.1338 33.1282 31.1338 33.2932 31.1338C33.8019 31.1338 34.0769 31.5463 34.1319 31.5188C34.2007 31.4913 33.8569 31.0376 33.2932 31.0376Z" fill="#85340A"/>
<path d="M34.3105 31.2163C33.6643 30.6526 32.8393 30.5563 32.3855 30.9826C32.2811 31.1201 32.2104 31.2802 32.1793 31.4501C32.1243 31.7801 32.2205 32.1238 32.468 32.4813L32.358 32.5363C32.138 32.1101 32.0555 31.6701 32.138 31.2438L32.2205 30.9276C32.8393 30.4188 33.6918 30.3776 34.3105 31.2026V31.2163Z" fill="#85340A"/>
<path d="M33.2375 31.7387C33.3742 31.7387 33.485 31.6278 33.485 31.4912C33.485 31.3545 33.3742 31.2437 33.2375 31.2437C33.1008 31.2437 32.99 31.3545 32.99 31.4912C32.99 31.6278 33.1008 31.7387 33.2375 31.7387Z" fill="#85340A"/>
<path d="M33.9668 31.6561C33.4855 32.0273 33.0043 31.9998 32.7293 31.8348C32.4543 31.6561 32.4543 31.6011 32.5093 31.6011C32.5643 31.6011 32.6193 31.6561 32.8393 31.7798C33.073 31.8898 33.403 31.8898 33.9668 31.6561Z" fill="#85340A"/>
<path d="M31.4495 32.5088C31.4112 32.5178 31.3757 32.5358 31.3459 32.5612C31.316 32.5867 31.2926 32.6189 31.2776 32.6552C31.2626 32.6915 31.2565 32.7308 31.2597 32.7699C31.2629 32.809 31.2754 32.8468 31.2961 32.8802C31.3168 32.9135 31.3451 32.9415 31.3787 32.9617C31.4124 32.982 31.4503 32.9939 31.4895 32.9966C31.5287 32.9993 31.5679 32.9926 31.604 32.9771C31.64 32.9616 31.6719 32.9378 31.6969 32.9075C31.7876 32.9638 31.8927 32.9925 31.9995 32.99H32.027C32.1095 32.99 32.247 32.9763 32.3432 32.9075C32.3845 32.9763 32.467 33.0038 32.5495 33.0038C32.6151 33.0093 32.6802 32.9884 32.7305 32.9459C32.7808 32.9033 32.8121 32.8426 32.8176 32.7769C32.823 32.7113 32.8022 32.6461 32.7597 32.5959C32.7171 32.5456 32.6563 32.5143 32.5907 32.5088C32.6594 32.5363 32.7007 32.5913 32.7007 32.6738C32.7007 32.7175 32.6833 32.7595 32.6524 32.7905C32.6214 32.8214 32.5795 32.8388 32.5357 32.8388C32.4919 32.8388 32.45 32.8214 32.419 32.7905C32.3881 32.7595 32.3707 32.7175 32.3707 32.6738C32.3381 32.7417 32.2876 32.7993 32.2246 32.8405C32.1615 32.8817 32.0885 32.9049 32.0132 32.9075C31.9403 32.9025 31.8701 32.8782 31.8097 32.8371C31.7493 32.7961 31.7009 32.7397 31.6695 32.6738C31.6695 32.77 31.5869 32.8388 31.4907 32.8388C31.4082 32.8388 31.3257 32.7563 31.3257 32.6738C31.3257 32.5913 31.367 32.5363 31.4357 32.5088H31.4495ZM31.7245 33.2513C31.4357 33.2513 31.312 33.5263 31.0645 33.6775C31.202 33.6225 31.312 33.5125 31.5182 33.4025C31.7107 33.2925 31.8757 33.43 31.9995 33.43C32.1095 33.43 32.2745 33.2925 32.4807 33.4025C32.6732 33.5125 32.7969 33.6225 32.9344 33.6775C32.6732 33.5125 32.5632 33.265 32.2745 33.265C32.2195 33.265 32.1095 33.2925 31.9995 33.3475L31.7245 33.2513Z" fill="#85340A"/>
<path d="M31.6159 33.5953C31.5059 33.5953 31.3684 33.6228 31.1484 33.6778C31.6572 33.5678 31.7672 33.7466 32.0009 33.7466C32.2209 33.7466 32.3447 33.5678 32.8397 33.6778C32.2897 33.5128 32.1659 33.6228 32.0009 33.6228C31.8909 33.6228 31.8084 33.5816 31.6159 33.5953Z" fill="#85340A"/>
<path d="M31.1745 33.6774H31.0645C31.6557 33.7462 31.3807 34.0899 31.9995 34.0899C32.6182 34.0899 32.3432 33.7462 32.9344 33.6774C32.3157 33.6224 32.5082 33.9937 31.9995 33.9937C31.5182 33.9937 31.6695 33.6774 31.1745 33.6774Z" fill="#85340A"/>
<path d="M32.5097 34.5986C32.5097 34.4637 32.4561 34.3343 32.3607 34.2389C32.2653 34.1434 32.1359 34.0898 32.0009 34.0898C31.866 34.0898 31.7366 34.1434 31.6412 34.2389C31.5458 34.3343 31.4922 34.4637 31.4922 34.5986C31.5191 34.4838 31.5839 34.3815 31.6763 34.3083C31.7687 34.235 31.8831 34.1952 32.0009 34.1952C32.1188 34.1952 32.2332 34.235 32.3256 34.3083C32.4179 34.3815 32.4828 34.4838 32.5097 34.5986Z" fill="#85340A"/>
<path d="M29.7168 31.2163C30.363 30.6526 31.188 30.5563 31.6418 30.9826C31.7463 31.1201 31.8169 31.2802 31.848 31.4501C31.903 31.7801 31.8068 32.1238 31.5593 32.4813L31.6693 32.5363C31.8893 32.1101 31.9718 31.6701 31.8893 31.2438L31.8068 30.9276C31.188 30.4188 30.3355 30.3776 29.7168 31.2026V31.2163Z" fill="#85340A"/>
<path d="M30.7342 31.0376C31.1054 31.0376 31.1879 31.1201 31.3529 31.2713C31.5179 31.4088 31.6142 31.3813 31.6279 31.4088C31.6692 31.4363 31.6279 31.5188 31.5867 31.4913C31.5179 31.4638 31.4079 31.4088 31.2429 31.2713C31.0779 31.1338 30.8992 31.1338 30.7342 31.1338C30.2254 31.1338 29.9504 31.5463 29.8954 31.5188C29.8267 31.4913 30.1704 31.0376 30.7342 31.0376Z" fill="#85340A"/>
<path d="M30.7066 31.2163C30.4729 31.2163 30.2254 31.3263 30.0879 31.5463C30.3629 31.8076 30.9954 31.8213 31.4216 31.5188C31.3316 31.4232 31.2229 31.3471 31.1023 31.295C30.9817 31.243 30.8517 31.2162 30.7204 31.2163H30.7066ZM30.7066 31.2713C30.9541 31.2713 31.1879 31.3813 31.2154 31.4913C30.9404 31.8076 30.4866 31.7663 30.1979 31.5463C30.3354 31.3538 30.5279 31.2713 30.7204 31.2713H30.7066Z" fill="#843511"/>
<path d="M30.7495 31.7387C30.8861 31.7387 30.997 31.6278 30.997 31.4912C30.997 31.3545 30.8861 31.2437 30.7495 31.2437C30.6128 31.2437 30.502 31.3545 30.502 31.4912C30.502 31.6278 30.6128 31.7387 30.7495 31.7387Z" fill="#85340A"/>
<path d="M30.0605 31.6561C30.5418 32.0273 31.023 31.9998 31.298 31.8348C31.573 31.6561 31.573 31.6011 31.518 31.6011C31.463 31.6011 31.408 31.6561 31.188 31.7798C30.9543 31.8898 30.6243 31.8898 30.0605 31.6561Z" fill="#85340A"/>
</g>
<defs>
<clipPath id="clip0_1154_21090">
<rect width="64" height="64" rx="32" fill="white"/>
</clipPath>
</defs>
</svg>
