<svg width="64" height="64" viewBox="0 0 64 64" fill="none" xmlns="http://www.w3.org/2000/svg">
<g clip-path="url(#clip0_1154_21709)">
<path d="M64 32C64 28.0858 63.296 24.3361 62.0096 20.8696L32 19.4783L1.99038 20.8695C0.704125 24.3361 0 28.0858 0 32C0 35.9143 0.704125 39.6639 1.99038 43.1304L32 44.5218L62.0096 43.1305C63.296 39.6639 64 35.9143 64 32Z" fill="#0052B4"/>
<path d="M32 64C45.7589 64 57.4882 55.316 62.0096 43.1304H1.99036C6.51173 55.316 18.2411 64 32 64Z" fill="#FF9811"/>
<path d="M1.99036 20.8696H62.0097C57.4882 8.684 45.7589 0 32 0C18.2411 0 6.51173 8.684 1.99036 20.8696Z" fill="#D80027"/>
</g>
<defs>
<clipPath id="clip0_1154_21709">
<rect width="64" height="64" fill="white"/>
</clipPath>
</defs>
</svg>
