<svg width="64" height="64" viewBox="0 0 64 64" fill="none" xmlns="http://www.w3.org/2000/svg">
<g clip-path="url(#clip0_1154_21736)">
<rect width="64" height="64" rx="32" fill="white"/>
<path d="M0 0H88V71H0V0Z" fill="#EE1C25"/>
<path d="M10.5596 29.4201L16.4995 11.6001L22.4394 29.4201L6.59961 18.5301H26.3994L10.5596 29.4201Z" fill="#FFFF00"/>
<path d="M36.323 11.9416L30.2101 13.2962L34.2877 8.54469L33.8877 14.9396L30.4954 9.27818L36.323 11.9416Z" fill="#FFFF00"/>
<path d="M42.4931 19.7605L36.3333 18.6383L41.9345 15.8401L39.0857 21.5794L38.1546 15.0454L42.4931 19.7605Z" fill="#FFFF00"/>
<path d="M41.5934 30.7294L36.4269 27.1924L42.6823 26.9221L37.7405 31.0004L39.5552 24.6548L41.5934 30.7294Z" fill="#FFFF00"/>
<path d="M33.8235 37.8957L30.4239 32.6377L36.2984 34.8044L30.1648 36.6575L34.2896 31.5053L33.8235 37.8957Z" fill="#FFFF00"/>
</g>
<defs>
<clipPath id="clip0_1154_21736">
<rect width="64" height="64" rx="32" fill="white"/>
</clipPath>
</defs>
</svg>
