<svg width="64" height="64" viewBox="0 0 64 64" fill="none" xmlns="http://www.w3.org/2000/svg">
<g clip-path="url(#clip0_1154_21755)">
<rect width="64" height="64" rx="32" fill="white"/>
<path d="M-16 -1H72V65H-16V-1Z" fill="#00ABC2"/>
<path d="M31.5496 35.6031C36.4559 35.6031 40.4332 31.6258 40.4332 26.7195C40.4332 21.8133 36.4559 17.8359 31.5496 17.8359C26.6433 17.8359 22.666 21.8133 22.666 26.7195C22.666 31.6258 26.6433 35.6031 31.5496 35.6031Z" fill="#FFEC2D"/>
<path d="M31.5502 16.6282C32.0782 16.6216 32.2762 16.2916 32.2762 15.8956C32.2762 15.3676 31.5502 12.853 31.5502 12.853C31.5502 12.853 30.8242 15.3676 30.8242 15.8956C30.8242 16.2916 31.0222 16.6282 31.5502 16.6282Z" fill="#FFEC2D"/>
<path d="M41.6408 26.7197C41.6474 27.2477 41.9774 27.4457 42.3734 27.4457C42.9014 27.4457 45.416 26.7197 45.416 26.7197C45.416 26.7197 42.9014 25.9937 42.3734 25.9937C41.9774 25.9937 41.6408 26.1917 41.6408 26.7197Z" fill="#FFEC2D"/>
<path d="M31.5494 36.8112C31.0214 36.8178 30.8234 37.1478 30.8234 37.5438C30.8234 38.0718 31.5494 40.5864 31.5494 40.5864C31.5494 40.5864 32.2754 38.0718 32.2754 37.5438C32.2754 37.1478 32.0774 36.8112 31.5494 36.8112Z" fill="#FFEC2D"/>
<path d="M21.4588 26.72C21.4522 26.192 21.1222 25.994 20.7262 25.994C20.1982 25.994 17.6836 26.72 17.6836 26.72C17.6836 26.72 20.1982 27.446 20.7262 27.446C21.1222 27.446 21.4588 27.248 21.4588 26.72Z" fill="#FFEC2D"/>
<path d="M35.4116 17.3965C35.9019 17.5925 36.2111 17.3634 36.3627 16.9975C36.5647 16.5097 36.8563 13.9087 36.8563 13.9087C36.8563 13.9087 35.2233 15.954 35.0212 16.4419C34.8697 16.8077 34.9238 17.1945 35.4116 17.3965Z" fill="#FFEC2D"/>
<path d="M40.873 30.5815C40.6771 31.0718 40.9062 31.381 41.272 31.5326C41.7598 31.7346 44.3608 32.0262 44.3608 32.0262C44.3608 32.0262 42.3155 30.3932 41.8277 30.1911C41.4618 30.0396 41.0751 30.0937 40.873 30.5815Z" fill="#FFEC2D"/>
<path d="M27.688 36.0429C27.1977 35.847 26.8885 36.0761 26.7369 36.4419C26.5349 36.9297 26.2433 39.5308 26.2433 39.5308C26.2433 39.5308 27.8764 37.4854 28.0784 36.9976C28.23 36.6317 28.1758 36.245 27.688 36.0429Z" fill="#FFEC2D"/>
<path d="M22.2266 22.858C22.4226 22.3676 22.1934 22.0584 21.8276 21.9069C21.3398 21.7048 18.7388 21.4132 18.7388 21.4132C18.7388 21.4132 20.7841 23.0463 21.2719 23.2483C21.6378 23.3999 22.0245 23.3458 22.2266 22.858Z" fill="#FFEC2D"/>
<path d="M38.6837 19.5842C39.0618 19.9529 39.4351 19.8595 39.7151 19.5795C40.0885 19.2062 41.3532 16.9147 41.3532 16.9147C41.3532 16.9147 39.0618 18.1795 38.6884 18.5528C38.4084 18.8328 38.3104 19.2108 38.6837 19.5842Z" fill="#FFEC2D"/>
<path d="M38.6844 33.8556C38.3157 34.2336 38.409 34.607 38.689 34.887C39.0624 35.2603 41.3538 36.5251 41.3538 36.5251C41.3538 36.5251 40.0891 34.2336 39.7157 33.8603C39.4357 33.5803 39.0577 33.4823 38.6844 33.8556Z" fill="#FFEC2D"/>
<path d="M24.4139 33.8553C24.0359 33.4866 23.6626 33.5799 23.3825 33.8599C23.0092 34.2333 21.7445 36.5247 21.7445 36.5247C21.7445 36.5247 24.0359 35.26 24.4093 34.8866C24.6893 34.6066 24.7873 34.2286 24.4139 33.8553Z" fill="#FFEC2D"/>
<path d="M24.4133 19.5838C24.782 19.2058 24.6886 18.8325 24.4086 18.5525C24.0353 18.1791 21.7438 16.9144 21.7438 16.9144C21.7438 16.9144 23.0086 19.2058 23.3819 19.5792C23.6619 19.8592 24.0399 19.9572 24.4133 19.5838Z" fill="#FFEC2D"/>
<path d="M40.8759 22.8576C41.0841 23.3429 41.4647 23.3996 41.8306 23.248C42.3184 23.046 44.3638 21.4129 44.3638 21.4129C44.3638 21.4129 41.7627 21.7045 41.2749 21.9065C40.9091 22.0581 40.6739 22.3698 40.8759 22.8576Z" fill="#FFEC2D"/>
<path d="M35.4139 36.0429C34.9286 36.2511 34.8719 36.6317 35.0235 36.9976C35.2255 37.4854 36.8586 39.5308 36.8586 39.5308C36.8586 39.5308 36.567 36.9297 36.3649 36.4419C36.2134 36.0761 35.9017 35.8409 35.4139 36.0429Z" fill="#FFEC2D"/>
<path d="M22.2295 30.5813C22.0214 30.0961 21.6407 30.0394 21.2749 30.191C20.7871 30.393 18.7417 32.026 18.7417 32.026C18.7417 32.026 21.3427 31.7345 21.8305 31.5324C22.1964 31.3809 22.4316 31.0691 22.2295 30.5813Z" fill="#FFEC2D"/>
<path d="M27.6897 17.3965C28.1749 17.1884 28.2316 16.8077 28.08 16.4419C27.878 15.9541 26.245 13.9087 26.245 13.9087C26.245 13.9087 26.5365 16.5097 26.7386 16.9975C26.8901 17.3634 27.2019 17.5986 27.6897 17.3965Z" fill="#FFEC2D"/>
<path d="M33.5288 16.8238C34.0479 16.9208 34.3067 16.6359 34.3843 16.2476C34.4878 15.7299 34.2686 13.1217 34.2686 13.1217C34.2686 13.1217 33.0639 15.4453 32.9605 15.9631C32.8829 16.3514 33.0111 16.7203 33.5288 16.8238Z" fill="#FFEC2D"/>
<path d="M41.4467 28.6973C41.3498 29.2163 41.6346 29.4752 42.0229 29.5528C42.5406 29.6562 45.1488 29.437 45.1488 29.437C45.1488 29.437 42.8252 28.2324 42.3074 28.1289C41.9191 28.0513 41.5502 28.1795 41.4467 28.6973Z" fill="#FFEC2D"/>
<path d="M29.5727 36.6157C29.0537 36.5187 28.7948 36.8035 28.7173 37.1918C28.6138 37.7096 28.833 40.3177 28.833 40.3177C28.833 40.3177 30.0376 37.9941 30.1411 37.4763C30.2187 37.088 30.0905 36.7191 29.5727 36.6157Z" fill="#FFEC2D"/>
<path d="M21.6548 24.7422C21.7518 24.2231 21.467 23.9643 21.0787 23.8867C20.5609 23.7832 17.9528 24.0024 17.9528 24.0024C17.9528 24.0024 20.2764 25.2071 20.7942 25.3105C21.1825 25.3881 21.5514 25.2599 21.6548 24.7422Z" fill="#FFEC2D"/>
<path d="M37.1633 18.334C37.6058 18.6222 37.9539 18.4581 38.1742 18.1291C38.4679 17.6903 39.2635 15.1968 39.2635 15.1968C39.2635 15.1968 37.2613 16.8826 36.9676 17.3213C36.7473 17.6504 36.7246 18.0402 37.1633 18.334Z" fill="#FFEC2D"/>
<path d="M39.9356 32.3337C39.6473 32.7762 39.8114 33.1243 40.1405 33.3446C40.5792 33.6383 43.0727 34.4339 43.0727 34.4339C43.0727 34.4339 41.387 32.4317 40.9482 32.138C40.6191 31.9177 40.2293 31.895 39.9356 32.3337Z" fill="#FFEC2D"/>
<path d="M25.9363 35.1055C25.4939 34.8172 25.1457 34.9813 24.9254 35.3104C24.6317 35.7491 23.8362 38.2426 23.8362 38.2426C23.8362 38.2426 25.8383 36.5569 26.132 36.1181C26.3523 35.7891 26.375 35.3992 25.9363 35.1055Z" fill="#FFEC2D"/>
<path d="M23.1641 21.1062C23.4523 20.6638 23.2882 20.3157 22.9591 20.0954C22.5204 19.8016 20.0269 19.0061 20.0269 19.0061C20.0269 19.0061 21.7126 21.0082 22.1514 21.302C22.4805 21.5223 22.8703 21.545 23.1641 21.1062Z" fill="#FFEC2D"/>
<path d="M39.9456 21.1208C40.2441 21.5564 40.6285 21.538 40.9579 21.3183C41.3972 21.0253 43.0864 19.0261 43.0864 19.0261C43.0864 19.0261 40.5916 19.8173 40.1523 20.1103C39.8228 20.33 39.6527 20.6815 39.9456 21.1208Z" fill="#FFEC2D"/>
<path d="M37.1493 35.1155C36.7136 35.414 36.732 35.7984 36.9517 36.1278C37.2447 36.5671 39.2439 38.2563 39.2439 38.2563C39.2439 38.2563 38.4527 35.7615 38.1597 35.3222C37.94 34.9928 37.5885 34.8226 37.1493 35.1155Z" fill="#FFEC2D"/>
<path d="M23.154 32.3189C22.8555 31.8833 22.4711 31.9017 22.1417 32.1214C21.7024 32.4144 20.0132 34.4136 20.0132 34.4136C20.0132 34.4136 22.508 33.6224 22.9473 33.3294C23.2768 33.1097 23.447 32.7582 23.154 32.3189Z" fill="#FFEC2D"/>
<path d="M25.9508 18.3244C26.3865 18.026 26.3681 17.6415 26.1484 17.3121C25.8554 16.8728 23.8562 15.1836 23.8562 15.1836C23.8562 15.1836 24.6474 17.6785 24.9404 18.1177C25.1601 18.4472 25.5116 18.6174 25.9508 18.3244Z" fill="#FFEC2D"/>
<path d="M41.4494 24.7594C41.5585 25.2761 41.9206 25.4062 42.3091 25.3293C42.827 25.2267 45.1527 24.0261 45.1527 24.0261C45.1527 24.0261 42.545 23.8024 42.0271 23.9049C41.6386 23.9819 41.3469 24.2415 41.4494 24.7594Z" fill="#FFEC2D"/>
<path d="M33.5096 36.6189C32.993 36.7279 32.8628 37.0901 32.9398 37.4785C33.0423 37.9965 34.2429 40.3222 34.2429 40.3222C34.2429 40.3222 34.4667 37.7144 34.3641 37.1965C34.2872 36.808 34.0276 36.5163 33.5096 36.6189Z" fill="#FFEC2D"/>
<path d="M21.6502 28.68C21.5411 28.1634 21.179 28.0332 20.7905 28.1102C20.2726 28.2127 17.9469 29.4133 17.9469 29.4133C17.9469 29.4133 20.5546 29.6371 21.0725 29.5345C21.461 29.4576 21.7527 29.198 21.6502 28.68Z" fill="#FFEC2D"/>
<path d="M29.59 16.8206C30.1066 16.7116 30.2368 16.3494 30.1599 15.9609C30.0573 15.443 28.8567 13.1173 28.8567 13.1173C28.8567 13.1173 28.633 15.725 28.7355 16.243C28.8124 16.6314 29.072 16.9231 29.59 16.8206Z" fill="#FFEC2D"/>
<path d="M31.2432 42.2301C31.0122 42.6459 30.8736 43.1277 30.5832 43.5039C29.6856 42.6921 28.392 42.7119 27.2568 42.6657C26.3196 42.6129 25.3032 42.5271 24.5772 41.8605C23.8182 41.2335 23.1912 40.4283 22.3464 39.9201C21.5525 39.7491 20.8064 39.4043 20.1618 38.9103C18.8286 37.8213 18.063 36.2043 16.7562 35.0823C16.512 34.8447 16.215 34.6533 15.9378 34.4487C15.6738 34.5147 15.7926 35.0823 15.4692 34.7919C15.291 34.6599 14.8488 34.6533 14.8092 34.8315C15.2052 35.3595 15.6078 35.9535 15.6672 36.6267C15.39 36.6531 14.9082 36.5673 14.7762 36.6663C15.1389 37.2103 15.5947 37.6862 16.1226 38.0721C15.8718 38.1117 15.3768 38.0919 15.2778 38.1909C15.772 38.664 16.382 38.9986 17.0466 39.1611C17.1786 39.3459 16.842 39.7023 17.1324 39.8607C17.2974 39.9267 17.8518 40.0455 17.469 40.2369C17.205 40.4085 17.304 40.8243 17.6406 40.8111C17.8518 40.9233 18.327 40.9431 18.3666 41.1411C18.1752 41.3259 17.5944 41.5503 18.0894 41.7351C18.5561 41.9996 19.0783 42.151 19.614 42.1773C19.35 42.4017 19.02 42.5271 18.7494 42.7383C19.9704 43.4577 21.3234 43.9263 22.6698 44.3883C23.1978 44.5599 23.7456 44.7249 24.3 44.8305C22.6896 44.7381 21.132 44.2629 19.6668 43.6095C18.9078 43.2795 18.1488 42.9561 17.37 42.6723C17.7066 42.4941 18.1026 42.4479 18.459 42.2961C17.7198 42.1509 16.9212 42.0981 16.281 41.7021C16.3734 41.5173 16.743 41.5107 16.9542 41.4183C17.3502 41.3259 17.5878 41.2203 17.04 41.1807C16.4856 41.0289 15.852 41.0949 15.357 40.7649C15.39 40.5669 15.9048 40.6329 16.1094 40.5471C16.3734 40.5009 16.6638 40.4613 16.875 40.2831C16.017 39.9333 14.895 40.1841 14.2218 39.4251C14.07 39.1347 14.7036 39.3657 14.8818 39.3195C15.3438 39.3195 15.8388 39.4647 16.281 39.2799C15.027 38.7321 13.6872 38.2239 12.7368 37.2075C12.6312 37.0425 12.3144 36.5937 12.5718 36.5409C13.311 36.6399 13.8456 37.4451 14.6442 37.3197C14.7498 37.1811 14.1822 36.9501 14.037 36.7455C12.8431 35.7861 11.8017 34.6512 10.9482 33.3795C10.8954 32.9373 11.5752 32.8713 11.7534 33.2079C12.6378 34.0659 13.4364 35.0559 14.5386 35.6367C14.9346 35.8281 14.3142 35.4123 14.235 35.2605C13.1867 34.0983 12.2806 32.8155 11.5356 31.4391C11.4036 31.1883 11.199 30.7329 11.5818 30.6009C11.958 30.4095 12.3408 30.6669 12.5322 30.9969C13.278 31.9407 13.8324 33.0627 14.763 33.8481C13.971 32.3103 13.1196 30.6801 13.0998 28.9113C13.1196 28.5681 13.1394 28.0533 13.608 28.0599C14.004 28.0005 13.938 28.5021 14.07 28.7397C14.4528 30.0465 14.6178 31.4589 15.39 32.6073C15.225 31.6437 14.9676 30.6471 15.1392 29.6637C15.1788 29.3337 15.5352 29.2413 15.7794 29.4393C15.9708 29.9013 16.0104 30.4887 16.182 30.9903C17.2106 34.4068 19.3764 37.369 22.32 39.3855C24.7303 41.0347 27.5427 41.9996 30.4578 42.1773C30.7218 42.2037 30.9858 42.2103 31.2432 42.2235M40.2456 48.2361C39.7704 48.5265 39.4008 48.0117 39.0048 47.8599C38.7144 48.0183 38.688 48.5331 38.424 48.7839C38.1072 49.1469 37.7112 48.6783 37.7442 48.3219C37.3614 48.6453 37.17 49.3779 36.5562 49.2723C36.2592 49.0347 36.0414 48.5331 35.817 49.1073C35.6388 49.3845 35.157 49.7805 34.8996 49.3581C34.8204 48.9885 34.6356 48.5529 34.4376 49.1403C34.2924 49.5627 33.8436 49.8663 33.4212 49.6815C33.1836 49.4901 33.606 48.7773 33.309 48.8235C32.8602 49.1271 32.5962 49.8597 31.9692 49.8003C31.725 49.5363 32.121 49.0677 31.8504 48.7641C31.5402 49.1667 31.1904 49.7607 30.6426 49.8003C30.3786 49.5891 30.6558 48.9753 30.4842 48.8895C29.9298 49.2195 29.3358 49.8201 28.6362 49.6353C28.9068 48.5793 30.0552 48.2163 31.0122 48.1371C32.6688 47.9325 34.4112 48.3087 36.0084 47.7081C36.2658 47.5497 36.8862 47.3319 36.6684 46.9689C36.4704 46.6785 37.1766 46.7907 37.2426 46.4541C37.203 46.0317 37.5726 46.0911 37.929 46.0581C39.5394 45.9855 41.13 46.3221 42.7338 46.3815C42.8526 47.1603 41.988 47.7081 41.2818 47.4705C40.9518 47.5233 40.4568 46.7049 40.5558 47.2989C40.4898 47.6157 40.5294 48.0249 40.2456 48.2361ZM26.5572 46.6389C26.9268 46.9755 27.1908 46.5729 27.5406 46.4211C28.6829 45.9738 29.7561 45.3672 30.7284 44.6193C31.3356 44.1177 31.8636 43.4643 32.682 43.2993C34.2792 42.8175 35.9754 42.8769 37.5726 42.4281C38.7936 40.7649 40.8594 40.1643 42.5952 39.2073C42.9846 39.0885 43.1364 38.7651 43.2552 38.4153C43.9152 37.3659 44.8194 36.4419 45.8886 35.8083C46.3933 35.5102 46.9879 35.4025 47.565 35.5047C47.4854 36.1779 47.1641 36.7994 46.6608 37.2537C47.0502 37.2471 47.3868 37.0029 47.7696 37.0161C47.9016 37.7157 47.1492 38.0787 46.7466 38.5143C46.971 38.5671 47.829 38.6331 47.3604 38.8575C46.7664 39.2667 46.0866 39.5505 45.5388 40.0323C46.047 40.1247 46.1064 40.2303 45.5916 40.4151C45.3078 40.5999 44.7732 40.6659 44.7204 41.0355C45.1032 41.2731 44.5488 41.4975 44.331 41.5767C43.9218 41.6757 43.4862 41.8539 44.034 42.1707C43.8294 42.4809 43.3806 42.5469 43.0176 42.5139C43.1298 42.8703 43.2882 43.2663 42.8328 43.4247C41.8113 44.2322 40.5876 44.7436 39.2952 44.9031C40.9122 45.0219 42.582 44.7249 43.9614 43.8471C44.1462 43.6293 45.1032 43.3917 44.5686 43.2135C44.3178 43.1079 43.7766 42.9891 43.737 42.7977C44.4894 42.3357 45.4332 42.5007 46.2384 42.2301C46.2582 41.9661 45.6246 42.0387 45.387 41.9793C44.826 41.9331 44.859 41.7879 45.4002 41.7351C46.0866 41.5503 46.8654 41.5173 47.4462 41.0751C46.9776 40.8507 46.3836 41.0421 45.882 40.8639C46.7334 40.4943 47.7366 40.4547 48.5022 39.8937C48.852 39.5043 48.0534 39.6297 47.8224 39.6363C47.3538 39.7221 47.136 39.4911 47.6706 39.2997C48.588 38.6199 49.743 38.1843 50.3898 37.2075C50.5416 36.9897 50.7462 36.3297 50.2578 36.5607C49.6242 36.7785 49.0632 37.4913 48.3306 37.2735C49.7694 36.1581 51.129 34.8975 52.1124 33.3597C52.1652 32.9109 51.4656 32.8647 51.2874 33.2145C50.3634 34.0989 49.5318 35.1483 48.3504 35.7093C49.464 34.5958 50.431 33.3449 51.228 31.9869C51.4062 31.5909 51.8748 31.1091 51.624 30.6669C51.2082 30.3237 50.6934 30.6405 50.4822 31.0431C49.7628 31.9803 49.2216 33.0693 48.3042 33.8349C49.1028 32.2971 49.941 30.6537 49.9542 28.8849C49.9542 28.5153 49.8882 27.9741 49.3866 28.0467C48.9906 28.1127 49.0896 28.7067 48.9246 29.0037C48.5682 30.2181 48.3966 31.5315 47.6706 32.5875C47.8356 31.6041 48.1194 30.5745 47.9016 29.5845C47.796 29.1357 47.0766 29.3271 47.1756 29.7693C46.3176 34.1187 43.3938 37.9203 39.5856 40.1181C37.8366 41.1081 35.8896 41.7417 33.8964 42.0321C33.3684 42.1443 32.7876 42.0783 32.2794 42.2631C31.0386 43.2069 30.2928 44.7975 28.7286 45.2925C28.0224 45.6423 27.1116 45.7149 26.61 46.3617C26.5694 46.4481 26.5512 46.5435 26.5572 46.6389ZM29.9694 45.9591C29.7318 45.9723 29.5008 45.9987 29.2698 46.0713C28.9596 46.1175 28.6626 46.2231 28.359 46.2693L28.2336 46.2957L28.029 46.3155C28.0556 46.4261 28.0556 46.5414 28.029 46.6521C28.0076 46.7019 27.9761 46.7469 27.9366 46.7841C27.897 46.8369 27.8508 46.8765 27.7914 46.9029C27.7378 46.9292 27.6795 46.9449 27.6198 46.9491C27.5604 46.9491 27.501 46.9491 27.4416 46.9227C27.3822 46.9029 27.3294 46.8699 27.2766 46.8237L27.0918 46.8567H26.9202L26.7354 46.7907C26.6757 46.7673 26.6183 46.7386 26.5638 46.7049C26.3394 46.8369 26.0886 46.9623 25.95 47.1933C25.8856 47.2989 25.8492 47.4194 25.8444 47.5431C25.8312 47.7015 25.8708 47.8599 25.9368 48.0051C25.9632 48.0447 25.983 47.8533 26.0556 47.8269C26.181 47.7213 26.3394 47.6487 26.4978 47.6091C26.6298 47.5431 26.61 47.6091 26.5572 47.7147C26.544 47.7741 26.4714 47.9787 26.5704 47.8731C27.0268 47.7026 27.5089 47.6111 27.996 47.6025C28.6956 47.5299 29.3952 47.5101 30.0948 47.5035L32.0748 47.5431C32.3916 47.5563 32.7084 47.6223 33.0186 47.5695C33.0912 47.5497 33.21 47.5497 33.2562 47.5035C33.111 47.4243 32.946 47.4177 32.7942 47.3979H31.5336C31.1838 47.3649 30.8208 47.3583 30.4908 47.2263C30.3984 47.1933 30.3192 47.1075 30.2334 47.1999C30.1078 47.2447 29.9769 47.2736 29.844 47.2857C29.613 47.2989 29.382 47.2527 29.1708 47.1669C29.3226 46.9557 29.5074 46.7709 29.679 46.5729L29.2698 46.4871C29.514 46.3221 29.7318 46.1307 29.9694 45.9591Z" fill="#FFEC2D"/>
<path d="M27.5607 46.7377C27.6482 46.7377 27.7191 46.6668 27.7191 46.5793C27.7191 46.4918 27.6482 46.4209 27.5607 46.4209C27.4733 46.4209 27.4023 46.4918 27.4023 46.5793C27.4023 46.6668 27.4733 46.7377 27.5607 46.7377Z" fill="#FFEC2D"/>
<path d="M27.5465 46.6188C27.5829 46.6188 27.6125 46.5893 27.6125 46.5528C27.6125 46.5164 27.5829 46.4868 27.5465 46.4868C27.51 46.4868 27.4805 46.5164 27.4805 46.5528C27.4805 46.5893 27.51 46.6188 27.5465 46.6188Z" fill="#FFEC2D" stroke="#FFEC2D" stroke-width="0.0264"/>
</g>
<defs>
<clipPath id="clip0_1154_21755">
<rect width="64" height="64" rx="32" fill="white"/>
</clipPath>
</defs>
</svg>
