<svg width="64" height="64" viewBox="0 0 64 64" fill="none" xmlns="http://www.w3.org/2000/svg">
<g clip-path="url(#clip0_1154_21148)">
<rect width="64" height="64" rx="32" fill="white"/>
<path d="M13 0H101V66H13V0Z" fill="black"/>
<path fill-rule="evenodd" clip-rule="evenodd" d="M-21 0H109V66H-21V0Z" fill="white"/>
<path fill-rule="evenodd" clip-rule="evenodd" d="M-40 0H109V33H-40V0Z" fill="#DF0000"/>
<path fill-rule="evenodd" clip-rule="evenodd" d="M33.0757 5.52737C30.4712 6.08709 28.1386 7.52585 26.4694 9.60207C24.8003 11.6783 23.8962 14.2656 23.9091 16.9295C23.922 19.5935 24.8511 22.1719 26.5402 24.2318C28.2294 26.2918 30.5759 27.7079 33.1857 28.2424C31.6906 28.675 30.1249 28.8082 28.5782 28.6344C27.0315 28.4606 25.5343 27.9831 24.1726 27.2294C22.8108 26.4757 21.6113 25.4606 20.6427 24.2423C19.6741 23.024 18.9555 21.6265 18.5282 20.1299C17.6795 17.1215 18.0565 13.8995 19.5767 11.1682C21.0969 8.43702 23.6367 6.41881 26.6407 5.55487C28.8407 4.92237 30.8757 4.90862 33.0895 5.52737H33.0757Z" fill="white"/>
<path fill-rule="evenodd" clip-rule="evenodd" d="M31.2883 15.125L31.962 17.1875L30.1745 15.9225L28.4145 17.215L29.0608 15.125L27.3008 13.8463L29.487 13.8188L30.1745 11.7563L30.862 13.8188H33.0345L31.2883 15.125ZM33.6945 22.275L34.382 24.3513L32.5945 23.0863L30.8208 24.365L31.4808 22.2888L29.7208 20.9963L31.907 20.9825L32.5808 18.9063L33.2683 20.9688H35.4683L33.6945 22.275ZM41.7383 22.22L42.412 24.31L40.6245 23.0313L38.8645 24.31L39.5108 22.2338L37.7508 20.955L39.937 20.9275L40.6245 18.865L41.312 20.9275H43.4845L41.7383 22.22ZM44.1308 15.125L44.8045 17.2013L43.017 15.9363L41.257 17.215L41.917 15.1388L40.1433 13.8463L42.3433 13.8325L43.0033 11.7563L43.6908 13.8188H45.8908L44.1308 15.125ZM37.7645 10.4088L38.452 12.4988L36.6645 11.22L34.8908 12.5125L35.5508 10.4225L33.7908 9.13004L35.9633 9.11629L36.6508 7.04004L37.3383 9.10254H39.5383L37.7645 10.4088Z" fill="white"/>
</g>
<defs>
<clipPath id="clip0_1154_21148">
<rect width="64" height="64" rx="32" fill="white"/>
</clipPath>
</defs>
</svg>
