<svg width="24" height="24" viewBox="0 0 24 24" fill="none" xmlns="http://www.w3.org/2000/svg">
<rect opacity="0.12" x="4" y="2" width="16" height="16" rx="8" fill="#DF2C29"/>
<rect x="7" y="5" width="10" height="10" rx="5" stroke="#DF2C29" stroke-width="1.5" stroke-linecap="round" stroke-linejoin="round"/>
<path fill-rule="evenodd" clip-rule="evenodd" d="M12 1.25C7.16751 1.25 3.25 5.16751 3.25 10C3.25 12.6192 4.40081 14.9696 6.22439 16.5732L5.2621 21.8658C5.21842 22.1061 5.29441 22.3525 5.46578 22.5264C5.63716 22.7003 5.88246 22.7799 6.1233 22.7398L7.91468 22.4412C9.50243 22.1766 10.2472 22.0533 10.9933 22.004C11.6637 21.9596 12.3363 21.9596 13.0067 22.004C13.7527 22.0533 14.4976 22.1766 16.0853 22.4412L17.8767 22.7398C18.1175 22.7799 18.3628 22.7003 18.5342 22.5264C18.7056 22.3525 18.7816 22.1061 18.7379 21.8658L17.7756 16.5732C19.5992 14.9696 20.75 12.6192 20.75 10C20.75 5.16751 16.8325 1.25 12 1.25ZM16.4283 17.5483C15.1293 18.312 13.6158 18.75 12 18.75C10.3842 18.75 8.87067 18.312 7.57169 17.5483L6.92868 21.0849L7.66808 20.9616L7.7144 20.9539C9.24456 20.6989 10.0654 20.5621 10.8943 20.5072C11.6306 20.4585 12.3694 20.4585 13.1057 20.5072C13.9346 20.5621 14.7554 20.6989 16.2856 20.9539L16.2856 20.9539L16.3319 20.9616L17.0713 21.0849L16.4283 17.5483ZM4.75 10C4.75 5.99594 7.99593 2.75 12 2.75C16.0041 2.75 19.25 5.99594 19.25 10C19.25 14.0041 16.0041 17.25 12 17.25C7.99593 17.25 4.75 14.0041 4.75 10Z" fill="#DF2C29"/>
</svg>
