<svg width="24" height="24" viewBox="0 0 24 24" fill="none" xmlns="http://www.w3.org/2000/svg">
<path opacity="0.12" fill-rule="evenodd" clip-rule="evenodd" d="M7 2V2.2C7 3.88016 7 4.72024 6.67302 5.36197C6.3854 5.92646 5.92646 6.3854 5.36197 6.67302C4.72024 7 3.88016 7 2.2 7H2V13H2.2C3.88016 13 4.72024 13 5.36197 13.327C5.92646 13.6146 6.3854 14.0735 6.67302 14.638C7 15.2798 7 16.1198 7 17.8V18H17V17.8C17 16.1198 17 15.2798 17.327 14.638C17.6146 14.0735 18.0735 13.6146 18.638 13.327C19.2798 13 20.1198 13 21.8 13H22V7H21.8C20.1198 7 19.2798 7 18.638 6.67302C18.0735 6.3854 17.6146 5.92646 17.327 5.36197C17 4.72024 17 3.88016 17 2.2V2H7ZM11.9999 12.0005C13.1044 12.0005 13.9999 11.1051 13.9999 10.0005C13.9999 8.89592 13.1044 8.00049 11.9999 8.00049C10.8953 8.00049 9.99988 8.89592 9.99988 10.0005C9.99988 11.1051 10.8953 12.0005 11.9999 12.0005Z" fill="#DF2C29"/>
<path fill-rule="evenodd" clip-rule="evenodd" d="M8.367 1.25H8.4H15.6H15.633C16.7251 1.24999 17.5906 1.24999 18.2883 1.30699C19.0017 1.36527 19.6053 1.48688 20.1565 1.76772C21.0502 2.22312 21.7769 2.94978 22.2323 3.84355C22.5131 4.39472 22.6347 4.99835 22.693 5.71173C22.75 6.40935 22.75 7.27484 22.75 8.36698V8.4V11.6V11.633C22.75 12.7252 22.75 13.5906 22.693 14.2883C22.6347 15.0017 22.5131 15.6053 22.2323 16.1565C21.7769 17.0502 21.0502 17.7769 20.1565 18.2323C19.6053 18.5131 19.0017 18.6347 18.2883 18.693C17.5906 18.75 16.7252 18.75 15.633 18.75H15.6H8.4H8.36698C7.27485 18.75 6.40935 18.75 5.71173 18.693C4.99834 18.6347 4.39472 18.5131 3.84355 18.2323C2.94978 17.7769 2.22312 17.0502 1.76772 16.1565C1.48688 15.6053 1.36527 15.0017 1.30699 14.2883C1.24999 13.5906 1.24999 12.7251 1.25 11.633V11.6V8.4V8.367V8.36699C1.24999 7.27485 1.24999 6.40936 1.30699 5.71173C1.36527 4.99834 1.48688 4.39472 1.76772 3.84355C2.22312 2.94978 2.94978 2.22312 3.84355 1.76772C4.39472 1.48688 4.99834 1.36527 5.71173 1.30699C6.40936 1.24999 7.27485 1.24999 8.36699 1.25H8.367ZM5.83388 2.80201C5.21325 2.85271 4.829 2.94909 4.52453 3.10423C3.913 3.41582 3.41582 3.913 3.10423 4.52453C2.94909 4.829 2.85271 5.21325 2.80201 5.83388C2.79133 5.96456 2.78284 6.10278 2.7761 6.24991C3.34086 6.24941 3.7558 6.24603 4.09041 6.2232C4.4706 6.19726 4.692 6.14875 4.86104 6.07873C5.41235 5.85037 5.85037 5.41235 6.07873 4.86104C6.14875 4.692 6.19726 4.4706 6.2232 4.09041C6.24603 3.7558 6.24941 3.34086 6.24991 2.7761C6.10278 2.78284 5.96456 2.79133 5.83388 2.80201ZM2.75 8.4C2.75 8.17024 2.75002 7.95398 2.75049 7.74996C3.32471 7.74962 3.79858 7.74659 4.19252 7.71972C4.64908 7.68857 5.05279 7.62289 5.43506 7.46455C6.35392 7.08395 7.08395 6.35392 7.46455 5.43506C7.62289 5.05279 7.68857 4.64908 7.71972 4.19252C7.74659 3.79858 7.74962 3.32471 7.74996 2.75049C7.95398 2.75002 8.17024 2.75 8.4 2.75H15.6C15.8298 2.75 16.046 2.75002 16.25 2.75049C16.2504 3.32471 16.2534 3.79858 16.2803 4.19252C16.3114 4.64908 16.3771 5.05279 16.5355 5.43506C16.9161 6.35392 17.6461 7.08395 18.5649 7.46455C18.9472 7.62289 19.3509 7.68857 19.8075 7.71972C20.2014 7.74659 20.6753 7.74962 21.2495 7.74996C21.25 7.95398 21.25 8.17024 21.25 8.4V11.6C21.25 11.8298 21.25 12.046 21.2495 12.25C20.6753 12.2504 20.2014 12.2534 19.8075 12.2803C19.3509 12.3114 18.9472 12.3771 18.5649 12.5355C17.6461 12.9161 16.9161 13.6461 16.5355 14.5649C16.3771 14.9472 16.3114 15.3509 16.2803 15.8075C16.2534 16.2014 16.2504 16.6753 16.25 17.2495C16.046 17.25 15.8298 17.25 15.6 17.25H8.4C8.17024 17.25 7.95398 17.25 7.74996 17.2495C7.74962 16.6753 7.74659 16.2014 7.71972 15.8075C7.68857 15.3509 7.62289 14.9472 7.46455 14.5649C7.08395 13.6461 6.35392 12.9161 5.43506 12.5355C5.05279 12.3771 4.64908 12.3114 4.19252 12.2803C3.79858 12.2534 3.32471 12.2504 2.75049 12.25C2.75002 12.046 2.75 11.8298 2.75 11.6V8.4ZM2.7761 13.7501C2.78284 13.8972 2.79133 14.0354 2.80201 14.1661C2.85271 14.7867 2.94909 15.171 3.10423 15.4755C3.41582 16.087 3.913 16.5842 4.52453 16.8958C4.829 17.0509 5.21325 17.1473 5.83388 17.198C5.96456 17.2087 6.10278 17.2172 6.24991 17.2239C6.24941 16.6591 6.24603 16.2442 6.2232 15.9096C6.19726 15.5294 6.14875 15.308 6.07873 15.139C5.85037 14.5876 5.41235 14.1496 4.86104 13.9213C4.692 13.8513 4.4706 13.8027 4.09041 13.7768C3.7558 13.754 3.34086 13.7506 2.7761 13.7501ZM19.9096 13.7768C20.2442 13.754 20.6591 13.7506 21.2239 13.7501C21.2172 13.8972 21.2087 14.0354 21.198 14.1661C21.1473 14.7867 21.0509 15.171 20.8958 15.4755C20.5842 16.087 20.087 16.5842 19.4755 16.8958C19.171 17.0509 18.7867 17.1473 18.1661 17.198C18.0354 17.2087 17.8972 17.2172 17.7501 17.2239C17.7506 16.6591 17.754 16.2442 17.7768 15.9096C17.8027 15.5294 17.8513 15.308 17.9213 15.139C18.1496 14.5876 18.5876 14.1496 19.139 13.9213C19.308 13.8513 19.5294 13.8027 19.9096 13.7768ZM21.2239 6.24991C21.2172 6.10278 21.2087 5.96456 21.198 5.83388C21.1473 5.21325 21.0509 4.829 20.8958 4.52453C20.5842 3.913 20.087 3.41582 19.4755 3.10423C19.171 2.94909 18.7867 2.85271 18.1661 2.80201C18.0354 2.79133 17.8972 2.78284 17.7501 2.7761C17.7506 3.34086 17.754 3.7558 17.7768 4.09041C17.8027 4.4706 17.8513 4.692 17.9213 4.86104C18.1496 5.41235 18.5876 5.85037 19.139 6.07873C19.308 6.14875 19.5294 6.19726 19.9096 6.2232C20.2442 6.24603 20.6591 6.24941 21.2239 6.24991ZM11.9999 8.75049C11.3095 8.75049 10.7499 9.31013 10.7499 10.0005C10.7499 10.6908 11.3095 11.2505 11.9999 11.2505C12.6902 11.2505 13.2499 10.6908 13.2499 10.0005C13.2499 9.31013 12.6902 8.75049 11.9999 8.75049ZM9.24988 10.0005C9.24988 8.48171 10.4811 7.25049 11.9999 7.25049C13.5187 7.25049 14.7499 8.48171 14.7499 10.0005C14.7499 11.5193 13.5187 12.7505 11.9999 12.7505C10.4811 12.7505 9.24988 11.5193 9.24988 10.0005ZM5 21.25C4.58579 21.25 4.25 21.5858 4.25 22C4.25 22.4142 4.58579 22.75 5 22.75H19C19.4142 22.75 19.75 22.4142 19.75 22C19.75 21.5858 19.4142 21.25 19 21.25H5Z" fill="#DF2C29"/>
</svg>
