<svg width="24" height="24" viewBox="0 0 24 24" fill="none" xmlns="http://www.w3.org/2000/svg">
<path opacity="0.12" fill-rule="evenodd" clip-rule="evenodd" d="M6 20C8.20914 20 10 18.2091 10 16C10 13.7909 8.20914 12 6 12C3.79086 12 2 13.7909 2 16C2 18.2091 3.79086 20 6 20ZM18 20C20.2091 20 22 18.2091 22 16C22 13.7909 20.2091 12 18 12C15.7909 12 14 13.7909 14 16C14 18.2091 15.7909 20 18 20Z" fill="#DF2C29"/>
<path fill-rule="evenodd" clip-rule="evenodd" d="M5.62413 3.58405C5.85389 3.9287 5.76076 4.39435 5.41611 4.62412L3.84107 5.67414C3.28124 6.04737 3.13557 6.15366 3.03441 6.27675C2.93007 6.4037 2.85178 6.54998 2.80403 6.70722C2.75773 6.85967 2.75009 7.03983 2.75009 7.71267V12.536C3.59974 11.7385 4.74288 11.2501 6.00009 11.2501C8.28437 11.2501 10.1921 12.8625 10.647 15.0113C11.0139 14.8553 11.4623 14.7501 12.0005 14.7501C12.5383 14.7501 12.9865 14.8552 13.3532 15.0111C13.8083 12.8624 15.7159 11.2501 18.0001 11.2501C19.2574 11.2501 20.4007 11.7386 21.2503 12.5362L21.2502 7.71262C21.2501 7.03981 21.2425 6.85966 21.1962 6.70721C21.1484 6.54998 21.0701 6.40371 20.9658 6.27676C20.8646 6.15368 20.719 6.0474 20.1592 5.67419L18.5841 4.62412C18.2394 4.39435 18.1463 3.9287 18.3761 3.58405C18.6058 3.23941 19.0715 3.14628 19.4161 3.37604L20.9912 4.42611L21.0693 4.47808C21.514 4.77413 21.8637 5.00688 22.1246 5.32431C22.3542 5.60359 22.5264 5.92539 22.6314 6.2713C22.7509 6.66446 22.7506 7.08452 22.7502 7.6188L22.7502 7.71257L22.7505 16.0001C22.7505 16.0087 22.7503 16.0173 22.75 16.0259C22.7361 18.6374 20.6148 20.7501 18.0001 20.7501C15.6585 20.7501 13.7127 19.0558 13.3217 16.8263C13.3157 16.8174 13.308 16.8064 13.2985 16.7937C13.2598 16.7421 13.1934 16.6651 13.0942 16.5857C12.9052 16.4344 12.5683 16.2501 12.0005 16.2501C11.4326 16.2501 11.0954 16.4345 10.9062 16.5858C10.8068 16.6653 10.7403 16.7424 10.7016 16.794C10.6921 16.8066 10.6844 16.8176 10.6785 16.8264C10.2874 19.0558 8.34159 20.7501 6.00009 20.7501C3.37673 20.7501 1.25009 18.6234 1.25009 16.0001V7.71267L1.25004 7.6189C1.24965 7.0846 1.24935 6.66452 1.36875 6.27134C1.47381 5.92542 1.64604 5.6036 1.87559 5.32431C2.1365 5.00686 2.48619 4.7741 2.93097 4.47805L2.93097 4.47805L2.93098 4.47805L3.00902 4.42607L4.58406 3.37604C4.92871 3.14628 5.39436 3.23941 5.62413 3.58405ZM2.75009 16.0001V15.997C2.75175 14.2035 4.20619 12.7501 6.00009 12.7501C7.79501 12.7501 9.25009 14.2052 9.25009 16.0001C9.25009 17.795 7.79501 19.2501 6.00009 19.2501C4.20561 19.2501 2.75081 17.7957 2.75009 16.0014L2.75009 16.0001ZM14.7501 16.0001C14.7501 14.2052 16.2052 12.7501 18.0001 12.7501C19.795 12.7501 21.2501 14.2052 21.2501 16.0001C21.2501 17.795 19.795 19.2501 18.0001 19.2501C16.2052 19.2501 14.7501 17.795 14.7501 16.0001Z" fill="#DF2C29"/>
</svg>
