<svg width="24" height="24" viewBox="0 0 24 24" fill="none" xmlns="http://www.w3.org/2000/svg">
<rect opacity="0.12" x="4" y="6" width="16" height="16" rx="8" fill="#DF2C29"/>
<path fill-rule="evenodd" clip-rule="evenodd" d="M11.1696 1.25H11.2H12.8H12.8304H12.8304C13.3646 1.24999 13.8104 1.24998 14.1747 1.27974C14.5546 1.31078 14.9112 1.37789 15.2485 1.54973C15.7659 1.81339 16.1866 2.23408 16.4503 2.75153C16.6221 3.08879 16.6892 3.44545 16.7203 3.82533C16.75 4.18955 16.75 4.63538 16.75 5.16951V5.16955V5.2V6.65029C19.1572 8.20922 20.75 10.9186 20.75 14C20.75 18.8325 16.8325 22.75 12 22.75C7.16751 22.75 3.25 18.8325 3.25 14C3.25 10.9186 4.84281 8.20922 7.25 6.65029V5.2L7.25 5.16957V5.16956V5.16956C7.24999 4.63541 7.24998 4.18956 7.27974 3.82533C7.31078 3.44545 7.37789 3.08879 7.54973 2.75153C7.81338 2.23408 8.23408 1.81339 8.75153 1.54973C9.08879 1.37789 9.44545 1.31078 9.82533 1.27974C10.1896 1.24998 10.6354 1.24999 11.1696 1.25H11.1696ZM15.25 5.2V5.87346C14.2452 5.47125 13.1484 5.25 12 5.25C10.8516 5.25 9.75479 5.47125 8.75 5.87346V5.2C8.75 4.62757 8.75058 4.24336 8.77476 3.94748C8.79822 3.66036 8.8401 3.52307 8.88624 3.43251C9.00608 3.19731 9.19731 3.00608 9.43251 2.88624C9.52307 2.8401 9.66035 2.79822 9.94748 2.77476C10.2434 2.75058 10.6276 2.75 11.2 2.75H12.8C13.3724 2.75 13.7566 2.75058 14.0525 2.77476C14.3396 2.79822 14.4769 2.8401 14.5675 2.88624C14.8027 3.00608 14.9939 3.19731 15.1138 3.43251C15.1599 3.52307 15.2018 3.66036 15.2252 3.94748C15.2494 4.24336 15.25 4.62757 15.25 5.2ZM12 6.75C7.99594 6.75 4.75 9.99594 4.75 14C4.75 18.0041 7.99594 21.25 12 21.25C16.0041 21.25 19.25 18.0041 19.25 14C19.25 9.99594 16.0041 6.75 12 6.75ZM12.75 13C12.75 12.5858 12.4142 12.25 12 12.25C11.5858 12.25 11.25 12.5858 11.25 13V15C11.25 15.4142 11.5858 15.75 12 15.75C12.4142 15.75 12.75 15.4142 12.75 15V13Z" fill="#DF2C29"/>
</svg>
