<svg width="24" height="24" viewBox="0 0 24 24" fill="none" xmlns="http://www.w3.org/2000/svg">
<path opacity="0.12" d="M18.9522 15.7381L19.6605 15.9151C20.4461 16.1115 20.8389 16.2097 21.1388 16.4174C21.4725 16.6486 21.7279 16.9757 21.8712 17.3555C22 17.6968 22 18.0916 22 18.8811C22 19.8953 22 20.4024 21.7915 20.8225C21.5771 21.2546 21.1194 21.6595 20.6644 21.8198C20.2221 21.9756 19.7876 21.9223 18.9186 21.8158C15.8039 21.4338 13.0221 20.467 10.6579 19C8.23342 17.4956 6.24802 15.4652 4.79292 13C3.44179 10.7109 2.54788 8.04699 2.18421 5.08119C2.07767 4.21233 2.02441 3.77791 2.18022 3.33555C2.34048 2.88055 2.74541 2.42294 3.17752 2.20849C3.59762 2 4.09459 2 5.08854 2C5.89832 2 6.30321 2 6.6445 2.12877C7.02426 2.27206 7.35144 2.52752 7.58256 2.86119C7.79026 3.16105 7.88846 3.55385 8.08486 4.33945L8.08486 4.33946L8.20715 4.82862L8.20716 4.82863C8.49761 5.99044 8.64284 6.57135 8.62096 7.14144C8.60158 7.64628 8.48674 8.14289 8.28251 8.60499C8.05189 9.1268 7.66637 9.58498 6.89534 10.5013L4.79292 13C6.24802 15.4652 8.23342 17.4956 10.6579 19L13.5641 16.8239L13.5641 16.8239C14.459 16.1539 14.9064 15.8188 15.4047 15.6219C15.8462 15.4474 16.3151 15.3529 16.7897 15.3428C17.3254 15.3313 17.8677 15.4669 18.9522 15.7381Z" fill="#BF1D29"/>
<path fill-rule="evenodd" clip-rule="evenodd" d="M6.37971 2.83063C6.19768 2.76194 5.96102 2.75015 5.08852 2.75015C4.57881 2.75015 4.24376 2.75079 3.98252 2.77341C3.73485 2.79486 3.60708 2.83273 3.51091 2.88045C3.25373 3.00809 2.98298 3.31406 2.8876 3.58486C2.80285 3.82548 2.81457 4.05991 2.92862 4.99006C3.23168 7.46159 3.91348 9.70513 4.92295 11.6807L6.32144 10.0186C7.1211 9.06824 7.4193 8.7029 7.5965 8.30196C7.76244 7.9265 7.85575 7.52301 7.87149 7.11282C7.8883 6.67478 7.78077 6.21562 7.47953 5.01066L7.35724 4.52151C7.14563 3.67506 7.07679 3.44833 6.966 3.28839C6.82155 3.07984 6.61706 2.92019 6.37971 2.83063ZM5.71436 13.0699L7.4692 10.9844C7.49432 10.9545 7.51914 10.925 7.54365 10.8959C8.2434 10.0646 8.69406 9.52924 8.96848 8.90832C9.21101 8.35957 9.34738 7.76985 9.37039 7.17035C9.39642 6.49198 9.22656 5.81312 8.9628 4.75903C8.95356 4.72211 8.94421 4.68472 8.93474 4.64686L8.81245 4.1577C8.80226 4.11694 8.79224 4.0767 8.78235 4.03698C8.61635 3.37045 8.48657 2.84933 8.19909 2.43429C7.8813 1.97548 7.43143 1.62423 6.90925 1.42721C6.43687 1.24897 5.89983 1.24945 5.21294 1.25007C5.17201 1.25011 5.13054 1.25015 5.08852 1.25015L5.05801 1.25014C4.58702 1.25013 4.1867 1.25012 3.85313 1.279C3.4988 1.30968 3.16802 1.37606 2.84409 1.53682C2.23704 1.83809 1.69795 2.44733 1.4728 3.08653C1.25741 3.69802 1.33197 4.30081 1.42481 5.0513C1.42976 5.09131 1.43476 5.13174 1.43977 5.17262C1.81498 8.23256 2.73938 10.9966 4.14702 13.3814C5.66356 15.9507 7.73479 18.069 10.2624 19.6374C12.7265 21.1664 15.6136 22.1662 18.8273 22.5603C18.8682 22.5653 18.9086 22.5703 18.9486 22.5753C19.6992 22.6682 20.3021 22.7427 20.9136 22.5273C21.5528 22.3022 22.162 21.7631 22.4633 21.1561C22.6248 20.8306 22.6908 20.4961 22.7212 20.1384C22.75 19.8003 22.75 19.3929 22.75 18.9117V18.8813C22.75 18.8408 22.75 18.8009 22.7501 18.7614C22.7507 18.0901 22.7511 17.5632 22.5729 17.0909C22.3759 16.5687 22.0246 16.1188 21.5658 15.801C21.1508 15.5136 20.6297 15.3838 19.9631 15.2178C19.9234 15.2079 19.8832 15.1979 19.8424 15.1877L19.1341 15.0106C19.0989 15.0018 19.0642 14.9931 19.0298 14.9845C18.0453 14.7382 17.4111 14.5795 16.7737 14.5931C16.2101 14.6051 15.6532 14.7173 15.129 14.9245C14.5361 15.1589 14.0128 15.5508 13.2006 16.1593C13.1723 16.1805 13.1436 16.202 13.1145 16.2237L10.6247 18.088C8.64357 16.7758 6.98811 15.0846 5.71436 13.0699ZM12.0174 18.9191C14.0654 20.0157 16.4117 20.7529 19.0099 21.0715C19.9402 21.1856 20.1746 21.1973 20.4153 21.1125C20.6861 21.0172 20.992 20.7464 21.1197 20.4892C21.1666 20.3946 21.205 20.2654 21.2266 20.0111C21.2494 19.7442 21.25 19.401 21.25 18.8813C21.25 18.0313 21.2384 17.8029 21.1695 17.6204C21.0799 17.3831 20.9203 17.1786 20.7117 17.0341C20.5518 16.9233 20.3251 16.8545 19.4786 16.6429L18.7703 16.4658C17.6457 16.1847 17.2174 16.084 16.8057 16.0927C16.4201 16.101 16.039 16.1778 15.6804 16.3195C15.2974 16.4709 14.9415 16.7297 14.0136 17.4244L12.0174 18.9191Z" fill="#BF1D29"/>
</svg>
