<svg width="24" height="24" viewBox="0 0 24 24" fill="none" xmlns="http://www.w3.org/2000/svg">
<path opacity="0.12" fill-rule="evenodd" clip-rule="evenodd" d="M12 22C17.5228 22 22 17.5228 22 12C22 6.47715 17.5228 2 12 2C6.47715 2 2 6.47715 2 12C2 17.5228 6.47715 22 12 22ZM9.99988 9.5C9.99988 10.3284 9.32831 11 8.49988 11C7.67145 11 6.99988 10.3284 6.99988 9.5C6.99988 8.67157 7.67145 8 8.49988 8C9.32831 8 9.99988 8.67157 9.99988 9.5ZM15.4999 16C16.3283 16 16.9999 15.3284 16.9999 14.5C16.9999 13.6716 16.3283 13 15.4999 13C14.6715 13 13.9999 13.6716 13.9999 14.5C13.9999 15.3284 14.6715 16 15.4999 16Z" fill="#DF2C29"/>
<path fill-rule="evenodd" clip-rule="evenodd" d="M2.75 12C2.75 6.89137 6.89137 2.75 12 2.75C17.1086 2.75 21.25 6.89137 21.25 12C21.25 17.1086 17.1086 21.25 12 21.25C6.89137 21.25 2.75 17.1086 2.75 12ZM12 1.25C6.06294 1.25 1.25 6.06294 1.25 12C1.25 17.9371 6.06294 22.75 12 22.75C17.9371 22.75 22.75 17.9371 22.75 12C22.75 6.06294 17.9371 1.25 12 1.25ZM15.643 7.38587C15.8561 7.03069 15.7409 6.56999 15.3857 6.35688C15.0306 6.14377 14.5699 6.25894 14.3568 6.61413L8.35676 16.6141C8.14365 16.9693 8.25882 17.43 8.61401 17.6431C8.96919 17.8562 9.42989 17.7411 9.643 17.3859L15.643 7.38587ZM8.49988 8.75C8.08566 8.75 7.74988 9.08579 7.74988 9.5C7.74988 9.91421 8.08566 10.25 8.49988 10.25C8.91409 10.25 9.24988 9.91421 9.24988 9.5C9.24988 9.08579 8.91409 8.75 8.49988 8.75ZM6.24988 9.5C6.24988 8.25736 7.25724 7.25 8.49988 7.25C9.74252 7.25 10.7499 8.25736 10.7499 9.5C10.7499 10.7426 9.74252 11.75 8.49988 11.75C7.25724 11.75 6.24988 10.7426 6.24988 9.5ZM14.7499 14.5C14.7499 14.0858 15.0857 13.75 15.4999 13.75C15.9141 13.75 16.2499 14.0858 16.2499 14.5C16.2499 14.9142 15.9141 15.25 15.4999 15.25C15.0857 15.25 14.7499 14.9142 14.7499 14.5ZM15.4999 12.25C14.2572 12.25 13.2499 13.2574 13.2499 14.5C13.2499 15.7426 14.2572 16.75 15.4999 16.75C16.7425 16.75 17.7499 15.7426 17.7499 14.5C17.7499 13.2574 16.7425 12.25 15.4999 12.25Z" fill="#DF2C29"/>
</svg>
