<svg width="24" height="24" viewBox="0 0 24 24" fill="none" xmlns="http://www.w3.org/2000/svg">
<path opacity="0.12" fill-rule="evenodd" clip-rule="evenodd" d="M15.6 6H2V15.6C2 17.8402 2 18.9603 2.43597 19.816C2.81947 20.5686 3.43139 21.1805 4.18404 21.564C5.03969 22 6.15979 22 8.4 22H15.6C17.8402 22 18.9603 22 19.816 21.564C20.5686 21.1805 21.1805 20.5686 21.564 19.816C21.8979 19.1606 21.9761 18.3501 21.9944 17H21C19.3431 17 18 15.6569 18 14C18 12.3431 19.3431 11 21 11H21.9944C21.9761 9.6499 21.8979 8.8394 21.564 8.18404C21.1805 7.43139 20.5686 6.81947 19.816 6.43597C18.9603 6 17.8402 6 15.6 6Z" fill="#DF2C29"/>
<path fill-rule="evenodd" clip-rule="evenodd" d="M10.8 2.75003C12.0168 2.75003 12.4787 2.75681 12.8925 2.87498C13.28 2.98564 13.6435 3.16741 13.9645 3.411C14.3073 3.67112 14.5899 4.03659 15.32 5.01003L15.5 5.25003L12 5.25003L4 5.25003C3.30964 5.25003 2.75 4.69039 2.75 4.00003C2.75 3.30967 3.30964 2.75003 4 2.75003H10.8ZM1.25 4.00003C1.25 2.48125 2.48122 1.25003 4 1.25003H10.8L10.9131 1.25001C11.9779 1.2498 12.6637 1.24966 13.3044 1.43265C13.8708 1.59439 14.4021 1.86004 14.8713 2.21607C15.4021 2.61886 15.8134 3.16757 16.4521 4.01949L16.4521 4.0195L16.52 4.11003L17.3846 5.26277C17.7141 5.27103 18.0141 5.28462 18.2883 5.30702C19.0017 5.3653 19.6053 5.48691 20.1565 5.76775C21.0502 6.22315 21.7769 6.94981 22.2323 7.84358C22.5131 8.39475 22.6347 8.99837 22.693 9.71176C22.75 10.4094 22.75 11.2749 22.75 12.367V12.4V15.6V15.6331C22.75 16.7252 22.75 17.5907 22.693 18.2883C22.6347 19.0017 22.5131 19.6053 22.2323 20.1565C21.7769 21.0503 21.0502 21.7769 20.1565 22.2323C19.6053 22.5131 19.0017 22.6348 18.2883 22.693C17.5906 22.75 16.7252 22.75 15.633 22.75H15.6H8.4H8.36698C7.27485 22.75 6.40935 22.75 5.71173 22.693C4.99834 22.6348 4.39472 22.5131 3.84355 22.2323C2.94978 21.7769 2.22312 21.0503 1.76772 20.1565C1.48688 19.6053 1.36527 19.0017 1.30699 18.2883C1.24999 17.5907 1.24999 16.7252 1.25 15.633V15.6V4.00003ZM15.6 6.75003C16.7325 6.75003 17.5367 6.75061 18.1661 6.80204C18.7867 6.85274 19.171 6.94912 19.4755 7.10426C20.087 7.41585 20.5842 7.91303 20.8958 8.52456C21.0509 8.82903 21.1473 9.21328 21.198 9.83391C21.2087 9.96462 21.2172 10.1029 21.2239 10.25H21C18.9289 10.25 17.25 11.929 17.25 14C17.25 16.0711 18.9289 17.75 21 17.75H21.2239C21.2172 17.8972 21.2087 18.0354 21.198 18.1661C21.1473 18.7868 21.0509 19.171 20.8958 19.4755C20.5842 20.087 20.087 20.5842 19.4755 20.8958C19.171 21.0509 18.7867 21.1473 18.1661 21.198C17.5367 21.2494 16.7325 21.25 15.6 21.25H8.4C7.26752 21.25 6.46327 21.2494 5.83388 21.198C5.21325 21.1473 4.829 21.0509 4.52453 20.8958C3.913 20.5842 3.41582 20.087 3.10423 19.4755C2.94909 19.171 2.85271 18.7868 2.80201 18.1661C2.75058 17.5368 2.75 16.7325 2.75 15.6V6.45018C3.12503 6.64189 3.54989 6.75003 4 6.75003H11.9991L12 6.75003H15.6ZM21 11.75H21.2495C21.25 11.954 21.25 12.1703 21.25 12.4V15.6C21.25 15.8298 21.25 16.046 21.2495 16.25H21C19.7574 16.25 18.75 15.2427 18.75 14C18.75 12.7574 19.7574 11.75 21 11.75ZM10.75 11.5C10.75 11.0858 10.4142 10.75 10 10.75C9.58579 10.75 9.25 11.0858 9.25 11.5V13.25H7.5C7.08579 13.25 6.75 13.5858 6.75 14C6.75 14.4142 7.08579 14.75 7.5 14.75H9.25V16.5C9.25 16.9142 9.58579 17.25 10 17.25C10.4142 17.25 10.75 16.9142 10.75 16.5V14.75H12.5C12.9142 14.75 13.25 14.4142 13.25 14C13.25 13.5858 12.9142 13.25 12.5 13.25H10.75V11.5Z" fill="#DF2C29"/>
</svg>
